G75*
G70*
%OFA0B0*%
%FSLAX24Y24*%
%IPPOS*%
%LPD*%
%AMOC8*
5,1,8,0,0,1.08239X$1,22.5*
%
%ADD10C,0.0520*%
%ADD11C,0.0554*%
%ADD12R,0.1260X0.0709*%
%ADD13OC8,0.0860*%
%ADD14OC8,0.0520*%
%ADD15C,0.0600*%
%ADD16C,0.0560*%
%ADD17C,0.0700*%
%ADD18C,0.1000*%
%ADD19OC8,0.1000*%
%ADD20C,0.0600*%
%ADD21OC8,0.0600*%
%ADD22OC8,0.0660*%
%ADD23C,0.1000*%
%ADD24C,0.0594*%
%ADD25OC8,0.0700*%
%ADD26C,0.0554*%
%ADD27OC8,0.1250*%
%ADD28C,0.0160*%
%ADD29C,0.0400*%
%ADD30C,0.0500*%
%ADD31C,0.0860*%
%ADD32R,0.0396X0.0396*%
%ADD33C,0.0240*%
%ADD34C,0.0700*%
%ADD35C,0.0120*%
%ADD36C,0.0260*%
%ADD37C,0.0320*%
%ADD38C,0.1969*%
D10*
X031273Y027591D02*
X031273Y028111D01*
X032273Y028111D02*
X032273Y027591D01*
X033273Y027591D02*
X033273Y028111D01*
X034273Y028111D02*
X034273Y027591D01*
X034273Y030591D02*
X034273Y031111D01*
X033273Y031111D02*
X033273Y030591D01*
X032273Y030591D02*
X032273Y031111D01*
X031273Y031111D02*
X031273Y030591D01*
X033344Y022663D02*
X033864Y022663D01*
X033864Y021663D02*
X033344Y021663D01*
X033344Y020663D02*
X033864Y020663D01*
D11*
X038633Y021067D02*
X039187Y021067D01*
X040133Y021567D02*
X040687Y021567D01*
X040687Y022567D02*
X040133Y022567D01*
X039187Y023067D02*
X038633Y023067D01*
X038633Y024067D02*
X039187Y024067D01*
X040133Y023567D02*
X040687Y023567D01*
X039187Y022067D02*
X038633Y022067D01*
X031672Y035675D02*
X031672Y036229D01*
X030672Y036229D02*
X030672Y035675D01*
X029672Y035675D02*
X029672Y036229D01*
D12*
X038316Y028560D03*
X038316Y026355D03*
D13*
X038316Y025473D03*
X038316Y029458D03*
D14*
X035448Y030351D03*
X035448Y028351D03*
X035973Y026126D03*
X035966Y025244D03*
X035966Y024344D03*
X035466Y022594D03*
X035466Y021469D03*
X037466Y021469D03*
X037466Y022594D03*
X039110Y025076D03*
X041110Y025076D03*
X033966Y025244D03*
X033973Y026126D03*
X033966Y024344D03*
X031860Y024326D03*
X031941Y022419D03*
X031941Y021644D03*
X029941Y021644D03*
X029941Y022419D03*
X029660Y026001D03*
X028666Y027033D03*
X028666Y028008D03*
X028666Y028869D03*
X028666Y029733D03*
X028666Y030544D03*
X028641Y031394D03*
X029616Y032283D03*
X030098Y030351D03*
X030098Y028351D03*
X031860Y026326D03*
X026666Y027033D03*
X026666Y028008D03*
X026666Y028869D03*
X026666Y029733D03*
X026666Y030544D03*
X026641Y032283D03*
X027616Y032283D03*
X024641Y032283D03*
X024641Y031394D03*
X020816Y035594D03*
X019473Y037051D03*
X019473Y037876D03*
X020816Y037594D03*
X017473Y037876D03*
X017473Y037051D03*
X013560Y036701D03*
X013560Y037476D03*
X011560Y037476D03*
X011560Y036701D03*
X010841Y035933D03*
X010841Y033933D03*
X025660Y026001D03*
X032273Y032126D03*
X032273Y034126D03*
D15*
X040810Y028685D02*
X041410Y028685D01*
X041410Y027685D02*
X040810Y027685D01*
X040810Y026685D02*
X041410Y026685D01*
X019473Y038786D02*
X019473Y039386D01*
X018473Y039386D02*
X018473Y038786D01*
X017473Y038786D02*
X017473Y039386D01*
X013567Y039386D02*
X013567Y038786D01*
X012567Y038786D02*
X012567Y039386D01*
X011567Y039386D02*
X011567Y038786D01*
D16*
X028960Y020801D03*
X031960Y020801D03*
D17*
X028791Y023051D03*
X028791Y024476D03*
X024791Y024476D03*
X024791Y023051D03*
X037081Y029302D03*
X037081Y033302D03*
D18*
X018135Y033101D03*
X008491Y038644D03*
D19*
X008491Y036644D03*
X018135Y035101D03*
D20*
X012548Y032801D03*
X005698Y032751D03*
D21*
X005698Y034751D03*
X007698Y034751D03*
X007698Y032751D03*
X012548Y034801D03*
X014548Y034801D03*
X014548Y032801D03*
D22*
X012576Y007494D03*
X010607Y007494D03*
D23*
X015098Y007833D02*
X015098Y006833D01*
X017066Y006833D02*
X017066Y007833D01*
X038316Y026355D02*
X041146Y026355D01*
X041110Y027685D02*
X040285Y027683D01*
X039866Y028101D01*
X039866Y030776D01*
X040041Y030951D01*
X040041Y030955D02*
X040392Y031305D01*
X040892Y031305D02*
X039892Y031305D01*
X039892Y033274D02*
X040892Y033274D01*
D24*
X024849Y030137D02*
X024256Y030137D01*
X024256Y029137D02*
X024849Y029137D01*
X024849Y028137D02*
X024256Y028137D01*
X024256Y027137D02*
X024849Y027137D01*
D25*
X021166Y032446D03*
X021166Y032446D03*
D26*
X023378Y035409D03*
X024378Y035409D03*
X035977Y035409D03*
X036977Y035409D03*
D27*
X035578Y017947D03*
X035578Y016963D03*
X033607Y016962D03*
X033607Y017946D03*
X031641Y016963D03*
X029673Y016963D03*
X029673Y017947D03*
X027704Y017947D03*
X027704Y016963D03*
X027704Y009089D03*
X027704Y008105D03*
X029673Y009089D03*
X033610Y009089D03*
X035578Y009089D03*
X035578Y008105D03*
X019597Y014745D03*
X019597Y016714D03*
X019597Y018682D03*
X019597Y020651D03*
X019597Y022619D03*
X019597Y024588D03*
X019597Y026556D03*
X007786Y026556D03*
X007786Y024588D03*
X007786Y022619D03*
X007786Y018682D03*
X007786Y016714D03*
X007786Y014745D03*
D28*
X024641Y031394D02*
X024641Y032283D01*
X024641Y035146D01*
X024378Y035409D01*
X024653Y031387D02*
X025660Y030380D01*
X025660Y026001D01*
X026416Y026476D02*
X031741Y026476D01*
X031860Y026358D01*
X031860Y026326D01*
X033773Y026326D01*
X033973Y026126D01*
X034453Y026312D02*
X034453Y025737D01*
X033978Y025262D01*
X034453Y026312D02*
X033739Y027026D01*
X032278Y027026D01*
X032273Y027031D01*
X032273Y027851D01*
X032278Y027026D02*
X028666Y027026D01*
X027691Y027033D02*
X028666Y028008D01*
X029760Y029101D01*
X032291Y029101D01*
X033273Y030083D01*
X033273Y030851D01*
X032273Y030851D02*
X032273Y032126D01*
X032273Y030851D02*
X032273Y030583D01*
X031423Y029733D01*
X028666Y029733D01*
X028666Y030544D02*
X028785Y030544D01*
X029128Y030887D01*
X029128Y034062D01*
X030672Y035606D01*
X030672Y035952D01*
X031672Y035952D02*
X031672Y035706D01*
X029616Y033651D01*
X029616Y032283D01*
X028641Y031394D02*
X027510Y031394D01*
X026678Y030562D01*
X026666Y030544D02*
X026666Y029733D01*
X026666Y028869D01*
X026666Y028008D02*
X026373Y028008D01*
X026116Y027751D01*
X026116Y026776D01*
X026416Y026476D01*
X026666Y027033D02*
X027691Y027033D01*
X031941Y022419D02*
X031941Y021644D01*
X031941Y020819D01*
X031960Y020801D01*
X031941Y021644D02*
X031960Y021663D01*
X033604Y021663D01*
X035466Y021469D02*
X035466Y022576D01*
X038466Y023576D02*
X040578Y023576D01*
X040410Y023567D01*
X039766Y024076D02*
X039085Y024076D01*
X038910Y024067D01*
X039766Y024076D02*
X040766Y025076D01*
X041110Y025076D01*
X039110Y025076D02*
X038714Y025076D01*
X038316Y025473D01*
X038289Y025501D01*
X037391Y025501D01*
X036766Y026126D01*
X035973Y026126D01*
X037341Y027401D02*
X036341Y028401D01*
X036341Y034776D01*
X036966Y035401D01*
X034878Y034112D02*
X034878Y028676D01*
X037341Y027401D02*
X037991Y027401D01*
X038316Y027076D01*
X038316Y026355D01*
X034878Y034112D02*
X032228Y036762D01*
X030053Y036762D01*
X029672Y036381D01*
X029672Y035952D01*
X013560Y036144D02*
X013491Y036076D01*
X013560Y036144D02*
X013560Y036701D01*
X012567Y036700D02*
X011800Y035933D01*
X010841Y035933D01*
D29*
X019473Y037970D02*
X021329Y036113D01*
X023516Y033926D01*
X023516Y026576D01*
X024741Y025351D01*
X027916Y025351D01*
X028791Y024476D01*
X028766Y023751D02*
X024366Y023751D01*
X022791Y025326D01*
X022791Y030126D01*
X026641Y032276D02*
X026641Y034026D01*
X033341Y033976D02*
X033341Y032551D01*
X035166Y023751D02*
X028766Y023751D01*
X030666Y023251D02*
X035791Y023251D01*
X037466Y021576D01*
X037466Y021469D01*
X037485Y022576D02*
X037466Y022594D01*
X037466Y022601D02*
X036316Y023751D01*
X035166Y023751D01*
X035466Y022576D02*
X035466Y020776D01*
X034616Y019926D01*
X027916Y019926D01*
X024791Y023051D01*
D30*
X029673Y017947D02*
X029673Y016963D01*
X028097Y015387D01*
X026003Y015387D01*
X024078Y013462D01*
X018028Y013462D01*
X015916Y015574D01*
X015916Y031433D01*
X014548Y032801D01*
X013566Y032151D02*
X013566Y033783D01*
X012548Y034801D01*
X013116Y036076D02*
X013491Y036076D01*
X018916Y036076D01*
X022791Y032201D01*
X022791Y030126D01*
X015016Y030701D02*
X013566Y032151D01*
X015016Y030701D02*
X015016Y015174D01*
X017603Y012587D01*
X024603Y012587D01*
X026378Y014362D01*
X031008Y014362D01*
X033607Y016962D01*
X033607Y017946D01*
X033755Y010912D02*
X035578Y009089D01*
X035578Y008105D01*
X033755Y010912D02*
X025703Y010912D01*
X025078Y010287D01*
X012378Y010287D01*
X010607Y008517D01*
X010607Y007494D01*
X038316Y028560D02*
X038316Y028676D01*
X019473Y037970D02*
X019473Y039086D01*
X013116Y036076D02*
X012567Y036625D01*
X012567Y036700D01*
X012567Y039086D01*
D31*
X038316Y031899D02*
X038316Y029458D01*
X038316Y028676D01*
X038316Y031899D02*
X039691Y033274D01*
X040392Y033274D01*
D32*
X035441Y033051D03*
X033341Y032526D03*
X033341Y034026D03*
X030266Y033051D03*
X026641Y034026D03*
X022791Y030126D03*
X030666Y023251D03*
X035166Y023751D03*
D33*
X033273Y027851D02*
X033273Y028458D01*
X033491Y028676D01*
X034878Y028676D01*
X035091Y028676D01*
X035441Y028326D01*
X035441Y030351D02*
X035441Y033051D01*
X030266Y033051D02*
X030266Y030501D01*
X030116Y030351D01*
X030098Y030351D01*
X021341Y036126D02*
X021329Y036113D01*
X020816Y035601D01*
X020816Y035594D01*
D34*
X038316Y026355D02*
X038316Y025473D01*
D35*
X037891Y024151D02*
X037541Y024151D01*
X036448Y025244D01*
X035966Y025244D01*
X036441Y024801D02*
X037391Y023851D01*
X038191Y023851D01*
X037891Y024151D01*
X038191Y023851D02*
X038466Y023576D01*
X037241Y023576D01*
X037228Y023587D02*
X036446Y024369D01*
X035966Y024344D01*
X036441Y024801D02*
X032466Y024801D01*
X031266Y026001D01*
X029660Y026001D01*
X041110Y026685D02*
X041146Y026649D01*
X041146Y026355D01*
X011560Y036701D02*
X011560Y037476D01*
X011567Y037483D01*
X011567Y039086D01*
D36*
X038231Y022561D02*
X039631Y022561D01*
X039721Y021566D02*
X038296Y021566D01*
D37*
X037563Y021566D01*
X037466Y021469D01*
X037500Y022561D02*
X037466Y022594D01*
X037500Y022561D02*
X038231Y022561D01*
X039631Y022561D02*
X040404Y022561D01*
X040410Y022567D01*
X040410Y021567D02*
X040409Y021566D01*
X039721Y021566D01*
X028791Y023051D02*
X028791Y023726D01*
X028766Y023751D01*
D38*
X005284Y007015D03*
X005284Y038511D03*
X041110Y038511D03*
X041110Y007015D03*
M02*
