%
M48
M72
T01C0.0236
T02C0.0276
T03C0.0320
T04C0.0354
T05C0.0394
T06C0.0400
T07C0.0433
T08C0.0440
T09C0.0472
T10C0.0531
T11C0.0787
T12C0.1063
%
T01
X22791Y30126
X26641Y34026
X30266Y33051
X33341Y32526
X33341Y34026
X35441Y33051
X35166Y23751
X30666Y23251
T02
X12576Y7494
X10607Y7494
T03
X28960Y20801
X29941Y21644
X29941Y22419
X31941Y22419
X31941Y21644
X31960Y20801
X33604Y20663
X33604Y21663
X33604Y22663
X33966Y24344
X33966Y25244
X33973Y26126
X34273Y27851
X33273Y27851
X32273Y27851
X31273Y27851
X30098Y28351
X28666Y28008
X28666Y28869
X28666Y29733
X28666Y30544
X28641Y31394
X29616Y32283
X31273Y30851
X32273Y30851
X33273Y30851
X34273Y30851
X35448Y30351
X35448Y28351
X35973Y26126
X35966Y25244
X35966Y24344
X35466Y22594
X35466Y21469
X37466Y21469
X37466Y22594
X39110Y25076
X41110Y25076
X32273Y32126
X32273Y34126
X30098Y30351
X27616Y32283
X26641Y32283
X26666Y30544
X26666Y29733
X26666Y28869
X26666Y28008
X26666Y27033
X25660Y26001
X28666Y27033
X29660Y26001
X31860Y26326
X31860Y24326
X24641Y31394
X24641Y32283
X20816Y35594
X19473Y37051
X19473Y37876
X20816Y37594
X17473Y37876
X17473Y37051
X13560Y36701
X13560Y37476
X11560Y37476
X11560Y36701
X10841Y35933
X10841Y33933
T04
X23378Y35409
X24378Y35409
X29672Y35952
X30672Y35952
X31672Y35952
X35977Y35409
X36977Y35409
X38910Y24067
X38910Y23067
X38910Y22067
X38910Y21067
X40410Y21567
X40410Y22567
X40410Y23567
T05
X37081Y29302
X37081Y33302
X28791Y24476
X28791Y23051
X24791Y23051
X24791Y24476
X24553Y27137
X24553Y28137
X24553Y29137
X24553Y30137
T06
X18135Y33101
X18135Y35101
X14548Y34801
X12548Y34801
X12548Y32801
X14548Y32801
X13567Y39086
X12567Y39086
X11567Y39086
X8491Y38644
X8491Y36644
X7698Y34751
X5698Y34751
X5698Y32751
X7698Y32751
X17473Y39086
X18473Y39086
X19473Y39086
X41110Y28685
X41110Y27685
X41110Y26685
T07
X21166Y32446
X21166Y32446
X19597Y26556
X19597Y24588
X19597Y22619
X19597Y20651
X19597Y18682
X19597Y16714
X19597Y14745
X7786Y14745
X7786Y16714
X7786Y18682
X7786Y22619
X7786Y24588
X7786Y26556
T08
X27704Y17947
X27704Y16963
X29673Y16963
X29673Y17947
X31641Y16963
X33607Y16962
X33607Y17946
X35578Y17947
X35578Y16963
X35578Y9089
X35578Y8105
X33610Y9089
X29673Y9089
X27704Y9089
X27704Y8105
T09
X38316Y25473
X38316Y29458
T10
X40392Y31305
X40392Y33274
X17066Y7333
X15098Y7333
T11
X22378Y37409
X26378Y37409
X34977Y37409
X38977Y37409
T12
X5284Y7015
X5284Y38511
X41110Y38511
X41110Y7015
M30
