G75*
G70*
%OFA0B0*%
%FSLAX24Y24*%
%IPPOS*%
%LPD*%
%AMOC8*
5,1,8,0,0,1.08239X$1,22.5*
%
%ADD10C,0.0060*%
%ADD11C,0.0520*%
%ADD12C,0.0554*%
%ADD13OC8,0.0860*%
%ADD14OC8,0.0520*%
%ADD15C,0.0600*%
%ADD16C,0.0560*%
%ADD17C,0.0700*%
%ADD18C,0.1000*%
%ADD19OC8,0.1000*%
%ADD20C,0.0600*%
%ADD21OC8,0.0600*%
%ADD22OC8,0.0660*%
%ADD23C,0.1000*%
%ADD24C,0.0100*%
%ADD25C,0.0010*%
%ADD26C,0.0594*%
%ADD27OC8,0.0700*%
%ADD28C,0.0554*%
%ADD29OC8,0.1250*%
%ADD30C,0.0860*%
%ADD31C,0.0500*%
%ADD32C,0.0160*%
%ADD33C,0.0400*%
%ADD34C,0.0120*%
%ADD35R,0.0396X0.0396*%
%ADD36C,0.0240*%
%ADD37C,0.0280*%
%ADD38C,0.0320*%
%ADD39C,0.1969*%
D10*
X040496Y008813D02*
X040830Y008813D01*
X040830Y008979D02*
X040830Y009063D01*
X040830Y008979D02*
X040663Y008813D01*
X040496Y009242D02*
X040830Y009576D01*
X040913Y009576D01*
X040997Y009493D01*
X040997Y009326D01*
X040913Y009242D01*
X041296Y009146D02*
X041296Y008813D01*
X041797Y008813D01*
X041797Y009328D02*
X041797Y009662D01*
X041797Y009495D02*
X041296Y009495D01*
X041380Y009844D02*
X041296Y009927D01*
X041296Y010094D01*
X041380Y010178D01*
X041713Y010178D02*
X041797Y010094D01*
X041797Y009927D01*
X041713Y009844D01*
X041380Y009844D01*
X040997Y009758D02*
X040997Y010008D01*
X040913Y010092D01*
X040830Y010092D01*
X040747Y010008D01*
X040747Y009758D01*
X040997Y009758D02*
X040496Y009758D01*
X040496Y010008D01*
X040580Y010092D01*
X040663Y010092D01*
X040747Y010008D01*
X040830Y010274D02*
X040997Y010440D01*
X040496Y010440D01*
X040496Y010274D02*
X040496Y010607D01*
X040663Y011305D02*
X040830Y011305D01*
X040997Y011472D01*
X040913Y011649D02*
X040997Y011732D01*
X040997Y011899D01*
X040913Y011982D01*
X040580Y011649D01*
X040496Y011732D01*
X040496Y011899D01*
X040580Y011982D01*
X040913Y011982D01*
X040830Y012164D02*
X040997Y012331D01*
X040496Y012331D01*
X040496Y012164D02*
X040496Y012498D01*
X040496Y012680D02*
X040997Y013014D01*
X040913Y013196D02*
X040997Y013279D01*
X040997Y013446D01*
X040913Y013529D01*
X040830Y013529D01*
X040496Y013196D01*
X040496Y013529D01*
X040580Y013711D02*
X040913Y014045D01*
X040580Y014045D01*
X040496Y013961D01*
X040496Y013795D01*
X040580Y013711D01*
X040913Y013711D01*
X040997Y013795D01*
X040997Y013961D01*
X040913Y014045D01*
X040830Y014227D02*
X040997Y014394D01*
X040496Y014394D01*
X040496Y014227D02*
X040496Y014561D01*
X040580Y014743D02*
X040496Y014826D01*
X040496Y014993D01*
X040580Y015076D01*
X040663Y015076D01*
X040747Y014993D01*
X040747Y014743D01*
X040580Y014743D01*
X040747Y014743D02*
X040913Y014909D01*
X040997Y015076D01*
X040997Y015258D02*
X040830Y015425D01*
X040663Y015425D01*
X040496Y015258D01*
X041296Y015597D02*
X041380Y015513D01*
X041713Y015513D01*
X041630Y015430D02*
X041630Y015597D01*
X041547Y015774D02*
X041630Y015857D01*
X041630Y016024D01*
X041547Y016107D01*
X041463Y016107D01*
X041463Y015774D01*
X041380Y015774D02*
X041547Y015774D01*
X041380Y015774D02*
X041296Y015857D01*
X041296Y016024D01*
X041296Y016289D02*
X041296Y016540D01*
X041380Y016623D01*
X041463Y016540D01*
X041463Y016373D01*
X041547Y016289D01*
X041630Y016373D01*
X041630Y016623D01*
X041630Y016805D02*
X041630Y016972D01*
X041713Y016888D02*
X041380Y016888D01*
X041296Y016972D01*
X041380Y017149D02*
X041547Y017149D01*
X041630Y017232D01*
X041630Y017399D01*
X041547Y017482D01*
X041463Y017482D01*
X041463Y017149D01*
X041380Y017149D02*
X041296Y017232D01*
X041296Y017399D01*
X041296Y017664D02*
X041630Y017664D01*
X041463Y017664D02*
X041630Y017831D01*
X041630Y017915D01*
X041630Y014737D02*
X041630Y014571D01*
X041713Y014654D02*
X041380Y014654D01*
X041296Y014737D01*
X041296Y014389D02*
X041547Y014389D01*
X041630Y014305D01*
X041630Y014055D01*
X041296Y014055D01*
X041463Y013873D02*
X041463Y013539D01*
X041380Y013539D02*
X041547Y013539D01*
X041630Y013623D01*
X041630Y013790D01*
X041547Y013873D01*
X041463Y013873D01*
X041296Y013790D02*
X041296Y013623D01*
X041380Y013539D01*
X041296Y013362D02*
X041296Y013196D01*
X041296Y013279D02*
X041630Y013279D01*
X041630Y013196D01*
X041630Y013014D02*
X041630Y012763D01*
X041547Y012680D01*
X041463Y012763D01*
X041463Y012930D01*
X041380Y013014D01*
X041296Y012930D01*
X041296Y012680D01*
X041296Y012498D02*
X041547Y012498D01*
X041630Y012415D01*
X041630Y012164D01*
X041296Y012164D01*
X041296Y011982D02*
X041296Y011732D01*
X041380Y011649D01*
X041463Y011732D01*
X041463Y011982D01*
X041547Y011982D02*
X041296Y011982D01*
X041547Y011982D02*
X041630Y011899D01*
X041630Y011732D01*
X041630Y011469D02*
X041630Y011386D01*
X041463Y011219D01*
X041296Y011219D02*
X041630Y011219D01*
X041630Y011042D02*
X041630Y010875D01*
X041713Y010959D02*
X041380Y010959D01*
X041296Y011042D01*
X040913Y011649D02*
X040580Y011649D01*
X040496Y011472D02*
X040663Y011305D01*
X040496Y009576D02*
X040496Y009242D01*
X041797Y013279D02*
X041880Y013279D01*
D11*
X033864Y020663D02*
X033344Y020663D01*
X033344Y021663D02*
X033864Y021663D01*
X033864Y022663D02*
X033344Y022663D01*
X033273Y027591D02*
X033273Y028111D01*
X032273Y028111D02*
X032273Y027591D01*
X031273Y027591D02*
X031273Y028111D01*
X031273Y030591D02*
X031273Y031111D01*
X032273Y031111D02*
X032273Y030591D01*
X033273Y030591D02*
X033273Y031111D01*
X034273Y031111D02*
X034273Y030591D01*
X034273Y028111D02*
X034273Y027591D01*
D12*
X038633Y024067D02*
X039187Y024067D01*
X040133Y023567D02*
X040687Y023567D01*
X040687Y022567D02*
X040133Y022567D01*
X039187Y023067D02*
X038633Y023067D01*
X038633Y022067D02*
X039187Y022067D01*
X040133Y021567D02*
X040687Y021567D01*
X039187Y021067D02*
X038633Y021067D01*
X031672Y035675D02*
X031672Y036229D01*
X030672Y036229D02*
X030672Y035675D01*
X029672Y035675D02*
X029672Y036229D01*
D13*
X038316Y029458D03*
X038316Y025473D03*
D14*
X039110Y025076D03*
X041110Y025076D03*
X037466Y022594D03*
X037466Y021469D03*
X035466Y021469D03*
X035466Y022594D03*
X035966Y024344D03*
X035966Y025244D03*
X035973Y026126D03*
X033973Y026126D03*
X033966Y025244D03*
X033966Y024344D03*
X031860Y024326D03*
X031941Y022419D03*
X031941Y021644D03*
X029941Y021644D03*
X029941Y022419D03*
X029660Y026001D03*
X028666Y027033D03*
X028666Y028008D03*
X028666Y028869D03*
X028666Y029733D03*
X028666Y030544D03*
X028641Y031394D03*
X029616Y032283D03*
X030098Y030351D03*
X030098Y028351D03*
X031860Y026326D03*
X035448Y028351D03*
X035448Y030351D03*
X032273Y032126D03*
X032273Y034126D03*
X027616Y032283D03*
X026641Y032283D03*
X026666Y030544D03*
X026666Y029733D03*
X026666Y028869D03*
X026666Y028008D03*
X026666Y027033D03*
X025660Y026001D03*
X024641Y031394D03*
X024641Y032283D03*
X020816Y035594D03*
X019473Y037051D03*
X019473Y037876D03*
X020816Y037594D03*
X017473Y037876D03*
X017473Y037051D03*
X013560Y036701D03*
X013560Y037476D03*
X011560Y037476D03*
X011560Y036701D03*
X010841Y035933D03*
X010841Y033933D03*
D15*
X011567Y038786D02*
X011567Y039386D01*
X012567Y039386D02*
X012567Y038786D01*
X013567Y038786D02*
X013567Y039386D01*
X017473Y039386D02*
X017473Y038786D01*
X018473Y038786D02*
X018473Y039386D01*
X019473Y039386D02*
X019473Y038786D01*
X040810Y028685D02*
X041410Y028685D01*
X041410Y027685D02*
X040810Y027685D01*
X040810Y026685D02*
X041410Y026685D01*
D16*
X031960Y020801D03*
X028960Y020801D03*
D17*
X028791Y023051D03*
X028791Y024476D03*
X024791Y024476D03*
X024791Y023051D03*
X037081Y029302D03*
X037081Y033302D03*
D18*
X018135Y033101D03*
X008491Y038644D03*
D19*
X008491Y036644D03*
X018135Y035101D03*
D20*
X012548Y032801D03*
X005698Y032751D03*
D21*
X005698Y034751D03*
X007698Y034751D03*
X007698Y032751D03*
X012548Y034801D03*
X014548Y034801D03*
X014548Y032801D03*
D22*
X012576Y007494D03*
X010607Y007494D03*
D23*
X015098Y007833D02*
X015098Y006833D01*
X017066Y006833D02*
X017066Y007833D01*
X039892Y031305D02*
X040892Y031305D01*
X040892Y033274D02*
X039892Y033274D01*
D24*
X031086Y038154D02*
X030259Y038154D01*
X030259Y038311D02*
X031086Y038311D01*
X029573Y038233D02*
X029575Y038299D01*
X029581Y038364D01*
X029591Y038429D01*
X029604Y038494D01*
X029622Y038557D01*
X029643Y038620D01*
X029668Y038680D01*
X029697Y038740D01*
X029729Y038797D01*
X029764Y038853D01*
X029803Y038906D01*
X029845Y038957D01*
X029889Y039005D01*
X029937Y039050D01*
X029987Y039093D01*
X030040Y039132D01*
X030095Y039169D01*
X030152Y039202D01*
X030211Y039231D01*
X030271Y039257D01*
X030333Y039279D01*
X030396Y039298D01*
X030460Y039312D01*
X030525Y039323D01*
X030591Y039330D01*
X030657Y039333D01*
X030722Y039332D01*
X030788Y039327D01*
X030853Y039318D01*
X030918Y039305D01*
X030981Y039289D01*
X031044Y039269D01*
X031105Y039244D01*
X031165Y039217D01*
X031223Y039186D01*
X031279Y039151D01*
X031333Y039113D01*
X031384Y039072D01*
X031433Y039028D01*
X031479Y038981D01*
X031523Y038932D01*
X031563Y038880D01*
X031600Y038825D01*
X031634Y038769D01*
X031664Y038710D01*
X031691Y038650D01*
X031714Y038589D01*
X031733Y038526D01*
X031749Y038462D01*
X031761Y038397D01*
X031769Y038332D01*
X031773Y038266D01*
X031773Y038200D01*
X031769Y038134D01*
X031761Y038069D01*
X031749Y038004D01*
X031733Y037940D01*
X031714Y037877D01*
X031691Y037816D01*
X031664Y037756D01*
X031634Y037697D01*
X031600Y037641D01*
X031563Y037586D01*
X031523Y037534D01*
X031479Y037485D01*
X031433Y037438D01*
X031384Y037394D01*
X031333Y037353D01*
X031279Y037315D01*
X031223Y037280D01*
X031165Y037249D01*
X031105Y037222D01*
X031044Y037197D01*
X030981Y037177D01*
X030918Y037161D01*
X030853Y037148D01*
X030788Y037139D01*
X030722Y037134D01*
X030657Y037133D01*
X030591Y037136D01*
X030525Y037143D01*
X030460Y037154D01*
X030396Y037168D01*
X030333Y037187D01*
X030271Y037209D01*
X030211Y037235D01*
X030152Y037264D01*
X030095Y037297D01*
X030040Y037334D01*
X029987Y037373D01*
X029937Y037416D01*
X029889Y037461D01*
X029845Y037509D01*
X029803Y037560D01*
X029764Y037613D01*
X029729Y037669D01*
X029697Y037726D01*
X029668Y037786D01*
X029643Y037846D01*
X029622Y037909D01*
X029604Y037972D01*
X029591Y038037D01*
X029581Y038102D01*
X029575Y038167D01*
X029573Y038233D01*
X030574Y037839D02*
X030574Y038626D01*
X030771Y038626D02*
X030771Y037839D01*
D25*
X030727Y037835D02*
X030817Y037832D01*
X030816Y037832D02*
X030818Y037799D01*
X030823Y037767D01*
X030832Y037735D01*
X030845Y037704D01*
X030862Y037676D01*
X030882Y037649D01*
X030904Y037625D01*
X030930Y037604D01*
X030958Y037586D01*
X030987Y037571D01*
X031018Y037560D01*
X031051Y037553D01*
X031084Y037549D01*
X031117Y037550D01*
X031150Y037554D01*
X031182Y037562D01*
X031213Y037575D01*
X031242Y037590D01*
X031269Y037609D01*
X031294Y037631D01*
X031316Y037656D01*
X031335Y037683D01*
X031350Y037712D01*
X031363Y037743D01*
X031371Y037775D01*
X031375Y037808D01*
X031376Y037841D01*
X031372Y037874D01*
X031365Y037907D01*
X031354Y037938D01*
X031339Y037967D01*
X031321Y037995D01*
X031300Y038021D01*
X031276Y038043D01*
X031249Y038063D01*
X031221Y038080D01*
X031190Y038093D01*
X031158Y038102D01*
X031126Y038107D01*
X031093Y038109D01*
X031090Y038198D01*
X031090Y038199D01*
X031127Y038198D01*
X031164Y038193D01*
X031200Y038184D01*
X031236Y038172D01*
X031270Y038156D01*
X031302Y038137D01*
X031332Y038114D01*
X031359Y038089D01*
X031384Y038061D01*
X031406Y038031D01*
X031425Y037999D01*
X031440Y037965D01*
X031452Y037929D01*
X031460Y037893D01*
X031465Y037856D01*
X031466Y037819D01*
X031463Y037781D01*
X031456Y037745D01*
X031446Y037709D01*
X031432Y037674D01*
X031415Y037641D01*
X031394Y037610D01*
X031370Y037581D01*
X031344Y037555D01*
X031315Y037531D01*
X031284Y037510D01*
X031251Y037493D01*
X031216Y037479D01*
X031180Y037469D01*
X031144Y037462D01*
X031106Y037459D01*
X031069Y037460D01*
X031032Y037465D01*
X030996Y037473D01*
X030960Y037485D01*
X030926Y037500D01*
X030894Y037519D01*
X030864Y037541D01*
X030836Y037566D01*
X030811Y037593D01*
X030788Y037623D01*
X030769Y037655D01*
X030753Y037689D01*
X030741Y037725D01*
X030732Y037761D01*
X030727Y037798D01*
X030726Y037835D01*
X030735Y037835D01*
X030736Y037798D01*
X030741Y037761D01*
X030750Y037725D01*
X030763Y037690D01*
X030779Y037656D01*
X030799Y037624D01*
X030821Y037595D01*
X030847Y037568D01*
X030875Y037544D01*
X030906Y037522D01*
X030938Y037504D01*
X030972Y037490D01*
X031008Y037479D01*
X031045Y037472D01*
X031082Y037468D01*
X031119Y037469D01*
X031156Y037473D01*
X031192Y037481D01*
X031227Y037493D01*
X031261Y037508D01*
X031294Y037527D01*
X031324Y037549D01*
X031351Y037574D01*
X031376Y037601D01*
X031398Y037631D01*
X031417Y037664D01*
X031432Y037698D01*
X031444Y037733D01*
X031452Y037769D01*
X031456Y037806D01*
X031457Y037843D01*
X031453Y037880D01*
X031446Y037917D01*
X031435Y037953D01*
X031421Y037987D01*
X031403Y038019D01*
X031381Y038050D01*
X031357Y038078D01*
X031330Y038104D01*
X031301Y038126D01*
X031269Y038146D01*
X031235Y038162D01*
X031200Y038175D01*
X031164Y038184D01*
X031127Y038189D01*
X031090Y038190D01*
X031090Y038181D01*
X031127Y038180D01*
X031164Y038174D01*
X031200Y038165D01*
X031235Y038152D01*
X031268Y038136D01*
X031300Y038116D01*
X031329Y038093D01*
X031355Y038067D01*
X031379Y038039D01*
X031399Y038008D01*
X031416Y037975D01*
X031430Y037940D01*
X031440Y037905D01*
X031446Y037868D01*
X031448Y037831D01*
X031446Y037794D01*
X031441Y037757D01*
X031431Y037721D01*
X031418Y037687D01*
X031401Y037654D01*
X031381Y037622D01*
X031358Y037594D01*
X031331Y037567D01*
X031303Y037544D01*
X031271Y037524D01*
X031238Y037507D01*
X031204Y037494D01*
X031168Y037484D01*
X031131Y037479D01*
X031094Y037477D01*
X031057Y037479D01*
X031020Y037485D01*
X030985Y037495D01*
X030950Y037509D01*
X030917Y037526D01*
X030886Y037546D01*
X030858Y037570D01*
X030832Y037596D01*
X030809Y037625D01*
X030789Y037657D01*
X030773Y037690D01*
X030760Y037725D01*
X030751Y037761D01*
X030745Y037798D01*
X030744Y037835D01*
X030753Y037834D01*
X030754Y037798D01*
X030760Y037762D01*
X030768Y037727D01*
X030781Y037694D01*
X030797Y037661D01*
X030816Y037631D01*
X030839Y037602D01*
X030864Y037576D01*
X030892Y037553D01*
X030922Y037533D01*
X030954Y037517D01*
X030988Y037504D01*
X031022Y037494D01*
X031058Y037488D01*
X031094Y037486D01*
X031130Y037488D01*
X031166Y037493D01*
X031201Y037502D01*
X031235Y037515D01*
X031267Y037532D01*
X031297Y037551D01*
X031325Y037574D01*
X031351Y037600D01*
X031374Y037628D01*
X031393Y037658D01*
X031410Y037690D01*
X031423Y037724D01*
X031432Y037759D01*
X031437Y037795D01*
X031439Y037831D01*
X031437Y037867D01*
X031431Y037903D01*
X031421Y037937D01*
X031408Y037971D01*
X031392Y038003D01*
X031372Y038033D01*
X031349Y038061D01*
X031323Y038086D01*
X031294Y038109D01*
X031264Y038128D01*
X031231Y038144D01*
X031198Y038157D01*
X031163Y038165D01*
X031127Y038171D01*
X031091Y038172D01*
X031091Y038163D01*
X031127Y038162D01*
X031162Y038156D01*
X031197Y038147D01*
X031231Y038135D01*
X031263Y038118D01*
X031293Y038099D01*
X031321Y038076D01*
X031346Y038050D01*
X031369Y038022D01*
X031388Y037992D01*
X031404Y037959D01*
X031416Y037925D01*
X031424Y037890D01*
X031429Y037855D01*
X031430Y037819D01*
X031427Y037783D01*
X031420Y037748D01*
X031409Y037713D01*
X031395Y037680D01*
X031377Y037649D01*
X031356Y037620D01*
X031332Y037593D01*
X031305Y037569D01*
X031276Y037548D01*
X031245Y037530D01*
X031212Y037516D01*
X031177Y037505D01*
X031142Y037498D01*
X031106Y037495D01*
X031070Y037496D01*
X031035Y037501D01*
X031000Y037509D01*
X030966Y037521D01*
X030933Y037537D01*
X030903Y037556D01*
X030875Y037579D01*
X030849Y037604D01*
X030826Y037632D01*
X030807Y037662D01*
X030790Y037694D01*
X030778Y037728D01*
X030769Y037763D01*
X030763Y037798D01*
X030762Y037834D01*
X030771Y037834D01*
X030772Y037799D01*
X030778Y037764D01*
X030786Y037730D01*
X030799Y037698D01*
X030815Y037666D01*
X030834Y037637D01*
X030856Y037610D01*
X030881Y037585D01*
X030908Y037564D01*
X030938Y037545D01*
X030969Y037530D01*
X031002Y037518D01*
X031036Y037510D01*
X031071Y037505D01*
X031106Y037504D01*
X031141Y037507D01*
X031175Y037514D01*
X031209Y037524D01*
X031241Y037538D01*
X031271Y037555D01*
X031300Y037576D01*
X031326Y037599D01*
X031349Y037625D01*
X031370Y037654D01*
X031387Y037684D01*
X031401Y037716D01*
X031411Y037750D01*
X031418Y037784D01*
X031421Y037819D01*
X031420Y037854D01*
X031415Y037889D01*
X031407Y037923D01*
X031395Y037956D01*
X031380Y037987D01*
X031361Y038017D01*
X031340Y038044D01*
X031315Y038069D01*
X031288Y038091D01*
X031259Y038110D01*
X031227Y038126D01*
X031195Y038139D01*
X031161Y038147D01*
X031126Y038153D01*
X031091Y038154D01*
X031091Y038145D01*
X031126Y038144D01*
X031161Y038138D01*
X031194Y038129D01*
X031227Y038117D01*
X031258Y038101D01*
X031287Y038081D01*
X031313Y038059D01*
X031337Y038033D01*
X031358Y038006D01*
X031376Y037976D01*
X031390Y037944D01*
X031401Y037911D01*
X031408Y037877D01*
X031412Y037842D01*
X031411Y037807D01*
X031407Y037773D01*
X031399Y037739D01*
X031387Y037706D01*
X031372Y037675D01*
X031353Y037645D01*
X031331Y037618D01*
X031307Y037594D01*
X031280Y037572D01*
X031250Y037553D01*
X031219Y037538D01*
X031186Y037526D01*
X031152Y037518D01*
X031118Y037514D01*
X031083Y037513D01*
X031048Y037517D01*
X031014Y037524D01*
X030981Y037535D01*
X030949Y037549D01*
X030919Y037567D01*
X030892Y037588D01*
X030866Y037612D01*
X030844Y037638D01*
X030824Y037667D01*
X030808Y037698D01*
X030796Y037731D01*
X030787Y037764D01*
X030781Y037799D01*
X030780Y037834D01*
X030789Y037833D01*
X030790Y037800D01*
X030796Y037766D01*
X030804Y037733D01*
X030817Y037702D01*
X030832Y037672D01*
X030851Y037644D01*
X030873Y037618D01*
X030898Y037595D01*
X030925Y037574D01*
X030954Y037557D01*
X030984Y037543D01*
X031017Y037532D01*
X031050Y037526D01*
X031083Y037522D01*
X031117Y037523D01*
X031151Y037527D01*
X031184Y037535D01*
X031215Y037546D01*
X031246Y037561D01*
X031274Y037579D01*
X031301Y037600D01*
X031325Y037624D01*
X031346Y037651D01*
X031364Y037679D01*
X031379Y037710D01*
X031390Y037741D01*
X031398Y037774D01*
X031402Y037808D01*
X031403Y037842D01*
X031399Y037875D01*
X031393Y037908D01*
X031382Y037941D01*
X031368Y037971D01*
X031351Y038000D01*
X031330Y038027D01*
X031307Y038052D01*
X031281Y038074D01*
X031253Y038093D01*
X031223Y038108D01*
X031192Y038121D01*
X031159Y038129D01*
X031125Y038135D01*
X031092Y038136D01*
X031092Y038127D01*
X031126Y038126D01*
X031159Y038120D01*
X031191Y038111D01*
X031222Y038099D01*
X031252Y038083D01*
X031280Y038064D01*
X031305Y038042D01*
X031327Y038017D01*
X031347Y037989D01*
X031364Y037960D01*
X031377Y037929D01*
X031386Y037897D01*
X031392Y037864D01*
X031394Y037830D01*
X031392Y037797D01*
X031387Y037764D01*
X031378Y037731D01*
X031365Y037700D01*
X031349Y037671D01*
X031329Y037643D01*
X031307Y037618D01*
X031282Y037596D01*
X031254Y037576D01*
X031225Y037560D01*
X031194Y037547D01*
X031161Y037538D01*
X031128Y037533D01*
X031095Y037531D01*
X031061Y037533D01*
X031028Y037539D01*
X030996Y037548D01*
X030965Y037561D01*
X030936Y037578D01*
X030908Y037598D01*
X030883Y037620D01*
X030861Y037645D01*
X030842Y037673D01*
X030826Y037703D01*
X030814Y037734D01*
X030805Y037766D01*
X030799Y037799D01*
X030798Y037833D01*
X030807Y037833D01*
X030809Y037799D01*
X030814Y037766D01*
X030823Y037734D01*
X030836Y037703D01*
X030852Y037674D01*
X030871Y037647D01*
X030894Y037622D01*
X030919Y037601D01*
X030947Y037582D01*
X030976Y037566D01*
X031007Y037554D01*
X031039Y037546D01*
X031073Y037541D01*
X031106Y037540D01*
X031139Y037543D01*
X031172Y037550D01*
X031203Y037561D01*
X031234Y037575D01*
X031262Y037592D01*
X031288Y037613D01*
X031312Y037637D01*
X031333Y037663D01*
X031350Y037691D01*
X031364Y037722D01*
X031375Y037753D01*
X031382Y037786D01*
X031385Y037819D01*
X031384Y037852D01*
X031379Y037886D01*
X031371Y037918D01*
X031359Y037949D01*
X031343Y037978D01*
X031324Y038006D01*
X031303Y038031D01*
X031278Y038054D01*
X031251Y038073D01*
X031222Y038089D01*
X031191Y038102D01*
X031159Y038111D01*
X031126Y038116D01*
X031092Y038118D01*
X031090Y038267D02*
X031093Y038357D01*
X031093Y038356D02*
X031126Y038358D01*
X031158Y038363D01*
X031190Y038372D01*
X031221Y038385D01*
X031249Y038402D01*
X031276Y038422D01*
X031300Y038444D01*
X031321Y038470D01*
X031339Y038498D01*
X031354Y038527D01*
X031365Y038558D01*
X031372Y038591D01*
X031376Y038624D01*
X031375Y038657D01*
X031371Y038690D01*
X031363Y038722D01*
X031350Y038753D01*
X031335Y038782D01*
X031316Y038809D01*
X031294Y038834D01*
X031269Y038856D01*
X031242Y038875D01*
X031213Y038890D01*
X031182Y038903D01*
X031150Y038911D01*
X031117Y038915D01*
X031084Y038916D01*
X031051Y038912D01*
X031018Y038905D01*
X030987Y038894D01*
X030958Y038879D01*
X030930Y038861D01*
X030904Y038840D01*
X030882Y038816D01*
X030862Y038789D01*
X030845Y038761D01*
X030832Y038730D01*
X030823Y038698D01*
X030818Y038666D01*
X030816Y038633D01*
X030727Y038630D01*
X030726Y038630D01*
X030727Y038667D01*
X030732Y038704D01*
X030741Y038740D01*
X030753Y038776D01*
X030769Y038810D01*
X030788Y038842D01*
X030811Y038872D01*
X030836Y038899D01*
X030864Y038924D01*
X030894Y038946D01*
X030926Y038965D01*
X030960Y038980D01*
X030996Y038992D01*
X031032Y039000D01*
X031069Y039005D01*
X031106Y039006D01*
X031144Y039003D01*
X031180Y038996D01*
X031216Y038986D01*
X031251Y038972D01*
X031284Y038955D01*
X031315Y038934D01*
X031344Y038910D01*
X031370Y038884D01*
X031394Y038855D01*
X031415Y038824D01*
X031432Y038791D01*
X031446Y038756D01*
X031456Y038720D01*
X031463Y038684D01*
X031466Y038646D01*
X031465Y038609D01*
X031460Y038572D01*
X031452Y038536D01*
X031440Y038500D01*
X031425Y038466D01*
X031406Y038434D01*
X031384Y038404D01*
X031359Y038376D01*
X031332Y038351D01*
X031302Y038328D01*
X031270Y038309D01*
X031236Y038293D01*
X031200Y038281D01*
X031164Y038272D01*
X031127Y038267D01*
X031090Y038266D01*
X031090Y038275D01*
X031127Y038276D01*
X031164Y038281D01*
X031200Y038290D01*
X031235Y038303D01*
X031269Y038319D01*
X031301Y038339D01*
X031330Y038361D01*
X031357Y038387D01*
X031381Y038415D01*
X031403Y038446D01*
X031421Y038478D01*
X031435Y038512D01*
X031446Y038548D01*
X031453Y038585D01*
X031457Y038622D01*
X031456Y038659D01*
X031452Y038696D01*
X031444Y038732D01*
X031432Y038767D01*
X031417Y038801D01*
X031398Y038834D01*
X031376Y038864D01*
X031351Y038891D01*
X031324Y038916D01*
X031294Y038938D01*
X031261Y038957D01*
X031227Y038972D01*
X031192Y038984D01*
X031156Y038992D01*
X031119Y038996D01*
X031082Y038997D01*
X031045Y038993D01*
X031008Y038986D01*
X030972Y038975D01*
X030938Y038961D01*
X030906Y038943D01*
X030875Y038921D01*
X030847Y038897D01*
X030821Y038870D01*
X030799Y038841D01*
X030779Y038809D01*
X030763Y038775D01*
X030750Y038740D01*
X030741Y038704D01*
X030736Y038667D01*
X030735Y038630D01*
X030744Y038630D01*
X030745Y038667D01*
X030751Y038704D01*
X030760Y038740D01*
X030773Y038775D01*
X030789Y038808D01*
X030809Y038840D01*
X030832Y038869D01*
X030858Y038895D01*
X030886Y038919D01*
X030917Y038939D01*
X030950Y038956D01*
X030985Y038970D01*
X031020Y038980D01*
X031057Y038986D01*
X031094Y038988D01*
X031131Y038986D01*
X031168Y038981D01*
X031204Y038971D01*
X031238Y038958D01*
X031271Y038941D01*
X031303Y038921D01*
X031331Y038898D01*
X031358Y038871D01*
X031381Y038843D01*
X031401Y038811D01*
X031418Y038778D01*
X031431Y038744D01*
X031441Y038708D01*
X031446Y038671D01*
X031448Y038634D01*
X031446Y038597D01*
X031440Y038560D01*
X031430Y038525D01*
X031416Y038490D01*
X031399Y038457D01*
X031379Y038426D01*
X031355Y038398D01*
X031329Y038372D01*
X031300Y038349D01*
X031268Y038329D01*
X031235Y038313D01*
X031200Y038300D01*
X031164Y038291D01*
X031127Y038285D01*
X031090Y038284D01*
X031091Y038293D01*
X031127Y038294D01*
X031163Y038300D01*
X031198Y038308D01*
X031231Y038321D01*
X031264Y038337D01*
X031294Y038356D01*
X031323Y038379D01*
X031349Y038404D01*
X031372Y038432D01*
X031392Y038462D01*
X031408Y038494D01*
X031421Y038528D01*
X031431Y038562D01*
X031437Y038598D01*
X031439Y038634D01*
X031437Y038670D01*
X031432Y038706D01*
X031423Y038741D01*
X031410Y038775D01*
X031393Y038807D01*
X031374Y038837D01*
X031351Y038865D01*
X031325Y038891D01*
X031297Y038914D01*
X031267Y038933D01*
X031235Y038950D01*
X031201Y038963D01*
X031166Y038972D01*
X031130Y038977D01*
X031094Y038979D01*
X031058Y038977D01*
X031022Y038971D01*
X030988Y038961D01*
X030954Y038948D01*
X030922Y038932D01*
X030892Y038912D01*
X030864Y038889D01*
X030839Y038863D01*
X030816Y038834D01*
X030797Y038804D01*
X030781Y038771D01*
X030768Y038738D01*
X030760Y038703D01*
X030754Y038667D01*
X030753Y038631D01*
X030762Y038631D01*
X030763Y038667D01*
X030769Y038702D01*
X030778Y038737D01*
X030790Y038771D01*
X030807Y038803D01*
X030826Y038833D01*
X030849Y038861D01*
X030875Y038886D01*
X030903Y038909D01*
X030933Y038928D01*
X030966Y038944D01*
X031000Y038956D01*
X031035Y038964D01*
X031070Y038969D01*
X031106Y038970D01*
X031142Y038967D01*
X031177Y038960D01*
X031212Y038949D01*
X031245Y038935D01*
X031276Y038917D01*
X031305Y038896D01*
X031332Y038872D01*
X031356Y038845D01*
X031377Y038816D01*
X031395Y038785D01*
X031409Y038752D01*
X031420Y038717D01*
X031427Y038682D01*
X031430Y038646D01*
X031429Y038610D01*
X031424Y038575D01*
X031416Y038540D01*
X031404Y038506D01*
X031388Y038473D01*
X031369Y038443D01*
X031346Y038415D01*
X031321Y038389D01*
X031293Y038366D01*
X031263Y038347D01*
X031231Y038330D01*
X031197Y038318D01*
X031162Y038309D01*
X031127Y038303D01*
X031091Y038302D01*
X031091Y038311D01*
X031126Y038312D01*
X031161Y038318D01*
X031195Y038326D01*
X031227Y038339D01*
X031259Y038355D01*
X031288Y038374D01*
X031315Y038396D01*
X031340Y038421D01*
X031361Y038448D01*
X031380Y038478D01*
X031395Y038509D01*
X031407Y038542D01*
X031415Y038576D01*
X031420Y038611D01*
X031421Y038646D01*
X031418Y038681D01*
X031411Y038715D01*
X031401Y038749D01*
X031387Y038781D01*
X031370Y038811D01*
X031349Y038840D01*
X031326Y038866D01*
X031300Y038889D01*
X031271Y038910D01*
X031241Y038927D01*
X031209Y038941D01*
X031175Y038951D01*
X031141Y038958D01*
X031106Y038961D01*
X031071Y038960D01*
X031036Y038955D01*
X031002Y038947D01*
X030969Y038935D01*
X030938Y038920D01*
X030908Y038901D01*
X030881Y038880D01*
X030856Y038855D01*
X030834Y038828D01*
X030815Y038799D01*
X030799Y038767D01*
X030786Y038735D01*
X030778Y038701D01*
X030772Y038666D01*
X030771Y038631D01*
X030780Y038631D01*
X030781Y038666D01*
X030787Y038701D01*
X030796Y038734D01*
X030808Y038767D01*
X030824Y038798D01*
X030844Y038827D01*
X030866Y038853D01*
X030892Y038877D01*
X030919Y038898D01*
X030949Y038916D01*
X030981Y038930D01*
X031014Y038941D01*
X031048Y038948D01*
X031083Y038952D01*
X031118Y038951D01*
X031152Y038947D01*
X031186Y038939D01*
X031219Y038927D01*
X031250Y038912D01*
X031280Y038893D01*
X031307Y038871D01*
X031331Y038847D01*
X031353Y038820D01*
X031372Y038790D01*
X031387Y038759D01*
X031399Y038726D01*
X031407Y038692D01*
X031411Y038658D01*
X031412Y038623D01*
X031408Y038588D01*
X031401Y038554D01*
X031390Y038521D01*
X031376Y038489D01*
X031358Y038459D01*
X031337Y038432D01*
X031313Y038406D01*
X031287Y038384D01*
X031258Y038364D01*
X031227Y038348D01*
X031194Y038336D01*
X031161Y038327D01*
X031126Y038321D01*
X031091Y038320D01*
X031092Y038329D01*
X031125Y038330D01*
X031159Y038336D01*
X031192Y038344D01*
X031223Y038357D01*
X031253Y038372D01*
X031281Y038391D01*
X031307Y038413D01*
X031330Y038438D01*
X031351Y038465D01*
X031368Y038494D01*
X031382Y038524D01*
X031393Y038557D01*
X031399Y038590D01*
X031403Y038623D01*
X031402Y038657D01*
X031398Y038691D01*
X031390Y038724D01*
X031379Y038755D01*
X031364Y038786D01*
X031346Y038814D01*
X031325Y038841D01*
X031301Y038865D01*
X031274Y038886D01*
X031246Y038904D01*
X031215Y038919D01*
X031184Y038930D01*
X031151Y038938D01*
X031117Y038942D01*
X031083Y038943D01*
X031050Y038939D01*
X031017Y038933D01*
X030984Y038922D01*
X030954Y038908D01*
X030925Y038891D01*
X030898Y038870D01*
X030873Y038847D01*
X030851Y038821D01*
X030832Y038793D01*
X030817Y038763D01*
X030804Y038732D01*
X030796Y038699D01*
X030790Y038665D01*
X030789Y038632D01*
X030798Y038632D01*
X030799Y038666D01*
X030805Y038699D01*
X030814Y038731D01*
X030826Y038762D01*
X030842Y038792D01*
X030861Y038820D01*
X030883Y038845D01*
X030908Y038867D01*
X030936Y038887D01*
X030965Y038904D01*
X030996Y038917D01*
X031028Y038926D01*
X031061Y038932D01*
X031095Y038934D01*
X031128Y038932D01*
X031161Y038927D01*
X031194Y038918D01*
X031225Y038905D01*
X031254Y038889D01*
X031282Y038869D01*
X031307Y038847D01*
X031329Y038822D01*
X031349Y038794D01*
X031365Y038765D01*
X031378Y038734D01*
X031387Y038701D01*
X031392Y038668D01*
X031394Y038635D01*
X031392Y038601D01*
X031386Y038568D01*
X031377Y038536D01*
X031364Y038505D01*
X031347Y038476D01*
X031327Y038448D01*
X031305Y038423D01*
X031280Y038401D01*
X031252Y038382D01*
X031222Y038366D01*
X031191Y038354D01*
X031159Y038345D01*
X031126Y038339D01*
X031092Y038338D01*
X031092Y038347D01*
X031126Y038349D01*
X031159Y038354D01*
X031191Y038363D01*
X031222Y038376D01*
X031251Y038392D01*
X031278Y038411D01*
X031303Y038434D01*
X031324Y038459D01*
X031343Y038487D01*
X031359Y038516D01*
X031371Y038547D01*
X031379Y038579D01*
X031384Y038613D01*
X031385Y038646D01*
X031382Y038679D01*
X031375Y038712D01*
X031364Y038743D01*
X031350Y038774D01*
X031333Y038802D01*
X031312Y038828D01*
X031288Y038852D01*
X031262Y038873D01*
X031234Y038890D01*
X031203Y038904D01*
X031172Y038915D01*
X031139Y038922D01*
X031106Y038925D01*
X031073Y038924D01*
X031039Y038919D01*
X031007Y038911D01*
X030976Y038899D01*
X030947Y038883D01*
X030919Y038864D01*
X030894Y038843D01*
X030871Y038818D01*
X030852Y038791D01*
X030836Y038762D01*
X030823Y038731D01*
X030814Y038699D01*
X030809Y038666D01*
X030807Y038632D01*
X030618Y038630D02*
X030528Y038633D01*
X030529Y038633D02*
X030527Y038666D01*
X030522Y038698D01*
X030513Y038730D01*
X030500Y038761D01*
X030483Y038789D01*
X030463Y038816D01*
X030441Y038840D01*
X030415Y038861D01*
X030387Y038879D01*
X030358Y038894D01*
X030327Y038905D01*
X030294Y038912D01*
X030261Y038916D01*
X030228Y038915D01*
X030195Y038911D01*
X030163Y038903D01*
X030132Y038890D01*
X030103Y038875D01*
X030076Y038856D01*
X030051Y038834D01*
X030029Y038809D01*
X030010Y038782D01*
X029995Y038753D01*
X029982Y038722D01*
X029974Y038690D01*
X029970Y038657D01*
X029969Y038624D01*
X029973Y038591D01*
X029980Y038558D01*
X029991Y038527D01*
X030006Y038498D01*
X030024Y038470D01*
X030045Y038444D01*
X030069Y038422D01*
X030096Y038402D01*
X030124Y038385D01*
X030155Y038372D01*
X030187Y038363D01*
X030219Y038358D01*
X030252Y038356D01*
X030255Y038267D01*
X030255Y038266D01*
X030218Y038267D01*
X030181Y038272D01*
X030145Y038281D01*
X030109Y038293D01*
X030075Y038309D01*
X030043Y038328D01*
X030013Y038351D01*
X029986Y038376D01*
X029961Y038404D01*
X029939Y038434D01*
X029920Y038466D01*
X029905Y038500D01*
X029893Y038536D01*
X029885Y038572D01*
X029880Y038609D01*
X029879Y038646D01*
X029882Y038684D01*
X029889Y038720D01*
X029899Y038756D01*
X029913Y038791D01*
X029930Y038824D01*
X029951Y038855D01*
X029975Y038884D01*
X030001Y038910D01*
X030030Y038934D01*
X030061Y038955D01*
X030094Y038972D01*
X030129Y038986D01*
X030165Y038996D01*
X030201Y039003D01*
X030239Y039006D01*
X030276Y039005D01*
X030313Y039000D01*
X030349Y038992D01*
X030385Y038980D01*
X030419Y038965D01*
X030451Y038946D01*
X030481Y038924D01*
X030509Y038899D01*
X030534Y038872D01*
X030557Y038842D01*
X030576Y038810D01*
X030592Y038776D01*
X030604Y038740D01*
X030613Y038704D01*
X030618Y038667D01*
X030619Y038630D01*
X030610Y038630D01*
X030609Y038667D01*
X030604Y038704D01*
X030595Y038740D01*
X030582Y038775D01*
X030566Y038809D01*
X030546Y038841D01*
X030524Y038870D01*
X030498Y038897D01*
X030470Y038921D01*
X030439Y038943D01*
X030407Y038961D01*
X030373Y038975D01*
X030337Y038986D01*
X030300Y038993D01*
X030263Y038997D01*
X030226Y038996D01*
X030189Y038992D01*
X030153Y038984D01*
X030118Y038972D01*
X030084Y038957D01*
X030051Y038938D01*
X030021Y038916D01*
X029994Y038891D01*
X029969Y038864D01*
X029947Y038834D01*
X029928Y038801D01*
X029913Y038767D01*
X029901Y038732D01*
X029893Y038696D01*
X029889Y038659D01*
X029888Y038622D01*
X029892Y038585D01*
X029899Y038548D01*
X029910Y038512D01*
X029924Y038478D01*
X029942Y038446D01*
X029964Y038415D01*
X029988Y038387D01*
X030015Y038361D01*
X030044Y038339D01*
X030076Y038319D01*
X030110Y038303D01*
X030145Y038290D01*
X030181Y038281D01*
X030218Y038276D01*
X030255Y038275D01*
X030255Y038284D01*
X030218Y038285D01*
X030181Y038291D01*
X030145Y038300D01*
X030110Y038313D01*
X030077Y038329D01*
X030045Y038349D01*
X030016Y038372D01*
X029990Y038398D01*
X029966Y038426D01*
X029946Y038457D01*
X029929Y038490D01*
X029915Y038525D01*
X029905Y038560D01*
X029899Y038597D01*
X029897Y038634D01*
X029899Y038671D01*
X029904Y038708D01*
X029914Y038744D01*
X029927Y038778D01*
X029944Y038811D01*
X029964Y038843D01*
X029987Y038871D01*
X030014Y038898D01*
X030042Y038921D01*
X030074Y038941D01*
X030107Y038958D01*
X030141Y038971D01*
X030177Y038981D01*
X030214Y038986D01*
X030251Y038988D01*
X030288Y038986D01*
X030325Y038980D01*
X030360Y038970D01*
X030395Y038956D01*
X030428Y038939D01*
X030459Y038919D01*
X030487Y038895D01*
X030513Y038869D01*
X030536Y038840D01*
X030556Y038808D01*
X030572Y038775D01*
X030585Y038740D01*
X030594Y038704D01*
X030600Y038667D01*
X030601Y038630D01*
X030592Y038631D01*
X030591Y038667D01*
X030585Y038703D01*
X030577Y038738D01*
X030564Y038771D01*
X030548Y038804D01*
X030529Y038834D01*
X030506Y038863D01*
X030481Y038889D01*
X030453Y038912D01*
X030423Y038932D01*
X030391Y038948D01*
X030357Y038961D01*
X030323Y038971D01*
X030287Y038977D01*
X030251Y038979D01*
X030215Y038977D01*
X030179Y038972D01*
X030144Y038963D01*
X030110Y038950D01*
X030078Y038933D01*
X030048Y038914D01*
X030020Y038891D01*
X029994Y038865D01*
X029971Y038837D01*
X029952Y038807D01*
X029935Y038775D01*
X029922Y038741D01*
X029913Y038706D01*
X029908Y038670D01*
X029906Y038634D01*
X029908Y038598D01*
X029914Y038562D01*
X029924Y038528D01*
X029937Y038494D01*
X029953Y038462D01*
X029973Y038432D01*
X029996Y038404D01*
X030022Y038379D01*
X030051Y038356D01*
X030081Y038337D01*
X030114Y038321D01*
X030147Y038308D01*
X030182Y038300D01*
X030218Y038294D01*
X030254Y038293D01*
X030254Y038302D01*
X030218Y038303D01*
X030183Y038309D01*
X030148Y038318D01*
X030114Y038330D01*
X030082Y038347D01*
X030052Y038366D01*
X030024Y038389D01*
X029999Y038415D01*
X029976Y038443D01*
X029957Y038473D01*
X029941Y038506D01*
X029929Y038540D01*
X029921Y038575D01*
X029916Y038610D01*
X029915Y038646D01*
X029918Y038682D01*
X029925Y038717D01*
X029936Y038752D01*
X029950Y038785D01*
X029968Y038816D01*
X029989Y038845D01*
X030013Y038872D01*
X030040Y038896D01*
X030069Y038917D01*
X030100Y038935D01*
X030133Y038949D01*
X030168Y038960D01*
X030203Y038967D01*
X030239Y038970D01*
X030275Y038969D01*
X030310Y038964D01*
X030345Y038956D01*
X030379Y038944D01*
X030412Y038928D01*
X030442Y038909D01*
X030470Y038886D01*
X030496Y038861D01*
X030519Y038833D01*
X030538Y038803D01*
X030555Y038771D01*
X030567Y038737D01*
X030576Y038702D01*
X030582Y038667D01*
X030583Y038631D01*
X030574Y038631D01*
X030573Y038666D01*
X030567Y038701D01*
X030559Y038735D01*
X030546Y038767D01*
X030530Y038799D01*
X030511Y038828D01*
X030489Y038855D01*
X030464Y038880D01*
X030437Y038901D01*
X030407Y038920D01*
X030376Y038935D01*
X030343Y038947D01*
X030309Y038955D01*
X030274Y038960D01*
X030239Y038961D01*
X030204Y038958D01*
X030170Y038951D01*
X030136Y038941D01*
X030104Y038927D01*
X030074Y038910D01*
X030045Y038889D01*
X030019Y038866D01*
X029996Y038840D01*
X029975Y038811D01*
X029958Y038781D01*
X029944Y038749D01*
X029934Y038715D01*
X029927Y038681D01*
X029924Y038646D01*
X029925Y038611D01*
X029930Y038576D01*
X029938Y038542D01*
X029950Y038509D01*
X029965Y038478D01*
X029984Y038448D01*
X030005Y038421D01*
X030030Y038396D01*
X030057Y038374D01*
X030086Y038355D01*
X030118Y038339D01*
X030150Y038326D01*
X030184Y038318D01*
X030219Y038312D01*
X030254Y038311D01*
X030254Y038320D01*
X030219Y038321D01*
X030184Y038327D01*
X030151Y038336D01*
X030118Y038348D01*
X030087Y038364D01*
X030058Y038384D01*
X030032Y038406D01*
X030008Y038432D01*
X029987Y038459D01*
X029969Y038489D01*
X029955Y038521D01*
X029944Y038554D01*
X029937Y038588D01*
X029933Y038623D01*
X029934Y038658D01*
X029938Y038692D01*
X029946Y038726D01*
X029958Y038759D01*
X029973Y038790D01*
X029992Y038820D01*
X030014Y038847D01*
X030038Y038871D01*
X030065Y038893D01*
X030095Y038912D01*
X030126Y038927D01*
X030159Y038939D01*
X030193Y038947D01*
X030227Y038951D01*
X030262Y038952D01*
X030297Y038948D01*
X030331Y038941D01*
X030364Y038930D01*
X030396Y038916D01*
X030426Y038898D01*
X030453Y038877D01*
X030479Y038853D01*
X030501Y038827D01*
X030521Y038798D01*
X030537Y038767D01*
X030549Y038734D01*
X030558Y038701D01*
X030564Y038666D01*
X030565Y038631D01*
X030556Y038632D01*
X030555Y038665D01*
X030549Y038699D01*
X030541Y038732D01*
X030528Y038763D01*
X030513Y038793D01*
X030494Y038821D01*
X030472Y038847D01*
X030447Y038870D01*
X030420Y038891D01*
X030391Y038908D01*
X030361Y038922D01*
X030328Y038933D01*
X030295Y038939D01*
X030262Y038943D01*
X030228Y038942D01*
X030194Y038938D01*
X030161Y038930D01*
X030130Y038919D01*
X030099Y038904D01*
X030071Y038886D01*
X030044Y038865D01*
X030020Y038841D01*
X029999Y038814D01*
X029981Y038786D01*
X029966Y038755D01*
X029955Y038724D01*
X029947Y038691D01*
X029943Y038657D01*
X029942Y038623D01*
X029946Y038590D01*
X029952Y038557D01*
X029963Y038524D01*
X029977Y038494D01*
X029994Y038465D01*
X030015Y038438D01*
X030038Y038413D01*
X030064Y038391D01*
X030092Y038372D01*
X030122Y038357D01*
X030153Y038344D01*
X030186Y038336D01*
X030220Y038330D01*
X030253Y038329D01*
X030253Y038338D01*
X030219Y038339D01*
X030186Y038345D01*
X030154Y038354D01*
X030123Y038366D01*
X030093Y038382D01*
X030065Y038401D01*
X030040Y038423D01*
X030018Y038448D01*
X029998Y038476D01*
X029981Y038505D01*
X029968Y038536D01*
X029959Y038568D01*
X029953Y038601D01*
X029951Y038635D01*
X029953Y038668D01*
X029958Y038701D01*
X029967Y038734D01*
X029980Y038765D01*
X029996Y038794D01*
X030016Y038822D01*
X030038Y038847D01*
X030063Y038869D01*
X030091Y038889D01*
X030120Y038905D01*
X030151Y038918D01*
X030184Y038927D01*
X030217Y038932D01*
X030250Y038934D01*
X030284Y038932D01*
X030317Y038926D01*
X030349Y038917D01*
X030380Y038904D01*
X030409Y038887D01*
X030437Y038867D01*
X030462Y038845D01*
X030484Y038820D01*
X030503Y038792D01*
X030519Y038762D01*
X030531Y038731D01*
X030540Y038699D01*
X030546Y038666D01*
X030547Y038632D01*
X030538Y038632D01*
X030536Y038666D01*
X030531Y038699D01*
X030522Y038731D01*
X030509Y038762D01*
X030493Y038791D01*
X030474Y038818D01*
X030451Y038843D01*
X030426Y038864D01*
X030398Y038883D01*
X030369Y038899D01*
X030338Y038911D01*
X030306Y038919D01*
X030272Y038924D01*
X030239Y038925D01*
X030206Y038922D01*
X030173Y038915D01*
X030142Y038904D01*
X030111Y038890D01*
X030083Y038873D01*
X030057Y038852D01*
X030033Y038828D01*
X030012Y038802D01*
X029995Y038774D01*
X029981Y038743D01*
X029970Y038712D01*
X029963Y038679D01*
X029960Y038646D01*
X029961Y038613D01*
X029966Y038579D01*
X029974Y038547D01*
X029986Y038516D01*
X030002Y038487D01*
X030021Y038459D01*
X030042Y038434D01*
X030067Y038411D01*
X030094Y038392D01*
X030123Y038376D01*
X030154Y038363D01*
X030186Y038354D01*
X030219Y038349D01*
X030253Y038347D01*
X030255Y038198D02*
X030252Y038108D01*
X030252Y038109D02*
X030219Y038107D01*
X030187Y038102D01*
X030155Y038093D01*
X030124Y038080D01*
X030096Y038063D01*
X030069Y038043D01*
X030045Y038021D01*
X030024Y037995D01*
X030006Y037967D01*
X029991Y037938D01*
X029980Y037907D01*
X029973Y037874D01*
X029969Y037841D01*
X029970Y037808D01*
X029974Y037775D01*
X029982Y037743D01*
X029995Y037712D01*
X030010Y037683D01*
X030029Y037656D01*
X030051Y037631D01*
X030076Y037609D01*
X030103Y037590D01*
X030132Y037575D01*
X030163Y037562D01*
X030195Y037554D01*
X030228Y037550D01*
X030261Y037549D01*
X030294Y037553D01*
X030327Y037560D01*
X030358Y037571D01*
X030387Y037586D01*
X030415Y037604D01*
X030441Y037625D01*
X030463Y037649D01*
X030483Y037676D01*
X030500Y037704D01*
X030513Y037735D01*
X030522Y037767D01*
X030527Y037799D01*
X030529Y037832D01*
X030618Y037835D01*
X030619Y037835D01*
X030618Y037798D01*
X030613Y037761D01*
X030604Y037725D01*
X030592Y037689D01*
X030576Y037655D01*
X030557Y037623D01*
X030534Y037593D01*
X030509Y037566D01*
X030481Y037541D01*
X030451Y037519D01*
X030419Y037500D01*
X030385Y037485D01*
X030349Y037473D01*
X030313Y037465D01*
X030276Y037460D01*
X030239Y037459D01*
X030201Y037462D01*
X030165Y037469D01*
X030129Y037479D01*
X030094Y037493D01*
X030061Y037510D01*
X030030Y037531D01*
X030001Y037555D01*
X029975Y037581D01*
X029951Y037610D01*
X029930Y037641D01*
X029913Y037674D01*
X029899Y037709D01*
X029889Y037745D01*
X029882Y037781D01*
X029879Y037819D01*
X029880Y037856D01*
X029885Y037893D01*
X029893Y037929D01*
X029905Y037965D01*
X029920Y037999D01*
X029939Y038031D01*
X029961Y038061D01*
X029986Y038089D01*
X030013Y038114D01*
X030043Y038137D01*
X030075Y038156D01*
X030109Y038172D01*
X030145Y038184D01*
X030181Y038193D01*
X030218Y038198D01*
X030255Y038199D01*
X030255Y038190D01*
X030218Y038189D01*
X030181Y038184D01*
X030145Y038175D01*
X030110Y038162D01*
X030076Y038146D01*
X030044Y038126D01*
X030015Y038104D01*
X029988Y038078D01*
X029964Y038050D01*
X029942Y038019D01*
X029924Y037987D01*
X029910Y037953D01*
X029899Y037917D01*
X029892Y037880D01*
X029888Y037843D01*
X029889Y037806D01*
X029893Y037769D01*
X029901Y037733D01*
X029913Y037698D01*
X029928Y037664D01*
X029947Y037631D01*
X029969Y037601D01*
X029994Y037574D01*
X030021Y037549D01*
X030051Y037527D01*
X030084Y037508D01*
X030118Y037493D01*
X030153Y037481D01*
X030189Y037473D01*
X030226Y037469D01*
X030263Y037468D01*
X030300Y037472D01*
X030337Y037479D01*
X030373Y037490D01*
X030407Y037504D01*
X030439Y037522D01*
X030470Y037544D01*
X030498Y037568D01*
X030524Y037595D01*
X030546Y037624D01*
X030566Y037656D01*
X030582Y037690D01*
X030595Y037725D01*
X030604Y037761D01*
X030609Y037798D01*
X030610Y037835D01*
X030601Y037835D01*
X030600Y037798D01*
X030594Y037761D01*
X030585Y037725D01*
X030572Y037690D01*
X030556Y037657D01*
X030536Y037625D01*
X030513Y037596D01*
X030487Y037570D01*
X030459Y037546D01*
X030428Y037526D01*
X030395Y037509D01*
X030360Y037495D01*
X030325Y037485D01*
X030288Y037479D01*
X030251Y037477D01*
X030214Y037479D01*
X030177Y037484D01*
X030141Y037494D01*
X030107Y037507D01*
X030074Y037524D01*
X030042Y037544D01*
X030014Y037567D01*
X029987Y037594D01*
X029964Y037622D01*
X029944Y037654D01*
X029927Y037687D01*
X029914Y037721D01*
X029904Y037757D01*
X029899Y037794D01*
X029897Y037831D01*
X029899Y037868D01*
X029905Y037905D01*
X029915Y037940D01*
X029929Y037975D01*
X029946Y038008D01*
X029966Y038039D01*
X029990Y038067D01*
X030016Y038093D01*
X030045Y038116D01*
X030077Y038136D01*
X030110Y038152D01*
X030145Y038165D01*
X030181Y038174D01*
X030218Y038180D01*
X030255Y038181D01*
X030254Y038172D01*
X030218Y038171D01*
X030182Y038165D01*
X030147Y038157D01*
X030114Y038144D01*
X030081Y038128D01*
X030051Y038109D01*
X030022Y038086D01*
X029996Y038061D01*
X029973Y038033D01*
X029953Y038003D01*
X029937Y037971D01*
X029924Y037937D01*
X029914Y037903D01*
X029908Y037867D01*
X029906Y037831D01*
X029908Y037795D01*
X029913Y037759D01*
X029922Y037724D01*
X029935Y037690D01*
X029952Y037658D01*
X029971Y037628D01*
X029994Y037600D01*
X030020Y037574D01*
X030048Y037551D01*
X030078Y037532D01*
X030110Y037515D01*
X030144Y037502D01*
X030179Y037493D01*
X030215Y037488D01*
X030251Y037486D01*
X030287Y037488D01*
X030323Y037494D01*
X030357Y037504D01*
X030391Y037517D01*
X030423Y037533D01*
X030453Y037553D01*
X030481Y037576D01*
X030506Y037602D01*
X030529Y037631D01*
X030548Y037661D01*
X030564Y037694D01*
X030577Y037727D01*
X030585Y037762D01*
X030591Y037798D01*
X030592Y037834D01*
X030583Y037834D01*
X030582Y037798D01*
X030576Y037763D01*
X030567Y037728D01*
X030555Y037694D01*
X030538Y037662D01*
X030519Y037632D01*
X030496Y037604D01*
X030470Y037579D01*
X030442Y037556D01*
X030412Y037537D01*
X030379Y037521D01*
X030345Y037509D01*
X030310Y037501D01*
X030275Y037496D01*
X030239Y037495D01*
X030203Y037498D01*
X030168Y037505D01*
X030133Y037516D01*
X030100Y037530D01*
X030069Y037548D01*
X030040Y037569D01*
X030013Y037593D01*
X029989Y037620D01*
X029968Y037649D01*
X029950Y037680D01*
X029936Y037713D01*
X029925Y037748D01*
X029918Y037783D01*
X029915Y037819D01*
X029916Y037855D01*
X029921Y037890D01*
X029929Y037925D01*
X029941Y037959D01*
X029957Y037992D01*
X029976Y038022D01*
X029999Y038050D01*
X030024Y038076D01*
X030052Y038099D01*
X030082Y038118D01*
X030114Y038135D01*
X030148Y038147D01*
X030183Y038156D01*
X030218Y038162D01*
X030254Y038163D01*
X030254Y038154D01*
X030219Y038153D01*
X030184Y038147D01*
X030150Y038139D01*
X030118Y038126D01*
X030086Y038110D01*
X030057Y038091D01*
X030030Y038069D01*
X030005Y038044D01*
X029984Y038017D01*
X029965Y037987D01*
X029950Y037956D01*
X029938Y037923D01*
X029930Y037889D01*
X029925Y037854D01*
X029924Y037819D01*
X029927Y037784D01*
X029934Y037750D01*
X029944Y037716D01*
X029958Y037684D01*
X029975Y037654D01*
X029996Y037625D01*
X030019Y037599D01*
X030045Y037576D01*
X030074Y037555D01*
X030104Y037538D01*
X030136Y037524D01*
X030170Y037514D01*
X030204Y037507D01*
X030239Y037504D01*
X030274Y037505D01*
X030309Y037510D01*
X030343Y037518D01*
X030376Y037530D01*
X030407Y037545D01*
X030437Y037564D01*
X030464Y037585D01*
X030489Y037610D01*
X030511Y037637D01*
X030530Y037666D01*
X030546Y037698D01*
X030559Y037730D01*
X030567Y037764D01*
X030573Y037799D01*
X030574Y037834D01*
X030565Y037834D01*
X030564Y037799D01*
X030558Y037764D01*
X030549Y037731D01*
X030537Y037698D01*
X030521Y037667D01*
X030501Y037638D01*
X030479Y037612D01*
X030453Y037588D01*
X030426Y037567D01*
X030396Y037549D01*
X030364Y037535D01*
X030331Y037524D01*
X030297Y037517D01*
X030262Y037513D01*
X030227Y037514D01*
X030193Y037518D01*
X030159Y037526D01*
X030126Y037538D01*
X030095Y037553D01*
X030065Y037572D01*
X030038Y037594D01*
X030014Y037618D01*
X029992Y037645D01*
X029973Y037675D01*
X029958Y037706D01*
X029946Y037739D01*
X029938Y037773D01*
X029934Y037807D01*
X029933Y037842D01*
X029937Y037877D01*
X029944Y037911D01*
X029955Y037944D01*
X029969Y037976D01*
X029987Y038006D01*
X030008Y038033D01*
X030032Y038059D01*
X030058Y038081D01*
X030087Y038101D01*
X030118Y038117D01*
X030151Y038129D01*
X030184Y038138D01*
X030219Y038144D01*
X030254Y038145D01*
X030253Y038136D01*
X030220Y038135D01*
X030186Y038129D01*
X030153Y038121D01*
X030122Y038108D01*
X030092Y038093D01*
X030064Y038074D01*
X030038Y038052D01*
X030015Y038027D01*
X029994Y038000D01*
X029977Y037971D01*
X029963Y037941D01*
X029952Y037908D01*
X029946Y037875D01*
X029942Y037842D01*
X029943Y037808D01*
X029947Y037774D01*
X029955Y037741D01*
X029966Y037710D01*
X029981Y037679D01*
X029999Y037651D01*
X030020Y037624D01*
X030044Y037600D01*
X030071Y037579D01*
X030099Y037561D01*
X030130Y037546D01*
X030161Y037535D01*
X030194Y037527D01*
X030228Y037523D01*
X030262Y037522D01*
X030295Y037526D01*
X030328Y037532D01*
X030361Y037543D01*
X030391Y037557D01*
X030420Y037574D01*
X030447Y037595D01*
X030472Y037618D01*
X030494Y037644D01*
X030513Y037672D01*
X030528Y037702D01*
X030541Y037733D01*
X030549Y037766D01*
X030555Y037800D01*
X030556Y037833D01*
X030547Y037833D01*
X030546Y037799D01*
X030540Y037766D01*
X030531Y037734D01*
X030519Y037703D01*
X030503Y037673D01*
X030484Y037645D01*
X030462Y037620D01*
X030437Y037598D01*
X030409Y037578D01*
X030380Y037561D01*
X030349Y037548D01*
X030317Y037539D01*
X030284Y037533D01*
X030250Y037531D01*
X030217Y037533D01*
X030184Y037538D01*
X030151Y037547D01*
X030120Y037560D01*
X030091Y037576D01*
X030063Y037596D01*
X030038Y037618D01*
X030016Y037643D01*
X029996Y037671D01*
X029980Y037700D01*
X029967Y037731D01*
X029958Y037764D01*
X029953Y037797D01*
X029951Y037830D01*
X029953Y037864D01*
X029959Y037897D01*
X029968Y037929D01*
X029981Y037960D01*
X029998Y037989D01*
X030018Y038017D01*
X030040Y038042D01*
X030065Y038064D01*
X030093Y038083D01*
X030123Y038099D01*
X030154Y038111D01*
X030186Y038120D01*
X030219Y038126D01*
X030253Y038127D01*
X030253Y038118D01*
X030219Y038116D01*
X030186Y038111D01*
X030154Y038102D01*
X030123Y038089D01*
X030094Y038073D01*
X030067Y038054D01*
X030042Y038031D01*
X030021Y038006D01*
X030002Y037978D01*
X029986Y037949D01*
X029974Y037918D01*
X029966Y037886D01*
X029961Y037852D01*
X029960Y037819D01*
X029963Y037786D01*
X029970Y037753D01*
X029981Y037722D01*
X029995Y037691D01*
X030012Y037663D01*
X030033Y037637D01*
X030057Y037613D01*
X030083Y037592D01*
X030111Y037575D01*
X030142Y037561D01*
X030173Y037550D01*
X030206Y037543D01*
X030239Y037540D01*
X030272Y037541D01*
X030306Y037546D01*
X030338Y037554D01*
X030369Y037566D01*
X030398Y037582D01*
X030426Y037601D01*
X030451Y037622D01*
X030474Y037647D01*
X030493Y037674D01*
X030509Y037703D01*
X030522Y037734D01*
X030531Y037766D01*
X030536Y037799D01*
X030538Y037833D01*
D26*
X024849Y030137D02*
X024256Y030137D01*
X024256Y029137D02*
X024849Y029137D01*
X024849Y028137D02*
X024256Y028137D01*
X024256Y027137D02*
X024849Y027137D01*
D27*
X021166Y032446D03*
X021166Y032446D03*
D28*
X023378Y035409D03*
X024378Y035409D03*
X035977Y035409D03*
X036977Y035409D03*
D29*
X035578Y017947D03*
X035578Y016963D03*
X033607Y016962D03*
X033607Y017946D03*
X031641Y016963D03*
X029673Y016963D03*
X029673Y017947D03*
X027704Y017947D03*
X027704Y016963D03*
X027704Y009089D03*
X027704Y008105D03*
X029673Y009089D03*
X033610Y009089D03*
X035578Y009089D03*
X035578Y008105D03*
X019597Y014745D03*
X019597Y016714D03*
X019597Y018682D03*
X019597Y020651D03*
X019597Y022619D03*
X019597Y024588D03*
X019597Y026556D03*
X007786Y026556D03*
X007786Y024588D03*
X007786Y022619D03*
X007786Y018682D03*
X007786Y016714D03*
X007786Y014745D03*
D30*
X011641Y031676D02*
X020396Y031676D01*
X021166Y032446D01*
X022196Y032446D01*
X022241Y032401D01*
X022014Y033274D02*
X021178Y032437D01*
X021166Y032451D02*
X020516Y033101D01*
X019441Y033101D01*
X018135Y033101D01*
X022014Y033274D02*
X030278Y033274D01*
X035416Y033274D01*
X038116Y033274D01*
X040392Y033274D01*
X040366Y033301D02*
X040341Y033276D01*
X039841Y033276D01*
X011641Y031676D02*
X010166Y033151D01*
X009391Y033926D01*
X009391Y035744D01*
X008491Y036644D01*
D31*
X007698Y035851D01*
X007698Y034751D01*
X006666Y033851D02*
X006666Y032301D01*
X017741Y021226D01*
X017741Y017351D01*
X018378Y016714D01*
X019597Y016714D01*
X017066Y008776D02*
X017066Y007333D01*
X026935Y007333D01*
X027704Y008105D01*
X027704Y009089D01*
X017066Y008776D02*
X011097Y014745D01*
X007786Y014745D01*
X005941Y011676D02*
X005941Y025401D01*
X007091Y026551D01*
X007780Y026551D01*
X007786Y026556D01*
X007698Y032719D02*
X015829Y024588D01*
X019597Y024588D01*
X012566Y032801D02*
X013466Y033701D01*
X013816Y033701D01*
X017535Y033701D01*
X018135Y033101D01*
X017841Y034801D02*
X018141Y035101D01*
X018135Y035101D02*
X018473Y035439D01*
X018473Y039086D01*
X017841Y034801D02*
X014548Y034801D01*
X012566Y032801D02*
X012548Y032801D01*
X007698Y032751D02*
X007698Y032719D01*
X006666Y033851D02*
X005766Y034751D01*
X005698Y034751D01*
X004891Y035401D02*
X004891Y033601D01*
X005698Y032794D01*
X005698Y032751D01*
X004891Y035401D02*
X007616Y038126D01*
X008566Y038126D01*
X008491Y038201D01*
X008491Y038644D01*
X008566Y038126D02*
X013066Y038126D01*
X013567Y038627D01*
X013567Y039086D01*
X005941Y011676D02*
X010123Y007494D01*
X010607Y007494D01*
X012576Y007494D02*
X014936Y007494D01*
X015098Y007333D01*
D32*
X028898Y021644D02*
X029941Y021644D01*
X028898Y021644D02*
X024560Y025983D01*
X024553Y027137D01*
X030266Y033051D02*
X030266Y033262D01*
X030278Y033274D01*
X034007Y023067D02*
X033603Y022662D01*
X034007Y023067D02*
X038910Y023067D01*
X017473Y037051D02*
X017473Y037876D01*
X017473Y037876D01*
X017473Y039086D01*
X014016Y037126D02*
X014016Y033901D01*
X013816Y033701D01*
X010841Y033826D02*
X010166Y033151D01*
X010841Y033826D02*
X010841Y033933D01*
X014016Y037126D02*
X013666Y037476D01*
X013560Y037476D01*
D33*
X019473Y037051D02*
X019473Y033133D01*
X019441Y033101D01*
X020941Y032221D02*
X021166Y032446D01*
X021478Y032135D01*
X021478Y027362D01*
X024339Y024501D01*
X024766Y024501D01*
X024791Y024476D01*
X024791Y023051D01*
X028791Y024476D02*
X030666Y024476D01*
X030666Y024451D02*
X030616Y024501D01*
X030641Y024501D01*
X030666Y024451D02*
X030666Y023251D01*
X024553Y029137D02*
X022378Y029137D01*
X022003Y029512D01*
X022003Y031887D01*
X021453Y032437D01*
X020273Y037051D02*
X019473Y037051D01*
X020273Y037051D02*
X020816Y037594D01*
D34*
X021616Y037801D02*
X021616Y039773D01*
X041782Y039773D01*
X041782Y039468D01*
X041560Y039596D01*
X041264Y039676D01*
X040957Y039676D01*
X040661Y039596D01*
X040396Y039443D01*
X040179Y039226D01*
X040026Y038961D01*
X039946Y038665D01*
X039946Y038358D01*
X040026Y038062D01*
X040179Y037797D01*
X040396Y037580D01*
X040661Y037427D01*
X040957Y037347D01*
X041264Y037347D01*
X041560Y037427D01*
X041782Y037555D01*
X041782Y028992D01*
X041682Y029092D01*
X041506Y029165D01*
X040715Y029165D01*
X040539Y029092D01*
X040430Y028983D01*
X040416Y028983D01*
X038704Y028983D01*
X038926Y029205D01*
X038926Y029710D01*
X038569Y030068D01*
X038064Y030068D01*
X037706Y029710D01*
X037706Y029205D01*
X037929Y028983D01*
X037824Y028983D01*
X037610Y029196D01*
X037611Y029196D01*
X037611Y029407D01*
X037530Y029602D01*
X037381Y029751D01*
X037186Y029832D01*
X036975Y029832D01*
X036780Y029751D01*
X036631Y029602D01*
X036551Y029407D01*
X036551Y029196D01*
X036631Y029002D01*
X036780Y028852D01*
X036975Y028772D01*
X037186Y028772D01*
X037186Y028772D01*
X037530Y028428D01*
X037640Y028383D01*
X039703Y028383D01*
X039703Y025178D01*
X039748Y025067D01*
X039833Y024983D01*
X040720Y024096D01*
X040802Y024014D01*
X040778Y024024D01*
X040042Y024024D01*
X039874Y023954D01*
X039745Y023825D01*
X039675Y023657D01*
X039675Y023476D01*
X039745Y023308D01*
X039874Y023179D01*
X040042Y023109D01*
X040778Y023109D01*
X040946Y023179D01*
X041074Y023308D01*
X041116Y023409D01*
X041116Y022724D01*
X041074Y022825D01*
X040946Y022954D01*
X040778Y023024D01*
X040042Y023024D01*
X039874Y022954D01*
X039745Y022825D01*
X039675Y022657D01*
X039675Y022476D01*
X039745Y022308D01*
X039874Y022179D01*
X040042Y022109D01*
X040778Y022109D01*
X040946Y022179D01*
X041074Y022308D01*
X041116Y022409D01*
X041116Y021724D01*
X041074Y021825D01*
X040946Y021954D01*
X040778Y022024D01*
X040042Y022024D01*
X039874Y021954D01*
X039745Y021825D01*
X039675Y021657D01*
X039675Y021476D01*
X039745Y021308D01*
X039777Y021276D01*
X039595Y021276D01*
X039574Y021325D01*
X039446Y021454D01*
X039278Y021524D01*
X038542Y021524D01*
X038374Y021454D01*
X038245Y021325D01*
X038175Y021157D01*
X038175Y020976D01*
X038245Y020808D01*
X038374Y020679D01*
X038542Y020609D01*
X039278Y020609D01*
X039439Y020676D01*
X041126Y020676D01*
X041236Y020722D01*
X041586Y021072D01*
X041671Y021156D01*
X041716Y021266D01*
X041716Y023883D01*
X041671Y023994D01*
X041359Y024305D01*
X041144Y024520D01*
X041028Y024636D01*
X041292Y024636D01*
X041550Y024894D01*
X041550Y025258D01*
X041292Y025516D01*
X040927Y025516D01*
X040670Y025258D01*
X040670Y024995D01*
X040303Y025362D01*
X040303Y028383D01*
X040357Y028383D01*
X040358Y028383D01*
X040417Y028383D01*
X040434Y028383D01*
X040539Y028278D01*
X040715Y028205D01*
X041506Y028205D01*
X041682Y028278D01*
X041782Y028377D01*
X041782Y027992D01*
X041682Y028092D01*
X041506Y028165D01*
X040715Y028165D01*
X040539Y028092D01*
X040404Y027957D01*
X040330Y027780D01*
X040330Y027589D01*
X040404Y027413D01*
X040539Y027278D01*
X040715Y027205D01*
X041506Y027205D01*
X041682Y027278D01*
X041782Y027377D01*
X041782Y026992D01*
X041682Y027092D01*
X041506Y027165D01*
X040715Y027165D01*
X040539Y027092D01*
X040404Y026957D01*
X040330Y026780D01*
X040330Y026589D01*
X040404Y026413D01*
X040539Y026278D01*
X040715Y026205D01*
X041506Y026205D01*
X041682Y026278D01*
X041782Y026377D01*
X041782Y019726D01*
X025491Y019726D01*
X025491Y022851D01*
X025282Y022851D01*
X025321Y022946D01*
X025321Y023156D01*
X025241Y023351D01*
X025171Y023421D01*
X025171Y024106D01*
X025241Y024176D01*
X025321Y024371D01*
X025321Y024581D01*
X025241Y024776D01*
X025092Y024925D01*
X024897Y025006D01*
X024686Y025006D01*
X024491Y024925D01*
X024472Y024906D01*
X021858Y027520D01*
X021858Y029120D01*
X022162Y028815D01*
X022302Y028757D01*
X023961Y028757D01*
X023986Y028733D01*
X024161Y028661D01*
X024944Y028661D01*
X025120Y028733D01*
X025254Y028867D01*
X025326Y029043D01*
X025326Y029232D01*
X025254Y029408D01*
X025120Y029542D01*
X024944Y029614D01*
X024161Y029614D01*
X023986Y029542D01*
X023961Y029517D01*
X022535Y029517D01*
X022383Y029670D01*
X022383Y031963D01*
X022325Y032103D01*
X022015Y032412D01*
X022267Y032664D01*
X024400Y032664D01*
X024201Y032465D01*
X024201Y032100D01*
X024459Y031843D01*
X024824Y031843D01*
X025081Y032100D01*
X025081Y032465D01*
X024883Y032664D01*
X026428Y032664D01*
X026221Y032457D01*
X026221Y032303D01*
X026621Y032303D01*
X026621Y032263D01*
X026221Y032263D01*
X026221Y032109D01*
X026467Y031863D01*
X026621Y031863D01*
X026621Y032263D01*
X026661Y032263D01*
X026661Y031863D01*
X026815Y031863D01*
X027061Y032109D01*
X027061Y032263D01*
X026661Y032263D01*
X026661Y032303D01*
X027061Y032303D01*
X027061Y032457D01*
X026854Y032664D01*
X027403Y032664D01*
X027196Y032457D01*
X027196Y032303D01*
X027596Y032303D01*
X027596Y032263D01*
X027196Y032263D01*
X027196Y032109D01*
X027442Y031863D01*
X027596Y031863D01*
X027596Y032263D01*
X027636Y032263D01*
X027636Y031863D01*
X027790Y031863D01*
X028036Y032109D01*
X028036Y032263D01*
X027636Y032263D01*
X027636Y032303D01*
X028036Y032303D01*
X028036Y032457D01*
X027829Y032664D01*
X029375Y032664D01*
X029176Y032465D01*
X029176Y032100D01*
X029434Y031843D01*
X029799Y031843D01*
X030056Y032100D01*
X030056Y032465D01*
X029858Y032664D01*
X039588Y032664D01*
X039757Y032594D01*
X041027Y032594D01*
X041277Y032697D01*
X041468Y032888D01*
X041572Y033138D01*
X041572Y033409D01*
X041468Y033659D01*
X041277Y033850D01*
X041027Y033954D01*
X039757Y033954D01*
X039588Y033884D01*
X032625Y033884D01*
X032693Y033952D01*
X032693Y034106D01*
X032293Y034106D01*
X032293Y034146D01*
X032253Y034146D01*
X032253Y034106D01*
X031853Y034106D01*
X031853Y033952D01*
X031921Y033884D01*
X021893Y033884D01*
X021668Y033791D01*
X021616Y033739D01*
X021616Y037017D01*
X021654Y036925D01*
X021895Y036685D01*
X022208Y036555D01*
X022548Y036555D01*
X022862Y036685D01*
X023102Y036925D01*
X023232Y037239D01*
X023232Y037579D01*
X023102Y037893D01*
X022862Y038133D01*
X022548Y038263D01*
X022208Y038263D01*
X021895Y038133D01*
X021654Y037893D01*
X021616Y037801D01*
X021616Y037869D02*
X021645Y037869D01*
X021616Y037988D02*
X021750Y037988D01*
X021868Y038106D02*
X021616Y038106D01*
X021616Y038225D02*
X022117Y038225D01*
X021616Y038343D02*
X029361Y038343D01*
X029361Y038452D02*
X029361Y038014D01*
X029503Y037600D01*
X029503Y037600D01*
X029772Y037254D01*
X030138Y037015D01*
X030138Y037015D01*
X030563Y036907D01*
X030999Y036943D01*
X031400Y037119D01*
X031722Y037416D01*
X031930Y037801D01*
X032003Y038233D01*
X031930Y038665D01*
X031722Y039050D01*
X031400Y039346D01*
X030999Y039522D01*
X030563Y039558D01*
X030563Y039558D01*
X030138Y039451D01*
X029772Y039211D01*
X029772Y039211D01*
X029503Y038866D01*
X029503Y038866D01*
X029361Y038452D01*
X029364Y038462D02*
X021616Y038462D01*
X021616Y038580D02*
X029405Y038580D01*
X029446Y038699D02*
X021616Y038699D01*
X021616Y038817D02*
X029486Y038817D01*
X029558Y038936D02*
X021616Y038936D01*
X021616Y039054D02*
X029650Y039054D01*
X029742Y039173D02*
X021616Y039173D01*
X021616Y039291D02*
X029895Y039291D01*
X029772Y039211D02*
X029772Y039211D01*
X030076Y039410D02*
X021616Y039410D01*
X021616Y039528D02*
X030446Y039528D01*
X030138Y039451D02*
X030138Y039451D01*
X030921Y039528D02*
X040544Y039528D01*
X040363Y039410D02*
X031254Y039410D01*
X031400Y039346D02*
X031400Y039346D01*
X031459Y039291D02*
X040244Y039291D01*
X040148Y039173D02*
X031588Y039173D01*
X031717Y039054D02*
X040080Y039054D01*
X040019Y038936D02*
X031784Y038936D01*
X031722Y039050D02*
X031722Y039050D01*
X031848Y038817D02*
X039987Y038817D01*
X039955Y038699D02*
X031912Y038699D01*
X031930Y038665D02*
X031930Y038665D01*
X031944Y038580D02*
X039946Y038580D01*
X039946Y038462D02*
X031964Y038462D01*
X031984Y038343D02*
X039950Y038343D01*
X039982Y038225D02*
X039238Y038225D01*
X039146Y038263D02*
X039460Y038133D01*
X039700Y037893D01*
X039830Y037579D01*
X039830Y037239D01*
X039700Y036925D01*
X039460Y036685D01*
X039146Y036555D01*
X038807Y036555D01*
X038493Y036685D01*
X038253Y036925D01*
X038123Y037239D01*
X038123Y037579D01*
X038253Y037893D01*
X038493Y038133D01*
X038807Y038263D01*
X039146Y038263D01*
X039487Y038106D02*
X040014Y038106D01*
X040068Y037988D02*
X039605Y037988D01*
X039710Y037869D02*
X040137Y037869D01*
X040224Y037751D02*
X039759Y037751D01*
X039808Y037632D02*
X040343Y037632D01*
X040510Y037514D02*
X039830Y037514D01*
X039830Y037395D02*
X040777Y037395D01*
X041444Y037395D02*
X041782Y037395D01*
X041782Y037277D02*
X039830Y037277D01*
X039797Y037158D02*
X041782Y037158D01*
X041782Y037040D02*
X039748Y037040D01*
X039696Y036921D02*
X041782Y036921D01*
X041782Y036803D02*
X039578Y036803D01*
X039458Y036684D02*
X041782Y036684D01*
X041782Y036566D02*
X039172Y036566D01*
X038781Y036566D02*
X035172Y036566D01*
X035146Y036555D02*
X035460Y036685D01*
X035700Y036925D01*
X035830Y037239D01*
X035830Y037579D01*
X035700Y037893D01*
X035460Y038133D01*
X035146Y038263D01*
X034807Y038263D01*
X034493Y038133D01*
X034253Y037893D01*
X034123Y037579D01*
X034123Y037239D01*
X034253Y036925D01*
X034493Y036685D01*
X034807Y036555D01*
X035146Y036555D01*
X035458Y036684D02*
X038495Y036684D01*
X038375Y036803D02*
X035578Y036803D01*
X035696Y036921D02*
X038257Y036921D01*
X038205Y037040D02*
X035748Y037040D01*
X035797Y037158D02*
X038156Y037158D01*
X038123Y037277D02*
X035830Y037277D01*
X035830Y037395D02*
X038123Y037395D01*
X038123Y037514D02*
X035830Y037514D01*
X035808Y037632D02*
X038145Y037632D01*
X038194Y037751D02*
X035759Y037751D01*
X035710Y037869D02*
X038243Y037869D01*
X038348Y037988D02*
X035605Y037988D01*
X035487Y038106D02*
X038467Y038106D01*
X038716Y038225D02*
X035238Y038225D01*
X034716Y038225D02*
X032001Y038225D01*
X031981Y038106D02*
X034467Y038106D01*
X034348Y037988D02*
X031962Y037988D01*
X031942Y037869D02*
X034243Y037869D01*
X034194Y037751D02*
X031903Y037751D01*
X031930Y037801D02*
X031930Y037801D01*
X031839Y037632D02*
X034145Y037632D01*
X034123Y037514D02*
X031775Y037514D01*
X031722Y037416D02*
X031722Y037416D01*
X031700Y037395D02*
X034123Y037395D01*
X034123Y037277D02*
X031571Y037277D01*
X031443Y037158D02*
X034156Y037158D01*
X034205Y037040D02*
X031219Y037040D01*
X031400Y037119D02*
X031400Y037119D01*
X030999Y036943D02*
X030999Y036943D01*
X030735Y036921D02*
X034257Y036921D01*
X034375Y036803D02*
X026979Y036803D01*
X026862Y036685D02*
X027102Y036925D01*
X027232Y037239D01*
X027232Y037579D01*
X027102Y037893D01*
X026862Y038133D01*
X026548Y038263D01*
X026208Y038263D01*
X025895Y038133D01*
X025654Y037893D01*
X025525Y037579D01*
X025525Y037239D01*
X025654Y036925D01*
X025895Y036685D01*
X026208Y036555D01*
X026548Y036555D01*
X026862Y036685D01*
X026860Y036684D02*
X029577Y036684D01*
X029581Y036686D02*
X029413Y036617D01*
X029284Y036488D01*
X029214Y036320D01*
X029214Y035584D01*
X029284Y035416D01*
X029413Y035287D01*
X029581Y035217D01*
X029762Y035217D01*
X029930Y035287D01*
X030059Y035416D01*
X030129Y035584D01*
X030129Y036320D01*
X030059Y036488D01*
X029930Y036617D01*
X029762Y036686D01*
X029581Y036686D01*
X029766Y036684D02*
X030577Y036684D01*
X030581Y036686D02*
X030413Y036617D01*
X030284Y036488D01*
X030214Y036320D01*
X030214Y035584D01*
X030284Y035416D01*
X030413Y035287D01*
X030581Y035217D01*
X030762Y035217D01*
X030930Y035287D01*
X031059Y035416D01*
X031129Y035584D01*
X031129Y036320D01*
X031059Y036488D01*
X030930Y036617D01*
X030762Y036686D01*
X030581Y036686D01*
X030766Y036684D02*
X031577Y036684D01*
X031581Y036686D02*
X031413Y036617D01*
X031284Y036488D01*
X031214Y036320D01*
X031214Y035584D01*
X031284Y035416D01*
X031413Y035287D01*
X031581Y035217D01*
X031762Y035217D01*
X031930Y035287D01*
X032059Y035416D01*
X032129Y035584D01*
X032129Y036320D01*
X032059Y036488D01*
X031930Y036617D01*
X031762Y036686D01*
X031581Y036686D01*
X031766Y036684D02*
X034495Y036684D01*
X034781Y036566D02*
X031981Y036566D01*
X032076Y036447D02*
X041782Y036447D01*
X041782Y036329D02*
X032125Y036329D01*
X032129Y036210D02*
X041782Y036210D01*
X041782Y036092D02*
X032129Y036092D01*
X032129Y035973D02*
X041782Y035973D01*
X041782Y035855D02*
X037095Y035855D01*
X037068Y035866D02*
X036886Y035866D01*
X036718Y035797D01*
X036589Y035668D01*
X036519Y035500D01*
X036519Y035318D01*
X036589Y035150D01*
X036718Y035021D01*
X036886Y034952D01*
X037068Y034952D01*
X037236Y035021D01*
X037364Y035150D01*
X037434Y035318D01*
X037434Y035500D01*
X037364Y035668D01*
X037236Y035797D01*
X037068Y035866D01*
X036859Y035855D02*
X032129Y035855D01*
X032129Y035736D02*
X035686Y035736D01*
X035692Y035743D02*
X035643Y035694D01*
X035603Y035638D01*
X035572Y035577D01*
X035550Y035511D01*
X035539Y035443D01*
X035539Y035438D01*
X035948Y035438D01*
X035948Y035846D01*
X035942Y035846D01*
X035874Y035835D01*
X035809Y035814D01*
X035748Y035783D01*
X035692Y035743D01*
X035592Y035618D02*
X032129Y035618D01*
X032094Y035499D02*
X035548Y035499D01*
X035539Y035380D02*
X035539Y035375D01*
X035550Y035307D01*
X035572Y035241D01*
X035603Y035180D01*
X035643Y035124D01*
X035692Y035076D01*
X035748Y035035D01*
X035809Y035004D01*
X035874Y034983D01*
X035942Y034972D01*
X035948Y034972D01*
X035948Y035380D01*
X036005Y035380D01*
X036005Y034972D01*
X036011Y034972D01*
X036079Y034983D01*
X036144Y035004D01*
X036206Y035035D01*
X036261Y035076D01*
X036310Y035124D01*
X036351Y035180D01*
X036382Y035241D01*
X036403Y035307D01*
X036414Y035375D01*
X036414Y035380D01*
X036005Y035380D01*
X036005Y035438D01*
X035948Y035438D01*
X035948Y035380D01*
X035539Y035380D01*
X035565Y035262D02*
X031871Y035262D01*
X032024Y035381D02*
X035948Y035381D01*
X036005Y035381D02*
X036519Y035381D01*
X036519Y035499D02*
X036405Y035499D01*
X036403Y035511D02*
X036382Y035577D01*
X036351Y035638D01*
X036310Y035694D01*
X036261Y035743D01*
X036206Y035783D01*
X036144Y035814D01*
X036079Y035835D01*
X036011Y035846D01*
X036005Y035846D01*
X036005Y035438D01*
X036414Y035438D01*
X036414Y035443D01*
X036403Y035511D01*
X036361Y035618D02*
X036568Y035618D01*
X036658Y035736D02*
X036267Y035736D01*
X036005Y035736D02*
X035948Y035736D01*
X035948Y035618D02*
X036005Y035618D01*
X036005Y035499D02*
X035948Y035499D01*
X035948Y035262D02*
X036005Y035262D01*
X036005Y035144D02*
X035948Y035144D01*
X035948Y035025D02*
X036005Y035025D01*
X036187Y035025D02*
X036714Y035025D01*
X036595Y035144D02*
X036324Y035144D01*
X036389Y035262D02*
X036543Y035262D01*
X035767Y035025D02*
X024641Y035025D01*
X024637Y035021D02*
X024766Y035150D01*
X024835Y035318D01*
X024835Y035500D01*
X024766Y035668D01*
X024637Y035797D01*
X024469Y035866D01*
X024287Y035866D01*
X024119Y035797D01*
X023991Y035668D01*
X023921Y035500D01*
X023921Y035318D01*
X023991Y035150D01*
X024119Y035021D01*
X024287Y034952D01*
X024469Y034952D01*
X024637Y035021D01*
X024760Y035144D02*
X035629Y035144D01*
X037240Y035025D02*
X041782Y035025D01*
X041782Y034907D02*
X021616Y034907D01*
X021616Y035025D02*
X023168Y035025D01*
X023149Y035035D02*
X023210Y035004D01*
X023276Y034983D01*
X023344Y034972D01*
X023350Y034972D01*
X023350Y035380D01*
X023407Y035380D01*
X023407Y034972D01*
X023413Y034972D01*
X023481Y034983D01*
X023546Y035004D01*
X023607Y035035D01*
X023663Y035076D01*
X023712Y035124D01*
X023752Y035180D01*
X023783Y035241D01*
X023805Y035307D01*
X023815Y035375D01*
X023815Y035380D01*
X023407Y035380D01*
X023407Y035438D01*
X023350Y035438D01*
X023350Y035846D01*
X023344Y035846D01*
X023276Y035835D01*
X023210Y035814D01*
X023149Y035783D01*
X023093Y035743D01*
X023045Y035694D01*
X023004Y035638D01*
X022973Y035577D01*
X022952Y035511D01*
X022941Y035443D01*
X022941Y035438D01*
X023350Y035438D01*
X023350Y035380D01*
X022941Y035380D01*
X022941Y035375D01*
X022952Y035307D01*
X022973Y035241D01*
X023004Y035180D01*
X023045Y035124D01*
X023093Y035076D01*
X023149Y035035D01*
X023030Y035144D02*
X021616Y035144D01*
X021616Y035262D02*
X022966Y035262D01*
X022950Y035499D02*
X021616Y035499D01*
X021616Y035381D02*
X023350Y035381D01*
X023407Y035381D02*
X023921Y035381D01*
X023921Y035499D02*
X023807Y035499D01*
X023805Y035511D02*
X023783Y035577D01*
X023752Y035638D01*
X023712Y035694D01*
X023663Y035743D01*
X023607Y035783D01*
X023546Y035814D01*
X023481Y035835D01*
X023413Y035846D01*
X023407Y035846D01*
X023407Y035438D01*
X023815Y035438D01*
X023815Y035443D01*
X023805Y035511D01*
X023762Y035618D02*
X023970Y035618D01*
X024059Y035736D02*
X023669Y035736D01*
X023407Y035736D02*
X023350Y035736D01*
X023350Y035618D02*
X023407Y035618D01*
X023407Y035499D02*
X023350Y035499D01*
X023350Y035262D02*
X023407Y035262D01*
X023407Y035144D02*
X023350Y035144D01*
X023350Y035025D02*
X023407Y035025D01*
X023588Y035025D02*
X024115Y035025D01*
X023997Y035144D02*
X023726Y035144D01*
X023790Y035262D02*
X023944Y035262D01*
X024260Y035855D02*
X021616Y035855D01*
X021616Y035973D02*
X029214Y035973D01*
X029214Y035855D02*
X024496Y035855D01*
X024697Y035736D02*
X029214Y035736D01*
X029214Y035618D02*
X024787Y035618D01*
X024835Y035499D02*
X029249Y035499D01*
X029319Y035381D02*
X024835Y035381D01*
X024812Y035262D02*
X029472Y035262D01*
X029871Y035262D02*
X030472Y035262D01*
X030319Y035381D02*
X030024Y035381D01*
X030094Y035499D02*
X030249Y035499D01*
X030214Y035618D02*
X030129Y035618D01*
X030129Y035736D02*
X030214Y035736D01*
X030214Y035855D02*
X030129Y035855D01*
X030129Y035973D02*
X030214Y035973D01*
X030214Y036092D02*
X030129Y036092D01*
X030129Y036210D02*
X030214Y036210D01*
X030218Y036329D02*
X030125Y036329D01*
X030076Y036447D02*
X030267Y036447D01*
X030362Y036566D02*
X029981Y036566D01*
X030100Y037040D02*
X027149Y037040D01*
X027198Y037158D02*
X029918Y037158D01*
X029772Y037254D02*
X029772Y037254D01*
X029772Y037254D01*
X029754Y037277D02*
X027232Y037277D01*
X027232Y037395D02*
X029662Y037395D01*
X029570Y037514D02*
X027232Y037514D01*
X027210Y037632D02*
X029492Y037632D01*
X029451Y037751D02*
X027161Y037751D01*
X027112Y037869D02*
X029410Y037869D01*
X029370Y037988D02*
X027007Y037988D01*
X026888Y038106D02*
X029361Y038106D01*
X029361Y038225D02*
X026639Y038225D01*
X026117Y038225D02*
X022639Y038225D01*
X022888Y038106D02*
X025868Y038106D01*
X025750Y037988D02*
X023007Y037988D01*
X023112Y037869D02*
X025645Y037869D01*
X025596Y037751D02*
X023161Y037751D01*
X023210Y037632D02*
X025547Y037632D01*
X025525Y037514D02*
X023232Y037514D01*
X023232Y037395D02*
X025525Y037395D01*
X025525Y037277D02*
X023232Y037277D01*
X023198Y037158D02*
X025558Y037158D01*
X025607Y037040D02*
X023149Y037040D01*
X023098Y036921D02*
X025658Y036921D01*
X025777Y036803D02*
X022979Y036803D01*
X022860Y036684D02*
X025897Y036684D01*
X026183Y036566D02*
X022574Y036566D01*
X022183Y036566D02*
X021616Y036566D01*
X021616Y036684D02*
X021897Y036684D01*
X021777Y036803D02*
X021616Y036803D01*
X021616Y036921D02*
X021658Y036921D01*
X021616Y036447D02*
X029267Y036447D01*
X029218Y036329D02*
X021616Y036329D01*
X021616Y036210D02*
X029214Y036210D01*
X029214Y036092D02*
X021616Y036092D01*
X021616Y035736D02*
X023087Y035736D01*
X022994Y035618D02*
X021616Y035618D01*
X021616Y034788D02*
X041782Y034788D01*
X041782Y034670D02*
X021616Y034670D01*
X021616Y034551D02*
X041782Y034551D01*
X041782Y034433D02*
X032560Y034433D01*
X032447Y034546D02*
X032693Y034300D01*
X032693Y034146D01*
X032293Y034146D01*
X032293Y034546D01*
X032447Y034546D01*
X032293Y034433D02*
X032253Y034433D01*
X032253Y034546D02*
X032099Y034546D01*
X031853Y034300D01*
X031853Y034146D01*
X032253Y034146D01*
X032253Y034546D01*
X032253Y034314D02*
X032293Y034314D01*
X032293Y034196D02*
X032253Y034196D01*
X031986Y034433D02*
X021616Y034433D01*
X021616Y034314D02*
X031868Y034314D01*
X031853Y034196D02*
X021616Y034196D01*
X021616Y034077D02*
X031853Y034077D01*
X031853Y033959D02*
X021616Y033959D01*
X021616Y033840D02*
X021788Y033840D01*
X022258Y032655D02*
X024392Y032655D01*
X024273Y032537D02*
X022140Y032537D01*
X022021Y032418D02*
X024201Y032418D01*
X024201Y032300D02*
X022127Y032300D01*
X022246Y032181D02*
X024201Y032181D01*
X024239Y032063D02*
X022341Y032063D01*
X022383Y031944D02*
X024357Y031944D01*
X024459Y031834D02*
X024201Y031577D01*
X024201Y031212D01*
X024459Y030954D01*
X024824Y030954D01*
X025081Y031212D01*
X025081Y031577D01*
X024824Y031834D01*
X024459Y031834D01*
X024451Y031826D02*
X022383Y031826D01*
X022383Y031707D02*
X024332Y031707D01*
X024214Y031589D02*
X022383Y031589D01*
X022383Y031470D02*
X024201Y031470D01*
X024201Y031352D02*
X022383Y031352D01*
X022383Y031233D02*
X024201Y031233D01*
X024298Y031115D02*
X022383Y031115D01*
X022383Y030996D02*
X024417Y030996D01*
X024866Y030996D02*
X028417Y030996D01*
X028457Y030957D02*
X028226Y030727D01*
X028226Y030362D01*
X028450Y030138D01*
X028226Y029915D01*
X028226Y029550D01*
X028484Y029293D01*
X028849Y029293D01*
X029106Y029550D01*
X029106Y029915D01*
X028883Y030138D01*
X029106Y030362D01*
X029106Y030727D01*
X028851Y030982D01*
X029081Y031212D01*
X029081Y031577D01*
X028824Y031834D01*
X028459Y031834D01*
X028201Y031577D01*
X028201Y031212D01*
X028457Y030957D01*
X028378Y030878D02*
X026955Y030878D01*
X026849Y030984D02*
X027106Y030727D01*
X027106Y030362D01*
X026883Y030138D01*
X027106Y029915D01*
X027106Y029550D01*
X026857Y029301D01*
X027106Y029052D01*
X027106Y028687D01*
X026858Y028438D01*
X027106Y028190D01*
X027106Y027825D01*
X026849Y027568D01*
X026484Y027568D01*
X026226Y027825D01*
X026226Y028190D01*
X026475Y028438D01*
X026226Y028687D01*
X026226Y029052D01*
X026476Y029301D01*
X026226Y029550D01*
X026226Y029915D01*
X026450Y030138D01*
X026226Y030362D01*
X026226Y030727D01*
X026484Y030984D01*
X026849Y030984D01*
X027073Y030759D02*
X028259Y030759D01*
X028226Y030641D02*
X027106Y030641D01*
X027106Y030522D02*
X028226Y030522D01*
X028226Y030404D02*
X027106Y030404D01*
X027030Y030285D02*
X028303Y030285D01*
X028421Y030167D02*
X026911Y030167D01*
X026973Y030048D02*
X028360Y030048D01*
X028241Y029930D02*
X027091Y029930D01*
X027106Y029811D02*
X028226Y029811D01*
X028226Y029693D02*
X027106Y029693D01*
X027106Y029574D02*
X028226Y029574D01*
X028321Y029456D02*
X027012Y029456D01*
X026893Y029337D02*
X028439Y029337D01*
X028492Y029289D02*
X028246Y029043D01*
X028246Y028889D01*
X028646Y028889D01*
X028646Y028849D01*
X028246Y028849D01*
X028246Y028695D01*
X028492Y028449D01*
X028646Y028449D01*
X028646Y028849D01*
X028686Y028849D01*
X028686Y028449D01*
X028840Y028449D01*
X029086Y028695D01*
X029086Y028849D01*
X028686Y028849D01*
X028686Y028889D01*
X028646Y028889D01*
X028646Y029289D01*
X028492Y029289D01*
X028422Y029219D02*
X026939Y029219D01*
X027057Y029100D02*
X028304Y029100D01*
X028246Y028982D02*
X027106Y028982D01*
X027106Y028863D02*
X028646Y028863D01*
X028686Y028863D02*
X030186Y028863D01*
X030114Y028791D02*
X029916Y028791D01*
X029658Y028533D01*
X029658Y028169D01*
X029816Y028010D01*
X029816Y026991D01*
X029862Y026881D01*
X029946Y026797D01*
X030366Y026377D01*
X030366Y024856D01*
X029161Y024856D01*
X029092Y024925D01*
X028897Y025006D01*
X028686Y025006D01*
X028491Y024925D01*
X028342Y024776D01*
X028261Y024581D01*
X028261Y024371D01*
X028342Y024176D01*
X028491Y024027D01*
X028686Y023946D01*
X028897Y023946D01*
X029092Y024027D01*
X029161Y024096D01*
X030286Y024096D01*
X030286Y023175D01*
X030288Y023171D01*
X030288Y022978D01*
X030394Y022873D01*
X030586Y022873D01*
X030591Y022871D01*
X030742Y022871D01*
X030747Y022873D01*
X030939Y022873D01*
X031045Y022978D01*
X031045Y023171D01*
X031046Y023175D01*
X031046Y024552D01*
X030989Y024691D01*
X030966Y024713D01*
X030966Y026561D01*
X030921Y026671D01*
X030416Y027175D01*
X030416Y028047D01*
X030538Y028169D01*
X030538Y028367D01*
X031527Y029356D01*
X031573Y029466D01*
X031573Y030269D01*
X031646Y030342D01*
X031713Y030503D01*
X031713Y031199D01*
X031646Y031360D01*
X031522Y031484D01*
X031361Y031551D01*
X031186Y031551D01*
X031024Y031484D01*
X030900Y031360D01*
X030833Y031199D01*
X030833Y030503D01*
X030900Y030342D01*
X030973Y030269D01*
X030973Y029650D01*
X030114Y028791D01*
X029870Y028745D02*
X029086Y028745D01*
X029018Y028626D02*
X029751Y028626D01*
X029658Y028508D02*
X028899Y028508D01*
X028849Y028448D02*
X028484Y028448D01*
X028226Y028190D01*
X028226Y027825D01*
X028484Y027568D01*
X028849Y027568D01*
X029106Y027825D01*
X029106Y028190D01*
X028849Y028448D01*
X028907Y028389D02*
X029658Y028389D01*
X029658Y028271D02*
X029025Y028271D01*
X029106Y028152D02*
X029674Y028152D01*
X029793Y028034D02*
X029106Y028034D01*
X029106Y027915D02*
X029816Y027915D01*
X029816Y027797D02*
X029078Y027797D01*
X028959Y027678D02*
X029816Y027678D01*
X029816Y027560D02*
X025075Y027560D01*
X025120Y027542D02*
X024944Y027614D01*
X024161Y027614D01*
X023986Y027542D01*
X023852Y027408D01*
X023779Y027232D01*
X023779Y027043D01*
X023852Y026867D01*
X023986Y026733D01*
X024161Y026661D01*
X024296Y026661D01*
X024300Y025982D01*
X024300Y025931D01*
X024300Y025930D01*
X024300Y025929D01*
X024320Y025882D01*
X024339Y025835D01*
X024340Y025835D01*
X024340Y025834D01*
X024376Y025798D01*
X028678Y021497D01*
X028751Y021424D01*
X028846Y021384D01*
X029579Y021384D01*
X029759Y021204D01*
X030124Y021204D01*
X030381Y021462D01*
X030381Y021827D01*
X030162Y022046D01*
X030361Y022245D01*
X030361Y022399D01*
X029961Y022399D01*
X029961Y022439D01*
X029921Y022439D01*
X029921Y022399D01*
X029521Y022399D01*
X029521Y022245D01*
X029721Y022046D01*
X029579Y021904D01*
X029006Y021904D01*
X024819Y026091D01*
X024816Y026661D01*
X024944Y026661D01*
X025120Y026733D01*
X025254Y026867D01*
X025326Y027043D01*
X025326Y027232D01*
X025254Y027408D01*
X025120Y027542D01*
X025220Y027441D02*
X026453Y027441D01*
X026484Y027473D02*
X026226Y027215D01*
X026226Y026850D01*
X026484Y026593D01*
X026849Y026593D01*
X027106Y026850D01*
X027106Y027215D01*
X026849Y027473D01*
X026484Y027473D01*
X026334Y027323D02*
X025289Y027323D01*
X025326Y027204D02*
X026226Y027204D01*
X026226Y027086D02*
X025326Y027086D01*
X025295Y026967D02*
X026226Y026967D01*
X026228Y026849D02*
X025235Y026849D01*
X025113Y026730D02*
X026346Y026730D01*
X026465Y026612D02*
X024816Y026612D01*
X024817Y026493D02*
X030250Y026493D01*
X030366Y026375D02*
X029908Y026375D01*
X029842Y026441D02*
X029477Y026441D01*
X029220Y026183D01*
X029220Y025819D01*
X029477Y025561D01*
X029842Y025561D01*
X030100Y025819D01*
X030100Y026183D01*
X029842Y026441D01*
X030027Y026256D02*
X030366Y026256D01*
X030366Y026138D02*
X030100Y026138D01*
X030100Y026019D02*
X030366Y026019D01*
X030366Y025901D02*
X030100Y025901D01*
X030063Y025782D02*
X030366Y025782D01*
X030366Y025664D02*
X029945Y025664D01*
X030366Y025545D02*
X025365Y025545D01*
X025477Y025561D02*
X025220Y025819D01*
X025220Y026183D01*
X025477Y026441D01*
X025842Y026441D01*
X026100Y026183D01*
X026100Y025819D01*
X025842Y025561D01*
X025477Y025561D01*
X025483Y025427D02*
X030366Y025427D01*
X030366Y025308D02*
X025602Y025308D01*
X025720Y025190D02*
X030366Y025190D01*
X030366Y025071D02*
X025839Y025071D01*
X025957Y024953D02*
X028558Y024953D01*
X028400Y024834D02*
X026076Y024834D01*
X026194Y024716D02*
X028317Y024716D01*
X028268Y024597D02*
X026313Y024597D01*
X026431Y024479D02*
X028261Y024479D01*
X028266Y024360D02*
X026550Y024360D01*
X026668Y024242D02*
X028315Y024242D01*
X028394Y024123D02*
X026787Y024123D01*
X026905Y024005D02*
X028544Y024005D01*
X028686Y023581D02*
X028491Y023500D01*
X028342Y023351D01*
X028261Y023156D01*
X028261Y022946D01*
X028342Y022751D01*
X028491Y022602D01*
X028686Y022521D01*
X028897Y022521D01*
X029092Y022602D01*
X029241Y022751D01*
X029321Y022946D01*
X029321Y023156D01*
X029241Y023351D01*
X029092Y023500D01*
X028897Y023581D01*
X028686Y023581D01*
X028565Y023531D02*
X027379Y023531D01*
X027261Y023649D02*
X030286Y023649D01*
X030286Y023531D02*
X029018Y023531D01*
X029179Y023412D02*
X030286Y023412D01*
X030286Y023294D02*
X029264Y023294D01*
X029314Y023175D02*
X030286Y023175D01*
X030288Y023057D02*
X029321Y023057D01*
X029318Y022938D02*
X030328Y022938D01*
X030135Y022820D02*
X031720Y022820D01*
X031759Y022859D02*
X031501Y022602D01*
X031501Y022237D01*
X031707Y022032D01*
X031501Y021827D01*
X031501Y021462D01*
X031751Y021212D01*
X031699Y021191D01*
X031570Y021062D01*
X031500Y020892D01*
X031500Y020709D01*
X031570Y020540D01*
X031699Y020411D01*
X031868Y020341D01*
X032051Y020341D01*
X032220Y020411D01*
X032350Y020540D01*
X032420Y020709D01*
X032420Y020892D01*
X032350Y021062D01*
X032220Y021191D01*
X032143Y021223D01*
X032381Y021462D01*
X032381Y021827D01*
X032176Y022032D01*
X032381Y022237D01*
X032381Y022602D01*
X032124Y022859D01*
X031759Y022859D01*
X031601Y022701D02*
X030253Y022701D01*
X030361Y022593D02*
X030115Y022839D01*
X029961Y022839D01*
X029961Y022439D01*
X030361Y022439D01*
X030361Y022593D01*
X030361Y022583D02*
X031501Y022583D01*
X031501Y022464D02*
X030361Y022464D01*
X030361Y022346D02*
X031501Y022346D01*
X031511Y022227D02*
X030344Y022227D01*
X030225Y022109D02*
X031630Y022109D01*
X031665Y021990D02*
X030218Y021990D01*
X030336Y021872D02*
X031547Y021872D01*
X031501Y021753D02*
X030381Y021753D01*
X030381Y021635D02*
X031501Y021635D01*
X031501Y021516D02*
X030381Y021516D01*
X030317Y021398D02*
X031566Y021398D01*
X031684Y021279D02*
X030199Y021279D01*
X029684Y021279D02*
X025491Y021279D01*
X025491Y021161D02*
X028707Y021161D01*
X028729Y021177D02*
X028673Y021137D01*
X028624Y021088D01*
X028583Y021032D01*
X028552Y020970D01*
X028531Y020904D01*
X028520Y020836D01*
X028520Y020821D01*
X028940Y020821D01*
X028940Y021241D01*
X028925Y021241D01*
X028857Y021230D01*
X028791Y021209D01*
X028729Y021177D01*
X028591Y021042D02*
X025491Y021042D01*
X025491Y020924D02*
X028537Y020924D01*
X028520Y020781D02*
X028520Y020766D01*
X028531Y020698D01*
X028552Y020632D01*
X028583Y020570D01*
X028624Y020514D01*
X028673Y020465D01*
X028729Y020425D01*
X028791Y020393D01*
X028857Y020372D01*
X028925Y020361D01*
X028940Y020361D01*
X028940Y020781D01*
X028980Y020781D01*
X028980Y020821D01*
X029400Y020821D01*
X029400Y020836D01*
X029389Y020904D01*
X029367Y020970D01*
X029336Y021032D01*
X029295Y021088D01*
X029246Y021137D01*
X029190Y021177D01*
X029129Y021209D01*
X029063Y021230D01*
X028994Y021241D01*
X028980Y021241D01*
X028980Y020821D01*
X028940Y020821D01*
X028940Y020781D01*
X028520Y020781D01*
X028534Y020687D02*
X025491Y020687D01*
X025491Y020805D02*
X028940Y020805D01*
X028980Y020805D02*
X031500Y020805D01*
X031509Y020687D02*
X029385Y020687D01*
X029389Y020698D02*
X029400Y020766D01*
X029400Y020781D01*
X028980Y020781D01*
X028980Y020361D01*
X028994Y020361D01*
X029063Y020372D01*
X029129Y020393D01*
X029190Y020425D01*
X029246Y020465D01*
X029295Y020514D01*
X029336Y020570D01*
X029367Y020632D01*
X029389Y020698D01*
X029335Y020568D02*
X031558Y020568D01*
X031660Y020450D02*
X029225Y020450D01*
X028980Y020450D02*
X028940Y020450D01*
X028940Y020568D02*
X028980Y020568D01*
X028980Y020687D02*
X028940Y020687D01*
X028940Y020924D02*
X028980Y020924D01*
X028980Y021042D02*
X028940Y021042D01*
X028940Y021161D02*
X028980Y021161D01*
X029213Y021161D02*
X031669Y021161D01*
X031562Y021042D02*
X029328Y021042D01*
X029382Y020924D02*
X031513Y020924D01*
X032199Y021279D02*
X033119Y021279D01*
X033094Y021290D02*
X033256Y021223D01*
X033951Y021223D01*
X034113Y021290D01*
X034237Y021414D01*
X034304Y021575D01*
X034304Y021750D01*
X034237Y021912D01*
X034113Y022036D01*
X033951Y022103D01*
X033256Y022103D01*
X033094Y022036D01*
X032971Y021912D01*
X032904Y021750D01*
X032904Y021575D01*
X032971Y021414D01*
X033094Y021290D01*
X032986Y021398D02*
X032317Y021398D01*
X032381Y021516D02*
X032928Y021516D01*
X032904Y021635D02*
X032381Y021635D01*
X032381Y021753D02*
X032905Y021753D01*
X032954Y021872D02*
X032336Y021872D01*
X032218Y021990D02*
X033049Y021990D01*
X033094Y022290D02*
X032971Y022414D01*
X032904Y022575D01*
X032904Y022750D01*
X032971Y022912D01*
X033094Y023036D01*
X033256Y023103D01*
X033675Y023103D01*
X033859Y023287D01*
X033955Y023327D01*
X038246Y023327D01*
X038374Y023454D01*
X038542Y023524D01*
X039278Y023524D01*
X039446Y023454D01*
X039574Y023325D01*
X039644Y023157D01*
X039644Y022976D01*
X039574Y022808D01*
X039446Y022679D01*
X039278Y022609D01*
X038542Y022609D01*
X038374Y022679D01*
X038246Y022807D01*
X037876Y022807D01*
X037906Y022777D01*
X037906Y022412D01*
X037649Y022154D01*
X037284Y022154D01*
X037026Y022412D01*
X037026Y022777D01*
X037056Y022807D01*
X035876Y022807D01*
X035906Y022777D01*
X035906Y022412D01*
X035649Y022154D01*
X035284Y022154D01*
X035026Y022412D01*
X035026Y022777D01*
X035056Y022807D01*
X034280Y022807D01*
X034304Y022750D01*
X034304Y022575D01*
X034237Y022414D01*
X034113Y022290D01*
X033951Y022223D01*
X033256Y022223D01*
X033094Y022290D01*
X033038Y022346D02*
X032381Y022346D01*
X032381Y022464D02*
X032950Y022464D01*
X032904Y022583D02*
X032381Y022583D01*
X032282Y022701D02*
X032904Y022701D01*
X032932Y022820D02*
X032163Y022820D01*
X032372Y022227D02*
X033245Y022227D01*
X033962Y022227D02*
X035211Y022227D01*
X035093Y022346D02*
X034169Y022346D01*
X034258Y022464D02*
X035026Y022464D01*
X035026Y022583D02*
X034304Y022583D01*
X034304Y022701D02*
X035026Y022701D01*
X034894Y023373D02*
X035439Y023373D01*
X035545Y023478D01*
X035545Y024024D01*
X035506Y024062D01*
X035506Y027911D01*
X035630Y027911D01*
X035888Y028169D01*
X035888Y028533D01*
X035630Y028791D01*
X035266Y028791D01*
X035008Y028533D01*
X035008Y028392D01*
X034878Y028262D01*
X034826Y028137D01*
X034826Y024062D01*
X034788Y024024D01*
X034788Y023478D01*
X034894Y023373D01*
X034854Y023412D02*
X031046Y023412D01*
X031046Y023294D02*
X033876Y023294D01*
X033748Y023175D02*
X031046Y023175D01*
X031045Y023057D02*
X033145Y023057D01*
X032997Y022938D02*
X031005Y022938D01*
X031046Y023531D02*
X034788Y023531D01*
X034788Y023649D02*
X031046Y023649D01*
X031046Y023768D02*
X034788Y023768D01*
X034788Y023886D02*
X031046Y023886D01*
X031046Y024005D02*
X031587Y024005D01*
X031686Y023906D02*
X031440Y024152D01*
X031440Y024306D01*
X031840Y024306D01*
X031880Y024306D01*
X031880Y024346D01*
X032280Y024346D01*
X032280Y024500D01*
X032034Y024746D01*
X031880Y024746D01*
X031880Y024346D01*
X031840Y024346D01*
X031840Y024746D01*
X031686Y024746D01*
X031440Y024500D01*
X031440Y024346D01*
X031840Y024346D01*
X031840Y024306D01*
X031840Y023906D01*
X031686Y023906D01*
X031840Y024005D02*
X031880Y024005D01*
X031880Y023906D02*
X031880Y024306D01*
X032280Y024306D01*
X032280Y024152D01*
X032034Y023906D01*
X031880Y023906D01*
X031880Y024123D02*
X031840Y024123D01*
X031840Y024242D02*
X031880Y024242D01*
X031880Y024360D02*
X031840Y024360D01*
X031840Y024479D02*
X031880Y024479D01*
X031880Y024597D02*
X031840Y024597D01*
X031840Y024716D02*
X031880Y024716D01*
X032064Y024716D02*
X033744Y024716D01*
X033792Y024764D02*
X033546Y024518D01*
X033546Y024364D01*
X033946Y024364D01*
X033946Y024324D01*
X033546Y024324D01*
X033546Y024170D01*
X033792Y023924D01*
X033946Y023924D01*
X033946Y024324D01*
X033986Y024324D01*
X033986Y023924D01*
X034140Y023924D01*
X034386Y024170D01*
X034386Y024324D01*
X033986Y024324D01*
X033986Y024364D01*
X033946Y024364D01*
X033946Y024764D01*
X033792Y024764D01*
X033784Y024804D02*
X034149Y024804D01*
X034406Y025062D01*
X034406Y025427D01*
X034826Y025427D01*
X034826Y025545D02*
X034288Y025545D01*
X034406Y025427D02*
X034149Y025684D01*
X033784Y025684D01*
X033526Y025427D01*
X033526Y025062D01*
X033784Y024804D01*
X033754Y024834D02*
X030966Y024834D01*
X030966Y024716D02*
X031656Y024716D01*
X031537Y024597D02*
X031027Y024597D01*
X031046Y024479D02*
X031440Y024479D01*
X031440Y024360D02*
X031046Y024360D01*
X031046Y024242D02*
X031440Y024242D01*
X031468Y024123D02*
X031046Y024123D01*
X030286Y024005D02*
X029039Y024005D01*
X028403Y023412D02*
X027498Y023412D01*
X027616Y023294D02*
X028318Y023294D01*
X028269Y023175D02*
X027735Y023175D01*
X027853Y023057D02*
X028261Y023057D01*
X028264Y022938D02*
X027972Y022938D01*
X028090Y022820D02*
X028313Y022820D01*
X028391Y022701D02*
X028209Y022701D01*
X028327Y022583D02*
X028536Y022583D01*
X028446Y022464D02*
X029521Y022464D01*
X029521Y022439D02*
X029921Y022439D01*
X029921Y022839D01*
X029767Y022839D01*
X029521Y022593D01*
X029521Y022439D01*
X029521Y022346D02*
X028564Y022346D01*
X028683Y022227D02*
X029539Y022227D01*
X029658Y022109D02*
X028801Y022109D01*
X028920Y021990D02*
X029665Y021990D01*
X029921Y022464D02*
X029961Y022464D01*
X029961Y022583D02*
X029921Y022583D01*
X029921Y022701D02*
X029961Y022701D01*
X029961Y022820D02*
X029921Y022820D01*
X029748Y022820D02*
X029269Y022820D01*
X029191Y022701D02*
X029630Y022701D01*
X029521Y022583D02*
X029046Y022583D01*
X028303Y021872D02*
X025491Y021872D01*
X025491Y021990D02*
X028184Y021990D01*
X028066Y022109D02*
X025491Y022109D01*
X025491Y022227D02*
X027947Y022227D01*
X027829Y022346D02*
X025491Y022346D01*
X025491Y022464D02*
X027710Y022464D01*
X027592Y022583D02*
X025491Y022583D01*
X025491Y022701D02*
X027473Y022701D01*
X027355Y022820D02*
X025491Y022820D01*
X025318Y022938D02*
X027236Y022938D01*
X027118Y023057D02*
X025321Y023057D01*
X025314Y023175D02*
X026999Y023175D01*
X026881Y023294D02*
X025264Y023294D01*
X025179Y023412D02*
X026762Y023412D01*
X026644Y023531D02*
X025171Y023531D01*
X025171Y023649D02*
X026525Y023649D01*
X026407Y023768D02*
X025171Y023768D01*
X025171Y023886D02*
X026288Y023886D01*
X026170Y024005D02*
X025171Y024005D01*
X025188Y024123D02*
X026051Y024123D01*
X025933Y024242D02*
X025268Y024242D01*
X025317Y024360D02*
X025814Y024360D01*
X025696Y024479D02*
X025321Y024479D01*
X025315Y024597D02*
X025577Y024597D01*
X025459Y024716D02*
X025266Y024716D01*
X025340Y024834D02*
X025182Y024834D01*
X025222Y024953D02*
X025025Y024953D01*
X025103Y025071D02*
X024306Y025071D01*
X024424Y024953D02*
X024558Y024953D01*
X024187Y025190D02*
X024985Y025190D01*
X024866Y025308D02*
X024069Y025308D01*
X023950Y025427D02*
X024748Y025427D01*
X024629Y025545D02*
X023832Y025545D01*
X023713Y025664D02*
X024511Y025664D01*
X024392Y025782D02*
X023595Y025782D01*
X023476Y025901D02*
X024312Y025901D01*
X024299Y026019D02*
X023358Y026019D01*
X023239Y026138D02*
X024299Y026138D01*
X024298Y026256D02*
X023121Y026256D01*
X023002Y026375D02*
X024297Y026375D01*
X024297Y026493D02*
X022884Y026493D01*
X022765Y026612D02*
X024296Y026612D01*
X023992Y026730D02*
X022647Y026730D01*
X022528Y026849D02*
X023870Y026849D01*
X023810Y026967D02*
X022410Y026967D01*
X022291Y027086D02*
X023779Y027086D01*
X023779Y027204D02*
X022173Y027204D01*
X022054Y027323D02*
X023816Y027323D01*
X023885Y027441D02*
X021936Y027441D01*
X021858Y027560D02*
X024030Y027560D01*
X024080Y027714D02*
X024149Y027692D01*
X024220Y027681D01*
X024514Y027681D01*
X024514Y028099D01*
X023799Y028099D01*
X023810Y028030D01*
X023832Y027962D01*
X023865Y027898D01*
X023907Y027840D01*
X023958Y027789D01*
X024016Y027747D01*
X024080Y027714D01*
X023950Y027797D02*
X021858Y027797D01*
X021858Y027915D02*
X023856Y027915D01*
X023810Y028034D02*
X021858Y028034D01*
X021858Y028152D02*
X024514Y028152D01*
X024514Y028176D02*
X024514Y028099D01*
X024591Y028099D01*
X024591Y027681D01*
X024885Y027681D01*
X024956Y027692D01*
X025025Y027714D01*
X025089Y027747D01*
X025147Y027789D01*
X025198Y027840D01*
X025240Y027898D01*
X025273Y027962D01*
X025295Y028030D01*
X025306Y028099D01*
X024591Y028099D01*
X024591Y028176D01*
X024514Y028176D01*
X023799Y028176D01*
X023810Y028244D01*
X023832Y028313D01*
X023865Y028377D01*
X023907Y028435D01*
X023958Y028486D01*
X024016Y028528D01*
X024080Y028561D01*
X024149Y028583D01*
X024220Y028594D01*
X024514Y028594D01*
X024514Y028176D01*
X024591Y028176D02*
X024591Y028594D01*
X024885Y028594D01*
X024956Y028583D01*
X025025Y028561D01*
X025089Y028528D01*
X025147Y028486D01*
X025198Y028435D01*
X025240Y028377D01*
X025273Y028313D01*
X025295Y028244D01*
X025306Y028176D01*
X024591Y028176D01*
X024591Y028152D02*
X026226Y028152D01*
X026226Y028034D02*
X025296Y028034D01*
X025249Y027915D02*
X026226Y027915D01*
X026255Y027797D02*
X025155Y027797D01*
X025286Y028271D02*
X026307Y028271D01*
X026426Y028389D02*
X025231Y028389D01*
X025117Y028508D02*
X026405Y028508D01*
X026287Y028626D02*
X021858Y028626D01*
X021858Y028508D02*
X023989Y028508D01*
X023874Y028389D02*
X021858Y028389D01*
X021858Y028271D02*
X023819Y028271D01*
X023974Y028745D02*
X021858Y028745D01*
X021858Y028863D02*
X022114Y028863D01*
X021996Y028982D02*
X021858Y028982D01*
X021858Y029100D02*
X021877Y029100D01*
X022478Y029574D02*
X024065Y029574D01*
X024083Y029693D02*
X022383Y029693D01*
X022383Y029811D02*
X022455Y029811D01*
X022413Y029853D02*
X022519Y029748D01*
X023064Y029748D01*
X023102Y029786D01*
X023933Y029786D01*
X023986Y029733D01*
X024161Y029661D01*
X024944Y029661D01*
X025120Y029733D01*
X025254Y029867D01*
X025326Y030043D01*
X025326Y030232D01*
X025254Y030408D01*
X025120Y030542D01*
X024944Y030614D01*
X024161Y030614D01*
X023986Y030542D01*
X023910Y030466D01*
X023102Y030466D01*
X023064Y030504D01*
X022519Y030504D01*
X022413Y030399D01*
X022413Y029853D01*
X022413Y029930D02*
X022383Y029930D01*
X022383Y030048D02*
X022413Y030048D01*
X022413Y030167D02*
X022383Y030167D01*
X022383Y030285D02*
X022413Y030285D01*
X022419Y030404D02*
X022383Y030404D01*
X022383Y030522D02*
X023966Y030522D01*
X025139Y030522D02*
X026226Y030522D01*
X026226Y030404D02*
X025255Y030404D01*
X025304Y030285D02*
X026303Y030285D01*
X026421Y030167D02*
X025326Y030167D01*
X025326Y030048D02*
X026360Y030048D01*
X026241Y029930D02*
X025280Y029930D01*
X025198Y029811D02*
X026226Y029811D01*
X026226Y029693D02*
X025023Y029693D01*
X025040Y029574D02*
X026226Y029574D01*
X026321Y029456D02*
X025205Y029456D01*
X025283Y029337D02*
X026439Y029337D01*
X026394Y029219D02*
X025326Y029219D01*
X025326Y029100D02*
X026275Y029100D01*
X026226Y028982D02*
X025301Y028982D01*
X025250Y028863D02*
X026226Y028863D01*
X026226Y028745D02*
X025131Y028745D01*
X024591Y028508D02*
X024514Y028508D01*
X024514Y028389D02*
X024591Y028389D01*
X024591Y028271D02*
X024514Y028271D01*
X024514Y028034D02*
X024591Y028034D01*
X024591Y027915D02*
X024514Y027915D01*
X024514Y027797D02*
X024591Y027797D01*
X024817Y026375D02*
X025411Y026375D01*
X025293Y026256D02*
X024818Y026256D01*
X024819Y026138D02*
X025220Y026138D01*
X025220Y026019D02*
X024891Y026019D01*
X025009Y025901D02*
X025220Y025901D01*
X025256Y025782D02*
X025128Y025782D01*
X025246Y025664D02*
X025374Y025664D01*
X025908Y026375D02*
X029411Y026375D01*
X029293Y026256D02*
X026027Y026256D01*
X026100Y026138D02*
X029220Y026138D01*
X029220Y026019D02*
X026100Y026019D01*
X026100Y025901D02*
X029220Y025901D01*
X029256Y025782D02*
X026063Y025782D01*
X025945Y025664D02*
X029374Y025664D01*
X029025Y024953D02*
X030366Y024953D01*
X030966Y024953D02*
X033635Y024953D01*
X033526Y025071D02*
X030966Y025071D01*
X030966Y025190D02*
X033526Y025190D01*
X033526Y025308D02*
X030966Y025308D01*
X030966Y025427D02*
X033527Y025427D01*
X033645Y025545D02*
X030966Y025545D01*
X030966Y025664D02*
X033764Y025664D01*
X033791Y025686D02*
X034155Y025686D01*
X034413Y025944D01*
X034413Y026308D01*
X034155Y026566D01*
X033791Y026566D01*
X033533Y026308D01*
X033533Y025944D01*
X033791Y025686D01*
X033694Y025782D02*
X030966Y025782D01*
X030966Y025901D02*
X031662Y025901D01*
X031677Y025886D02*
X032042Y025886D01*
X032300Y026144D01*
X032300Y026508D01*
X032042Y026766D01*
X031677Y026766D01*
X031420Y026508D01*
X031420Y026144D01*
X031677Y025886D01*
X031544Y026019D02*
X030966Y026019D01*
X030966Y026138D02*
X031425Y026138D01*
X031420Y026256D02*
X030966Y026256D01*
X030966Y026375D02*
X031420Y026375D01*
X031420Y026493D02*
X030966Y026493D01*
X030945Y026612D02*
X031523Y026612D01*
X031642Y026730D02*
X030861Y026730D01*
X030743Y026849D02*
X034826Y026849D01*
X034826Y026967D02*
X030624Y026967D01*
X030506Y027086D02*
X034826Y027086D01*
X034826Y027204D02*
X034490Y027204D01*
X034522Y027218D02*
X034646Y027342D01*
X034713Y027503D01*
X034713Y028199D01*
X034646Y028360D01*
X034522Y028484D01*
X034361Y028551D01*
X034186Y028551D01*
X034024Y028484D01*
X033900Y028360D01*
X033833Y028199D01*
X033833Y027503D01*
X033900Y027342D01*
X034024Y027218D01*
X034186Y027151D01*
X034361Y027151D01*
X034522Y027218D01*
X034627Y027323D02*
X034826Y027323D01*
X034826Y027441D02*
X034687Y027441D01*
X034713Y027560D02*
X034826Y027560D01*
X034826Y027678D02*
X034713Y027678D01*
X034713Y027797D02*
X034826Y027797D01*
X034826Y027915D02*
X034713Y027915D01*
X034713Y028034D02*
X034826Y028034D01*
X034833Y028152D02*
X034713Y028152D01*
X034683Y028271D02*
X034887Y028271D01*
X035006Y028389D02*
X034617Y028389D01*
X034465Y028508D02*
X035008Y028508D01*
X035101Y028626D02*
X030798Y028626D01*
X030679Y028508D02*
X031082Y028508D01*
X031024Y028484D02*
X031186Y028551D01*
X031361Y028551D01*
X031522Y028484D01*
X031646Y028360D01*
X031713Y028199D01*
X031713Y027503D01*
X031646Y027342D01*
X031522Y027218D01*
X031361Y027151D01*
X031186Y027151D01*
X031024Y027218D01*
X030900Y027342D01*
X030833Y027503D01*
X030833Y028199D01*
X030900Y028360D01*
X031024Y028484D01*
X030929Y028389D02*
X030561Y028389D01*
X030538Y028271D02*
X030863Y028271D01*
X030833Y028152D02*
X030522Y028152D01*
X030416Y028034D02*
X030833Y028034D01*
X030833Y027915D02*
X030416Y027915D01*
X030416Y027797D02*
X030833Y027797D01*
X030833Y027678D02*
X030416Y027678D01*
X030416Y027560D02*
X030833Y027560D01*
X030859Y027441D02*
X030416Y027441D01*
X030416Y027323D02*
X030919Y027323D01*
X031057Y027204D02*
X030416Y027204D01*
X029816Y027204D02*
X029106Y027204D01*
X029106Y027215D02*
X028849Y027473D01*
X028484Y027473D01*
X028226Y027215D01*
X028226Y026850D01*
X028484Y026593D01*
X028849Y026593D01*
X029106Y026850D01*
X029106Y027215D01*
X029106Y027086D02*
X029816Y027086D01*
X029826Y026967D02*
X029106Y026967D01*
X029105Y026849D02*
X029894Y026849D01*
X030013Y026730D02*
X028986Y026730D01*
X028868Y026612D02*
X030131Y026612D01*
X029816Y027323D02*
X028998Y027323D01*
X028880Y027441D02*
X029816Y027441D01*
X028453Y027441D02*
X026880Y027441D01*
X026998Y027323D02*
X028334Y027323D01*
X028226Y027204D02*
X027106Y027204D01*
X027106Y027086D02*
X028226Y027086D01*
X028226Y026967D02*
X027106Y026967D01*
X027105Y026849D02*
X028228Y026849D01*
X028346Y026730D02*
X026986Y026730D01*
X026868Y026612D02*
X028465Y026612D01*
X028373Y027678D02*
X026959Y027678D01*
X027078Y027797D02*
X028255Y027797D01*
X028226Y027915D02*
X027106Y027915D01*
X027106Y028034D02*
X028226Y028034D01*
X028226Y028152D02*
X027106Y028152D01*
X027025Y028271D02*
X028307Y028271D01*
X028426Y028389D02*
X026907Y028389D01*
X026927Y028508D02*
X028434Y028508D01*
X028315Y028626D02*
X027046Y028626D01*
X027106Y028745D02*
X028246Y028745D01*
X028646Y028745D02*
X028686Y028745D01*
X028686Y028626D02*
X028646Y028626D01*
X028646Y028508D02*
X028686Y028508D01*
X028686Y028889D02*
X029086Y028889D01*
X029086Y029043D01*
X028840Y029289D01*
X028686Y029289D01*
X028686Y028889D01*
X028686Y028982D02*
X028646Y028982D01*
X028646Y029100D02*
X028686Y029100D01*
X028686Y029219D02*
X028646Y029219D01*
X028911Y029219D02*
X030542Y029219D01*
X030660Y029337D02*
X028893Y029337D01*
X029012Y029456D02*
X030779Y029456D01*
X030897Y029574D02*
X029106Y029574D01*
X029106Y029693D02*
X030973Y029693D01*
X030973Y029811D02*
X029106Y029811D01*
X029091Y029930D02*
X029897Y029930D01*
X029916Y029911D02*
X030280Y029911D01*
X030538Y030169D01*
X030538Y030533D01*
X030280Y030791D01*
X029916Y030791D01*
X029658Y030533D01*
X029658Y030169D01*
X029916Y029911D01*
X029778Y030048D02*
X028973Y030048D01*
X028911Y030167D02*
X029660Y030167D01*
X029658Y030285D02*
X029030Y030285D01*
X029106Y030404D02*
X029658Y030404D01*
X029658Y030522D02*
X029106Y030522D01*
X029106Y030641D02*
X029766Y030641D01*
X029884Y030759D02*
X029073Y030759D01*
X028955Y030878D02*
X030833Y030878D01*
X030833Y030996D02*
X028866Y030996D01*
X028984Y031115D02*
X030833Y031115D01*
X030848Y031233D02*
X029081Y031233D01*
X029081Y031352D02*
X030897Y031352D01*
X031010Y031470D02*
X029081Y031470D01*
X029069Y031589D02*
X039273Y031589D01*
X039315Y031690D02*
X039212Y031440D01*
X039212Y031170D01*
X039315Y030920D01*
X039507Y030729D01*
X039757Y030625D01*
X041027Y030625D01*
X041277Y030729D01*
X041468Y030920D01*
X041572Y031170D01*
X041572Y031440D01*
X041468Y031690D01*
X041277Y031882D01*
X041027Y031985D01*
X039757Y031985D01*
X039507Y031882D01*
X039315Y031690D01*
X039332Y031707D02*
X032477Y031707D01*
X032455Y031686D02*
X032713Y031944D01*
X032713Y032308D01*
X032455Y032566D01*
X032091Y032566D01*
X031833Y032308D01*
X031833Y031944D01*
X032091Y031686D01*
X032455Y031686D01*
X032361Y031551D02*
X032186Y031551D01*
X032024Y031484D01*
X031900Y031360D01*
X031833Y031199D01*
X031833Y030503D01*
X031900Y030342D01*
X032024Y030218D01*
X032186Y030151D01*
X032361Y030151D01*
X032522Y030218D01*
X032646Y030342D01*
X032713Y030503D01*
X032713Y031199D01*
X032646Y031360D01*
X032522Y031484D01*
X032361Y031551D01*
X032536Y031470D02*
X033010Y031470D01*
X033024Y031484D02*
X032900Y031360D01*
X032833Y031199D01*
X032833Y030503D01*
X032900Y030342D01*
X033024Y030218D01*
X033186Y030151D01*
X033361Y030151D01*
X033522Y030218D01*
X033646Y030342D01*
X033713Y030503D01*
X033713Y031199D01*
X033646Y031360D01*
X033522Y031484D01*
X033361Y031551D01*
X033186Y031551D01*
X033024Y031484D01*
X032897Y031352D02*
X032650Y031352D01*
X032699Y031233D02*
X032848Y031233D01*
X032833Y031115D02*
X032713Y031115D01*
X032713Y030996D02*
X032833Y030996D01*
X032833Y030878D02*
X032713Y030878D01*
X032713Y030759D02*
X032833Y030759D01*
X032833Y030641D02*
X032713Y030641D01*
X032713Y030522D02*
X032833Y030522D01*
X032874Y030404D02*
X032672Y030404D01*
X032590Y030285D02*
X032956Y030285D01*
X033147Y030167D02*
X032399Y030167D01*
X032147Y030167D02*
X031573Y030167D01*
X031573Y030048D02*
X035128Y030048D01*
X035247Y029930D02*
X031573Y029930D01*
X031573Y029811D02*
X036926Y029811D01*
X036722Y029693D02*
X031573Y029693D01*
X031573Y029574D02*
X036620Y029574D01*
X036571Y029456D02*
X031569Y029456D01*
X031509Y029337D02*
X036551Y029337D01*
X036551Y029219D02*
X031390Y029219D01*
X031272Y029100D02*
X036590Y029100D01*
X036651Y028982D02*
X031153Y028982D01*
X031035Y028863D02*
X036769Y028863D01*
X037213Y028745D02*
X035676Y028745D01*
X035795Y028626D02*
X037332Y028626D01*
X037450Y028508D02*
X035888Y028508D01*
X035888Y028389D02*
X037624Y028389D01*
X037706Y029100D02*
X037811Y029100D01*
X037706Y029219D02*
X037611Y029219D01*
X037611Y029337D02*
X037706Y029337D01*
X037706Y029456D02*
X037590Y029456D01*
X037541Y029574D02*
X037706Y029574D01*
X037706Y029693D02*
X037439Y029693D01*
X037235Y029811D02*
X037808Y029811D01*
X037926Y029930D02*
X035649Y029930D01*
X035630Y029911D02*
X035888Y030169D01*
X035888Y030533D01*
X035630Y030791D01*
X035266Y030791D01*
X035008Y030533D01*
X035008Y030169D01*
X035266Y029911D01*
X035630Y029911D01*
X035768Y030048D02*
X038045Y030048D01*
X038588Y030048D02*
X041782Y030048D01*
X041782Y029930D02*
X038707Y029930D01*
X038825Y029811D02*
X041782Y029811D01*
X041782Y029693D02*
X038926Y029693D01*
X038926Y029574D02*
X041782Y029574D01*
X041782Y029456D02*
X038926Y029456D01*
X038926Y029337D02*
X041782Y029337D01*
X041782Y029219D02*
X038926Y029219D01*
X038822Y029100D02*
X040560Y029100D01*
X040555Y028271D02*
X040303Y028271D01*
X040303Y028152D02*
X040686Y028152D01*
X040481Y028034D02*
X040303Y028034D01*
X040303Y027915D02*
X040387Y027915D01*
X040337Y027797D02*
X040303Y027797D01*
X040303Y027678D02*
X040330Y027678D01*
X040343Y027560D02*
X040303Y027560D01*
X040303Y027441D02*
X040392Y027441D01*
X040303Y027323D02*
X040493Y027323D01*
X040303Y027204D02*
X041782Y027204D01*
X041782Y027086D02*
X041688Y027086D01*
X041728Y027323D02*
X041782Y027323D01*
X041782Y028034D02*
X041740Y028034D01*
X041782Y028152D02*
X041535Y028152D01*
X041666Y028271D02*
X041782Y028271D01*
X041782Y029100D02*
X041661Y029100D01*
X041782Y030167D02*
X035886Y030167D01*
X035888Y030285D02*
X041782Y030285D01*
X041782Y030404D02*
X035888Y030404D01*
X035888Y030522D02*
X041782Y030522D01*
X041782Y030641D02*
X041065Y030641D01*
X041308Y030759D02*
X041782Y030759D01*
X041782Y030878D02*
X041426Y030878D01*
X041500Y030996D02*
X041782Y030996D01*
X041782Y031115D02*
X041549Y031115D01*
X041572Y031233D02*
X041782Y031233D01*
X041782Y031352D02*
X041572Y031352D01*
X041559Y031470D02*
X041782Y031470D01*
X041782Y031589D02*
X041510Y031589D01*
X041451Y031707D02*
X041782Y031707D01*
X041782Y031826D02*
X041333Y031826D01*
X041125Y031944D02*
X041782Y031944D01*
X041782Y032063D02*
X032713Y032063D01*
X032713Y032181D02*
X041782Y032181D01*
X041782Y032300D02*
X032713Y032300D01*
X032603Y032418D02*
X041782Y032418D01*
X041782Y032537D02*
X032484Y032537D01*
X032062Y032537D02*
X029984Y032537D01*
X030056Y032418D02*
X031943Y032418D01*
X031833Y032300D02*
X030056Y032300D01*
X030056Y032181D02*
X031833Y032181D01*
X031833Y032063D02*
X030019Y032063D01*
X029900Y031944D02*
X031833Y031944D01*
X031951Y031826D02*
X028832Y031826D01*
X028950Y031707D02*
X032069Y031707D01*
X032010Y031470D02*
X031536Y031470D01*
X031650Y031352D02*
X031897Y031352D01*
X031848Y031233D02*
X031699Y031233D01*
X031713Y031115D02*
X031833Y031115D01*
X031833Y030996D02*
X031713Y030996D01*
X031713Y030878D02*
X031833Y030878D01*
X031833Y030759D02*
X031713Y030759D01*
X031713Y030641D02*
X031833Y030641D01*
X031833Y030522D02*
X031713Y030522D01*
X031672Y030404D02*
X031874Y030404D01*
X031956Y030285D02*
X031590Y030285D01*
X030973Y030167D02*
X030536Y030167D01*
X030538Y030285D02*
X030956Y030285D01*
X030874Y030404D02*
X030538Y030404D01*
X030538Y030522D02*
X030833Y030522D01*
X030833Y030641D02*
X030430Y030641D01*
X030312Y030759D02*
X030833Y030759D01*
X030973Y030048D02*
X030418Y030048D01*
X030299Y029930D02*
X030973Y029930D01*
X030423Y029100D02*
X029029Y029100D01*
X029086Y028982D02*
X030305Y028982D01*
X030916Y028745D02*
X035220Y028745D01*
X035888Y028271D02*
X039703Y028271D01*
X039703Y028152D02*
X035872Y028152D01*
X035753Y028034D02*
X039703Y028034D01*
X039703Y027915D02*
X035635Y027915D01*
X035506Y027797D02*
X039703Y027797D01*
X039703Y027678D02*
X035506Y027678D01*
X035506Y027560D02*
X039703Y027560D01*
X039703Y027441D02*
X035506Y027441D01*
X035506Y027323D02*
X039703Y027323D01*
X039703Y027204D02*
X035506Y027204D01*
X035506Y027086D02*
X039703Y027086D01*
X039703Y026967D02*
X035506Y026967D01*
X035506Y026849D02*
X039703Y026849D01*
X039703Y026730D02*
X035506Y026730D01*
X035506Y026612D02*
X039703Y026612D01*
X039703Y026493D02*
X036228Y026493D01*
X036155Y026566D02*
X035791Y026566D01*
X035533Y026308D01*
X035533Y025944D01*
X035791Y025686D01*
X036155Y025686D01*
X036413Y025944D01*
X036413Y026308D01*
X036155Y026566D01*
X036346Y026375D02*
X039703Y026375D01*
X039703Y026256D02*
X036413Y026256D01*
X036413Y026138D02*
X039703Y026138D01*
X039703Y026019D02*
X038633Y026019D01*
X038569Y026083D02*
X038064Y026083D01*
X037706Y025726D01*
X037706Y025221D01*
X038064Y024863D01*
X038569Y024863D01*
X038670Y024964D01*
X038670Y024894D01*
X038927Y024636D01*
X039292Y024636D01*
X039550Y024894D01*
X039550Y025258D01*
X039292Y025516D01*
X038927Y025516D01*
X038926Y025515D01*
X038926Y025726D01*
X038569Y026083D01*
X038752Y025901D02*
X039703Y025901D01*
X039703Y025782D02*
X038870Y025782D01*
X038926Y025664D02*
X039703Y025664D01*
X039703Y025545D02*
X038926Y025545D01*
X039381Y025427D02*
X039703Y025427D01*
X039703Y025308D02*
X039500Y025308D01*
X039550Y025190D02*
X039703Y025190D01*
X039747Y025071D02*
X039550Y025071D01*
X039550Y024953D02*
X039863Y024953D01*
X039981Y024834D02*
X039490Y024834D01*
X039372Y024716D02*
X040100Y024716D01*
X040218Y024597D02*
X036336Y024597D01*
X036406Y024527D02*
X036149Y024784D01*
X035784Y024784D01*
X035526Y024527D01*
X035526Y024162D01*
X035784Y023904D01*
X036149Y023904D01*
X036406Y024162D01*
X036406Y024527D01*
X036406Y024479D02*
X038434Y024479D01*
X038374Y024454D02*
X038245Y024325D01*
X038175Y024157D01*
X038175Y023976D01*
X038245Y023808D01*
X038374Y023679D01*
X038542Y023609D01*
X039278Y023609D01*
X039446Y023679D01*
X039574Y023808D01*
X039644Y023976D01*
X039644Y024157D01*
X039574Y024325D01*
X039446Y024454D01*
X039278Y024524D01*
X038542Y024524D01*
X038374Y024454D01*
X038280Y024360D02*
X036406Y024360D01*
X036406Y024242D02*
X038210Y024242D01*
X038175Y024123D02*
X036368Y024123D01*
X036249Y024005D02*
X038175Y024005D01*
X038212Y023886D02*
X035545Y023886D01*
X035545Y023768D02*
X038285Y023768D01*
X038445Y023649D02*
X035545Y023649D01*
X035545Y023531D02*
X039675Y023531D01*
X039675Y023649D02*
X039375Y023649D01*
X039535Y023768D02*
X039721Y023768D01*
X039806Y023886D02*
X039607Y023886D01*
X039644Y024005D02*
X039996Y024005D01*
X039644Y024123D02*
X040692Y024123D01*
X040574Y024242D02*
X039609Y024242D01*
X039539Y024360D02*
X040455Y024360D01*
X040337Y024479D02*
X039386Y024479D01*
X038848Y024716D02*
X036217Y024716D01*
X036149Y024804D02*
X036406Y025062D01*
X036406Y025427D01*
X037706Y025427D01*
X037706Y025545D02*
X036288Y025545D01*
X036406Y025427D02*
X036149Y025684D01*
X035784Y025684D01*
X035526Y025427D01*
X035526Y025062D01*
X035784Y024804D01*
X036149Y024804D01*
X036179Y024834D02*
X038729Y024834D01*
X038670Y024953D02*
X038659Y024953D01*
X037974Y024953D02*
X036297Y024953D01*
X036406Y025071D02*
X037856Y025071D01*
X037737Y025190D02*
X036406Y025190D01*
X036406Y025308D02*
X037706Y025308D01*
X037706Y025664D02*
X036169Y025664D01*
X036252Y025782D02*
X037763Y025782D01*
X037881Y025901D02*
X036370Y025901D01*
X036413Y026019D02*
X038000Y026019D01*
X035764Y025664D02*
X035506Y025664D01*
X035506Y025782D02*
X035694Y025782D01*
X035576Y025901D02*
X035506Y025901D01*
X035506Y026019D02*
X035533Y026019D01*
X035533Y026138D02*
X035506Y026138D01*
X035506Y026256D02*
X035533Y026256D01*
X035506Y026375D02*
X035600Y026375D01*
X035506Y026493D02*
X035718Y026493D01*
X034826Y026493D02*
X034228Y026493D01*
X034346Y026375D02*
X034826Y026375D01*
X034826Y026256D02*
X034413Y026256D01*
X034413Y026138D02*
X034826Y026138D01*
X034826Y026019D02*
X034413Y026019D01*
X034370Y025901D02*
X034826Y025901D01*
X034826Y025782D02*
X034252Y025782D01*
X034169Y025664D02*
X034826Y025664D01*
X034826Y025308D02*
X034406Y025308D01*
X034406Y025190D02*
X034826Y025190D01*
X034826Y025071D02*
X034406Y025071D01*
X034297Y024953D02*
X034826Y024953D01*
X034826Y024834D02*
X034179Y024834D01*
X034140Y024764D02*
X033986Y024764D01*
X033986Y024364D01*
X034386Y024364D01*
X034386Y024518D01*
X034140Y024764D01*
X034189Y024716D02*
X034826Y024716D01*
X034826Y024597D02*
X034307Y024597D01*
X034386Y024479D02*
X034826Y024479D01*
X034826Y024360D02*
X033986Y024360D01*
X033946Y024360D02*
X032280Y024360D01*
X032280Y024242D02*
X033546Y024242D01*
X033593Y024123D02*
X032251Y024123D01*
X032133Y024005D02*
X033712Y024005D01*
X033946Y024005D02*
X033986Y024005D01*
X033986Y024123D02*
X033946Y024123D01*
X033946Y024242D02*
X033986Y024242D01*
X033986Y024479D02*
X033946Y024479D01*
X033946Y024597D02*
X033986Y024597D01*
X033986Y024716D02*
X033946Y024716D01*
X033626Y024597D02*
X032182Y024597D01*
X032280Y024479D02*
X033546Y024479D01*
X034221Y024005D02*
X034788Y024005D01*
X034826Y024123D02*
X034340Y024123D01*
X034386Y024242D02*
X034826Y024242D01*
X035506Y024242D02*
X035526Y024242D01*
X035526Y024360D02*
X035506Y024360D01*
X035506Y024479D02*
X035526Y024479D01*
X035506Y024597D02*
X035597Y024597D01*
X035506Y024716D02*
X035716Y024716D01*
X035754Y024834D02*
X035506Y024834D01*
X035506Y024953D02*
X035635Y024953D01*
X035526Y025071D02*
X035506Y025071D01*
X035506Y025190D02*
X035526Y025190D01*
X035526Y025308D02*
X035506Y025308D01*
X035506Y025427D02*
X035527Y025427D01*
X035506Y025545D02*
X035645Y025545D01*
X034826Y026612D02*
X032196Y026612D01*
X032300Y026493D02*
X033718Y026493D01*
X033600Y026375D02*
X032300Y026375D01*
X032300Y026256D02*
X033533Y026256D01*
X033533Y026138D02*
X032294Y026138D01*
X032175Y026019D02*
X033533Y026019D01*
X033576Y025901D02*
X032057Y025901D01*
X032078Y026730D02*
X034826Y026730D01*
X034057Y027204D02*
X033490Y027204D01*
X033522Y027218D02*
X033646Y027342D01*
X033713Y027503D01*
X033713Y028199D01*
X033646Y028360D01*
X033522Y028484D01*
X033361Y028551D01*
X033186Y028551D01*
X033024Y028484D01*
X032900Y028360D01*
X032833Y028199D01*
X032833Y027503D01*
X032900Y027342D01*
X033024Y027218D01*
X033186Y027151D01*
X033361Y027151D01*
X033522Y027218D01*
X033627Y027323D02*
X033919Y027323D01*
X033859Y027441D02*
X033687Y027441D01*
X033713Y027560D02*
X033833Y027560D01*
X033833Y027678D02*
X033713Y027678D01*
X033713Y027797D02*
X033833Y027797D01*
X033833Y027915D02*
X033713Y027915D01*
X033713Y028034D02*
X033833Y028034D01*
X033833Y028152D02*
X033713Y028152D01*
X033683Y028271D02*
X033863Y028271D01*
X033929Y028389D02*
X033617Y028389D01*
X033465Y028508D02*
X034082Y028508D01*
X033082Y028508D02*
X032465Y028508D01*
X032522Y028484D02*
X032361Y028551D01*
X032186Y028551D01*
X032024Y028484D01*
X031900Y028360D01*
X031833Y028199D01*
X031833Y027503D01*
X031900Y027342D01*
X032024Y027218D01*
X032186Y027151D01*
X032361Y027151D01*
X032522Y027218D01*
X032646Y027342D01*
X032713Y027503D01*
X032713Y028199D01*
X032646Y028360D01*
X032522Y028484D01*
X032617Y028389D02*
X032929Y028389D01*
X032863Y028271D02*
X032683Y028271D01*
X032713Y028152D02*
X032833Y028152D01*
X032833Y028034D02*
X032713Y028034D01*
X032713Y027915D02*
X032833Y027915D01*
X032833Y027797D02*
X032713Y027797D01*
X032713Y027678D02*
X032833Y027678D01*
X032833Y027560D02*
X032713Y027560D01*
X032687Y027441D02*
X032859Y027441D01*
X032919Y027323D02*
X032627Y027323D01*
X032490Y027204D02*
X033057Y027204D01*
X032057Y027204D02*
X031490Y027204D01*
X031627Y027323D02*
X031919Y027323D01*
X031859Y027441D02*
X031687Y027441D01*
X031713Y027560D02*
X031833Y027560D01*
X031833Y027678D02*
X031713Y027678D01*
X031713Y027797D02*
X031833Y027797D01*
X031833Y027915D02*
X031713Y027915D01*
X031713Y028034D02*
X031833Y028034D01*
X031833Y028152D02*
X031713Y028152D01*
X031683Y028271D02*
X031863Y028271D01*
X031929Y028389D02*
X031617Y028389D01*
X031465Y028508D02*
X032082Y028508D01*
X033399Y030167D02*
X034147Y030167D01*
X034186Y030151D02*
X034361Y030151D01*
X034522Y030218D01*
X034646Y030342D01*
X034713Y030503D01*
X034713Y031199D01*
X034646Y031360D01*
X034522Y031484D01*
X034361Y031551D01*
X034186Y031551D01*
X034024Y031484D01*
X033900Y031360D01*
X033833Y031199D01*
X033833Y030503D01*
X033900Y030342D01*
X034024Y030218D01*
X034186Y030151D01*
X034399Y030167D02*
X035010Y030167D01*
X035008Y030285D02*
X034590Y030285D01*
X034672Y030404D02*
X035008Y030404D01*
X035008Y030522D02*
X034713Y030522D01*
X034713Y030641D02*
X035116Y030641D01*
X035234Y030759D02*
X034713Y030759D01*
X034713Y030878D02*
X039357Y030878D01*
X039284Y030996D02*
X034713Y030996D01*
X034713Y031115D02*
X039235Y031115D01*
X039212Y031233D02*
X034699Y031233D01*
X034650Y031352D02*
X039212Y031352D01*
X039224Y031470D02*
X034536Y031470D01*
X034010Y031470D02*
X033536Y031470D01*
X033650Y031352D02*
X033897Y031352D01*
X033848Y031233D02*
X033699Y031233D01*
X033713Y031115D02*
X033833Y031115D01*
X033833Y030996D02*
X033713Y030996D01*
X033713Y030878D02*
X033833Y030878D01*
X033833Y030759D02*
X033713Y030759D01*
X033713Y030641D02*
X033833Y030641D01*
X033833Y030522D02*
X033713Y030522D01*
X033672Y030404D02*
X033874Y030404D01*
X033956Y030285D02*
X033590Y030285D01*
X032595Y031826D02*
X039451Y031826D01*
X039658Y031944D02*
X032713Y031944D01*
X032693Y033959D02*
X041782Y033959D01*
X041782Y034077D02*
X032693Y034077D01*
X032693Y034196D02*
X041782Y034196D01*
X041782Y034314D02*
X032679Y034314D01*
X031472Y035262D02*
X030871Y035262D01*
X031024Y035381D02*
X031319Y035381D01*
X031249Y035499D02*
X031094Y035499D01*
X031129Y035618D02*
X031214Y035618D01*
X031214Y035736D02*
X031129Y035736D01*
X031129Y035855D02*
X031214Y035855D01*
X031214Y035973D02*
X031129Y035973D01*
X031129Y036092D02*
X031214Y036092D01*
X031214Y036210D02*
X031129Y036210D01*
X031125Y036329D02*
X031218Y036329D01*
X031267Y036447D02*
X031076Y036447D01*
X030981Y036566D02*
X031362Y036566D01*
X030563Y036907D02*
X030563Y036907D01*
X030506Y036921D02*
X027098Y036921D01*
X026574Y036566D02*
X029362Y036566D01*
X030999Y039522D02*
X030999Y039522D01*
X035441Y033249D02*
X035441Y033051D01*
X037081Y033302D02*
X038088Y033302D01*
X038116Y033274D01*
X039607Y032655D02*
X029866Y032655D01*
X029367Y032655D02*
X027838Y032655D01*
X027956Y032537D02*
X029248Y032537D01*
X029176Y032418D02*
X028036Y032418D01*
X028036Y032181D02*
X029176Y032181D01*
X029176Y032300D02*
X027636Y032300D01*
X027596Y032300D02*
X026661Y032300D01*
X026621Y032300D02*
X025081Y032300D01*
X025081Y032418D02*
X026221Y032418D01*
X026302Y032537D02*
X025009Y032537D01*
X024891Y032655D02*
X026420Y032655D01*
X026863Y032655D02*
X027395Y032655D01*
X027277Y032537D02*
X026981Y032537D01*
X027061Y032418D02*
X027196Y032418D01*
X027196Y032181D02*
X027061Y032181D01*
X027016Y032063D02*
X027242Y032063D01*
X027361Y031944D02*
X026897Y031944D01*
X026661Y031944D02*
X026621Y031944D01*
X026621Y032063D02*
X026661Y032063D01*
X026661Y032181D02*
X026621Y032181D01*
X026386Y031944D02*
X024925Y031944D01*
X024832Y031826D02*
X028451Y031826D01*
X028332Y031707D02*
X024950Y031707D01*
X025069Y031589D02*
X028214Y031589D01*
X028201Y031470D02*
X025081Y031470D01*
X025081Y031352D02*
X028201Y031352D01*
X028201Y031233D02*
X025081Y031233D01*
X024984Y031115D02*
X028298Y031115D01*
X027872Y031944D02*
X029332Y031944D01*
X029214Y032063D02*
X027991Y032063D01*
X027636Y032063D02*
X027596Y032063D01*
X027596Y032181D02*
X027636Y032181D01*
X027636Y031944D02*
X027596Y031944D01*
X026267Y032063D02*
X025044Y032063D01*
X025081Y032181D02*
X026221Y032181D01*
X026378Y030878D02*
X022383Y030878D01*
X022383Y030759D02*
X026259Y030759D01*
X026226Y030641D02*
X022383Y030641D01*
X021858Y027678D02*
X026373Y027678D01*
X027024Y023886D02*
X030286Y023886D01*
X030286Y023768D02*
X027142Y023768D01*
X028421Y021753D02*
X025491Y021753D01*
X025491Y021635D02*
X028540Y021635D01*
X028658Y021516D02*
X025491Y021516D01*
X025491Y021398D02*
X028813Y021398D01*
X028585Y020568D02*
X025491Y020568D01*
X025491Y020450D02*
X028694Y020450D01*
X025491Y020331D02*
X033085Y020331D01*
X033070Y020342D02*
X033123Y020304D01*
X033182Y020274D01*
X033245Y020253D01*
X033311Y020243D01*
X033584Y020243D01*
X033584Y020643D01*
X033624Y020643D01*
X033624Y020683D01*
X034284Y020683D01*
X034284Y020696D01*
X034273Y020761D01*
X034253Y020824D01*
X034223Y020883D01*
X034184Y020936D01*
X034137Y020983D01*
X034084Y021022D01*
X034025Y021052D01*
X033962Y021072D01*
X033897Y021083D01*
X033624Y021083D01*
X033624Y020683D01*
X033584Y020683D01*
X033584Y021083D01*
X033311Y021083D01*
X033245Y021072D01*
X033182Y021052D01*
X033123Y021022D01*
X033070Y020983D01*
X033023Y020936D01*
X032984Y020883D01*
X032954Y020824D01*
X032934Y020761D01*
X032924Y020696D01*
X032924Y020683D01*
X033584Y020683D01*
X033584Y020643D01*
X032924Y020643D01*
X032924Y020630D01*
X032934Y020564D01*
X032954Y020502D01*
X032984Y020443D01*
X033023Y020389D01*
X033070Y020342D01*
X032981Y020450D02*
X032259Y020450D01*
X032361Y020568D02*
X032933Y020568D01*
X032924Y020687D02*
X032410Y020687D01*
X032420Y020805D02*
X032948Y020805D01*
X033014Y020924D02*
X032407Y020924D01*
X032358Y021042D02*
X033164Y021042D01*
X033584Y021042D02*
X033624Y021042D01*
X033624Y020924D02*
X033584Y020924D01*
X033584Y020805D02*
X033624Y020805D01*
X033624Y020687D02*
X033584Y020687D01*
X033624Y020643D02*
X034284Y020643D01*
X034284Y020630D01*
X034273Y020564D01*
X034253Y020502D01*
X034223Y020443D01*
X034184Y020389D01*
X034137Y020342D01*
X034084Y020304D01*
X034025Y020274D01*
X033962Y020253D01*
X033897Y020243D01*
X033624Y020243D01*
X033624Y020643D01*
X033624Y020568D02*
X033584Y020568D01*
X033584Y020450D02*
X033624Y020450D01*
X033624Y020331D02*
X033584Y020331D01*
X034122Y020331D02*
X041782Y020331D01*
X041782Y020213D02*
X025491Y020213D01*
X025491Y020094D02*
X041782Y020094D01*
X041782Y019976D02*
X025491Y019976D01*
X025491Y019857D02*
X041782Y019857D01*
X041782Y019739D02*
X025491Y019739D01*
X032250Y021161D02*
X035153Y021161D01*
X035271Y021042D02*
X034044Y021042D01*
X034193Y020924D02*
X038197Y020924D01*
X038175Y021042D02*
X037662Y021042D01*
X037649Y021029D02*
X037906Y021287D01*
X037906Y021652D01*
X037649Y021909D01*
X037284Y021909D01*
X037026Y021652D01*
X037026Y021287D01*
X037284Y021029D01*
X037649Y021029D01*
X037780Y021161D02*
X038177Y021161D01*
X038226Y021279D02*
X037899Y021279D01*
X037906Y021398D02*
X038317Y021398D01*
X038524Y021516D02*
X037906Y021516D01*
X037906Y021635D02*
X038480Y021635D01*
X038542Y021609D02*
X039278Y021609D01*
X039446Y021679D01*
X039574Y021808D01*
X039644Y021976D01*
X039644Y022157D01*
X039574Y022325D01*
X039446Y022454D01*
X039278Y022524D01*
X038542Y022524D01*
X038374Y022454D01*
X038245Y022325D01*
X038175Y022157D01*
X038175Y021976D01*
X038245Y021808D01*
X038374Y021679D01*
X038542Y021609D01*
X038299Y021753D02*
X037805Y021753D01*
X037686Y021872D02*
X038218Y021872D01*
X038175Y021990D02*
X034158Y021990D01*
X034253Y021872D02*
X035247Y021872D01*
X035284Y021909D02*
X035026Y021652D01*
X035026Y021287D01*
X035284Y021029D01*
X035649Y021029D01*
X035906Y021287D01*
X035906Y021652D01*
X035649Y021909D01*
X035284Y021909D01*
X035128Y021753D02*
X034302Y021753D01*
X034304Y021635D02*
X035026Y021635D01*
X035026Y021516D02*
X034279Y021516D01*
X034221Y021398D02*
X035026Y021398D01*
X035034Y021279D02*
X034088Y021279D01*
X034259Y020805D02*
X038247Y020805D01*
X038366Y020687D02*
X034284Y020687D01*
X034274Y020568D02*
X041782Y020568D01*
X041782Y020450D02*
X034227Y020450D01*
X035662Y021042D02*
X037271Y021042D01*
X037153Y021161D02*
X035780Y021161D01*
X035899Y021279D02*
X037034Y021279D01*
X037026Y021398D02*
X035906Y021398D01*
X035906Y021516D02*
X037026Y021516D01*
X037026Y021635D02*
X035906Y021635D01*
X035805Y021753D02*
X037128Y021753D01*
X037247Y021872D02*
X035686Y021872D01*
X035722Y022227D02*
X037211Y022227D01*
X037093Y022346D02*
X035840Y022346D01*
X035906Y022464D02*
X037026Y022464D01*
X037026Y022583D02*
X035906Y022583D01*
X035906Y022701D02*
X037026Y022701D01*
X037722Y022227D02*
X038204Y022227D01*
X038175Y022109D02*
X032253Y022109D01*
X035479Y023412D02*
X038332Y023412D01*
X038351Y022701D02*
X037906Y022701D01*
X037906Y022583D02*
X039675Y022583D01*
X039680Y022464D02*
X039421Y022464D01*
X039554Y022346D02*
X039729Y022346D01*
X039825Y022227D02*
X039615Y022227D01*
X039644Y022109D02*
X041116Y022109D01*
X041116Y022227D02*
X040994Y022227D01*
X041090Y022346D02*
X041116Y022346D01*
X041116Y021990D02*
X040858Y021990D01*
X041028Y021872D02*
X041116Y021872D01*
X041104Y021753D02*
X041116Y021753D01*
X041673Y021161D02*
X041782Y021161D01*
X041782Y021279D02*
X041716Y021279D01*
X041716Y021398D02*
X041782Y021398D01*
X041782Y021516D02*
X041716Y021516D01*
X041716Y021635D02*
X041782Y021635D01*
X041782Y021753D02*
X041716Y021753D01*
X041716Y021872D02*
X041782Y021872D01*
X041782Y021990D02*
X041716Y021990D01*
X041716Y022109D02*
X041782Y022109D01*
X041782Y022227D02*
X041716Y022227D01*
X041716Y022346D02*
X041782Y022346D01*
X041782Y022464D02*
X041716Y022464D01*
X041716Y022583D02*
X041782Y022583D01*
X041782Y022701D02*
X041716Y022701D01*
X041716Y022820D02*
X041782Y022820D01*
X041782Y022938D02*
X041716Y022938D01*
X041716Y023057D02*
X041782Y023057D01*
X041782Y023175D02*
X041716Y023175D01*
X041716Y023294D02*
X041782Y023294D01*
X041782Y023412D02*
X041716Y023412D01*
X041716Y023531D02*
X041782Y023531D01*
X041782Y023649D02*
X041716Y023649D01*
X041716Y023768D02*
X041782Y023768D01*
X041782Y023886D02*
X041715Y023886D01*
X041659Y024005D02*
X041782Y024005D01*
X041782Y024123D02*
X041541Y024123D01*
X041422Y024242D02*
X041782Y024242D01*
X041782Y024360D02*
X041304Y024360D01*
X041185Y024479D02*
X041782Y024479D01*
X041782Y024597D02*
X041067Y024597D01*
X041372Y024716D02*
X041782Y024716D01*
X041782Y024834D02*
X041490Y024834D01*
X041550Y024953D02*
X041782Y024953D01*
X041782Y025071D02*
X041550Y025071D01*
X041550Y025190D02*
X041782Y025190D01*
X041782Y025308D02*
X041500Y025308D01*
X041381Y025427D02*
X041782Y025427D01*
X041782Y025545D02*
X040303Y025545D01*
X040303Y025427D02*
X040838Y025427D01*
X040720Y025308D02*
X040356Y025308D01*
X040474Y025190D02*
X040670Y025190D01*
X040670Y025071D02*
X040593Y025071D01*
X040303Y025664D02*
X041782Y025664D01*
X041782Y025782D02*
X040303Y025782D01*
X040303Y025901D02*
X041782Y025901D01*
X041782Y026019D02*
X040303Y026019D01*
X040303Y026138D02*
X041782Y026138D01*
X041782Y026256D02*
X041631Y026256D01*
X041780Y026375D02*
X041782Y026375D01*
X040590Y026256D02*
X040303Y026256D01*
X040303Y026375D02*
X040441Y026375D01*
X040370Y026493D02*
X040303Y026493D01*
X040303Y026612D02*
X040330Y026612D01*
X040330Y026730D02*
X040303Y026730D01*
X040303Y026849D02*
X040359Y026849D01*
X040303Y026967D02*
X040414Y026967D01*
X040303Y027086D02*
X040533Y027086D01*
X039718Y030641D02*
X035780Y030641D01*
X035662Y030759D02*
X039476Y030759D01*
X041176Y032655D02*
X041782Y032655D01*
X041782Y032774D02*
X041354Y032774D01*
X041470Y032892D02*
X041782Y032892D01*
X041782Y033011D02*
X041519Y033011D01*
X041568Y033129D02*
X041782Y033129D01*
X041782Y033248D02*
X041572Y033248D01*
X041572Y033366D02*
X041782Y033366D01*
X041782Y033485D02*
X041540Y033485D01*
X041491Y033603D02*
X041782Y033603D01*
X041782Y033722D02*
X041405Y033722D01*
X041287Y033840D02*
X041782Y033840D01*
X041782Y035144D02*
X037358Y035144D01*
X037411Y035262D02*
X041782Y035262D01*
X041782Y035381D02*
X037434Y035381D01*
X037434Y035499D02*
X041782Y035499D01*
X041782Y035618D02*
X037385Y035618D01*
X037296Y035736D02*
X041782Y035736D01*
X041782Y037514D02*
X041711Y037514D01*
X041677Y039528D02*
X041782Y039528D01*
X041782Y039647D02*
X041371Y039647D01*
X041782Y039765D02*
X021616Y039765D01*
X021616Y039647D02*
X040850Y039647D01*
X035565Y024123D02*
X035506Y024123D01*
X035545Y024005D02*
X035684Y024005D01*
X037906Y022464D02*
X038399Y022464D01*
X038265Y022346D02*
X037840Y022346D01*
X039340Y021635D02*
X039675Y021635D01*
X039675Y021516D02*
X039295Y021516D01*
X039502Y021398D02*
X039708Y021398D01*
X039773Y021279D02*
X039594Y021279D01*
X039520Y021753D02*
X039715Y021753D01*
X039791Y021872D02*
X039601Y021872D01*
X039644Y021990D02*
X039961Y021990D01*
X039694Y022701D02*
X039468Y022701D01*
X039580Y022820D02*
X039743Y022820D01*
X039629Y022938D02*
X039858Y022938D01*
X039882Y023175D02*
X039637Y023175D01*
X039644Y023057D02*
X041116Y023057D01*
X041116Y023175D02*
X040937Y023175D01*
X041061Y023294D02*
X041116Y023294D01*
X041116Y022938D02*
X040962Y022938D01*
X041077Y022820D02*
X041116Y022820D01*
X039759Y023294D02*
X039588Y023294D01*
X039488Y023412D02*
X039702Y023412D01*
X041557Y021042D02*
X041782Y021042D01*
X041782Y020924D02*
X041439Y020924D01*
X041320Y020805D02*
X041782Y020805D01*
X041782Y020687D02*
X041153Y020687D01*
D35*
X035166Y023751D03*
X030666Y023251D03*
X022791Y030126D03*
X026641Y034026D03*
X030266Y033051D03*
X033341Y032526D03*
X033341Y034026D03*
X035441Y033051D03*
D36*
X035441Y033249D02*
X035416Y033274D01*
X037081Y029302D02*
X037700Y028683D01*
X040028Y028683D01*
X040003Y028658D01*
X040003Y025237D01*
X040890Y024350D01*
X041189Y024051D01*
X041416Y023824D01*
X041416Y021326D01*
X041066Y020976D01*
X038916Y020976D01*
X040028Y028683D02*
X040416Y028683D01*
X041110Y028685D01*
X031273Y029526D02*
X030098Y028351D01*
X030116Y028333D01*
X030116Y027051D01*
X030666Y026501D01*
X030666Y024476D01*
X031273Y029526D02*
X031273Y030851D01*
D37*
X038910Y021067D02*
X038910Y020983D01*
X038916Y020976D01*
D38*
X035166Y023751D02*
X035166Y028069D01*
X035448Y028351D01*
X024553Y030137D02*
X024541Y030126D01*
X022791Y030126D01*
D39*
X005284Y007015D03*
X005284Y038511D03*
X041110Y038511D03*
X041110Y007015D03*
M02*
