G75*
G70*
%OFA0B0*%
%FSLAX24Y24*%
%IPPOS*%
%LPD*%
%AMOC8*
5,1,8,0,0,1.08239X$1,22.5*
%
%ADD10C,0.0100*%
%ADD11C,0.0000*%
D10*
X004103Y005637D02*
X027331Y005637D01*
X027331Y028472D01*
X004103Y028472D01*
X004103Y005637D01*
D11*
X007024Y025598D02*
X007026Y025637D01*
X007032Y025676D01*
X007042Y025714D01*
X007055Y025751D01*
X007072Y025786D01*
X007092Y025820D01*
X007116Y025851D01*
X007143Y025880D01*
X007172Y025906D01*
X007204Y025929D01*
X007238Y025949D01*
X007274Y025965D01*
X007311Y025977D01*
X007350Y025986D01*
X007389Y025991D01*
X007428Y025992D01*
X007467Y025989D01*
X007506Y025982D01*
X007543Y025971D01*
X007580Y025957D01*
X007615Y025939D01*
X007648Y025918D01*
X007679Y025893D01*
X007707Y025866D01*
X007732Y025836D01*
X007754Y025803D01*
X007773Y025769D01*
X007788Y025733D01*
X007800Y025695D01*
X007808Y025657D01*
X007812Y025618D01*
X007812Y025578D01*
X007808Y025539D01*
X007800Y025501D01*
X007788Y025463D01*
X007773Y025427D01*
X007754Y025393D01*
X007732Y025360D01*
X007707Y025330D01*
X007679Y025303D01*
X007648Y025278D01*
X007615Y025257D01*
X007580Y025239D01*
X007543Y025225D01*
X007506Y025214D01*
X007467Y025207D01*
X007428Y025204D01*
X007389Y025205D01*
X007350Y025210D01*
X007311Y025219D01*
X007274Y025231D01*
X007238Y025247D01*
X007204Y025267D01*
X007172Y025290D01*
X007143Y025316D01*
X007116Y025345D01*
X007092Y025376D01*
X007072Y025410D01*
X007055Y025445D01*
X007042Y025482D01*
X007032Y025520D01*
X007026Y025559D01*
X007024Y025598D01*
X011024Y025598D02*
X011026Y025637D01*
X011032Y025676D01*
X011042Y025714D01*
X011055Y025751D01*
X011072Y025786D01*
X011092Y025820D01*
X011116Y025851D01*
X011143Y025880D01*
X011172Y025906D01*
X011204Y025929D01*
X011238Y025949D01*
X011274Y025965D01*
X011311Y025977D01*
X011350Y025986D01*
X011389Y025991D01*
X011428Y025992D01*
X011467Y025989D01*
X011506Y025982D01*
X011543Y025971D01*
X011580Y025957D01*
X011615Y025939D01*
X011648Y025918D01*
X011679Y025893D01*
X011707Y025866D01*
X011732Y025836D01*
X011754Y025803D01*
X011773Y025769D01*
X011788Y025733D01*
X011800Y025695D01*
X011808Y025657D01*
X011812Y025618D01*
X011812Y025578D01*
X011808Y025539D01*
X011800Y025501D01*
X011788Y025463D01*
X011773Y025427D01*
X011754Y025393D01*
X011732Y025360D01*
X011707Y025330D01*
X011679Y025303D01*
X011648Y025278D01*
X011615Y025257D01*
X011580Y025239D01*
X011543Y025225D01*
X011506Y025214D01*
X011467Y025207D01*
X011428Y025204D01*
X011389Y025205D01*
X011350Y025210D01*
X011311Y025219D01*
X011274Y025231D01*
X011238Y025247D01*
X011204Y025267D01*
X011172Y025290D01*
X011143Y025316D01*
X011116Y025345D01*
X011092Y025376D01*
X011072Y025410D01*
X011055Y025445D01*
X011042Y025482D01*
X011032Y025520D01*
X011026Y025559D01*
X011024Y025598D01*
X019622Y025598D02*
X019624Y025637D01*
X019630Y025676D01*
X019640Y025714D01*
X019653Y025751D01*
X019670Y025786D01*
X019690Y025820D01*
X019714Y025851D01*
X019741Y025880D01*
X019770Y025906D01*
X019802Y025929D01*
X019836Y025949D01*
X019872Y025965D01*
X019909Y025977D01*
X019948Y025986D01*
X019987Y025991D01*
X020026Y025992D01*
X020065Y025989D01*
X020104Y025982D01*
X020141Y025971D01*
X020178Y025957D01*
X020213Y025939D01*
X020246Y025918D01*
X020277Y025893D01*
X020305Y025866D01*
X020330Y025836D01*
X020352Y025803D01*
X020371Y025769D01*
X020386Y025733D01*
X020398Y025695D01*
X020406Y025657D01*
X020410Y025618D01*
X020410Y025578D01*
X020406Y025539D01*
X020398Y025501D01*
X020386Y025463D01*
X020371Y025427D01*
X020352Y025393D01*
X020330Y025360D01*
X020305Y025330D01*
X020277Y025303D01*
X020246Y025278D01*
X020213Y025257D01*
X020178Y025239D01*
X020141Y025225D01*
X020104Y025214D01*
X020065Y025207D01*
X020026Y025204D01*
X019987Y025205D01*
X019948Y025210D01*
X019909Y025219D01*
X019872Y025231D01*
X019836Y025247D01*
X019802Y025267D01*
X019770Y025290D01*
X019741Y025316D01*
X019714Y025345D01*
X019690Y025376D01*
X019670Y025410D01*
X019653Y025445D01*
X019640Y025482D01*
X019630Y025520D01*
X019624Y025559D01*
X019622Y025598D01*
X023622Y025598D02*
X023624Y025637D01*
X023630Y025676D01*
X023640Y025714D01*
X023653Y025751D01*
X023670Y025786D01*
X023690Y025820D01*
X023714Y025851D01*
X023741Y025880D01*
X023770Y025906D01*
X023802Y025929D01*
X023836Y025949D01*
X023872Y025965D01*
X023909Y025977D01*
X023948Y025986D01*
X023987Y025991D01*
X024026Y025992D01*
X024065Y025989D01*
X024104Y025982D01*
X024141Y025971D01*
X024178Y025957D01*
X024213Y025939D01*
X024246Y025918D01*
X024277Y025893D01*
X024305Y025866D01*
X024330Y025836D01*
X024352Y025803D01*
X024371Y025769D01*
X024386Y025733D01*
X024398Y025695D01*
X024406Y025657D01*
X024410Y025618D01*
X024410Y025578D01*
X024406Y025539D01*
X024398Y025501D01*
X024386Y025463D01*
X024371Y025427D01*
X024352Y025393D01*
X024330Y025360D01*
X024305Y025330D01*
X024277Y025303D01*
X024246Y025278D01*
X024213Y025257D01*
X024178Y025239D01*
X024141Y025225D01*
X024104Y025214D01*
X024065Y025207D01*
X024026Y025204D01*
X023987Y025205D01*
X023948Y025210D01*
X023909Y025219D01*
X023872Y025231D01*
X023836Y025247D01*
X023802Y025267D01*
X023770Y025290D01*
X023741Y025316D01*
X023714Y025345D01*
X023690Y025376D01*
X023670Y025410D01*
X023653Y025445D01*
X023640Y025482D01*
X023630Y025520D01*
X023624Y025559D01*
X023622Y025598D01*
M02*
