G75*
G70*
%OFA0B0*%
%FSLAX24Y24*%
%IPPOS*%
%LPD*%
%AMOC8*
5,1,8,0,0,1.08239X$1,22.5*
%
%ADD10C,0.0600*%
%ADD11C,0.0634*%
%ADD12OC8,0.0940*%
%ADD13OC8,0.0600*%
%ADD14C,0.0680*%
%ADD15C,0.0640*%
%ADD16C,0.0780*%
%ADD17C,0.1080*%
%ADD18C,0.0674*%
%ADD19OC8,0.0780*%
%ADD20C,0.0634*%
%ADD21C,0.0867*%
%ADD22OC8,0.1980*%
%ADD23C,0.0907*%
%ADD24OC8,0.0710*%
%ADD25C,0.0710*%
%ADD26C,0.2049*%
D10*
X016312Y015780D02*
X016312Y016300D01*
X017312Y016300D02*
X017312Y015780D01*
X018312Y015780D02*
X018312Y016300D01*
X019312Y016300D02*
X019312Y015780D01*
X019312Y018780D02*
X019312Y019300D01*
X018312Y019300D02*
X018312Y018780D01*
X017312Y018780D02*
X017312Y019300D01*
X016312Y019300D02*
X016312Y018780D01*
X018383Y010852D02*
X018903Y010852D01*
X018903Y009852D02*
X018383Y009852D01*
X018383Y008852D02*
X018903Y008852D01*
D11*
X023672Y009256D02*
X024226Y009256D01*
X024226Y010256D02*
X023672Y010256D01*
X023672Y011256D02*
X024226Y011256D01*
X024226Y012256D02*
X023672Y012256D01*
X025172Y011756D02*
X025726Y011756D01*
X025726Y010756D02*
X025172Y010756D01*
X025172Y009756D02*
X025726Y009756D01*
X016711Y023864D02*
X016711Y024418D01*
X015711Y024418D02*
X015711Y023864D01*
X014711Y023864D02*
X014711Y024418D01*
D12*
X023356Y017647D03*
X023356Y013662D03*
D13*
X024149Y013265D03*
X026149Y013265D03*
X022506Y010783D03*
X022506Y009658D03*
X020506Y009658D03*
X020506Y010783D03*
X021006Y012533D03*
X021006Y013433D03*
X021012Y014315D03*
X019012Y014315D03*
X019006Y013433D03*
X019006Y012533D03*
X016899Y012515D03*
X017049Y010738D03*
X017049Y008738D03*
X021981Y007158D03*
X023981Y007158D03*
X016899Y014515D03*
X015137Y016540D03*
X013706Y016958D03*
X013706Y016072D03*
X013706Y015097D03*
X011706Y015097D03*
X011706Y016072D03*
X011706Y016958D03*
X011706Y017847D03*
X011706Y018733D03*
X010366Y018609D03*
X010356Y019683D03*
X009578Y021806D03*
X007578Y021806D03*
X013406Y022572D03*
X015406Y022572D03*
X017312Y022315D03*
X017312Y020315D03*
X015137Y018540D03*
X014356Y019683D03*
X013706Y018733D03*
X013706Y017847D03*
X010366Y014609D03*
X020487Y016540D03*
X020487Y018540D03*
D14*
X025850Y016874D02*
X026450Y016874D01*
X026450Y015874D02*
X025850Y015874D01*
X025850Y014874D02*
X026450Y014874D01*
D15*
X024410Y008088D03*
X021410Y008088D03*
D16*
X022120Y017491D03*
X022120Y021491D03*
D17*
X024931Y021463D02*
X025931Y021463D01*
X025931Y019494D02*
X024931Y019494D01*
D18*
X020253Y007255D02*
X020253Y006662D01*
X019253Y006662D02*
X019253Y007255D01*
X017778Y007262D02*
X017778Y006668D01*
X016778Y006668D02*
X016778Y007262D01*
D19*
X010091Y013130D03*
X010091Y013130D03*
D20*
X009418Y023598D03*
X008418Y023598D03*
X021016Y023598D03*
X022016Y023598D03*
D21*
X020016Y025598D03*
X024016Y025598D03*
X011418Y025598D03*
X007418Y025598D03*
D22*
X008440Y010114D03*
X010410Y008934D03*
X008440Y007754D03*
X013015Y007729D03*
X014985Y008909D03*
X013015Y010089D03*
D23*
X012715Y010089D03*
X013315Y010089D03*
X014985Y009209D03*
X014985Y008609D03*
X013315Y007729D03*
X012715Y007729D03*
X010410Y008634D03*
X010410Y009234D03*
X008740Y010114D03*
X008140Y010114D03*
X008140Y007754D03*
X008740Y007754D03*
D24*
X010092Y012126D03*
X013042Y013126D03*
D25*
X013042Y012126D03*
X010092Y013126D03*
D26*
X005284Y007015D03*
X005284Y026700D03*
X026150Y026700D03*
X026150Y007015D03*
M02*
