G75*
G70*
%OFA0B0*%
%FSLAX24Y24*%
%IPPOS*%
%LPD*%
%AMOC8*
5,1,8,0,0,1.08239X$1,22.5*
%
%ADD10C,0.0520*%
%ADD11C,0.0554*%
%ADD12R,0.1260X0.0709*%
%ADD13OC8,0.0860*%
%ADD14OC8,0.0520*%
%ADD15C,0.0600*%
%ADD16C,0.0560*%
%ADD17C,0.0700*%
%ADD18C,0.1000*%
%ADD19C,0.0594*%
%ADD20OC8,0.0700*%
%ADD21C,0.0554*%
%ADD22OC8,0.1900*%
%ADD23C,0.0827*%
%ADD24OC8,0.0630*%
%ADD25C,0.0630*%
%ADD26C,0.0160*%
%ADD27C,0.0400*%
%ADD28C,0.0500*%
%ADD29C,0.0860*%
%ADD30R,0.0396X0.0396*%
%ADD31C,0.0240*%
%ADD32C,0.0700*%
%ADD33C,0.0120*%
%ADD34C,0.0260*%
%ADD35C,0.0320*%
%ADD36C,0.1969*%
D10*
X016312Y015780D02*
X016312Y016300D01*
X017312Y016300D02*
X017312Y015780D01*
X018312Y015780D02*
X018312Y016300D01*
X019312Y016300D02*
X019312Y015780D01*
X019312Y018780D02*
X019312Y019300D01*
X018312Y019300D02*
X018312Y018780D01*
X017312Y018780D02*
X017312Y019300D01*
X016312Y019300D02*
X016312Y018780D01*
X018383Y010852D02*
X018903Y010852D01*
X018903Y009852D02*
X018383Y009852D01*
X018383Y008852D02*
X018903Y008852D01*
D11*
X023672Y009256D02*
X024226Y009256D01*
X024226Y010256D02*
X023672Y010256D01*
X023672Y011256D02*
X024226Y011256D01*
X024226Y012256D02*
X023672Y012256D01*
X025172Y011756D02*
X025726Y011756D01*
X025726Y010756D02*
X025172Y010756D01*
X025172Y009756D02*
X025726Y009756D01*
X016711Y023864D02*
X016711Y024418D01*
X015711Y024418D02*
X015711Y023864D01*
X014711Y023864D02*
X014711Y024418D01*
D12*
X023356Y016749D03*
X023356Y014544D03*
D13*
X023356Y013662D03*
X023356Y017647D03*
D14*
X020487Y018540D03*
X020487Y016540D03*
X021012Y014315D03*
X021006Y013433D03*
X021006Y012533D03*
X020506Y010783D03*
X020506Y009658D03*
X022506Y009658D03*
X022506Y010783D03*
X024149Y013265D03*
X026149Y013265D03*
X023981Y007158D03*
X021981Y007158D03*
X017049Y008738D03*
X017049Y010738D03*
X016899Y012515D03*
X019006Y012533D03*
X019006Y013433D03*
X019012Y014315D03*
X016899Y014515D03*
X015137Y016540D03*
X013706Y016958D03*
X013706Y016072D03*
X013706Y015097D03*
X011706Y015097D03*
X011706Y016072D03*
X011706Y016958D03*
X011706Y017847D03*
X011706Y018733D03*
X010366Y018609D03*
X010356Y019683D03*
X009578Y021806D03*
X007578Y021806D03*
X013406Y022572D03*
X015406Y022572D03*
X017312Y022315D03*
X017312Y020315D03*
X015137Y018540D03*
X014356Y019683D03*
X013706Y018733D03*
X013706Y017847D03*
X010366Y014609D03*
D15*
X025850Y014874D02*
X026450Y014874D01*
X026450Y015874D02*
X025850Y015874D01*
X025850Y016874D02*
X026450Y016874D01*
D16*
X024410Y008088D03*
X021410Y008088D03*
D17*
X022120Y017491D03*
X022120Y021491D03*
D18*
X024931Y021463D02*
X025931Y021463D01*
X025931Y019494D02*
X024931Y019494D01*
X025081Y019144D02*
X025431Y019494D01*
X025081Y019140D02*
X024906Y018965D01*
X024906Y016290D01*
X025324Y015872D01*
X026150Y015874D01*
X026185Y014544D02*
X023356Y014544D01*
D19*
X020253Y007255D02*
X020253Y006662D01*
X019253Y006662D02*
X019253Y007255D01*
X017778Y007262D02*
X017778Y006668D01*
X016778Y006668D02*
X016778Y007262D01*
D20*
X010091Y013130D03*
X010091Y013130D03*
D21*
X009418Y023598D03*
X008418Y023598D03*
X021016Y023598D03*
X022016Y023598D03*
D22*
X013015Y010089D03*
X014985Y008909D03*
X013015Y007729D03*
X010410Y008934D03*
X008440Y007754D03*
X008440Y010114D03*
D23*
X008140Y010114D03*
X008740Y010114D03*
X010410Y009234D03*
X010410Y008634D03*
X008740Y007754D03*
X008140Y007754D03*
X012715Y007729D03*
X013315Y007729D03*
X014985Y008609D03*
X014985Y009209D03*
X013315Y010089D03*
X012715Y010089D03*
D24*
X010092Y012126D03*
X013042Y013126D03*
D25*
X013042Y012126D03*
X010092Y013126D03*
D26*
X011625Y014515D02*
X011203Y014937D01*
X011203Y015569D01*
X011706Y016072D01*
X011706Y016958D02*
X011706Y017847D01*
X011706Y018733D01*
X012656Y019683D01*
X014356Y019683D01*
X014903Y019362D02*
X014303Y018762D01*
X013735Y018762D01*
X013706Y018733D01*
X013706Y017847D02*
X016387Y017847D01*
X016462Y017922D01*
X016590Y018050D01*
X017312Y018772D01*
X017312Y019040D01*
X017312Y020315D01*
X018312Y019040D02*
X018312Y018272D01*
X017331Y017290D01*
X014924Y017290D01*
X013706Y016072D01*
X012731Y015097D01*
X011706Y015097D01*
X011625Y014515D02*
X016899Y014515D01*
X018800Y014515D01*
X019003Y014312D01*
X019503Y014537D02*
X019503Y013937D01*
X019003Y013437D01*
X019503Y014537D02*
X018825Y015215D01*
X017303Y015215D01*
X017312Y015225D01*
X017312Y016040D01*
X017303Y015215D02*
X013706Y015215D01*
X010366Y018609D02*
X010366Y019673D01*
X010356Y019683D01*
X010356Y021029D01*
X009578Y021806D01*
X009418Y021967D01*
X009418Y023598D01*
X014711Y024141D02*
X014711Y024770D01*
X014992Y025051D01*
X017292Y025051D01*
X019967Y022376D01*
X019967Y016915D01*
X019917Y016865D01*
X021381Y016590D02*
X021381Y022965D01*
X022006Y023590D01*
X016711Y023877D02*
X015406Y022572D01*
X014903Y022987D02*
X014903Y019362D01*
X014903Y022987D02*
X015711Y023796D01*
X015711Y024141D01*
X016711Y024141D02*
X016711Y023877D01*
X021381Y016590D02*
X022381Y015590D01*
X023031Y015590D01*
X023356Y015265D01*
X023356Y014544D01*
X023328Y013690D02*
X023356Y013662D01*
X023753Y013265D01*
X024149Y013265D01*
X024125Y012265D02*
X023949Y012256D01*
X024125Y012265D02*
X024806Y012265D01*
X025806Y013265D01*
X026149Y013265D01*
X025618Y011765D02*
X025449Y011756D01*
X025618Y011765D02*
X023506Y011765D01*
X023328Y013690D02*
X022431Y013690D01*
X021806Y014315D01*
X021012Y014315D01*
X020506Y010765D02*
X020506Y009658D01*
X021410Y008088D02*
X023031Y008088D01*
X023967Y007151D01*
X021981Y007158D02*
X021781Y006958D01*
X020253Y006958D01*
X018643Y009852D02*
X018163Y009852D01*
X017049Y008738D01*
D27*
X017742Y008115D02*
X017778Y008079D01*
X017778Y006965D01*
X017742Y008115D02*
X015780Y008115D01*
X014985Y008909D01*
X013805Y007729D01*
X013015Y007729D01*
X010410Y008934D02*
X010410Y011426D01*
X010424Y011440D01*
X015156Y011440D01*
X020831Y011440D01*
X022506Y009765D01*
X022506Y009658D01*
X022524Y010765D02*
X022506Y010783D01*
X022506Y010790D02*
X021356Y011940D01*
X020206Y011940D01*
X013228Y011940D01*
X013042Y012126D01*
X010410Y011808D02*
X010410Y011426D01*
X010410Y011808D02*
X010092Y012126D01*
X010092Y013126D02*
X009517Y013126D01*
X008440Y012050D01*
X008440Y010114D01*
X010410Y008934D02*
X009230Y007754D01*
X008440Y007754D01*
X017742Y008115D02*
X019656Y008115D01*
X020506Y008965D01*
X020506Y010765D01*
X018381Y020740D02*
X018381Y022165D01*
X011681Y022215D02*
X011681Y020715D01*
X010075Y017316D02*
X008575Y017316D01*
D28*
X023356Y016865D02*
X023356Y016749D01*
D29*
X023356Y016865D02*
X023356Y017647D01*
X023356Y020088D01*
X024731Y021463D01*
X025431Y021463D01*
X013042Y013126D02*
X010092Y013126D01*
D30*
X010081Y017315D03*
X008556Y017315D03*
X011681Y020715D03*
X011681Y022215D03*
X015306Y021240D03*
X018381Y020715D03*
X018381Y022215D03*
X020481Y021240D03*
X020206Y011940D03*
X015156Y011440D03*
D31*
X013042Y009701D02*
X011667Y008326D01*
X011667Y007101D01*
X012317Y006451D01*
X016265Y006451D01*
X016778Y006965D01*
X018312Y016040D02*
X018312Y016647D01*
X018531Y016865D01*
X019917Y016865D01*
X020131Y016865D01*
X020481Y016515D01*
X020481Y018540D02*
X020481Y021240D01*
X015306Y021240D02*
X015306Y018690D01*
X015156Y018540D01*
X015137Y018540D01*
D32*
X023356Y014544D02*
X023356Y013662D01*
D33*
X022931Y012340D02*
X022581Y012340D01*
X021487Y013433D01*
X021006Y013433D01*
X021481Y012990D02*
X022431Y012040D01*
X023231Y012040D01*
X022931Y012340D01*
X023231Y012040D02*
X023506Y011765D01*
X022281Y011765D01*
X022267Y011776D02*
X021485Y012558D01*
X021006Y012533D01*
X021481Y012990D02*
X015425Y012990D01*
X014253Y014162D01*
X010812Y014162D01*
X010366Y014609D01*
X026150Y014874D02*
X026185Y014838D01*
X026185Y014544D01*
D34*
X024671Y010750D02*
X023271Y010750D01*
X023336Y009755D02*
X024761Y009755D01*
D35*
X025449Y009755D01*
X025449Y009756D01*
X025444Y010750D02*
X024671Y010750D01*
X025444Y010750D02*
X025449Y010756D01*
X023336Y009755D02*
X022602Y009755D01*
X022506Y009658D01*
X022539Y010750D02*
X022506Y010783D01*
X022539Y010750D02*
X023271Y010750D01*
D36*
X005284Y007015D03*
X005284Y026700D03*
X026150Y026700D03*
X026150Y007015D03*
M02*
