%
M48
M72
T01C0.0236
T02C0.0320
T03C0.0354
T04C0.0394
T05C0.0400
T06C0.0433
T07C0.0472
T08C0.0531
T09C0.0551
T10C0.0787
T11C0.1063
%
T01
X15156Y11440
X20206Y11940
X18381Y20715
X18381Y22215
X20481Y21240
X15306Y21240
X11681Y20715
X11681Y22215
X10081Y17315
X8556Y17315
T02
X10366Y18609
X10356Y19683
X11706Y18733
X11706Y17847
X11706Y16958
X11706Y16072
X11706Y15097
X10366Y14609
X10092Y13126
X10092Y12126
X13042Y12126
X13042Y13126
X13706Y15097
X13706Y16072
X13706Y16958
X13706Y17847
X13706Y18733
X14356Y19683
X15137Y18540
X16312Y19040
X17312Y19040
X18312Y19040
X19312Y19040
X20487Y18540
X20487Y16540
X19312Y16040
X18312Y16040
X17312Y16040
X16312Y16040
X15137Y16540
X16899Y14515
X19012Y14315
X19006Y13433
X19006Y12533
X18643Y10852
X18643Y9852
X18643Y8852
X17049Y8738
X17049Y10738
X16899Y12515
X20506Y10783
X20506Y9658
X21410Y8088
X21981Y7158
X23981Y7158
X24410Y8088
X22506Y9658
X22506Y10783
X21006Y12533
X21006Y13433
X21012Y14315
X24149Y13265
X26149Y13265
X17312Y20315
X17312Y22315
X15406Y22572
X13406Y22572
X9578Y21806
X7578Y21806
T03
X8418Y23598
X9418Y23598
X14711Y24141
X15711Y24141
X16711Y24141
X21016Y23598
X22016Y23598
X23949Y12256
X23949Y11256
X23949Y10256
X23949Y9256
X25449Y9756
X25449Y10756
X25449Y11756
T04
X20253Y6958
X19253Y6958
X17778Y6965
X16778Y6965
X22120Y17491
X22120Y21491
T05
X26150Y16874
X26150Y15874
X26150Y14874
T06
X10091Y13130
X10091Y13130
T07
X23356Y13662
X23356Y17647
T08
X25431Y19494
X25431Y21463
T09
X13315Y10089
X13015Y10089
X12715Y10089
X14985Y9209
X14985Y8909
X14985Y8609
X13315Y7729
X13015Y7729
X12715Y7729
X10410Y8634
X10410Y8934
X10410Y9234
X8740Y10114
X8440Y10114
X8140Y10114
X8140Y7754
X8440Y7754
X8740Y7754
T10
X7418Y25598
X11418Y25598
X20016Y25598
X24016Y25598
T11
X5284Y7015
X5284Y26700
X26150Y26700
X26150Y7015
M30
