G75*
G70*
%OFA0B0*%
%FSLAX24Y24*%
%IPPOS*%
%LPD*%
%AMOC8*
5,1,8,0,0,1.08239X$1,22.5*
%
%ADD10C,0.0100*%
%ADD11C,0.0060*%
%ADD12C,0.0050*%
%ADD13C,0.0040*%
%ADD14C,0.0070*%
%ADD15C,0.0080*%
%ADD16R,0.0975X0.0275*%
%ADD17R,0.0500X0.1400*%
%ADD18C,0.0160*%
%ADD19R,0.0240X0.0340*%
%ADD20R,0.0340X0.0240*%
%ADD21C,0.0200*%
%ADD22R,0.0300X0.4200*%
%ADD23R,0.0200X0.0750*%
%ADD24R,0.0200X0.0300*%
%ADD25R,0.0200X0.0800*%
%ADD26R,0.0250X0.0200*%
%ADD27R,0.0800X0.0200*%
%ADD28R,0.0200X0.0700*%
%ADD29R,0.0012X0.0001*%
%ADD30R,0.0015X0.0001*%
%ADD31R,0.0018X0.0001*%
%ADD32R,0.0021X0.0001*%
%ADD33R,0.0026X0.0002*%
%ADD34R,0.0030X0.0001*%
%ADD35R,0.0036X0.0001*%
%ADD36R,0.0039X0.0001*%
%ADD37R,0.0041X0.0001*%
%ADD38R,0.0042X0.0001*%
%ADD39R,0.0044X0.0001*%
%ADD40R,0.0045X0.0001*%
%ADD41R,0.0045X0.0002*%
%ADD42R,0.0007X0.0001*%
%ADD43R,0.0001X0.0001*%
%ADD44R,0.0006X0.0001*%
%ADD45R,0.0004X0.0001*%
%ADD46R,0.0006X0.0001*%
%ADD47R,0.0002X0.0001*%
%ADD48R,0.0003X0.0001*%
%ADD49R,0.0005X0.0001*%
%ADD50R,0.0049X0.0001*%
%ADD51R,0.0046X0.0001*%
%ADD52R,0.0003X0.0001*%
%ADD53R,0.0048X0.0001*%
%ADD54R,0.0022X0.0002*%
%ADD55R,0.0019X0.0002*%
%ADD56R,0.0025X0.0002*%
%ADD57R,0.0006X0.0002*%
%ADD58R,0.0009X0.0002*%
%ADD59R,0.0055X0.0002*%
%ADD60R,0.0048X0.0002*%
%ADD61R,0.0054X0.0002*%
%ADD62R,0.0056X0.0002*%
%ADD63R,0.0032X0.0001*%
%ADD64R,0.0031X0.0001*%
%ADD65R,0.0010X0.0001*%
%ADD66R,0.0059X0.0001*%
%ADD67R,0.0060X0.0001*%
%ADD68R,0.0051X0.0001*%
%ADD69R,0.0051X0.0001*%
%ADD70R,0.0014X0.0001*%
%ADD71R,0.0038X0.0001*%
%ADD72R,0.0013X0.0001*%
%ADD73R,0.0063X0.0001*%
%ADD74R,0.0016X0.0001*%
%ADD75R,0.0066X0.0001*%
%ADD76R,0.0056X0.0001*%
%ADD77R,0.0063X0.0001*%
%ADD78R,0.0066X0.0001*%
%ADD79R,0.0011X0.0001*%
%ADD80R,0.0012X0.0001*%
%ADD81R,0.0018X0.0001*%
%ADD82R,0.0065X0.0001*%
%ADD83R,0.0019X0.0001*%
%ADD84R,0.0071X0.0001*%
%ADD85R,0.0068X0.0001*%
%ADD86R,0.0062X0.0001*%
%ADD87R,0.0061X0.0001*%
%ADD88R,0.0023X0.0001*%
%ADD89R,0.0079X0.0001*%
%ADD90R,0.0064X0.0001*%
%ADD91R,0.0021X0.0001*%
%ADD92R,0.0076X0.0001*%
%ADD93R,0.0074X0.0001*%
%ADD94R,0.0123X0.0001*%
%ADD95R,0.0072X0.0001*%
%ADD96R,0.0024X0.0001*%
%ADD97R,0.0026X0.0001*%
%ADD98R,0.0025X0.0001*%
%ADD99R,0.0075X0.0001*%
%ADD100R,0.0086X0.0001*%
%ADD101R,0.0027X0.0001*%
%ADD102R,0.0081X0.0001*%
%ADD103R,0.0126X0.0001*%
%ADD104R,0.0029X0.0001*%
%ADD105R,0.0028X0.0001*%
%ADD106R,0.0033X0.0001*%
%ADD107R,0.0090X0.0001*%
%ADD108R,0.0157X0.0001*%
%ADD109R,0.0078X0.0001*%
%ADD110R,0.0091X0.0001*%
%ADD111R,0.0085X0.0001*%
%ADD112R,0.0129X0.0001*%
%ADD113R,0.0033X0.0001*%
%ADD114R,0.0081X0.0001*%
%ADD115R,0.0034X0.0001*%
%ADD116R,0.0094X0.0001*%
%ADD117R,0.0160X0.0001*%
%ADD118R,0.0088X0.0001*%
%ADD119R,0.0131X0.0001*%
%ADD120R,0.0089X0.0001*%
%ADD121R,0.0035X0.0001*%
%ADD122R,0.0083X0.0001*%
%ADD123R,0.0098X0.0001*%
%ADD124R,0.0164X0.0001*%
%ADD125R,0.0092X0.0001*%
%ADD126R,0.0132X0.0001*%
%ADD127R,0.0037X0.0001*%
%ADD128R,0.0084X0.0001*%
%ADD129R,0.0036X0.0001*%
%ADD130R,0.0101X0.0001*%
%ADD131R,0.0166X0.0001*%
%ADD132R,0.0099X0.0001*%
%ADD133R,0.0096X0.0002*%
%ADD134R,0.0134X0.0002*%
%ADD135R,0.0041X0.0002*%
%ADD136R,0.0031X0.0002*%
%ADD137R,0.0030X0.0002*%
%ADD138R,0.0084X0.0002*%
%ADD139R,0.0036X0.0002*%
%ADD140R,0.0033X0.0002*%
%ADD141R,0.0104X0.0002*%
%ADD142R,0.0170X0.0002*%
%ADD143R,0.0102X0.0001*%
%ADD144R,0.0136X0.0001*%
%ADD145R,0.0108X0.0001*%
%ADD146R,0.0173X0.0001*%
%ADD147R,0.0106X0.0001*%
%ADD148R,0.0141X0.0001*%
%ADD149R,0.0087X0.0001*%
%ADD150R,0.0111X0.0001*%
%ADD151R,0.0176X0.0001*%
%ADD152R,0.0109X0.0001*%
%ADD153R,0.0112X0.0001*%
%ADD154R,0.0142X0.0001*%
%ADD155R,0.0114X0.0001*%
%ADD156R,0.0177X0.0001*%
%ADD157R,0.0115X0.0001*%
%ADD158R,0.0144X0.0001*%
%ADD159R,0.0048X0.0001*%
%ADD160R,0.0117X0.0001*%
%ADD161R,0.0179X0.0001*%
%ADD162R,0.0118X0.0001*%
%ADD163R,0.0146X0.0001*%
%ADD164R,0.0120X0.0001*%
%ADD165R,0.0180X0.0001*%
%ADD166R,0.0119X0.0001*%
%ADD167R,0.0122X0.0001*%
%ADD168R,0.0181X0.0001*%
%ADD169R,0.0125X0.0001*%
%ADD170R,0.0147X0.0001*%
%ADD171R,0.0121X0.0001*%
%ADD172R,0.0126X0.0001*%
%ADD173R,0.0149X0.0001*%
%ADD174R,0.0093X0.0001*%
%ADD175R,0.0129X0.0001*%
%ADD176R,0.0184X0.0001*%
%ADD177R,0.0151X0.0001*%
%ADD178R,0.0128X0.0001*%
%ADD179R,0.0093X0.0001*%
%ADD180R,0.0187X0.0001*%
%ADD181R,0.0132X0.0002*%
%ADD182R,0.0153X0.0002*%
%ADD183R,0.0131X0.0002*%
%ADD184R,0.0046X0.0002*%
%ADD185R,0.0048X0.0002*%
%ADD186R,0.0094X0.0002*%
%ADD187R,0.0034X0.0002*%
%ADD188R,0.0189X0.0002*%
%ADD189R,0.0091X0.0002*%
%ADD190R,0.0134X0.0001*%
%ADD191R,0.0154X0.0001*%
%ADD192R,0.0057X0.0001*%
%ADD193R,0.0027X0.0001*%
%ADD194R,0.0190X0.0001*%
%ADD195R,0.0054X0.0001*%
%ADD196R,0.0053X0.0001*%
%ADD197R,0.0054X0.0001*%
%ADD198R,0.0139X0.0001*%
%ADD199R,0.0156X0.0001*%
%ADD200R,0.0052X0.0001*%
%ADD201R,0.0043X0.0001*%
%ADD202R,0.0039X0.0001*%
%ADD203R,0.0040X0.0001*%
%ADD204R,0.0147X0.0001*%
%ADD205R,0.0159X0.0001*%
%ADD206R,0.0145X0.0001*%
%ADD207R,0.0042X0.0001*%
%ADD208R,0.0047X0.0001*%
%ADD209R,0.0150X0.0001*%
%ADD210R,0.0161X0.0001*%
%ADD211R,0.0162X0.0001*%
%ADD212R,0.0153X0.0002*%
%ADD213R,0.0164X0.0002*%
%ADD214R,0.0151X0.0002*%
%ADD215R,0.0042X0.0002*%
%ADD216R,0.0038X0.0002*%
%ADD217R,0.0040X0.0002*%
%ADD218R,0.0069X0.0001*%
%ADD219R,0.0067X0.0001*%
%ADD220R,0.0069X0.0001*%
%ADD221R,0.0054X0.0002*%
%ADD222R,0.0051X0.0002*%
%ADD223R,0.0052X0.0002*%
%ADD224R,0.0035X0.0002*%
%ADD225R,0.0036X0.0002*%
%ADD226R,0.0032X0.0002*%
%ADD227R,0.0037X0.0002*%
%ADD228R,0.0039X0.0002*%
%ADD229R,0.0059X0.0002*%
%ADD230R,0.0042X0.0002*%
%ADD231R,0.0060X0.0002*%
%ADD232R,0.0061X0.0002*%
%ADD233R,0.0012X0.0002*%
%ADD234R,0.0008X0.0001*%
%ADD235R,0.0070X0.0001*%
%ADD236R,0.0072X0.0001*%
%ADD237R,0.0078X0.0001*%
%ADD238R,0.0082X0.0001*%
%ADD239R,0.0024X0.0001*%
%ADD240R,0.0089X0.0002*%
%ADD241R,0.0018X0.0002*%
%ADD242R,0.0079X0.0002*%
%ADD243R,0.0076X0.0002*%
%ADD244R,0.0096X0.0001*%
%ADD245R,0.0097X0.0001*%
%ADD246R,0.0087X0.0001*%
%ADD247R,0.0105X0.0001*%
%ADD248R,0.0108X0.0001*%
%ADD249R,0.0110X0.0001*%
%ADD250R,0.0113X0.0001*%
%ADD251R,0.0116X0.0001*%
%ADD252R,0.0117X0.0001*%
%ADD253R,0.0124X0.0002*%
%ADD254R,0.0114X0.0002*%
%ADD255R,0.0112X0.0002*%
%ADD256R,0.0129X0.0002*%
%ADD257R,0.0127X0.0001*%
%ADD258R,0.0084X0.0001*%
%ADD259R,0.0103X0.0001*%
%ADD260R,0.0096X0.0001*%
%ADD261R,0.0153X0.0001*%
%ADD262R,0.0156X0.0002*%
%ADD263R,0.0080X0.0002*%
%ADD264R,0.0081X0.0002*%
%ADD265R,0.0165X0.0001*%
%ADD266R,0.0055X0.0001*%
%ADD267R,0.0100X0.0001*%
%ADD268R,0.0009X0.0001*%
%ADD269R,0.0022X0.0001*%
%ADD270R,0.0044X0.0002*%
%ADD271R,0.0029X0.0002*%
%ADD272R,0.0057X0.0002*%
%ADD273R,0.0033X0.0002*%
%ADD274R,0.0049X0.0002*%
%ADD275R,0.0039X0.0002*%
%ADD276R,0.0053X0.0002*%
%ADD277R,0.0043X0.0002*%
%ADD278R,0.0058X0.0001*%
%ADD279R,0.0124X0.0001*%
%ADD280R,0.0144X0.0001*%
%ADD281R,0.0152X0.0001*%
%ADD282R,0.0155X0.0001*%
%ADD283R,0.0123X0.0001*%
%ADD284R,0.0153X0.0001*%
%ADD285R,0.0150X0.0002*%
%ADD286R,0.0139X0.0002*%
%ADD287R,0.0119X0.0002*%
%ADD288R,0.0120X0.0002*%
%ADD289R,0.0141X0.0002*%
%ADD290R,0.0118X0.0002*%
%ADD291R,0.0138X0.0001*%
%ADD292R,0.0114X0.0001*%
%ADD293R,0.0133X0.0001*%
%ADD294R,0.0132X0.0001*%
%ADD295R,0.0130X0.0001*%
%ADD296R,0.0104X0.0001*%
%ADD297R,0.0099X0.0001*%
%ADD298R,0.0135X0.0001*%
%ADD299R,0.0095X0.0001*%
%ADD300R,0.0126X0.0002*%
%ADD301R,0.0128X0.0002*%
%ADD302R,0.0082X0.0002*%
%ADD303R,0.0121X0.0002*%
%ADD304R,0.0024X0.0002*%
%ADD305R,0.0024X0.0002*%
%ADD306R,0.0081X0.0002*%
%ADD307R,0.0020X0.0001*%
%ADD308R,0.0017X0.0001*%
%ADD309R,0.0057X0.0001*%
%ADD310R,0.0090X0.0002*%
%ADD311R,0.0006X0.0002*%
%ADD312R,0.0050X0.0001*%
%ADD313R,0.0075X0.0002*%
%ADD314R,0.0158X0.0002*%
%ADD315R,0.0109X0.0002*%
%ADD316R,0.0168X0.0001*%
%ADD317R,0.0171X0.0001*%
%ADD318R,0.0172X0.0001*%
%ADD319R,0.0175X0.0001*%
%ADD320R,0.0186X0.0001*%
%ADD321R,0.0191X0.0001*%
%ADD322R,0.0194X0.0001*%
%ADD323R,0.0196X0.0002*%
%ADD324R,0.0149X0.0002*%
%ADD325R,0.0199X0.0001*%
%ADD326R,0.0204X0.0001*%
%ADD327R,0.0207X0.0001*%
%ADD328R,0.0158X0.0001*%
%ADD329R,0.0211X0.0001*%
%ADD330R,0.0216X0.0001*%
%ADD331R,0.0219X0.0001*%
%ADD332R,0.0169X0.0001*%
%ADD333R,0.0222X0.0001*%
%ADD334R,0.0224X0.0001*%
%ADD335R,0.0228X0.0001*%
%ADD336R,0.0234X0.0002*%
%ADD337R,0.0183X0.0002*%
%ADD338R,0.0239X0.0001*%
%ADD339R,0.0189X0.0001*%
%ADD340R,0.0241X0.0001*%
%ADD341R,0.0192X0.0001*%
%ADD342R,0.0243X0.0001*%
%ADD343R,0.0246X0.0001*%
%ADD344R,0.0196X0.0001*%
%ADD345R,0.0250X0.0001*%
%ADD346R,0.0201X0.0001*%
%ADD347R,0.0254X0.0001*%
%ADD348R,0.0258X0.0001*%
%ADD349R,0.0209X0.0001*%
%ADD350R,0.0263X0.0001*%
%ADD351R,0.0213X0.0001*%
%ADD352R,0.0267X0.0001*%
%ADD353R,0.0270X0.0002*%
%ADD354R,0.0066X0.0002*%
%ADD355R,0.0219X0.0002*%
%ADD356R,0.0271X0.0001*%
%ADD357R,0.0220X0.0001*%
%ADD358R,0.0274X0.0001*%
%ADD359R,0.0223X0.0001*%
%ADD360R,0.0278X0.0001*%
%ADD361R,0.0282X0.0001*%
%ADD362R,0.0231X0.0001*%
%ADD363R,0.0288X0.0001*%
%ADD364R,0.0236X0.0001*%
%ADD365R,0.0289X0.0001*%
%ADD366R,0.0292X0.0001*%
%ADD367R,0.0297X0.0001*%
%ADD368R,0.0300X0.0001*%
%ADD369R,0.0305X0.0002*%
%ADD370R,0.0101X0.0002*%
%ADD371R,0.0078X0.0002*%
%ADD372R,0.0251X0.0002*%
%ADD373R,0.0309X0.0001*%
%ADD374R,0.0255X0.0001*%
%ADD375R,0.0314X0.0001*%
%ADD376R,0.0316X0.0001*%
%ADD377R,0.0262X0.0001*%
%ADD378R,0.0319X0.0001*%
%ADD379R,0.0266X0.0001*%
%ADD380R,0.0321X0.0001*%
%ADD381R,0.0324X0.0001*%
%ADD382R,0.0270X0.0001*%
%ADD383R,0.0329X0.0001*%
%ADD384R,0.0275X0.0001*%
%ADD385R,0.0333X0.0001*%
%ADD386R,0.0279X0.0001*%
%ADD387R,0.0336X0.0001*%
%ADD388R,0.0284X0.0001*%
%ADD389R,0.0339X0.0002*%
%ADD390R,0.0286X0.0002*%
%ADD391R,0.0342X0.0001*%
%ADD392R,0.0491X0.0001*%
%ADD393R,0.0492X0.0001*%
%ADD394R,0.0294X0.0001*%
%ADD395R,0.0495X0.0001*%
%ADD396R,0.0299X0.0001*%
%ADD397R,0.0496X0.0001*%
%ADD398R,0.0301X0.0001*%
%ADD399R,0.0498X0.0001*%
%ADD400R,0.0304X0.0001*%
%ADD401R,0.0501X0.0001*%
%ADD402R,0.0308X0.0001*%
%ADD403R,0.0311X0.0001*%
%ADD404R,0.0504X0.0001*%
%ADD405R,0.0504X0.0002*%
%ADD406R,0.0318X0.0002*%
%ADD407R,0.0507X0.0001*%
%ADD408R,0.0323X0.0001*%
%ADD409R,0.0326X0.0001*%
%ADD410R,0.0508X0.0001*%
%ADD411R,0.0330X0.0001*%
%ADD412R,0.0510X0.0001*%
%ADD413R,0.0494X0.0001*%
%ADD414R,0.0512X0.0001*%
%ADD415R,0.0500X0.0001*%
%ADD416R,0.0513X0.0001*%
%ADD417R,0.0501X0.0001*%
%ADD418R,0.0513X0.0002*%
%ADD419R,0.0501X0.0002*%
%ADD420R,0.0503X0.0001*%
%ADD421R,0.0504X0.0001*%
%ADD422R,0.0506X0.0001*%
%ADD423R,0.0513X0.0001*%
%ADD424R,0.0509X0.0001*%
%ADD425R,0.0511X0.0001*%
%ADD426R,0.0514X0.0001*%
%ADD427R,0.0516X0.0001*%
%ADD428R,0.0513X0.0002*%
%ADD429R,0.0519X0.0002*%
%ADD430R,0.0519X0.0001*%
%ADD431R,0.0520X0.0001*%
%ADD432R,0.0522X0.0001*%
%ADD433R,0.0507X0.0001*%
%ADD434R,0.0509X0.0002*%
%ADD435R,0.0520X0.0002*%
%ADD436R,0.0522X0.0001*%
%ADD437R,0.0505X0.0001*%
%ADD438R,0.0502X0.0001*%
%ADD439R,0.0521X0.0001*%
%ADD440R,0.0503X0.0002*%
%ADD441R,0.0519X0.0002*%
%ADD442R,0.0519X0.0001*%
%ADD443R,0.0499X0.0001*%
%ADD444R,0.0517X0.0001*%
%ADD445R,0.0495X0.0002*%
%ADD446R,0.0514X0.0002*%
%ADD447R,0.0515X0.0001*%
%ADD448R,0.0492X0.0001*%
%ADD449R,0.0490X0.0001*%
%ADD450R,0.0490X0.0002*%
%ADD451R,0.0511X0.0002*%
%ADD452R,0.0489X0.0001*%
%ADD453R,0.0489X0.0001*%
%ADD454R,0.0488X0.0001*%
%ADD455R,0.0485X0.0001*%
%ADD456R,0.0483X0.0001*%
%ADD457R,0.0483X0.0002*%
%ADD458R,0.0507X0.0002*%
%ADD459R,0.0483X0.0001*%
%ADD460R,0.0481X0.0001*%
%ADD461R,0.0480X0.0001*%
%ADD462R,0.0480X0.0002*%
%ADD463R,0.0501X0.0002*%
%ADD464R,0.0479X0.0001*%
%ADD465R,0.0477X0.0001*%
%ADD466R,0.0477X0.0001*%
%ADD467R,0.0475X0.0001*%
%ADD468R,0.0474X0.0001*%
%ADD469R,0.0472X0.0001*%
%ADD470R,0.0472X0.0002*%
%ADD471R,0.0498X0.0002*%
%ADD472R,0.0471X0.0001*%
%ADD473R,0.0473X0.0001*%
%ADD474R,0.0471X0.0001*%
%ADD475R,0.0470X0.0001*%
%ADD476R,0.0468X0.0001*%
%ADD477R,0.0469X0.0001*%
%ADD478R,0.0468X0.0002*%
%ADD479R,0.0491X0.0002*%
%ADD480R,0.0466X0.0001*%
%ADD481R,0.0465X0.0001*%
%ADD482R,0.0464X0.0001*%
%ADD483R,0.0462X0.0001*%
%ADD484R,0.0462X0.0002*%
%ADD485R,0.0489X0.0002*%
%ADD486R,0.0461X0.0001*%
%ADD487R,0.0460X0.0001*%
%ADD488R,0.0459X0.0001*%
%ADD489R,0.0484X0.0001*%
%ADD490R,0.0457X0.0001*%
%ADD491R,0.0459X0.0001*%
%ADD492R,0.0458X0.0002*%
%ADD493R,0.0484X0.0002*%
%ADD494R,0.0456X0.0001*%
%ADD495R,0.0455X0.0001*%
%ADD496R,0.0453X0.0001*%
%ADD497R,0.0451X0.0001*%
%ADD498R,0.0453X0.0001*%
%ADD499R,0.0450X0.0001*%
%ADD500R,0.0451X0.0002*%
%ADD501R,0.0478X0.0001*%
%ADD502R,0.0449X0.0001*%
%ADD503R,0.0476X0.0001*%
%ADD504R,0.0447X0.0001*%
%ADD505R,0.0474X0.0001*%
%ADD506R,0.0449X0.0002*%
%ADD507R,0.0476X0.0002*%
%ADD508R,0.0454X0.0001*%
%ADD509R,0.0469X0.0002*%
%ADD510R,0.0468X0.0001*%
%ADD511R,0.0467X0.0001*%
%ADD512R,0.0473X0.0002*%
%ADD513R,0.0468X0.0002*%
%ADD514R,0.0486X0.0002*%
%ADD515R,0.0474X0.0002*%
%ADD516R,0.0487X0.0001*%
%ADD517R,0.0497X0.0001*%
%ADD518R,0.0486X0.0001*%
%ADD519R,0.0500X0.0002*%
%ADD520R,0.0487X0.0002*%
%ADD521R,0.0498X0.0001*%
%ADD522R,0.0524X0.0002*%
%ADD523R,0.0524X0.0001*%
%ADD524R,0.0525X0.0001*%
%ADD525R,0.0528X0.0001*%
%ADD526R,0.0529X0.0001*%
%ADD527R,0.0533X0.0001*%
%ADD528R,0.0534X0.0001*%
%ADD529R,0.0523X0.0001*%
%ADD530R,0.0536X0.0001*%
%ADD531R,0.0537X0.0002*%
%ADD532R,0.0527X0.0002*%
%ADD533R,0.0537X0.0001*%
%ADD534R,0.0528X0.0001*%
%ADD535R,0.0539X0.0001*%
%ADD536R,0.0530X0.0001*%
%ADD537R,0.0540X0.0001*%
%ADD538R,0.0541X0.0001*%
%ADD539R,0.0531X0.0001*%
%ADD540R,0.0543X0.0001*%
%ADD541R,0.0544X0.0001*%
%ADD542R,0.0546X0.0002*%
%ADD543R,0.0536X0.0002*%
%ADD544R,0.0547X0.0001*%
%ADD545R,0.0551X0.0001*%
%ADD546R,0.0552X0.0001*%
%ADD547R,0.0554X0.0001*%
%ADD548R,0.0555X0.0001*%
%ADD549R,0.0555X0.0002*%
%ADD550R,0.0547X0.0002*%
%ADD551R,0.0549X0.0001*%
%ADD552R,0.0548X0.0001*%
%ADD553R,0.0538X0.0001*%
%ADD554R,0.0537X0.0001*%
%ADD555R,0.0533X0.0002*%
%ADD556R,0.0531X0.0001*%
%ADD557R,0.0526X0.0001*%
%ADD558R,0.0518X0.0001*%
%ADD559R,0.0498X0.0002*%
%ADD560R,0.0496X0.0002*%
%ADD561R,0.0486X0.0001*%
%ADD562R,0.0485X0.0002*%
%ADD563R,0.0482X0.0001*%
%ADD564R,0.0477X0.0002*%
%ADD565R,0.0530X0.0002*%
%ADD566R,0.0464X0.0002*%
%ADD567R,0.0561X0.0001*%
%ADD568R,0.0570X0.0001*%
%ADD569R,0.0576X0.0001*%
%ADD570R,0.0581X0.0001*%
%ADD571R,0.0585X0.0001*%
%ADD572R,0.0589X0.0001*%
%ADD573R,0.0600X0.0002*%
%ADD574R,0.0614X0.0001*%
%ADD575R,0.0623X0.0001*%
%ADD576R,0.0630X0.0001*%
%ADD577R,0.0633X0.0001*%
%ADD578R,0.0638X0.0001*%
%ADD579R,0.0645X0.0001*%
%ADD580R,0.0657X0.0001*%
%ADD581R,0.0556X0.0001*%
%ADD582R,0.0669X0.0001*%
%ADD583R,0.0674X0.0001*%
%ADD584R,0.0579X0.0001*%
%ADD585R,0.0676X0.0002*%
%ADD586R,0.0585X0.0002*%
%ADD587R,0.0678X0.0001*%
%ADD588R,0.0590X0.0001*%
%ADD589R,0.0679X0.0001*%
%ADD590R,0.0596X0.0001*%
%ADD591R,0.0681X0.0001*%
%ADD592R,0.0606X0.0001*%
%ADD593R,0.0620X0.0001*%
%ADD594R,0.0682X0.0001*%
%ADD595R,0.0633X0.0001*%
%ADD596R,0.0684X0.0001*%
%ADD597R,0.0639X0.0001*%
%ADD598R,0.0649X0.0001*%
%ADD599R,0.0684X0.0001*%
%ADD600R,0.0655X0.0001*%
%ADD601R,0.0683X0.0002*%
%ADD602R,0.0664X0.0002*%
%ADD603R,0.0683X0.0001*%
%ADD604R,0.0670X0.0001*%
%ADD605R,0.0671X0.0001*%
%ADD606R,0.0681X0.0001*%
%ADD607R,0.0672X0.0001*%
%ADD608R,0.0680X0.0001*%
%ADD609R,0.0675X0.0001*%
%ADD610R,0.0676X0.0001*%
%ADD611R,0.0680X0.0002*%
%ADD612R,0.0678X0.0002*%
%ADD613R,0.0678X0.0001*%
%ADD614R,0.0675X0.0002*%
%ADD615R,0.0672X0.0002*%
%ADD616R,0.0672X0.0001*%
%ADD617R,0.0671X0.0002*%
%ADD618R,0.0670X0.0002*%
%ADD619R,0.0669X0.0001*%
%ADD620R,0.0667X0.0001*%
%ADD621R,0.0669X0.0002*%
%ADD622R,0.0667X0.0002*%
%ADD623R,0.0668X0.0001*%
%ADD624R,0.0666X0.0001*%
%ADD625R,0.0668X0.0002*%
%ADD626R,0.0666X0.0002*%
%ADD627R,0.0666X0.0001*%
%ADD628R,0.0664X0.0001*%
%ADD629R,0.0663X0.0001*%
%ADD630R,0.0666X0.0002*%
%ADD631R,0.0663X0.0002*%
%ADD632R,0.0665X0.0001*%
%ADD633R,0.0674X0.0002*%
%ADD634R,0.0677X0.0001*%
%ADD635R,0.0678X0.0002*%
%ADD636R,0.0682X0.0002*%
%ADD637R,0.0686X0.0001*%
%ADD638R,0.0686X0.0002*%
%ADD639R,0.0687X0.0001*%
%ADD640R,0.0689X0.0001*%
%ADD641R,0.0653X0.0001*%
%ADD642R,0.0641X0.0001*%
%ADD643R,0.0626X0.0001*%
%ADD644R,0.0616X0.0001*%
%ADD645R,0.0687X0.0001*%
%ADD646R,0.0612X0.0001*%
%ADD647R,0.0688X0.0001*%
%ADD648R,0.0606X0.0001*%
%ADD649R,0.0601X0.0001*%
%ADD650R,0.0591X0.0002*%
%ADD651R,0.0567X0.0001*%
%ADD652R,0.0560X0.0001*%
%ADD653R,0.0659X0.0001*%
%ADD654R,0.0516X0.0001*%
%ADD655R,0.0639X0.0001*%
%ADD656R,0.0502X0.0002*%
%ADD657R,0.0633X0.0002*%
%ADD658R,0.0608X0.0001*%
%ADD659R,0.0582X0.0001*%
%ADD660R,0.0577X0.0001*%
%ADD661R,0.0569X0.0002*%
%ADD662R,0.0546X0.0001*%
%ADD663R,0.0486X0.0002*%
%ADD664R,0.0493X0.0001*%
%ADD665R,0.0516X0.0002*%
%ADD666R,0.0532X0.0001*%
%ADD667R,0.0534X0.0002*%
%ADD668R,0.0535X0.0002*%
%ADD669R,0.0543X0.0001*%
%ADD670R,0.0553X0.0001*%
%ADD671R,0.0559X0.0001*%
%ADD672R,0.0564X0.0001*%
%ADD673R,0.0564X0.0001*%
%ADD674R,0.0567X0.0001*%
%ADD675R,0.0569X0.0001*%
%ADD676R,0.0570X0.0002*%
%ADD677R,0.0571X0.0002*%
%ADD678R,0.0571X0.0001*%
%ADD679R,0.0573X0.0001*%
%ADD680R,0.0574X0.0001*%
%ADD681R,0.0576X0.0001*%
%ADD682R,0.0600X0.0001*%
%ADD683R,0.0611X0.0001*%
%ADD684R,0.0618X0.0001*%
%ADD685R,0.0621X0.0001*%
%ADD686R,0.1269X0.0001*%
%ADD687R,0.1267X0.0001*%
%ADD688R,0.1266X0.0001*%
%ADD689R,0.1266X0.0002*%
%ADD690R,0.1264X0.0001*%
%ADD691R,0.1261X0.0001*%
%ADD692R,0.1260X0.0001*%
%ADD693R,0.1259X0.0001*%
%ADD694R,0.1256X0.0001*%
%ADD695R,0.1254X0.0001*%
%ADD696R,0.1253X0.0001*%
%ADD697R,0.1251X0.0001*%
%ADD698R,0.1251X0.0002*%
%ADD699R,0.1248X0.0001*%
%ADD700R,0.1245X0.0001*%
%ADD701R,0.1244X0.0001*%
%ADD702R,0.1242X0.0001*%
%ADD703R,0.1239X0.0001*%
%ADD704R,0.1237X0.0001*%
%ADD705R,0.1236X0.0002*%
%ADD706R,0.1233X0.0001*%
%ADD707R,0.1230X0.0001*%
%ADD708R,0.1229X0.0001*%
%ADD709R,0.1227X0.0001*%
%ADD710R,0.1226X0.0001*%
%ADD711R,0.1224X0.0001*%
%ADD712R,0.1223X0.0002*%
%ADD713R,0.1219X0.0001*%
%ADD714R,0.1216X0.0001*%
%ADD715R,0.1215X0.0001*%
%ADD716R,0.1214X0.0001*%
%ADD717R,0.1212X0.0001*%
%ADD718R,0.1209X0.0001*%
%ADD719R,0.1207X0.0002*%
%ADD720R,0.1206X0.0001*%
%ADD721R,0.1204X0.0001*%
%ADD722R,0.1201X0.0001*%
%ADD723R,0.1200X0.0001*%
%ADD724R,0.1199X0.0001*%
%ADD725R,0.1196X0.0001*%
%ADD726R,0.1194X0.0001*%
%ADD727R,0.1193X0.0001*%
%ADD728R,0.1191X0.0001*%
%ADD729R,0.1191X0.0002*%
%ADD730R,0.1188X0.0001*%
%ADD731R,0.1185X0.0001*%
%ADD732R,0.1184X0.0001*%
%ADD733R,0.1181X0.0001*%
%ADD734R,0.1177X0.0001*%
%ADD735R,0.1176X0.0001*%
%ADD736R,0.1174X0.0001*%
%ADD737R,0.1173X0.0001*%
%ADD738R,0.1170X0.0002*%
%ADD739R,0.1170X0.0001*%
%ADD740R,0.1169X0.0001*%
%ADD741R,0.1166X0.0001*%
%ADD742R,0.1164X0.0001*%
%ADD743R,0.1163X0.0001*%
%ADD744R,0.1163X0.0002*%
%ADD745R,0.1167X0.0001*%
%ADD746R,0.1171X0.0001*%
%ADD747R,0.1179X0.0001*%
%ADD748R,0.1182X0.0001*%
%ADD749R,0.1182X0.0002*%
%ADD750R,0.1188X0.0001*%
%ADD751R,0.1190X0.0001*%
%ADD752R,0.1197X0.0001*%
%ADD753R,0.1204X0.0002*%
%ADD754R,0.1207X0.0001*%
%ADD755R,0.1210X0.0001*%
%ADD756R,0.1213X0.0001*%
%ADD757R,0.1217X0.0001*%
%ADD758R,0.1218X0.0001*%
%ADD759R,0.1220X0.0001*%
%ADD760R,0.1221X0.0001*%
%ADD761R,0.1223X0.0001*%
%ADD762R,0.1226X0.0002*%
%ADD763R,0.1236X0.0001*%
%ADD764R,0.1239X0.0001*%
%ADD765R,0.1240X0.0001*%
%ADD766R,0.1243X0.0001*%
%ADD767R,0.1248X0.0002*%
%ADD768R,0.1248X0.0001*%
%ADD769R,0.1251X0.0001*%
%ADD770R,0.1257X0.0001*%
%ADD771R,0.1263X0.0001*%
%ADD772R,0.1267X0.0002*%
%ADD773R,0.1270X0.0001*%
%ADD774R,0.1274X0.0001*%
%ADD775R,0.1275X0.0001*%
%ADD776R,0.1278X0.0001*%
%ADD777R,0.1280X0.0001*%
%ADD778R,0.1281X0.0001*%
%ADD779R,0.1284X0.0001*%
%ADD780R,0.1286X0.0001*%
%ADD781R,0.1289X0.0001*%
%ADD782R,0.1290X0.0002*%
%ADD783R,0.1291X0.0001*%
%ADD784R,0.1294X0.0001*%
%ADD785R,0.1296X0.0001*%
%ADD786R,0.1299X0.0001*%
%ADD787R,0.1300X0.0001*%
%ADD788R,0.1302X0.0001*%
%ADD789R,0.1304X0.0001*%
%ADD790R,0.1306X0.0001*%
%ADD791R,0.1308X0.0001*%
%ADD792R,0.1311X0.0002*%
%ADD793R,0.1313X0.0001*%
%ADD794R,0.1316X0.0001*%
%ADD795R,0.1317X0.0001*%
%ADD796R,0.1320X0.0001*%
%ADD797R,0.1323X0.0001*%
%ADD798R,0.1326X0.0001*%
%ADD799R,0.1329X0.0001*%
%ADD800R,0.1332X0.0002*%
%ADD801R,0.1335X0.0001*%
%ADD802R,0.1336X0.0001*%
%ADD803R,0.1340X0.0001*%
%ADD804R,0.1343X0.0001*%
%ADD805R,0.1346X0.0001*%
%ADD806R,0.1347X0.0001*%
%ADD807R,0.1350X0.0001*%
%ADD808R,0.1353X0.0002*%
%ADD809R,0.1356X0.0001*%
%ADD810R,0.1357X0.0001*%
%ADD811R,0.1360X0.0001*%
%ADD812R,0.1364X0.0001*%
%ADD813R,0.1365X0.0001*%
%ADD814R,0.1368X0.0001*%
%ADD815R,0.1369X0.0001*%
%ADD816R,0.1373X0.0001*%
%ADD817R,0.1374X0.0002*%
%ADD818R,0.1377X0.0001*%
%ADD819R,0.1379X0.0001*%
%ADD820R,0.1380X0.0001*%
%ADD821R,0.1383X0.0001*%
%ADD822R,0.1386X0.0001*%
%ADD823R,0.1387X0.0001*%
%ADD824R,0.1391X0.0001*%
%ADD825R,0.1394X0.0001*%
%ADD826R,0.1395X0.0002*%
%ADD827R,0.1398X0.0001*%
%ADD828R,0.1401X0.0001*%
%ADD829R,0.1403X0.0001*%
%ADD830R,0.1406X0.0001*%
%ADD831R,0.1407X0.0001*%
%ADD832R,0.1409X0.0001*%
%ADD833R,0.1411X0.0001*%
%ADD834R,0.1414X0.0001*%
%ADD835R,0.1416X0.0002*%
%ADD836R,0.1419X0.0001*%
%ADD837R,0.1421X0.0001*%
%ADD838R,0.1422X0.0001*%
%ADD839R,0.1424X0.0001*%
%ADD840R,0.1426X0.0001*%
%ADD841R,0.1428X0.0001*%
%ADD842R,0.1429X0.0002*%
%ADD843R,0.1429X0.0001*%
%ADD844R,0.1425X0.0001*%
%ADD845R,0.1421X0.0002*%
%ADD846R,0.1418X0.0001*%
%ADD847R,0.1416X0.0001*%
%ADD848R,0.1413X0.0001*%
%ADD849R,0.1410X0.0001*%
%ADD850R,0.1404X0.0001*%
%ADD851R,0.1401X0.0001*%
%ADD852R,0.0346X0.0001*%
%ADD853R,0.1044X0.0001*%
%ADD854R,0.0342X0.0002*%
%ADD855R,0.1040X0.0002*%
%ADD856R,0.0337X0.0001*%
%ADD857R,0.1034X0.0001*%
%ADD858R,0.0357X0.0001*%
%ADD859R,0.0660X0.0001*%
%ADD860R,0.0353X0.0001*%
%ADD861R,0.0327X0.0001*%
%ADD862R,0.0349X0.0001*%
%ADD863R,0.0321X0.0001*%
%ADD864R,0.0648X0.0001*%
%ADD865R,0.0344X0.0001*%
%ADD866R,0.0317X0.0001*%
%ADD867R,0.0339X0.0001*%
%ADD868R,0.0312X0.0001*%
%ADD869R,0.0631X0.0001*%
%ADD870R,0.0334X0.0001*%
%ADD871R,0.0309X0.0001*%
%ADD872R,0.0307X0.0002*%
%ADD873R,0.0623X0.0002*%
%ADD874R,0.0327X0.0002*%
%ADD875R,0.0618X0.0001*%
%ADD876R,0.0297X0.0001*%
%ADD877R,0.0607X0.0001*%
%ADD878R,0.0320X0.0001*%
%ADD879R,0.0293X0.0001*%
%ADD880R,0.0599X0.0001*%
%ADD881R,0.0313X0.0001*%
%ADD882R,0.0285X0.0001*%
%ADD883R,0.0584X0.0001*%
%ADD884R,0.0303X0.0001*%
%ADD885R,0.0281X0.0001*%
%ADD886R,0.0273X0.0002*%
%ADD887R,0.0563X0.0002*%
%ADD888R,0.0293X0.0002*%
%ADD889R,0.0264X0.0001*%
%ADD890R,0.0259X0.0001*%
%ADD891R,0.0256X0.0001*%
%ADD892R,0.0276X0.0001*%
%ADD893R,0.0252X0.0001*%
%ADD894R,0.0273X0.0001*%
%ADD895R,0.0248X0.0001*%
%ADD896R,0.0269X0.0001*%
%ADD897R,0.0245X0.0001*%
%ADD898R,0.0240X0.0001*%
%ADD899R,0.0237X0.0002*%
%ADD900R,0.0256X0.0002*%
%ADD901R,0.0234X0.0001*%
%ADD902R,0.0232X0.0001*%
%ADD903R,0.0251X0.0001*%
%ADD904R,0.0228X0.0001*%
%ADD905R,0.0246X0.0001*%
%ADD906R,0.0456X0.0001*%
%ADD907R,0.0219X0.0001*%
%ADD908R,0.0444X0.0001*%
%ADD909R,0.0237X0.0001*%
%ADD910R,0.0214X0.0001*%
%ADD911R,0.0436X0.0001*%
%ADD912R,0.0432X0.0001*%
%ADD913R,0.0231X0.0001*%
%ADD914R,0.0210X0.0001*%
%ADD915R,0.0426X0.0001*%
%ADD916R,0.0420X0.0001*%
%ADD917R,0.0226X0.0001*%
%ADD918R,0.0204X0.0002*%
%ADD919R,0.0409X0.0002*%
%ADD920R,0.0222X0.0002*%
%ADD921R,0.0391X0.0001*%
%ADD922R,0.0217X0.0001*%
%ADD923R,0.0376X0.0001*%
%ADD924R,0.0368X0.0001*%
%ADD925R,0.0189X0.0001*%
%ADD926R,0.0361X0.0001*%
%ADD927R,0.0206X0.0001*%
%ADD928R,0.0186X0.0001*%
%ADD929R,0.0356X0.0001*%
%ADD930R,0.0345X0.0001*%
%ADD931R,0.0331X0.0001*%
%ADD932R,0.0168X0.0001*%
%ADD933R,0.0165X0.0002*%
%ADD934R,0.0162X0.0001*%
%ADD935R,0.0324X0.0001*%
%ADD936R,0.0174X0.0001*%
%ADD937R,0.0167X0.0001*%
%ADD938R,0.0163X0.0001*%
%ADD939R,0.0141X0.0001*%
%ADD940R,0.0140X0.0001*%
%ADD941R,0.0137X0.0001*%
%ADD942R,0.0129X0.0002*%
%ADD943R,0.0321X0.0002*%
%ADD944R,0.0146X0.0002*%
%ADD945R,0.0111X0.0001*%
%ADD946R,0.0318X0.0001*%
%ADD947R,0.0315X0.0001*%
%ADD948R,0.0315X0.0002*%
%ADD949R,0.0105X0.0002*%
%ADD950R,0.0311X0.0002*%
%ADD951R,0.0066X0.0002*%
%ADD952R,0.0307X0.0001*%
%ADD953R,0.0306X0.0001*%
%ADD954R,0.0300X0.0002*%
%ADD955R,0.0296X0.0001*%
%ADD956R,0.0294X0.0002*%
%ADD957R,0.0294X0.0001*%
%ADD958R,0.0291X0.0001*%
%ADD959R,0.0291X0.0002*%
%ADD960R,0.0286X0.0001*%
%ADD961R,0.0281X0.0002*%
%ADD962R,0.0277X0.0001*%
%ADD963R,0.0276X0.0001*%
%ADD964R,0.0266X0.0002*%
%ADD965R,0.0264X0.0001*%
%ADD966R,0.0261X0.0001*%
%ADD967R,0.0259X0.0002*%
%ADD968R,0.0254X0.0002*%
%ADD969R,0.0248X0.0002*%
%ADD970R,0.0218X0.0002*%
%ADD971C,0.0000*%
%ADD972C,0.0320*%
D10*
X004103Y005637D02*
X027331Y005637D01*
X027331Y028472D01*
X004103Y028472D01*
X004103Y005637D01*
X016278Y005715D02*
X016278Y007465D01*
X018278Y007465D01*
X018278Y005715D01*
X016278Y005715D01*
X016278Y007465D02*
X016278Y008215D01*
X018278Y008215D01*
X018278Y007465D01*
X018753Y007458D02*
X018753Y008208D01*
X020753Y008208D01*
X020753Y007458D01*
X018753Y007458D01*
X018753Y005708D01*
X020753Y005708D01*
X020753Y007458D01*
D11*
X022010Y007788D02*
X022010Y008388D01*
X022012Y008405D01*
X022016Y008422D01*
X022023Y008438D01*
X022033Y008452D01*
X022046Y008465D01*
X022060Y008475D01*
X022076Y008482D01*
X022093Y008486D01*
X022110Y008488D01*
X023710Y008488D01*
X023727Y008486D01*
X023744Y008482D01*
X023760Y008475D01*
X023774Y008465D01*
X023787Y008452D01*
X023797Y008438D01*
X023804Y008422D01*
X023808Y008405D01*
X023810Y008388D01*
X023810Y007788D01*
X023808Y007771D01*
X023804Y007754D01*
X023797Y007738D01*
X023787Y007724D01*
X023774Y007711D01*
X023760Y007701D01*
X023744Y007694D01*
X023727Y007690D01*
X023710Y007688D01*
X022110Y007688D01*
X022093Y007690D01*
X022076Y007694D01*
X022060Y007701D01*
X022046Y007711D01*
X022033Y007724D01*
X022023Y007738D01*
X022016Y007754D01*
X022012Y007771D01*
X022010Y007788D01*
X022381Y007508D02*
X022481Y007508D01*
X022531Y007458D01*
X023431Y007458D01*
X023481Y007508D01*
X023581Y007508D01*
X023598Y007506D01*
X023615Y007502D01*
X023631Y007495D01*
X023645Y007485D01*
X023658Y007472D01*
X023668Y007458D01*
X023675Y007442D01*
X023679Y007425D01*
X023681Y007408D01*
X023310Y007838D02*
X022910Y008088D01*
X022910Y008338D01*
X023010Y008338D01*
X022910Y008088D02*
X023310Y008338D01*
X023310Y007838D01*
X023510Y008088D02*
X022910Y008088D01*
X022910Y007838D01*
X022910Y008088D02*
X022660Y008088D01*
X022381Y007508D02*
X022364Y007506D01*
X022347Y007502D01*
X022331Y007495D01*
X022317Y007485D01*
X022304Y007472D01*
X022294Y007458D01*
X022287Y007442D01*
X022283Y007425D01*
X022281Y007408D01*
X022281Y006908D02*
X022283Y006891D01*
X022287Y006874D01*
X022294Y006858D01*
X022304Y006844D01*
X022317Y006831D01*
X022331Y006821D01*
X022347Y006814D01*
X022364Y006810D01*
X022381Y006808D01*
X022481Y006808D01*
X022531Y006858D01*
X023431Y006858D01*
X023481Y006808D01*
X023581Y006808D01*
X023598Y006810D01*
X023615Y006814D01*
X023631Y006821D01*
X023645Y006831D01*
X023658Y006844D01*
X023668Y006858D01*
X023675Y006874D01*
X023679Y006891D01*
X023681Y006908D01*
X022856Y009158D02*
X020156Y009158D01*
X020139Y009160D01*
X020122Y009164D01*
X020106Y009171D01*
X020092Y009181D01*
X020079Y009194D01*
X020069Y009208D01*
X020062Y009224D01*
X020058Y009241D01*
X020056Y009258D01*
X020056Y010058D01*
X020058Y010075D01*
X020062Y010092D01*
X020069Y010108D01*
X020079Y010122D01*
X020092Y010135D01*
X020106Y010145D01*
X020122Y010152D01*
X020139Y010156D01*
X020156Y010158D01*
X022856Y010158D01*
X022873Y010156D01*
X022890Y010152D01*
X022906Y010145D01*
X022920Y010135D01*
X022933Y010122D01*
X022943Y010108D01*
X022950Y010092D01*
X022954Y010075D01*
X022956Y010058D01*
X022956Y009258D01*
X022954Y009241D01*
X022950Y009224D01*
X022943Y009208D01*
X022933Y009194D01*
X022920Y009181D01*
X022906Y009171D01*
X022890Y009164D01*
X022873Y009160D01*
X022856Y009158D01*
X022856Y010283D02*
X020156Y010283D01*
X020139Y010285D01*
X020122Y010289D01*
X020106Y010296D01*
X020092Y010306D01*
X020079Y010319D01*
X020069Y010333D01*
X020062Y010349D01*
X020058Y010366D01*
X020056Y010383D01*
X020056Y011183D01*
X020058Y011200D01*
X020062Y011217D01*
X020069Y011233D01*
X020079Y011247D01*
X020092Y011260D01*
X020106Y011270D01*
X020122Y011277D01*
X020139Y011281D01*
X020156Y011283D01*
X022856Y011283D01*
X022873Y011281D01*
X022890Y011277D01*
X022906Y011270D01*
X022920Y011260D01*
X022933Y011247D01*
X022943Y011233D01*
X022950Y011217D01*
X022954Y011200D01*
X022956Y011183D01*
X022956Y010383D01*
X022954Y010366D01*
X022950Y010349D01*
X022943Y010333D01*
X022933Y010319D01*
X022920Y010306D01*
X022906Y010296D01*
X022890Y010289D01*
X022873Y010285D01*
X022856Y010283D01*
X020606Y012183D02*
X020506Y012183D01*
X020456Y012233D01*
X019556Y012233D01*
X019506Y012183D01*
X019406Y012183D01*
X019389Y012185D01*
X019372Y012189D01*
X019356Y012196D01*
X019342Y012206D01*
X019329Y012219D01*
X019319Y012233D01*
X019312Y012249D01*
X019308Y012266D01*
X019306Y012283D01*
X019306Y012783D02*
X019308Y012800D01*
X019312Y012817D01*
X019319Y012833D01*
X019329Y012847D01*
X019342Y012860D01*
X019356Y012870D01*
X019372Y012877D01*
X019389Y012881D01*
X019406Y012883D01*
X019506Y012883D01*
X019556Y012833D01*
X020456Y012833D01*
X020506Y012883D01*
X020606Y012883D01*
X020623Y012881D01*
X020640Y012877D01*
X020656Y012870D01*
X020670Y012860D01*
X020683Y012847D01*
X020693Y012833D01*
X020700Y012817D01*
X020704Y012800D01*
X020706Y012783D01*
X020606Y013083D02*
X020506Y013083D01*
X020456Y013133D01*
X019556Y013133D01*
X019506Y013083D01*
X019406Y013083D01*
X019389Y013085D01*
X019372Y013089D01*
X019356Y013096D01*
X019342Y013106D01*
X019329Y013119D01*
X019319Y013133D01*
X019312Y013149D01*
X019308Y013166D01*
X019306Y013183D01*
X019306Y013683D02*
X019308Y013700D01*
X019312Y013717D01*
X019319Y013733D01*
X019329Y013747D01*
X019342Y013760D01*
X019356Y013770D01*
X019372Y013777D01*
X019389Y013781D01*
X019406Y013783D01*
X019506Y013783D01*
X019556Y013733D01*
X020456Y013733D01*
X020506Y013783D01*
X020606Y013783D01*
X020623Y013781D01*
X020640Y013777D01*
X020656Y013770D01*
X020670Y013760D01*
X020683Y013747D01*
X020693Y013733D01*
X020700Y013717D01*
X020704Y013700D01*
X020706Y013683D01*
X020612Y013965D02*
X020512Y013965D01*
X020462Y014015D01*
X019562Y014015D01*
X019512Y013965D01*
X019412Y013965D01*
X019395Y013967D01*
X019378Y013971D01*
X019362Y013978D01*
X019348Y013988D01*
X019335Y014001D01*
X019325Y014015D01*
X019318Y014031D01*
X019314Y014048D01*
X019312Y014065D01*
X019312Y014565D02*
X019314Y014582D01*
X019318Y014599D01*
X019325Y014615D01*
X019335Y014629D01*
X019348Y014642D01*
X019362Y014652D01*
X019378Y014659D01*
X019395Y014663D01*
X019412Y014665D01*
X019512Y014665D01*
X019562Y014615D01*
X020462Y014615D01*
X020512Y014665D01*
X020612Y014665D01*
X020629Y014663D01*
X020646Y014659D01*
X020662Y014652D01*
X020676Y014642D01*
X020689Y014629D01*
X020699Y014615D01*
X020706Y014599D01*
X020710Y014582D01*
X020712Y014565D01*
X020712Y014065D02*
X020710Y014048D01*
X020706Y014031D01*
X020699Y014015D01*
X020689Y014001D01*
X020676Y013988D01*
X020662Y013978D01*
X020646Y013971D01*
X020629Y013967D01*
X020612Y013965D01*
X020706Y013183D02*
X020704Y013166D01*
X020700Y013149D01*
X020693Y013133D01*
X020683Y013119D01*
X020670Y013106D01*
X020656Y013096D01*
X020640Y013089D01*
X020623Y013085D01*
X020606Y013083D01*
X020706Y012283D02*
X020704Y012266D01*
X020700Y012249D01*
X020693Y012233D01*
X020683Y012219D01*
X020670Y012206D01*
X020656Y012196D01*
X020640Y012189D01*
X020623Y012185D01*
X020606Y012183D01*
X018349Y012165D02*
X018349Y014865D01*
X018347Y014882D01*
X018343Y014899D01*
X018336Y014915D01*
X018326Y014929D01*
X018313Y014942D01*
X018299Y014952D01*
X018283Y014959D01*
X018266Y014963D01*
X018249Y014965D01*
X015549Y014965D01*
X015532Y014963D01*
X015515Y014959D01*
X015499Y014952D01*
X015485Y014942D01*
X015472Y014929D01*
X015462Y014915D01*
X015455Y014899D01*
X015451Y014882D01*
X015449Y014865D01*
X015449Y012165D01*
X015451Y012148D01*
X015455Y012131D01*
X015462Y012115D01*
X015472Y012101D01*
X015485Y012088D01*
X015499Y012078D01*
X015515Y012071D01*
X015532Y012067D01*
X015549Y012065D01*
X018249Y012065D01*
X018266Y012067D01*
X018283Y012071D01*
X018299Y012078D01*
X018313Y012088D01*
X018326Y012101D01*
X018336Y012115D01*
X018343Y012131D01*
X018347Y012148D01*
X018349Y012165D01*
X016899Y012915D02*
X016899Y013345D01*
X016899Y013695D02*
X016899Y014115D01*
X015537Y016090D02*
X014737Y016090D01*
X014720Y016092D01*
X014703Y016096D01*
X014687Y016103D01*
X014673Y016113D01*
X014660Y016126D01*
X014650Y016140D01*
X014643Y016156D01*
X014639Y016173D01*
X014637Y016190D01*
X014637Y018890D01*
X014639Y018907D01*
X014643Y018924D01*
X014650Y018940D01*
X014660Y018954D01*
X014673Y018967D01*
X014687Y018977D01*
X014703Y018984D01*
X014720Y018988D01*
X014737Y018990D01*
X015537Y018990D01*
X015554Y018988D01*
X015571Y018984D01*
X015587Y018977D01*
X015601Y018967D01*
X015614Y018954D01*
X015624Y018940D01*
X015631Y018924D01*
X015635Y018907D01*
X015637Y018890D01*
X015637Y016190D01*
X015635Y016173D01*
X015631Y016156D01*
X015624Y016140D01*
X015614Y016126D01*
X015601Y016113D01*
X015587Y016103D01*
X015571Y016096D01*
X015554Y016092D01*
X015537Y016090D01*
X015812Y016390D02*
X015987Y016390D01*
X015812Y016390D02*
X015812Y018690D01*
X015987Y018690D01*
X016612Y018690D02*
X017012Y018690D01*
X017612Y018690D02*
X018012Y018690D01*
X018612Y018690D02*
X019012Y018690D01*
X019637Y018690D02*
X019812Y018690D01*
X019812Y017940D01*
X019773Y017938D01*
X019734Y017932D01*
X019696Y017923D01*
X019659Y017910D01*
X019623Y017893D01*
X019590Y017873D01*
X019558Y017849D01*
X019529Y017823D01*
X019503Y017794D01*
X019479Y017762D01*
X019459Y017729D01*
X019442Y017693D01*
X019429Y017656D01*
X019420Y017618D01*
X019414Y017579D01*
X019412Y017540D01*
X019414Y017501D01*
X019420Y017462D01*
X019429Y017424D01*
X019442Y017387D01*
X019459Y017351D01*
X019479Y017318D01*
X019503Y017286D01*
X019529Y017257D01*
X019558Y017231D01*
X019590Y017207D01*
X019623Y017187D01*
X019659Y017170D01*
X019696Y017157D01*
X019734Y017148D01*
X019773Y017142D01*
X019812Y017140D01*
X019812Y016390D01*
X019637Y016390D01*
X019987Y016190D02*
X019987Y018890D01*
X019989Y018907D01*
X019993Y018924D01*
X020000Y018940D01*
X020010Y018954D01*
X020023Y018967D01*
X020037Y018977D01*
X020053Y018984D01*
X020070Y018988D01*
X020087Y018990D01*
X020887Y018990D01*
X020904Y018988D01*
X020921Y018984D01*
X020937Y018977D01*
X020951Y018967D01*
X020964Y018954D01*
X020974Y018940D01*
X020981Y018924D01*
X020985Y018907D01*
X020987Y018890D01*
X020987Y016190D01*
X020985Y016173D01*
X020981Y016156D01*
X020974Y016140D01*
X020964Y016126D01*
X020951Y016113D01*
X020937Y016103D01*
X020921Y016096D01*
X020904Y016092D01*
X020887Y016090D01*
X020087Y016090D01*
X020070Y016092D01*
X020053Y016096D01*
X020037Y016103D01*
X020023Y016113D01*
X020010Y016126D01*
X020000Y016140D01*
X019993Y016156D01*
X019989Y016173D01*
X019987Y016190D01*
X019012Y016390D02*
X018612Y016390D01*
X018012Y016390D02*
X017612Y016390D01*
X017012Y016390D02*
X016612Y016390D01*
X014156Y015497D02*
X014156Y014697D01*
X014154Y014680D01*
X014150Y014663D01*
X014143Y014647D01*
X014133Y014633D01*
X014120Y014620D01*
X014106Y014610D01*
X014090Y014603D01*
X014073Y014599D01*
X014056Y014597D01*
X011356Y014597D01*
X011339Y014599D01*
X011322Y014603D01*
X011306Y014610D01*
X011292Y014620D01*
X011279Y014633D01*
X011269Y014647D01*
X011262Y014663D01*
X011258Y014680D01*
X011256Y014697D01*
X011256Y015497D01*
X011258Y015514D01*
X011262Y015531D01*
X011269Y015547D01*
X011279Y015561D01*
X011292Y015574D01*
X011306Y015584D01*
X011322Y015591D01*
X011339Y015595D01*
X011356Y015597D01*
X014056Y015597D01*
X014073Y015595D01*
X014090Y015591D01*
X014106Y015584D01*
X014120Y015574D01*
X014133Y015561D01*
X014143Y015547D01*
X014150Y015531D01*
X014154Y015514D01*
X014156Y015497D01*
X013306Y015722D02*
X013206Y015722D01*
X013156Y015772D01*
X012256Y015772D01*
X012206Y015722D01*
X012106Y015722D01*
X012089Y015724D01*
X012072Y015728D01*
X012056Y015735D01*
X012042Y015745D01*
X012029Y015758D01*
X012019Y015772D01*
X012012Y015788D01*
X012008Y015805D01*
X012006Y015822D01*
X012006Y016322D02*
X012008Y016339D01*
X012012Y016356D01*
X012019Y016372D01*
X012029Y016386D01*
X012042Y016399D01*
X012056Y016409D01*
X012072Y016416D01*
X012089Y016420D01*
X012106Y016422D01*
X012206Y016422D01*
X012256Y016372D01*
X013156Y016372D01*
X013206Y016422D01*
X013306Y016422D01*
X013323Y016420D01*
X013340Y016416D01*
X013356Y016409D01*
X013370Y016399D01*
X013383Y016386D01*
X013393Y016372D01*
X013400Y016356D01*
X013404Y016339D01*
X013406Y016322D01*
X013306Y016608D02*
X013206Y016608D01*
X013156Y016658D01*
X012256Y016658D01*
X012206Y016608D01*
X012106Y016608D01*
X012089Y016610D01*
X012072Y016614D01*
X012056Y016621D01*
X012042Y016631D01*
X012029Y016644D01*
X012019Y016658D01*
X012012Y016674D01*
X012008Y016691D01*
X012006Y016708D01*
X012006Y017208D02*
X012008Y017225D01*
X012012Y017242D01*
X012019Y017258D01*
X012029Y017272D01*
X012042Y017285D01*
X012056Y017295D01*
X012072Y017302D01*
X012089Y017306D01*
X012106Y017308D01*
X012206Y017308D01*
X012256Y017258D01*
X013156Y017258D01*
X013206Y017308D01*
X013306Y017308D01*
X013323Y017306D01*
X013340Y017302D01*
X013356Y017295D01*
X013370Y017285D01*
X013383Y017272D01*
X013393Y017258D01*
X013400Y017242D01*
X013404Y017225D01*
X013406Y017208D01*
X013306Y017497D02*
X013206Y017497D01*
X013156Y017547D01*
X012256Y017547D01*
X012206Y017497D01*
X012106Y017497D01*
X012089Y017499D01*
X012072Y017503D01*
X012056Y017510D01*
X012042Y017520D01*
X012029Y017533D01*
X012019Y017547D01*
X012012Y017563D01*
X012008Y017580D01*
X012006Y017597D01*
X012006Y018097D02*
X012008Y018114D01*
X012012Y018131D01*
X012019Y018147D01*
X012029Y018161D01*
X012042Y018174D01*
X012056Y018184D01*
X012072Y018191D01*
X012089Y018195D01*
X012106Y018197D01*
X012206Y018197D01*
X012256Y018147D01*
X013156Y018147D01*
X013206Y018197D01*
X013306Y018197D01*
X013323Y018195D01*
X013340Y018191D01*
X013356Y018184D01*
X013370Y018174D01*
X013383Y018161D01*
X013393Y018147D01*
X013400Y018131D01*
X013404Y018114D01*
X013406Y018097D01*
X013306Y018383D02*
X013206Y018383D01*
X013156Y018433D01*
X012256Y018433D01*
X012206Y018383D01*
X012106Y018383D01*
X012089Y018385D01*
X012072Y018389D01*
X012056Y018396D01*
X012042Y018406D01*
X012029Y018419D01*
X012019Y018433D01*
X012012Y018449D01*
X012008Y018466D01*
X012006Y018483D01*
X012006Y018983D02*
X012008Y019000D01*
X012012Y019017D01*
X012019Y019033D01*
X012029Y019047D01*
X012042Y019060D01*
X012056Y019070D01*
X012072Y019077D01*
X012089Y019081D01*
X012106Y019083D01*
X012206Y019083D01*
X012256Y019033D01*
X013156Y019033D01*
X013206Y019083D01*
X013306Y019083D01*
X013323Y019081D01*
X013340Y019077D01*
X013356Y019070D01*
X013370Y019060D01*
X013383Y019047D01*
X013393Y019033D01*
X013400Y019017D01*
X013404Y019000D01*
X013406Y018983D01*
X013356Y019233D02*
X013306Y019283D01*
X011406Y019283D01*
X011356Y019233D01*
X011206Y019233D01*
X011189Y019235D01*
X011172Y019239D01*
X011156Y019246D01*
X011142Y019256D01*
X011129Y019269D01*
X011119Y019283D01*
X011112Y019299D01*
X011108Y019316D01*
X011106Y019333D01*
X011106Y020033D01*
X011108Y020050D01*
X011112Y020067D01*
X011119Y020083D01*
X011129Y020097D01*
X011142Y020110D01*
X011156Y020120D01*
X011172Y020127D01*
X011189Y020131D01*
X011206Y020133D01*
X011356Y020133D01*
X011406Y020083D01*
X013306Y020083D01*
X013356Y020133D01*
X013506Y020133D01*
X013523Y020131D01*
X013540Y020127D01*
X013556Y020120D01*
X013570Y020110D01*
X013583Y020097D01*
X013593Y020083D01*
X013600Y020067D01*
X013604Y020050D01*
X013606Y020033D01*
X013606Y019333D01*
X013604Y019316D01*
X013600Y019299D01*
X013593Y019283D01*
X013583Y019269D01*
X013570Y019256D01*
X013556Y019246D01*
X013540Y019239D01*
X013523Y019235D01*
X013506Y019233D01*
X013356Y019233D01*
X013406Y018483D02*
X013404Y018466D01*
X013400Y018449D01*
X013393Y018433D01*
X013383Y018419D01*
X013370Y018406D01*
X013356Y018396D01*
X013340Y018389D01*
X013323Y018385D01*
X013306Y018383D01*
X013406Y017597D02*
X013404Y017580D01*
X013400Y017563D01*
X013393Y017547D01*
X013383Y017533D01*
X013370Y017520D01*
X013356Y017510D01*
X013340Y017503D01*
X013323Y017499D01*
X013306Y017497D01*
X013406Y016708D02*
X013404Y016691D01*
X013400Y016674D01*
X013393Y016658D01*
X013383Y016644D01*
X013370Y016631D01*
X013356Y016621D01*
X013340Y016614D01*
X013323Y016610D01*
X013306Y016608D01*
X013406Y015822D02*
X013404Y015805D01*
X013400Y015788D01*
X013393Y015772D01*
X013383Y015758D01*
X013370Y015745D01*
X013356Y015735D01*
X013340Y015728D01*
X013323Y015724D01*
X013306Y015722D01*
X010816Y015609D02*
X010816Y015459D01*
X010814Y015442D01*
X010810Y015425D01*
X010803Y015409D01*
X010793Y015395D01*
X010780Y015382D01*
X010766Y015372D01*
X010750Y015365D01*
X010733Y015361D01*
X010716Y015359D01*
X010016Y015359D01*
X009999Y015361D01*
X009982Y015365D01*
X009966Y015372D01*
X009952Y015382D01*
X009939Y015395D01*
X009929Y015409D01*
X009922Y015425D01*
X009918Y015442D01*
X009916Y015459D01*
X009916Y015609D01*
X009966Y015659D01*
X009966Y017559D01*
X009916Y017609D01*
X009916Y017759D01*
X009918Y017776D01*
X009922Y017793D01*
X009929Y017809D01*
X009939Y017823D01*
X009952Y017836D01*
X009966Y017846D01*
X009982Y017853D01*
X009999Y017857D01*
X010016Y017859D01*
X010716Y017859D01*
X010733Y017857D01*
X010750Y017853D01*
X010766Y017846D01*
X010780Y017836D01*
X010793Y017823D01*
X010803Y017809D01*
X010810Y017793D01*
X010814Y017776D01*
X010816Y017759D01*
X010816Y017609D01*
X010766Y017559D01*
X010766Y015659D01*
X010816Y015609D01*
X010092Y013826D02*
X010092Y013526D01*
X009942Y013676D02*
X010242Y013676D01*
X008742Y012626D02*
X008744Y012699D01*
X008750Y012772D01*
X008760Y012844D01*
X008774Y012916D01*
X008791Y012987D01*
X008813Y013057D01*
X008838Y013126D01*
X008867Y013193D01*
X008899Y013258D01*
X008935Y013322D01*
X008975Y013384D01*
X009017Y013443D01*
X009063Y013500D01*
X009112Y013554D01*
X009164Y013606D01*
X009218Y013655D01*
X009275Y013701D01*
X009334Y013743D01*
X009396Y013783D01*
X009460Y013819D01*
X009525Y013851D01*
X009592Y013880D01*
X009661Y013905D01*
X009731Y013927D01*
X009802Y013944D01*
X009874Y013958D01*
X009946Y013968D01*
X010019Y013974D01*
X010092Y013976D01*
X010165Y013974D01*
X010238Y013968D01*
X010310Y013958D01*
X010382Y013944D01*
X010453Y013927D01*
X010523Y013905D01*
X010592Y013880D01*
X010659Y013851D01*
X010724Y013819D01*
X010788Y013783D01*
X010850Y013743D01*
X010909Y013701D01*
X010966Y013655D01*
X011020Y013606D01*
X011072Y013554D01*
X011121Y013500D01*
X011167Y013443D01*
X011209Y013384D01*
X011249Y013322D01*
X011285Y013258D01*
X011317Y013193D01*
X011346Y013126D01*
X011371Y013057D01*
X011393Y012987D01*
X011410Y012916D01*
X011424Y012844D01*
X011434Y012772D01*
X011440Y012699D01*
X011442Y012626D01*
X011440Y012553D01*
X011434Y012480D01*
X011424Y012408D01*
X011410Y012336D01*
X011393Y012265D01*
X011371Y012195D01*
X011346Y012126D01*
X011317Y012059D01*
X011285Y011994D01*
X011249Y011930D01*
X011209Y011868D01*
X011167Y011809D01*
X011121Y011752D01*
X011072Y011698D01*
X011020Y011646D01*
X010966Y011597D01*
X010909Y011551D01*
X010850Y011509D01*
X010788Y011469D01*
X010724Y011433D01*
X010659Y011401D01*
X010592Y011372D01*
X010523Y011347D01*
X010453Y011325D01*
X010382Y011308D01*
X010310Y011294D01*
X010238Y011284D01*
X010165Y011278D01*
X010092Y011276D01*
X010019Y011278D01*
X009946Y011284D01*
X009874Y011294D01*
X009802Y011308D01*
X009731Y011325D01*
X009661Y011347D01*
X009592Y011372D01*
X009525Y011401D01*
X009460Y011433D01*
X009396Y011469D01*
X009334Y011509D01*
X009275Y011551D01*
X009218Y011597D01*
X009164Y011646D01*
X009112Y011698D01*
X009063Y011752D01*
X009017Y011809D01*
X008975Y011868D01*
X008935Y011930D01*
X008899Y011994D01*
X008867Y012059D01*
X008838Y012126D01*
X008813Y012195D01*
X008791Y012265D01*
X008774Y012336D01*
X008760Y012408D01*
X008750Y012480D01*
X008744Y012553D01*
X008742Y012626D01*
X008346Y012215D02*
X008429Y012131D01*
X008429Y011881D01*
X008520Y011731D02*
X008520Y011398D01*
X008353Y011231D01*
X008186Y011398D01*
X008186Y011731D01*
X008096Y011881D02*
X008096Y012215D01*
X008346Y012215D01*
X007919Y012381D02*
X007752Y012381D01*
X007835Y012381D02*
X007835Y011881D01*
X007752Y011881D02*
X007919Y011881D01*
X008004Y011731D02*
X007671Y011731D01*
X007671Y011481D01*
X007838Y011565D01*
X007921Y011565D01*
X008004Y011481D01*
X008004Y011314D01*
X007921Y011231D01*
X007754Y011231D01*
X007671Y011314D01*
X007489Y011231D02*
X007155Y011231D01*
X007322Y011231D02*
X007322Y011731D01*
X007155Y011565D01*
X006973Y011565D02*
X006639Y011231D01*
X006457Y011231D02*
X006124Y011231D01*
X006457Y011565D01*
X006457Y011648D01*
X006374Y011731D01*
X006207Y011731D01*
X006124Y011648D01*
X005947Y011731D02*
X005780Y011565D01*
X005780Y011398D01*
X005947Y011231D01*
X006205Y011881D02*
X006455Y011881D01*
X006539Y011964D01*
X006539Y012298D01*
X006455Y012381D01*
X006205Y012381D01*
X006205Y011881D01*
X006721Y011964D02*
X006721Y012298D01*
X006804Y012381D01*
X006971Y012381D01*
X007054Y012298D01*
X007054Y011964D02*
X006971Y011881D01*
X006804Y011881D01*
X006721Y011964D01*
X006639Y011565D02*
X006973Y011231D01*
X008702Y011231D02*
X008869Y011398D01*
X008869Y011565D01*
X008702Y011731D01*
X006319Y015456D02*
X005985Y015456D01*
X005985Y015623D02*
X005985Y015706D01*
X005985Y015623D02*
X006152Y015456D01*
X006319Y015885D02*
X005985Y016219D01*
X005902Y016219D01*
X005819Y016136D01*
X005819Y015969D01*
X005902Y015885D01*
X006319Y015885D02*
X006319Y016219D01*
X006319Y016401D02*
X005819Y016401D01*
X005819Y016651D01*
X005902Y016735D01*
X005985Y016735D01*
X006069Y016651D01*
X006069Y016401D01*
X006319Y016401D02*
X006319Y016651D01*
X006236Y016735D01*
X006152Y016735D01*
X006069Y016651D01*
X005985Y016917D02*
X005819Y017084D01*
X006319Y017084D01*
X006319Y017250D02*
X006319Y016917D01*
X005394Y016737D02*
X005394Y016570D01*
X005311Y016487D01*
X004977Y016487D01*
X004894Y016570D01*
X004894Y016737D01*
X004977Y016821D01*
X005311Y016821D02*
X005394Y016737D01*
X005394Y016138D02*
X004894Y016138D01*
X004894Y015971D02*
X004894Y016305D01*
X005394Y015789D02*
X005394Y015456D01*
X004894Y015456D01*
X005060Y017518D02*
X005060Y017685D01*
X004977Y017602D02*
X005311Y017602D01*
X005394Y017685D01*
X005394Y017862D02*
X005060Y017862D01*
X005060Y018029D02*
X005060Y018112D01*
X005060Y018029D02*
X005227Y017862D01*
X005311Y018292D02*
X005227Y018375D01*
X005227Y018625D01*
X005144Y018625D02*
X005394Y018625D01*
X005394Y018375D01*
X005311Y018292D01*
X005060Y018375D02*
X005060Y018542D01*
X005144Y018625D01*
X005060Y018807D02*
X005060Y019058D01*
X005144Y019141D01*
X005394Y019141D01*
X005394Y019323D02*
X005394Y019573D01*
X005311Y019657D01*
X005227Y019573D01*
X005227Y019406D01*
X005144Y019323D01*
X005060Y019406D01*
X005060Y019657D01*
X005060Y019839D02*
X005060Y019922D01*
X005394Y019922D01*
X005394Y019839D02*
X005394Y020006D01*
X005311Y020182D02*
X005394Y020266D01*
X005394Y020433D01*
X005227Y020516D02*
X005227Y020182D01*
X005144Y020182D02*
X005060Y020266D01*
X005060Y020433D01*
X005144Y020516D01*
X005227Y020516D01*
X005060Y020698D02*
X005060Y020948D01*
X005144Y021032D01*
X005394Y021032D01*
X005311Y021297D02*
X005394Y021381D01*
X005311Y021297D02*
X004977Y021297D01*
X005060Y021214D02*
X005060Y021381D01*
X005060Y020698D02*
X005394Y020698D01*
X005819Y020605D02*
X005902Y020688D01*
X006236Y020354D01*
X006319Y020438D01*
X006319Y020605D01*
X006236Y020688D01*
X005902Y020688D01*
X005819Y020605D02*
X005819Y020438D01*
X005902Y020354D01*
X006236Y020354D01*
X006319Y020172D02*
X006319Y019839D01*
X005985Y020172D01*
X005902Y020172D01*
X005819Y020089D01*
X005819Y019922D01*
X005902Y019839D01*
X005819Y019657D02*
X006319Y019323D01*
X006319Y019141D02*
X006319Y018807D01*
X006319Y018974D02*
X005819Y018974D01*
X005985Y018807D01*
X005902Y018625D02*
X006236Y018292D01*
X006319Y018375D01*
X006319Y018542D01*
X006236Y018625D01*
X005902Y018625D01*
X005819Y018542D01*
X005819Y018375D01*
X005902Y018292D01*
X006236Y018292D01*
X006319Y018115D02*
X006152Y017948D01*
X005985Y017948D01*
X005819Y018115D01*
X005394Y018807D02*
X005060Y018807D01*
X004894Y019922D02*
X004810Y019922D01*
X005144Y020182D02*
X005311Y020182D01*
X005985Y020870D02*
X005819Y021037D01*
X006319Y021037D01*
X006319Y020870D02*
X006319Y021204D01*
X006236Y021386D02*
X006319Y021469D01*
X006319Y021636D01*
X006236Y021719D01*
X006152Y021719D01*
X006069Y021636D01*
X006069Y021386D01*
X006236Y021386D01*
X006069Y021386D02*
X005902Y021552D01*
X005819Y021719D01*
X005819Y021901D02*
X005985Y022068D01*
X006152Y022068D01*
X006319Y021901D01*
X005394Y022240D02*
X005311Y022157D01*
X004977Y022157D01*
X005060Y022240D02*
X005060Y022073D01*
X005144Y022417D02*
X005060Y022500D01*
X005060Y022667D01*
X005144Y022751D01*
X005227Y022751D01*
X005227Y022417D01*
X005144Y022417D02*
X005311Y022417D01*
X005394Y022500D01*
X005394Y022667D01*
X005394Y022933D02*
X005394Y023183D01*
X005311Y023266D01*
X005227Y023183D01*
X005227Y023016D01*
X005144Y022933D01*
X005060Y023016D01*
X005060Y023266D01*
X005060Y023448D02*
X005060Y023615D01*
X004977Y023532D02*
X005311Y023532D01*
X005394Y023615D01*
X005311Y023792D02*
X005144Y023792D01*
X005060Y023875D01*
X005060Y024042D01*
X005144Y024126D01*
X005227Y024126D01*
X005227Y023792D01*
X005311Y023792D02*
X005394Y023875D01*
X005394Y024042D01*
X005394Y024308D02*
X005060Y024308D01*
X005060Y024474D02*
X005227Y024308D01*
X005060Y024474D02*
X005060Y024558D01*
X007978Y022156D02*
X008078Y022156D01*
X008128Y022106D01*
X009028Y022106D01*
X009078Y022156D01*
X009178Y022156D01*
X009195Y022154D01*
X009212Y022150D01*
X009228Y022143D01*
X009242Y022133D01*
X009255Y022120D01*
X009265Y022106D01*
X009272Y022090D01*
X009276Y022073D01*
X009278Y022056D01*
X009278Y021556D02*
X009276Y021539D01*
X009272Y021522D01*
X009265Y021506D01*
X009255Y021492D01*
X009242Y021479D01*
X009228Y021469D01*
X009212Y021462D01*
X009195Y021458D01*
X009178Y021456D01*
X009078Y021456D01*
X009028Y021506D01*
X008128Y021506D01*
X008078Y021456D01*
X007978Y021456D01*
X007961Y021458D01*
X007944Y021462D01*
X007928Y021469D01*
X007914Y021479D01*
X007901Y021492D01*
X007891Y021506D01*
X007884Y021522D01*
X007880Y021539D01*
X007878Y021556D01*
X007878Y022056D02*
X007880Y022073D01*
X007884Y022090D01*
X007891Y022106D01*
X007901Y022120D01*
X007914Y022133D01*
X007928Y022143D01*
X007944Y022150D01*
X007961Y022154D01*
X007978Y022156D01*
X012586Y023491D02*
X018836Y023491D01*
X018836Y028491D01*
X012586Y028491D01*
X012586Y023491D01*
X013806Y022922D02*
X013906Y022922D01*
X013956Y022872D01*
X014856Y022872D01*
X014906Y022922D01*
X015006Y022922D01*
X015023Y022920D01*
X015040Y022916D01*
X015056Y022909D01*
X015070Y022899D01*
X015083Y022886D01*
X015093Y022872D01*
X015100Y022856D01*
X015104Y022839D01*
X015106Y022822D01*
X015106Y022322D02*
X015104Y022305D01*
X015100Y022288D01*
X015093Y022272D01*
X015083Y022258D01*
X015070Y022245D01*
X015056Y022235D01*
X015040Y022228D01*
X015023Y022224D01*
X015006Y022222D01*
X014906Y022222D01*
X014856Y022272D01*
X013956Y022272D01*
X013906Y022222D01*
X013806Y022222D01*
X013789Y022224D01*
X013772Y022228D01*
X013756Y022235D01*
X013742Y022245D01*
X013729Y022258D01*
X013719Y022272D01*
X013712Y022288D01*
X013708Y022305D01*
X013706Y022322D01*
X013706Y022822D02*
X013708Y022839D01*
X013712Y022856D01*
X013719Y022872D01*
X013729Y022886D01*
X013742Y022899D01*
X013756Y022909D01*
X013772Y022916D01*
X013789Y022920D01*
X013806Y022922D01*
X015862Y022665D02*
X015862Y019965D01*
X015864Y019948D01*
X015868Y019931D01*
X015875Y019915D01*
X015885Y019901D01*
X015898Y019888D01*
X015912Y019878D01*
X015928Y019871D01*
X015945Y019867D01*
X015962Y019865D01*
X018662Y019865D01*
X018679Y019867D01*
X018696Y019871D01*
X018712Y019878D01*
X018726Y019888D01*
X018739Y019901D01*
X018749Y019915D01*
X018756Y019931D01*
X018760Y019948D01*
X018762Y019965D01*
X018762Y022665D01*
X018760Y022682D01*
X018756Y022699D01*
X018749Y022715D01*
X018739Y022729D01*
X018726Y022742D01*
X018712Y022752D01*
X018696Y022759D01*
X018679Y022763D01*
X018662Y022765D01*
X015962Y022765D01*
X015945Y022763D01*
X015928Y022759D01*
X015912Y022752D01*
X015898Y022742D01*
X015885Y022729D01*
X015875Y022715D01*
X015868Y022699D01*
X015864Y022682D01*
X015862Y022665D01*
X017312Y021915D02*
X017312Y021495D01*
X017312Y021145D02*
X017312Y020715D01*
X021720Y020291D02*
X021720Y018691D01*
X021722Y018674D01*
X021726Y018657D01*
X021733Y018641D01*
X021743Y018627D01*
X021756Y018614D01*
X021770Y018604D01*
X021786Y018597D01*
X021803Y018593D01*
X021820Y018591D01*
X022420Y018591D01*
X022437Y018593D01*
X022454Y018597D01*
X022470Y018604D01*
X022484Y018614D01*
X022497Y018627D01*
X022507Y018641D01*
X022514Y018657D01*
X022518Y018674D01*
X022520Y018691D01*
X022520Y020291D01*
X022518Y020308D01*
X022514Y020325D01*
X022507Y020341D01*
X022497Y020355D01*
X022484Y020368D01*
X022470Y020378D01*
X022454Y020385D01*
X022437Y020389D01*
X022420Y020391D01*
X021820Y020391D01*
X021803Y020389D01*
X021786Y020385D01*
X021770Y020378D01*
X021756Y020368D01*
X021743Y020355D01*
X021733Y020341D01*
X021726Y020325D01*
X021722Y020308D01*
X021720Y020291D01*
X021870Y019891D02*
X022120Y019491D01*
X021870Y019491D01*
X021870Y019591D01*
X022120Y019491D02*
X022370Y019491D01*
X022370Y019391D01*
X022120Y019491D02*
X022370Y019891D01*
X021870Y019891D01*
X022120Y020091D02*
X022120Y019491D01*
X022120Y019241D01*
X025450Y017724D02*
X025550Y017824D01*
X026700Y017874D01*
X025450Y017724D02*
X025450Y014024D01*
X025550Y013924D01*
X026700Y013874D01*
X025749Y013615D02*
X025649Y013615D01*
X025599Y013565D01*
X024699Y013565D01*
X024649Y013615D01*
X024549Y013615D01*
X024532Y013613D01*
X024515Y013609D01*
X024499Y013602D01*
X024485Y013592D01*
X024472Y013579D01*
X024462Y013565D01*
X024455Y013549D01*
X024451Y013532D01*
X024449Y013515D01*
X024449Y013015D02*
X024451Y012998D01*
X024455Y012981D01*
X024462Y012965D01*
X024472Y012951D01*
X024485Y012938D01*
X024499Y012928D01*
X024515Y012921D01*
X024532Y012917D01*
X024549Y012915D01*
X024649Y012915D01*
X024699Y012965D01*
X025599Y012965D01*
X025649Y012915D01*
X025749Y012915D01*
X025766Y012917D01*
X025783Y012921D01*
X025799Y012928D01*
X025813Y012938D01*
X025826Y012951D01*
X025836Y012965D01*
X025843Y012981D01*
X025847Y012998D01*
X025849Y013015D01*
X025849Y013515D02*
X025847Y013532D01*
X025843Y013549D01*
X025836Y013565D01*
X025826Y013579D01*
X025813Y013592D01*
X025799Y013602D01*
X025783Y013609D01*
X025766Y013613D01*
X025749Y013615D01*
X017399Y010338D02*
X017399Y010238D01*
X017349Y010188D01*
X017349Y009288D01*
X017399Y009238D01*
X017399Y009138D01*
X017397Y009121D01*
X017393Y009104D01*
X017386Y009088D01*
X017376Y009074D01*
X017363Y009061D01*
X017349Y009051D01*
X017333Y009044D01*
X017316Y009040D01*
X017299Y009038D01*
X016799Y009038D02*
X016782Y009040D01*
X016765Y009044D01*
X016749Y009051D01*
X016735Y009061D01*
X016722Y009074D01*
X016712Y009088D01*
X016705Y009104D01*
X016701Y009121D01*
X016699Y009138D01*
X016699Y009238D01*
X016749Y009288D01*
X016749Y010188D01*
X016699Y010238D01*
X016699Y010338D01*
X016701Y010355D01*
X016705Y010372D01*
X016712Y010388D01*
X016722Y010402D01*
X016735Y010415D01*
X016749Y010425D01*
X016765Y010432D01*
X016782Y010436D01*
X016799Y010438D01*
X017299Y010438D02*
X017316Y010436D01*
X017333Y010432D01*
X017349Y010425D01*
X017363Y010415D01*
X017376Y010402D01*
X017386Y010388D01*
X017393Y010372D01*
X017397Y010355D01*
X017399Y010338D01*
X013192Y011576D02*
X012892Y011576D01*
X013042Y011426D02*
X013042Y011726D01*
X011692Y012626D02*
X011694Y012699D01*
X011700Y012772D01*
X011710Y012844D01*
X011724Y012916D01*
X011741Y012987D01*
X011763Y013057D01*
X011788Y013126D01*
X011817Y013193D01*
X011849Y013258D01*
X011885Y013322D01*
X011925Y013384D01*
X011967Y013443D01*
X012013Y013500D01*
X012062Y013554D01*
X012114Y013606D01*
X012168Y013655D01*
X012225Y013701D01*
X012284Y013743D01*
X012346Y013783D01*
X012410Y013819D01*
X012475Y013851D01*
X012542Y013880D01*
X012611Y013905D01*
X012681Y013927D01*
X012752Y013944D01*
X012824Y013958D01*
X012896Y013968D01*
X012969Y013974D01*
X013042Y013976D01*
X013115Y013974D01*
X013188Y013968D01*
X013260Y013958D01*
X013332Y013944D01*
X013403Y013927D01*
X013473Y013905D01*
X013542Y013880D01*
X013609Y013851D01*
X013674Y013819D01*
X013738Y013783D01*
X013800Y013743D01*
X013859Y013701D01*
X013916Y013655D01*
X013970Y013606D01*
X014022Y013554D01*
X014071Y013500D01*
X014117Y013443D01*
X014159Y013384D01*
X014199Y013322D01*
X014235Y013258D01*
X014267Y013193D01*
X014296Y013126D01*
X014321Y013057D01*
X014343Y012987D01*
X014360Y012916D01*
X014374Y012844D01*
X014384Y012772D01*
X014390Y012699D01*
X014392Y012626D01*
X014390Y012553D01*
X014384Y012480D01*
X014374Y012408D01*
X014360Y012336D01*
X014343Y012265D01*
X014321Y012195D01*
X014296Y012126D01*
X014267Y012059D01*
X014235Y011994D01*
X014199Y011930D01*
X014159Y011868D01*
X014117Y011809D01*
X014071Y011752D01*
X014022Y011698D01*
X013970Y011646D01*
X013916Y011597D01*
X013859Y011551D01*
X013800Y011509D01*
X013738Y011469D01*
X013674Y011433D01*
X013609Y011401D01*
X013542Y011372D01*
X013473Y011347D01*
X013403Y011325D01*
X013332Y011308D01*
X013260Y011294D01*
X013188Y011284D01*
X013115Y011278D01*
X013042Y011276D01*
X012969Y011278D01*
X012896Y011284D01*
X012824Y011294D01*
X012752Y011308D01*
X012681Y011325D01*
X012611Y011347D01*
X012542Y011372D01*
X012475Y011401D01*
X012410Y011433D01*
X012346Y011469D01*
X012284Y011509D01*
X012225Y011551D01*
X012168Y011597D01*
X012114Y011646D01*
X012062Y011698D01*
X012013Y011752D01*
X011967Y011809D01*
X011925Y011868D01*
X011885Y011930D01*
X011849Y011994D01*
X011817Y012059D01*
X011788Y012126D01*
X011763Y012195D01*
X011741Y012265D01*
X011724Y012336D01*
X011710Y012408D01*
X011700Y012480D01*
X011694Y012553D01*
X011692Y012626D01*
D12*
X011677Y011702D02*
X011828Y011702D01*
X011903Y011627D01*
X011903Y011552D01*
X011828Y011477D01*
X011677Y011477D01*
X011602Y011552D01*
X011602Y011627D01*
X011677Y011702D01*
X011677Y011477D02*
X011602Y011402D01*
X011602Y011326D01*
X011677Y011251D01*
X011828Y011251D01*
X011903Y011326D01*
X011903Y011402D01*
X011828Y011477D01*
X011442Y011627D02*
X011367Y011702D01*
X011217Y011702D01*
X011142Y011627D01*
X011142Y011326D01*
X011217Y011251D01*
X011367Y011251D01*
X011442Y011326D01*
X011445Y010089D02*
X011445Y006149D01*
X014975Y006149D01*
X014985Y004779D02*
X014985Y007839D01*
X014985Y009964D02*
X014985Y010089D01*
X014110Y010089D01*
X014096Y011176D02*
X014246Y011176D01*
X014321Y011251D01*
X014482Y011176D02*
X014782Y011477D01*
X014782Y011552D01*
X014707Y011627D01*
X014557Y011627D01*
X014482Y011552D01*
X014321Y011552D02*
X014246Y011627D01*
X014096Y011627D01*
X014021Y011552D01*
X014021Y011251D01*
X014096Y011176D01*
X014482Y011176D02*
X014782Y011176D01*
X014937Y012894D02*
X015237Y012894D01*
X015312Y012969D01*
X015312Y013119D01*
X015237Y013194D01*
X015237Y013355D02*
X015312Y013430D01*
X015312Y013580D01*
X015237Y013655D01*
X014937Y013655D01*
X014862Y013580D01*
X014862Y013430D01*
X014937Y013355D01*
X015012Y013355D01*
X015087Y013430D01*
X015087Y013655D01*
X014937Y013194D02*
X014862Y013119D01*
X014862Y012969D01*
X014937Y012894D01*
X014631Y014697D02*
X014330Y014697D01*
X014255Y014772D01*
X014255Y014922D01*
X014330Y014997D01*
X014255Y015157D02*
X014481Y015157D01*
X014406Y015307D01*
X014406Y015382D01*
X014481Y015457D01*
X014631Y015457D01*
X014706Y015382D01*
X014706Y015232D01*
X014631Y015157D01*
X014631Y014997D02*
X014706Y014922D01*
X014706Y014772D01*
X014631Y014697D01*
X014255Y015157D02*
X014255Y015457D01*
X015067Y019108D02*
X015367Y019108D01*
X015442Y019183D01*
X015442Y019333D01*
X015367Y019409D01*
X015367Y019569D02*
X015442Y019644D01*
X015442Y019794D01*
X015367Y019869D01*
X015292Y019869D01*
X015217Y019794D01*
X015217Y019569D01*
X015367Y019569D01*
X015217Y019569D02*
X015067Y019719D01*
X014992Y019869D01*
X015067Y019409D02*
X014992Y019333D01*
X014992Y019183D01*
X015067Y019108D01*
X013055Y022589D02*
X012604Y022589D01*
X012604Y022814D01*
X012679Y022889D01*
X012829Y022889D01*
X012904Y022814D01*
X012904Y022589D01*
X012754Y023049D02*
X012604Y023199D01*
X013055Y023199D01*
X013055Y023049D02*
X013055Y023349D01*
X017899Y023240D02*
X017899Y022940D01*
X017974Y022865D01*
X018124Y022865D01*
X018199Y022940D01*
X018359Y022865D02*
X018660Y022865D01*
X018510Y022865D02*
X018510Y023315D01*
X018359Y023165D01*
X018199Y023240D02*
X018124Y023315D01*
X017974Y023315D01*
X017899Y023240D01*
X020280Y019894D02*
X020356Y019894D01*
X020431Y019819D01*
X020506Y019894D01*
X020581Y019894D01*
X020656Y019819D01*
X020656Y019669D01*
X020581Y019594D01*
X020581Y019434D02*
X020656Y019358D01*
X020656Y019208D01*
X020581Y019133D01*
X020280Y019133D01*
X020205Y019208D01*
X020205Y019358D01*
X020280Y019434D01*
X020280Y019594D02*
X020205Y019669D01*
X020205Y019819D01*
X020280Y019894D01*
X020431Y019819D02*
X020431Y019744D01*
X021170Y019801D02*
X021620Y019801D01*
X021620Y019651D02*
X021620Y019951D01*
X021320Y019651D02*
X021170Y019801D01*
X021245Y019491D02*
X021170Y019416D01*
X021170Y019191D01*
X021620Y019191D01*
X021620Y019416D01*
X021545Y019491D01*
X021245Y019491D01*
X022730Y019408D02*
X023031Y019408D01*
X023205Y019394D02*
X023581Y019394D01*
X023656Y019319D01*
X023656Y019169D01*
X023581Y019094D01*
X023205Y019094D01*
X023280Y018934D02*
X023205Y018858D01*
X023205Y018633D01*
X023656Y018633D01*
X023656Y018858D01*
X023581Y018934D01*
X023280Y018934D01*
X022881Y019258D02*
X022881Y019559D01*
X023205Y019554D02*
X023205Y019854D01*
X023205Y019704D02*
X023656Y019704D01*
X023506Y020475D02*
X023205Y020475D01*
X023205Y020775D02*
X023506Y020775D01*
X023656Y020625D01*
X023506Y020475D01*
X023856Y020478D02*
X027203Y020478D01*
X027203Y018313D01*
X026515Y018313D01*
X026515Y022644D01*
X027203Y022644D01*
X027203Y020478D01*
X026515Y018313D02*
X023856Y018313D01*
X023856Y020478D01*
X023856Y022644D01*
X026515Y022644D01*
X025548Y024950D02*
X025097Y025250D01*
X025323Y025411D02*
X025323Y025636D01*
X025398Y025711D01*
X025473Y025711D01*
X025548Y025636D01*
X025548Y025486D01*
X025473Y025411D01*
X025323Y025411D01*
X025172Y025561D01*
X025097Y025711D01*
X025548Y025250D02*
X025097Y024950D01*
X023656Y022006D02*
X023581Y021931D01*
X023280Y021931D01*
X023356Y021856D02*
X023356Y022006D01*
X023356Y021696D02*
X023656Y021696D01*
X023656Y021471D01*
X023581Y021396D01*
X023356Y021396D01*
X023431Y021235D02*
X023356Y021160D01*
X023356Y021010D01*
X023431Y020935D01*
X023581Y020935D01*
X023656Y021010D01*
X023656Y021160D01*
X023581Y021235D01*
X023431Y021235D01*
X022881Y021100D02*
X022881Y021400D01*
X022656Y016947D02*
X022656Y014347D01*
X024056Y014347D02*
X024056Y016947D01*
X024265Y016294D02*
X024190Y016219D01*
X024190Y016069D01*
X024265Y015994D01*
X024265Y016294D02*
X024341Y016294D01*
X024641Y015994D01*
X024641Y016294D01*
X024641Y015834D02*
X024641Y015534D01*
X024641Y015684D02*
X024190Y015684D01*
X024341Y015534D01*
X024416Y015374D02*
X024265Y015374D01*
X024190Y015299D01*
X024190Y015073D01*
X024641Y015073D01*
X024491Y015073D02*
X024491Y015299D01*
X024416Y015374D01*
X024491Y015223D02*
X024641Y015374D01*
X019931Y011119D02*
X019480Y011119D01*
X019706Y010894D01*
X019706Y011194D01*
X019856Y010734D02*
X019931Y010658D01*
X019931Y010508D01*
X019856Y010433D01*
X019555Y010433D01*
X019480Y010508D01*
X019480Y010658D01*
X019555Y010734D01*
X019293Y010677D02*
X019293Y009027D01*
X018693Y009299D02*
X018693Y009405D01*
X019090Y008902D02*
X019144Y008929D01*
X019195Y008959D01*
X019245Y008992D01*
X019293Y009027D01*
X018196Y008902D02*
X018139Y008931D01*
X018083Y008964D01*
X018030Y008999D01*
X017979Y009039D01*
X017931Y009081D01*
X017885Y009126D01*
X017842Y009173D01*
X017802Y009223D01*
X017765Y009276D01*
X017732Y009331D01*
X017701Y009387D01*
X017675Y009446D01*
X017652Y009506D01*
X017632Y009567D01*
X017617Y009629D01*
X017605Y009692D01*
X017597Y009756D01*
X017593Y009820D01*
X017593Y009884D01*
X017597Y009948D01*
X017605Y010012D01*
X017617Y010075D01*
X017632Y010137D01*
X017652Y010198D01*
X017675Y010258D01*
X017701Y010317D01*
X017732Y010373D01*
X017765Y010428D01*
X017802Y010481D01*
X017842Y010531D01*
X017885Y010578D01*
X017931Y010623D01*
X017979Y010665D01*
X018030Y010705D01*
X018083Y010740D01*
X018139Y010773D01*
X018196Y010802D01*
X018361Y011234D02*
X018286Y011310D01*
X018286Y011610D01*
X018361Y011685D01*
X018511Y011685D01*
X018586Y011610D01*
X018586Y011310D01*
X018511Y011234D01*
X018361Y011234D01*
X018436Y011385D02*
X018586Y011234D01*
X018746Y011234D02*
X019047Y011234D01*
X018896Y011234D02*
X018896Y011685D01*
X018746Y011535D01*
X018693Y010405D02*
X018693Y010299D01*
X019081Y010806D02*
X019137Y010779D01*
X019191Y010748D01*
X019243Y010714D01*
X019293Y010677D01*
X021124Y008965D02*
X021124Y008665D01*
X021199Y008590D01*
X021349Y008590D01*
X021424Y008665D01*
X021584Y008665D02*
X021885Y008965D01*
X021885Y009040D01*
X021584Y009040D01*
X021424Y008965D02*
X021349Y009040D01*
X021199Y009040D01*
X021124Y008965D01*
X021584Y008665D02*
X021584Y008590D01*
X014985Y004779D02*
X011445Y004779D01*
X011445Y006149D01*
X010400Y006174D02*
X006870Y006174D01*
X006870Y004804D01*
X010410Y004804D01*
X010410Y007864D01*
X010410Y009989D02*
X010410Y010114D01*
X009535Y010114D01*
X011445Y010089D02*
X011985Y010089D01*
X007410Y010114D02*
X006870Y010114D01*
X006870Y006174D01*
X006353Y024997D02*
X005902Y025297D01*
X005977Y025457D02*
X005902Y025532D01*
X005902Y025682D01*
X005977Y025757D01*
X006052Y025757D01*
X006353Y025457D01*
X006353Y025757D01*
X006353Y025297D02*
X005902Y024997D01*
D13*
X006916Y022720D02*
X006976Y022660D01*
X006976Y022420D01*
X007036Y022480D02*
X006916Y022480D01*
X007164Y022480D02*
X007164Y022720D01*
X007345Y022720D01*
X007405Y022660D01*
X007405Y022480D01*
X007533Y022540D02*
X007533Y022660D01*
X007593Y022720D01*
X007773Y022720D01*
X007773Y022840D02*
X007773Y022480D01*
X007593Y022480D01*
X007533Y022540D01*
X007901Y022540D02*
X007961Y022480D01*
X008141Y022480D01*
X008141Y022720D01*
X008267Y022720D02*
X008387Y022720D01*
X008327Y022720D02*
X008327Y022480D01*
X008387Y022480D01*
X008327Y022360D02*
X008327Y022300D01*
X007901Y022540D02*
X007901Y022720D01*
X008883Y022720D02*
X008883Y022540D01*
X008943Y022480D01*
X009003Y022540D01*
X009003Y022720D01*
X009123Y022720D02*
X009123Y022480D01*
X009063Y022480D01*
X009003Y022540D01*
X009250Y022480D02*
X009310Y022480D01*
X009430Y022600D01*
X009430Y022720D02*
X009430Y022480D01*
X009558Y022540D02*
X009619Y022480D01*
X009739Y022480D01*
X009799Y022540D01*
X009799Y022660D01*
X009739Y022720D01*
X009619Y022720D01*
X009558Y022660D01*
X009558Y022540D01*
X009924Y022540D02*
X010044Y022540D01*
X010172Y022540D02*
X010232Y022480D01*
X010352Y022480D01*
X010413Y022540D01*
X010413Y022660D01*
X010352Y022720D01*
X010232Y022720D01*
X010172Y022600D02*
X010413Y022600D01*
X010541Y022480D02*
X010661Y022720D01*
X010781Y022480D01*
X010909Y022540D02*
X010969Y022480D01*
X011089Y022480D01*
X011089Y022600D02*
X010909Y022600D01*
X010909Y022540D02*
X010909Y022720D01*
X011089Y022720D01*
X011149Y022660D01*
X011089Y022600D01*
X011277Y022720D02*
X011277Y022360D01*
X011517Y022360D02*
X011517Y022720D01*
X011397Y022600D01*
X011277Y022720D01*
X010172Y022600D02*
X010172Y022540D01*
X009984Y022420D02*
X009924Y022360D01*
X009984Y022420D02*
X009984Y022720D01*
X008752Y021395D02*
X008577Y021220D01*
X008810Y021220D01*
X008752Y021045D02*
X008752Y021395D01*
X008451Y021337D02*
X008451Y021220D01*
X008393Y021162D01*
X008217Y021162D01*
X008217Y021045D02*
X008217Y021395D01*
X008393Y021395D01*
X008451Y021337D01*
X008334Y021162D02*
X008451Y021045D01*
X011025Y019023D02*
X011084Y019081D01*
X011142Y019081D01*
X011201Y019023D01*
X011201Y018906D01*
X011142Y018847D01*
X011084Y018847D01*
X011025Y018906D01*
X011025Y019023D01*
X011201Y019023D02*
X011259Y019081D01*
X011317Y019081D01*
X011376Y019023D01*
X011376Y018906D01*
X011317Y018847D01*
X011259Y018847D01*
X011201Y018906D01*
X011201Y018722D02*
X011084Y018722D01*
X011025Y018663D01*
X011025Y018488D01*
X011376Y018488D01*
X011259Y018488D02*
X011259Y018663D01*
X011201Y018722D01*
X011259Y018605D02*
X011376Y018722D01*
X011351Y017340D02*
X011351Y017106D01*
X011351Y017223D02*
X011000Y017223D01*
X011117Y017106D01*
X011351Y016981D02*
X011351Y016747D01*
X011351Y016864D02*
X011000Y016864D01*
X011117Y016747D01*
X011059Y016622D02*
X011176Y016622D01*
X011234Y016563D01*
X011234Y016388D01*
X011351Y016388D02*
X011000Y016388D01*
X011000Y016563D01*
X011059Y016622D01*
X011234Y016505D02*
X011351Y016622D01*
X009846Y016547D02*
X009726Y016427D01*
X009726Y016487D02*
X009726Y016307D01*
X009846Y016307D02*
X009485Y016307D01*
X009485Y016487D01*
X009546Y016547D01*
X009666Y016547D01*
X009726Y016487D01*
X009786Y016675D02*
X009846Y016735D01*
X009846Y016855D01*
X009786Y016915D01*
X009726Y016915D01*
X009666Y016855D01*
X009666Y016795D01*
X009666Y016855D02*
X009606Y016915D01*
X009546Y016915D01*
X009485Y016855D01*
X009485Y016735D01*
X009546Y016675D01*
X012157Y020179D02*
X012157Y020540D01*
X012337Y020540D01*
X012397Y020480D01*
X012397Y020359D01*
X012337Y020299D01*
X012157Y020299D01*
X012277Y020299D02*
X012397Y020179D01*
X012525Y020239D02*
X012585Y020179D01*
X012705Y020179D01*
X012765Y020239D01*
X012765Y020299D01*
X012705Y020359D01*
X012525Y020359D01*
X012525Y020239D01*
X012525Y020359D02*
X012645Y020480D01*
X012765Y020540D01*
X013967Y021770D02*
X013967Y022120D01*
X014143Y022120D01*
X014201Y022062D01*
X014201Y021945D01*
X014143Y021887D01*
X013967Y021887D01*
X014084Y021887D02*
X014201Y021770D01*
X014327Y021770D02*
X014560Y021770D01*
X014443Y021770D02*
X014443Y022120D01*
X014327Y022003D01*
X014686Y022062D02*
X014744Y022120D01*
X014861Y022120D01*
X014919Y022062D01*
X014919Y022003D01*
X014861Y021945D01*
X014919Y021887D01*
X014919Y021828D01*
X014861Y021770D01*
X014744Y021770D01*
X014686Y021828D01*
X014802Y021945D02*
X014861Y021945D01*
X015209Y022900D02*
X015209Y022960D01*
X015209Y023080D02*
X015209Y023320D01*
X015269Y023320D02*
X015149Y023320D01*
X015024Y023260D02*
X014964Y023200D01*
X014783Y023200D01*
X014783Y023140D02*
X014783Y023320D01*
X014964Y023320D01*
X015024Y023260D01*
X014964Y023080D02*
X014844Y023080D01*
X014783Y023140D01*
X014655Y023140D02*
X014595Y023080D01*
X014415Y023080D01*
X014475Y023200D02*
X014595Y023200D01*
X014655Y023140D01*
X014655Y023320D02*
X014475Y023320D01*
X014415Y023260D01*
X014475Y023200D01*
X015209Y023080D02*
X015269Y023080D01*
X015397Y023140D02*
X015457Y023080D01*
X015638Y023080D01*
X015638Y022960D02*
X015638Y023320D01*
X015457Y023320D01*
X015397Y023260D01*
X015397Y023140D01*
X016134Y023260D02*
X016194Y023320D01*
X016314Y023320D01*
X016374Y023260D01*
X016374Y023020D01*
X016314Y022960D01*
X016194Y022960D01*
X016134Y023020D01*
X016502Y023020D02*
X016562Y022960D01*
X016742Y022960D01*
X016742Y023320D01*
X016562Y023320D01*
X016502Y023260D01*
X016502Y023020D01*
X020035Y022670D02*
X020095Y022610D01*
X020095Y022370D01*
X020155Y022430D02*
X020035Y022430D01*
X020283Y022430D02*
X020283Y022670D01*
X020463Y022670D01*
X020523Y022610D01*
X020523Y022430D01*
X020651Y022490D02*
X020651Y022610D01*
X020711Y022670D01*
X020891Y022670D01*
X020891Y022790D02*
X020891Y022430D01*
X020711Y022430D01*
X020651Y022490D01*
X021017Y022430D02*
X021137Y022430D01*
X021077Y022370D02*
X021077Y022610D01*
X021017Y022670D01*
X021265Y022670D02*
X021265Y022430D01*
X021265Y022670D02*
X021445Y022670D01*
X021505Y022610D01*
X021505Y022430D01*
X021633Y022490D02*
X021633Y022610D01*
X021694Y022670D01*
X021814Y022670D01*
X021874Y022610D01*
X021874Y022490D01*
X021814Y022430D01*
X021694Y022430D01*
X021633Y022490D01*
X022370Y022490D02*
X022370Y022670D01*
X022370Y022490D02*
X022430Y022430D01*
X022610Y022430D01*
X022610Y022670D01*
X022738Y022610D02*
X022738Y022490D01*
X022798Y022430D01*
X022919Y022430D01*
X022979Y022490D01*
X022979Y022610D01*
X022919Y022670D01*
X022798Y022670D01*
X022738Y022610D01*
X023107Y022670D02*
X023107Y022490D01*
X023167Y022430D01*
X023227Y022490D01*
X023227Y022670D01*
X023347Y022670D02*
X023347Y022430D01*
X023287Y022430D01*
X023227Y022490D01*
X023472Y022670D02*
X023592Y022670D01*
X023532Y022670D02*
X023532Y022310D01*
X023592Y022310D02*
X023472Y022310D01*
X026528Y022789D02*
X026988Y023095D01*
X026911Y023249D02*
X026988Y023326D01*
X026988Y023479D01*
X026911Y023556D01*
X026834Y023556D01*
X026758Y023479D01*
X026758Y023402D01*
X026758Y023479D02*
X026681Y023556D01*
X026604Y023556D01*
X026528Y023479D01*
X026528Y023326D01*
X026604Y023249D01*
X026528Y023095D02*
X026988Y022789D01*
X021692Y014903D02*
X021751Y014845D01*
X021751Y014728D01*
X021692Y014670D01*
X021576Y014670D02*
X021517Y014787D01*
X021517Y014845D01*
X021576Y014903D01*
X021692Y014903D01*
X021576Y014670D02*
X021400Y014670D01*
X021400Y014903D01*
X021400Y014428D02*
X021751Y014428D01*
X021751Y014544D02*
X021751Y014311D01*
X021751Y014185D02*
X021634Y014068D01*
X021634Y014127D02*
X021634Y013952D01*
X021751Y013952D02*
X021400Y013952D01*
X021400Y014127D01*
X021459Y014185D01*
X021576Y014185D01*
X021634Y014127D01*
X021517Y014311D02*
X021400Y014428D01*
X021400Y013781D02*
X021459Y013781D01*
X021692Y013547D01*
X021751Y013547D01*
X021751Y013422D02*
X021634Y013305D01*
X021634Y013363D02*
X021634Y013188D01*
X021751Y013188D02*
X021400Y013188D01*
X021400Y013363D01*
X021459Y013422D01*
X021576Y013422D01*
X021634Y013363D01*
X021400Y013547D02*
X021400Y013781D01*
X021410Y012768D02*
X021410Y012534D01*
X021586Y012534D01*
X021527Y012651D01*
X021527Y012709D01*
X021586Y012768D01*
X021702Y012768D01*
X021761Y012709D01*
X021761Y012593D01*
X021702Y012534D01*
X021761Y012409D02*
X021644Y012292D01*
X021644Y012350D02*
X021644Y012175D01*
X021761Y012175D02*
X021410Y012175D01*
X021410Y012350D01*
X021469Y012409D01*
X021586Y012409D01*
X021644Y012350D01*
X022505Y008968D02*
X022745Y008968D01*
X022745Y008908D01*
X022505Y008668D01*
X022505Y008608D01*
X022745Y008608D01*
X022873Y008608D02*
X023053Y008608D01*
X023113Y008668D01*
X023113Y008908D01*
X023053Y008968D01*
X022873Y008968D01*
X022873Y008608D01*
X023242Y008608D02*
X023482Y008608D01*
X023362Y008608D02*
X023362Y008968D01*
X023242Y008848D01*
X021492Y007310D02*
X021492Y006960D01*
X021375Y006960D02*
X021609Y006960D01*
X021375Y007193D02*
X021492Y007310D01*
X021249Y007252D02*
X021249Y007135D01*
X021191Y007077D01*
X021016Y007077D01*
X021133Y007077D02*
X021249Y006960D01*
X021016Y006960D02*
X021016Y007310D01*
X021191Y007310D01*
X021249Y007252D01*
X021312Y006518D02*
X021312Y006218D01*
X021372Y006158D01*
X021492Y006158D01*
X021552Y006218D01*
X021552Y006518D01*
X021681Y006518D02*
X021921Y006518D01*
X021801Y006518D02*
X021801Y006158D01*
X021184Y006218D02*
X021184Y006458D01*
X021124Y006518D01*
X020944Y006518D01*
X020944Y006158D01*
X021124Y006158D01*
X021184Y006218D01*
X022417Y006278D02*
X022537Y006158D01*
X022657Y006278D01*
X022657Y006518D01*
X022785Y006398D02*
X022846Y006398D01*
X022846Y006158D01*
X022906Y006158D02*
X022785Y006158D01*
X023031Y006158D02*
X023031Y006398D01*
X023211Y006398D01*
X023271Y006338D01*
X023271Y006158D01*
X022846Y006518D02*
X022846Y006578D01*
X022417Y006518D02*
X022417Y006278D01*
X020053Y008335D02*
X019812Y008335D01*
X019933Y008335D02*
X019933Y008695D01*
X019812Y008575D01*
X019684Y008695D02*
X019444Y008335D01*
X019684Y008335D02*
X019444Y008695D01*
X018059Y008695D02*
X017819Y008695D01*
X017819Y008515D01*
X017939Y008575D01*
X017999Y008575D01*
X018059Y008515D01*
X018059Y008395D01*
X017999Y008335D01*
X017879Y008335D01*
X017819Y008395D01*
X017691Y008335D02*
X017451Y008695D01*
X017691Y008695D02*
X017451Y008335D01*
X016601Y009536D02*
X016250Y009536D01*
X016250Y009711D01*
X016309Y009769D01*
X016425Y009769D01*
X016484Y009711D01*
X016484Y009536D01*
X016484Y009653D02*
X016601Y009769D01*
X016601Y009895D02*
X016367Y010129D01*
X016309Y010129D01*
X016250Y010070D01*
X016250Y009953D01*
X016309Y009895D01*
X016601Y009895D02*
X016601Y010129D01*
X015566Y007598D02*
X015325Y007598D01*
X015325Y007358D02*
X015566Y007358D01*
X015686Y007478D01*
X015566Y007598D01*
X015626Y007230D02*
X015686Y007170D01*
X015686Y007050D01*
X015626Y006990D01*
X015506Y006990D02*
X015446Y007110D01*
X015446Y007170D01*
X015506Y007230D01*
X015626Y007230D01*
X015811Y007300D02*
X016051Y007300D01*
X016111Y007360D01*
X015871Y007360D02*
X015871Y007240D01*
X015871Y007112D02*
X016111Y007112D01*
X016111Y006932D01*
X016051Y006872D01*
X015871Y006872D01*
X015931Y006743D02*
X015871Y006683D01*
X015871Y006563D01*
X015931Y006503D01*
X016051Y006503D01*
X016111Y006563D01*
X016111Y006683D01*
X016051Y006743D01*
X015931Y006743D01*
X015686Y006742D02*
X015325Y006742D01*
X015446Y006622D01*
X015506Y006493D02*
X015506Y006253D01*
X015386Y006373D02*
X015626Y006373D01*
X015686Y006622D02*
X015686Y006862D01*
X015506Y006990D02*
X015325Y006990D01*
X015325Y007230D01*
X014426Y015663D02*
X014075Y015663D01*
X014075Y015838D01*
X014134Y015897D01*
X014251Y015897D01*
X014309Y015838D01*
X014309Y015663D01*
X014309Y015780D02*
X014426Y015897D01*
X014426Y016022D02*
X014426Y016256D01*
X014426Y016139D02*
X014075Y016139D01*
X014192Y016022D01*
X014251Y016381D02*
X014251Y016615D01*
X014426Y016557D02*
X014075Y016557D01*
X014251Y016381D01*
X014309Y017513D02*
X014309Y017688D01*
X014251Y017747D01*
X014134Y017747D01*
X014075Y017688D01*
X014075Y017513D01*
X014426Y017513D01*
X014309Y017630D02*
X014426Y017747D01*
X014367Y017872D02*
X014426Y017931D01*
X014426Y018048D01*
X014367Y018106D01*
X014134Y018106D01*
X014075Y018048D01*
X014075Y017931D01*
X014134Y017872D01*
X014192Y017872D01*
X014251Y017931D01*
X014251Y018106D01*
X024875Y014570D02*
X024934Y014628D01*
X025167Y014395D01*
X025226Y014453D01*
X025226Y014570D01*
X025167Y014628D01*
X024934Y014628D01*
X024875Y014570D02*
X024875Y014453D01*
X024934Y014395D01*
X025167Y014395D01*
X025226Y014269D02*
X025226Y014036D01*
X025226Y014153D02*
X024875Y014153D01*
X024992Y014036D01*
X024934Y013910D02*
X025051Y013910D01*
X025109Y013852D01*
X025109Y013677D01*
X025109Y013793D02*
X025226Y013910D01*
X025226Y013677D02*
X024875Y013677D01*
X024875Y013852D01*
X024934Y013910D01*
D14*
X023195Y012989D02*
X023195Y012569D01*
X023195Y012779D02*
X022564Y012779D01*
X022775Y012569D01*
X022670Y012345D02*
X022564Y012240D01*
X022564Y012030D01*
X022670Y011925D01*
X023090Y011925D01*
X023195Y012030D01*
X023195Y012240D01*
X023090Y012345D01*
X023195Y011705D02*
X023195Y011495D01*
X023195Y011600D02*
X022564Y011600D01*
X022564Y011495D02*
X022564Y011705D01*
X024752Y016659D02*
X024647Y016764D01*
X024647Y016974D01*
X024752Y017079D01*
X025172Y017079D01*
X025277Y016974D01*
X025277Y016764D01*
X025172Y016659D01*
X024752Y016659D01*
X025067Y016869D02*
X025277Y017079D01*
X025277Y017303D02*
X024857Y017724D01*
X024752Y017724D01*
X024647Y017618D01*
X024647Y017408D01*
X024752Y017303D01*
X025277Y017303D02*
X025277Y017724D01*
X019596Y019818D02*
X019596Y020028D01*
X019596Y019923D02*
X018965Y019923D01*
X018965Y019818D02*
X018965Y020028D01*
X019070Y020248D02*
X018965Y020353D01*
X018965Y020563D01*
X019070Y020668D01*
X019070Y020893D02*
X018965Y020998D01*
X018965Y021208D01*
X019070Y021313D01*
X019175Y021313D01*
X019596Y020893D01*
X019596Y021313D01*
X019491Y020668D02*
X019596Y020563D01*
X019596Y020353D01*
X019491Y020248D01*
X019070Y020248D01*
X015199Y010885D02*
X014884Y010570D01*
X015304Y010570D01*
X015199Y010255D02*
X015199Y010885D01*
X014660Y010885D02*
X014239Y010255D01*
X014660Y010255D02*
X014239Y010885D01*
X010729Y010885D02*
X010729Y010780D01*
X010309Y010360D01*
X010309Y010255D01*
X010085Y010255D02*
X009664Y010885D01*
X010085Y010885D02*
X009664Y010255D01*
X010309Y010885D02*
X010729Y010885D01*
D15*
X012282Y022891D02*
X006553Y022891D01*
X006553Y028462D01*
X012282Y028462D01*
X012282Y022891D01*
X012623Y027910D02*
X018798Y027910D01*
X019152Y028462D02*
X019152Y022891D01*
X024880Y022891D01*
X024880Y028462D01*
X019152Y028462D01*
X025839Y012685D02*
X026784Y012685D01*
X026784Y012724D02*
X026784Y008787D01*
X027217Y008787D01*
X027217Y012724D01*
X026784Y012724D01*
X025839Y012685D02*
X025839Y012126D01*
X025485Y012134D02*
X025485Y012527D01*
X025839Y012685D01*
X025839Y009385D02*
X025839Y008826D01*
X026784Y008826D01*
X025839Y008826D02*
X025485Y008984D01*
X025485Y009377D01*
D16*
X024994Y009268D03*
X024994Y010268D03*
X024994Y011268D03*
X025019Y012268D03*
D17*
X023356Y015647D03*
D18*
X017612Y021145D02*
X017312Y021145D01*
X017012Y021145D01*
X017012Y021495D02*
X017312Y021495D01*
X017612Y021495D01*
X017199Y013695D02*
X016899Y013695D01*
X016599Y013695D01*
X016599Y013345D02*
X016899Y013345D01*
X017199Y013345D01*
D19*
X010366Y015189D03*
X010366Y018029D03*
D20*
X010936Y019683D03*
X013776Y019683D03*
D21*
X025690Y017644D03*
D22*
X027000Y015874D03*
D23*
X026750Y014149D03*
X026750Y017599D03*
D24*
X026750Y016374D03*
X026750Y015374D03*
D25*
X022260Y008088D03*
D26*
X021885Y008088D03*
X023935Y008088D03*
D27*
X022120Y018841D03*
D28*
X022120Y018241D03*
X022120Y020741D03*
D29*
X015831Y025230D03*
X015744Y025230D03*
X015531Y025230D03*
X015969Y025786D03*
X014965Y025335D03*
X014587Y025147D03*
X015159Y027145D03*
D30*
X015969Y025788D03*
X016288Y025716D03*
X016191Y025542D03*
X016258Y025456D03*
X016342Y025458D03*
X016425Y025458D03*
X016474Y025372D03*
X016602Y025231D03*
X016689Y025231D03*
X016762Y025464D03*
X016974Y025464D03*
X015832Y025231D03*
X015693Y025464D03*
X014587Y025149D03*
D31*
X014587Y025150D03*
X015619Y025374D03*
X015834Y025233D03*
X016257Y025455D03*
X016476Y025374D03*
X016554Y025261D03*
X017047Y025315D03*
X016252Y027151D03*
D32*
X015970Y025791D03*
X016189Y025540D03*
X015835Y025234D03*
X015535Y025234D03*
X014589Y025152D03*
X017046Y025314D03*
D33*
X014589Y025153D03*
D34*
X014592Y025155D03*
X014958Y025329D03*
X015412Y025239D03*
X015540Y025240D03*
X015540Y025242D03*
X015540Y025245D03*
X015540Y025246D03*
X015540Y025248D03*
X015751Y025236D03*
X015840Y025239D03*
X015967Y025384D03*
X016185Y025534D03*
X016251Y025450D03*
X016335Y025450D03*
X016417Y025449D03*
X016482Y025381D03*
X016482Y025380D03*
X016609Y025242D03*
X016609Y025240D03*
X016609Y025239D03*
X016696Y025239D03*
X016696Y025237D03*
X017041Y025311D03*
X016288Y025722D03*
X015462Y025785D03*
X015415Y025533D03*
X016251Y027147D03*
D35*
X016182Y025527D03*
X016182Y025525D03*
X016182Y025524D03*
X016182Y025522D03*
X016182Y025521D03*
X016182Y025519D03*
X016182Y025510D03*
X016182Y025507D03*
X016182Y025501D03*
X016182Y025495D03*
X016182Y025491D03*
X016182Y025489D03*
X016182Y025486D03*
X016182Y025482D03*
X016182Y025477D03*
X016182Y025470D03*
X016182Y025467D03*
X016182Y025465D03*
X016182Y025464D03*
X016182Y025462D03*
X016182Y025461D03*
X016182Y025459D03*
X016182Y025401D03*
X016182Y025399D03*
X016182Y025398D03*
X016182Y025396D03*
X016182Y025395D03*
X016182Y025392D03*
X016182Y025390D03*
X016182Y025389D03*
X016182Y025387D03*
X016182Y025380D03*
X016182Y025371D03*
X016182Y025360D03*
X016182Y025357D03*
X016182Y025353D03*
X016182Y025350D03*
X016182Y025342D03*
X016182Y025332D03*
X016182Y025329D03*
X016182Y025321D03*
X016182Y025320D03*
X016182Y025317D03*
X016182Y025314D03*
X016182Y025309D03*
X016182Y025300D03*
X016182Y025299D03*
X016182Y025297D03*
X016182Y025296D03*
X016182Y025294D03*
X016182Y025293D03*
X016182Y025291D03*
X016180Y025287D03*
X016060Y025284D03*
X016060Y025404D03*
X015843Y025398D03*
X015843Y025396D03*
X015843Y025395D03*
X015843Y025392D03*
X015843Y025390D03*
X015753Y025396D03*
X015753Y025398D03*
X015753Y025399D03*
X015631Y025402D03*
X015631Y025404D03*
X015537Y025402D03*
X015535Y025405D03*
X015415Y025402D03*
X015415Y025401D03*
X015415Y025399D03*
X015415Y025456D03*
X015628Y025297D03*
X015628Y025296D03*
X015628Y025282D03*
X015628Y025281D03*
X015045Y025240D03*
X014955Y025324D03*
X014595Y025156D03*
X016332Y025287D03*
X016332Y025299D03*
X016332Y025300D03*
X016332Y025305D03*
X016332Y025311D03*
X016332Y025314D03*
X016332Y025315D03*
X016332Y025323D03*
X016332Y025329D03*
X016332Y025330D03*
X016332Y025335D03*
X016332Y025336D03*
X016485Y025395D03*
X016485Y025396D03*
X016606Y025404D03*
X016606Y025405D03*
X016608Y025402D03*
X016608Y025381D03*
X016608Y025342D03*
X017035Y025287D03*
X017038Y025387D03*
X017035Y025401D03*
X017035Y025402D03*
D36*
X017037Y025384D03*
X016921Y025414D03*
X016920Y025413D03*
X016918Y025411D03*
X016816Y025413D03*
X016917Y025281D03*
X016603Y025411D03*
X016603Y025413D03*
X016485Y025302D03*
X016485Y025300D03*
X016485Y025278D03*
X016486Y025275D03*
X016333Y025276D03*
X016333Y025278D03*
X016333Y025279D03*
X016063Y025278D03*
X016062Y025279D03*
X016062Y025281D03*
X016063Y025276D03*
X016063Y025411D03*
X016063Y025413D03*
X015961Y025413D03*
X015748Y025410D03*
X015747Y025411D03*
X015631Y025275D03*
X015417Y025407D03*
X014596Y025158D03*
D37*
X014597Y025159D03*
X014663Y025231D03*
X014436Y025231D03*
X014888Y025477D03*
X015531Y025414D03*
X015635Y025413D03*
X015636Y025414D03*
X015744Y025414D03*
X015746Y025413D03*
X015752Y025381D03*
X015849Y025413D03*
X015851Y025414D03*
X015962Y025411D03*
X016179Y025407D03*
X016179Y025455D03*
X016173Y025275D03*
X016256Y025264D03*
X016374Y025227D03*
X016412Y025267D03*
X016494Y025416D03*
X016704Y025413D03*
X016922Y025416D03*
X016923Y025417D03*
X016974Y025462D03*
X017031Y025413D03*
X017027Y025272D03*
X016914Y025308D03*
X016914Y025309D03*
X015633Y025270D03*
X015633Y025269D03*
X015632Y025272D03*
X015632Y025305D03*
X015459Y025789D03*
D38*
X015477Y025462D03*
X015531Y025416D03*
X015637Y025416D03*
X015639Y025417D03*
X015640Y025419D03*
X015742Y025417D03*
X015744Y025416D03*
X015751Y025380D03*
X015751Y025341D03*
X015634Y025309D03*
X015634Y025308D03*
X015633Y025306D03*
X015634Y025267D03*
X015852Y025416D03*
X015904Y025462D03*
X016066Y025416D03*
X016066Y025272D03*
X016171Y025272D03*
X016291Y025227D03*
X016488Y025272D03*
X016489Y025270D03*
X016489Y025269D03*
X016491Y025267D03*
X016492Y025266D03*
X016488Y025305D03*
X016495Y025417D03*
X016600Y025416D03*
X016707Y025414D03*
X016812Y025419D03*
X016924Y025419D03*
X016915Y025350D03*
X016923Y025272D03*
X017026Y025270D03*
X017031Y025414D03*
X015159Y027136D03*
X014824Y025389D03*
X014824Y025387D03*
X014824Y025386D03*
X014824Y025384D03*
X014824Y025383D03*
X014824Y025381D03*
X014824Y025380D03*
X014824Y025377D03*
X014952Y025317D03*
X014952Y025315D03*
X014952Y025314D03*
X014952Y025312D03*
X014952Y025311D03*
X014598Y025161D03*
D39*
X014598Y025162D03*
X014598Y025164D03*
X014825Y025372D03*
X014825Y025374D03*
X014825Y025375D03*
X014825Y025390D03*
X014825Y025392D03*
X014825Y025395D03*
X014951Y025309D03*
X014951Y025308D03*
X015048Y025245D03*
X015176Y025245D03*
X015114Y025477D03*
X015528Y025419D03*
X015530Y025417D03*
X015641Y025420D03*
X015642Y025422D03*
X015690Y025462D03*
X015741Y025419D03*
X015635Y025311D03*
X015635Y025266D03*
X015636Y025264D03*
X015953Y025422D03*
X015954Y025420D03*
X015956Y025419D03*
X015957Y025417D03*
X016067Y025417D03*
X016178Y025410D03*
X016170Y025270D03*
X016332Y025270D03*
X016488Y025306D03*
X016490Y025308D03*
X016491Y025311D03*
X016493Y025312D03*
X016496Y025419D03*
X016497Y025420D03*
X016547Y025462D03*
X016599Y025417D03*
X016707Y025416D03*
X016811Y025420D03*
X016925Y025420D03*
X016926Y025422D03*
X016916Y025311D03*
X016925Y025270D03*
X017021Y025264D03*
X017022Y025266D03*
X017034Y025383D03*
X016287Y025725D03*
X015977Y025797D03*
X015458Y025791D03*
X014663Y025477D03*
X014436Y025477D03*
D40*
X014374Y025402D03*
X014374Y025401D03*
X014373Y025399D03*
X014373Y025398D03*
X014373Y025396D03*
X014373Y025395D03*
X014373Y025392D03*
X014373Y025390D03*
X014373Y025389D03*
X014373Y025387D03*
X014373Y025386D03*
X014373Y025384D03*
X014373Y025383D03*
X014373Y025381D03*
X014373Y025380D03*
X014373Y025377D03*
X014373Y025375D03*
X014373Y025374D03*
X014373Y025372D03*
X014373Y025371D03*
X014373Y025369D03*
X014373Y025368D03*
X014373Y025366D03*
X014373Y025365D03*
X014373Y025362D03*
X014373Y025360D03*
X014373Y025359D03*
X014373Y025357D03*
X014373Y025356D03*
X014373Y025354D03*
X014373Y025353D03*
X014373Y025351D03*
X014373Y025350D03*
X014373Y025347D03*
X014373Y025345D03*
X014373Y025344D03*
X014373Y025342D03*
X014373Y025341D03*
X014373Y025339D03*
X014373Y025338D03*
X014373Y025336D03*
X014373Y025335D03*
X014373Y025332D03*
X014373Y025330D03*
X014373Y025329D03*
X014373Y025327D03*
X014373Y025326D03*
X014373Y025324D03*
X014373Y025323D03*
X014373Y025321D03*
X014373Y025320D03*
X014373Y025317D03*
X014373Y025315D03*
X014373Y025314D03*
X014373Y025312D03*
X014373Y025311D03*
X014373Y025309D03*
X014374Y025308D03*
X014374Y025306D03*
X014599Y025308D03*
X014599Y025309D03*
X014599Y025311D03*
X014599Y025312D03*
X014599Y025314D03*
X014599Y025315D03*
X014599Y025317D03*
X014599Y025320D03*
X014599Y025321D03*
X014599Y025323D03*
X014599Y025324D03*
X014599Y025326D03*
X014599Y025327D03*
X014599Y025329D03*
X014599Y025330D03*
X014599Y025332D03*
X014599Y025335D03*
X014599Y025336D03*
X014599Y025338D03*
X014599Y025339D03*
X014599Y025341D03*
X014599Y025342D03*
X014599Y025344D03*
X014599Y025345D03*
X014599Y025347D03*
X014599Y025350D03*
X014599Y025351D03*
X014599Y025353D03*
X014599Y025354D03*
X014599Y025356D03*
X014599Y025357D03*
X014599Y025359D03*
X014599Y025360D03*
X014599Y025362D03*
X014599Y025365D03*
X014599Y025366D03*
X014599Y025368D03*
X014599Y025369D03*
X014599Y025371D03*
X014599Y025372D03*
X014599Y025374D03*
X014599Y025375D03*
X014599Y025377D03*
X014599Y025380D03*
X014599Y025381D03*
X014599Y025383D03*
X014599Y025384D03*
X014599Y025386D03*
X014599Y025387D03*
X014599Y025389D03*
X014599Y025390D03*
X014599Y025392D03*
X014599Y025395D03*
X014599Y025396D03*
X014599Y025398D03*
X014599Y025399D03*
X014599Y025401D03*
X014727Y025396D03*
X014727Y025395D03*
X014727Y025392D03*
X014727Y025390D03*
X014727Y025389D03*
X014727Y025387D03*
X014727Y025386D03*
X014727Y025384D03*
X014727Y025383D03*
X014727Y025381D03*
X014727Y025380D03*
X014727Y025377D03*
X014727Y025375D03*
X014727Y025374D03*
X014727Y025372D03*
X014727Y025371D03*
X014727Y025369D03*
X014727Y025368D03*
X014727Y025366D03*
X014727Y025365D03*
X014727Y025362D03*
X014727Y025360D03*
X014727Y025359D03*
X014727Y025357D03*
X014727Y025356D03*
X014727Y025354D03*
X014727Y025353D03*
X014727Y025351D03*
X014727Y025350D03*
X014727Y025347D03*
X014727Y025345D03*
X014727Y025344D03*
X014727Y025342D03*
X014727Y025341D03*
X014727Y025339D03*
X014727Y025338D03*
X014727Y025336D03*
X014727Y025335D03*
X014727Y025332D03*
X014727Y025330D03*
X014727Y025329D03*
X014727Y025327D03*
X014727Y025326D03*
X014727Y025324D03*
X014727Y025323D03*
X014727Y025321D03*
X014727Y025320D03*
X014727Y025317D03*
X014727Y025315D03*
X014727Y025314D03*
X014727Y025312D03*
X014727Y025311D03*
X014826Y025371D03*
X014826Y025396D03*
X014826Y025398D03*
X014950Y025306D03*
X014950Y025305D03*
X015049Y025248D03*
X015049Y025246D03*
X015051Y025402D03*
X015420Y025414D03*
X015526Y025422D03*
X015528Y025420D03*
X015646Y025425D03*
X015739Y025422D03*
X015741Y025420D03*
X015750Y025377D03*
X015855Y025420D03*
X015856Y025422D03*
X016068Y025419D03*
X016069Y025420D03*
X016119Y025462D03*
X016177Y025413D03*
X016177Y025411D03*
X016168Y025267D03*
X016258Y025263D03*
X016068Y025270D03*
X016491Y025309D03*
X016494Y025264D03*
X016603Y025375D03*
X016599Y025419D03*
X016597Y025420D03*
X016498Y025422D03*
X016710Y025419D03*
X016711Y025420D03*
X016713Y025422D03*
X016761Y025462D03*
X016810Y025422D03*
X016917Y025312D03*
X016926Y025269D03*
X017029Y025416D03*
X017028Y025417D03*
X017025Y025422D03*
X016251Y027142D03*
X014599Y025227D03*
X014599Y025225D03*
X014599Y025224D03*
X014599Y025222D03*
X014599Y025221D03*
X014599Y025219D03*
X014599Y025218D03*
X014599Y025216D03*
X014599Y025215D03*
X014599Y025212D03*
X014599Y025210D03*
X014599Y025209D03*
X014599Y025207D03*
X014599Y025206D03*
X014599Y025204D03*
X014599Y025203D03*
X014599Y025201D03*
X014599Y025200D03*
X014599Y025197D03*
X014599Y025195D03*
X014599Y025194D03*
X014599Y025192D03*
X014599Y025191D03*
X014599Y025189D03*
X014599Y025188D03*
X014599Y025186D03*
X014599Y025185D03*
X014599Y025182D03*
X014599Y025180D03*
X014599Y025179D03*
X014599Y025177D03*
X014599Y025176D03*
X014599Y025174D03*
X014599Y025173D03*
X014599Y025171D03*
X014599Y025170D03*
X014599Y025167D03*
X014599Y025165D03*
D41*
X014599Y025168D03*
X014599Y025183D03*
X014599Y025198D03*
X014599Y025213D03*
X014599Y025228D03*
X014599Y025318D03*
X014599Y025333D03*
X014599Y025348D03*
X014599Y025363D03*
X014599Y025378D03*
X014599Y025393D03*
X014727Y025393D03*
X014727Y025378D03*
X014727Y025363D03*
X014727Y025348D03*
X014727Y025333D03*
X014727Y025318D03*
X014373Y025318D03*
X014373Y025333D03*
X014373Y025348D03*
X014373Y025363D03*
X014373Y025378D03*
X014373Y025393D03*
X015525Y025423D03*
X015952Y025423D03*
X015978Y025798D03*
X016500Y025423D03*
X016714Y025423D03*
X016809Y025423D03*
D42*
X016259Y025461D03*
X015672Y025225D03*
X015617Y025369D03*
X015467Y025777D03*
D43*
X015680Y025225D03*
X016112Y025225D03*
X016118Y025225D03*
D44*
X016383Y025225D03*
X016471Y025369D03*
X016557Y025263D03*
X016600Y025227D03*
X016963Y025225D03*
X015700Y025263D03*
X015687Y025225D03*
D45*
X015693Y025225D03*
X016125Y025225D03*
X016287Y025714D03*
X015969Y025785D03*
X016533Y025225D03*
X016976Y025225D03*
X016983Y025225D03*
X015149Y025698D03*
X014966Y025336D03*
D46*
X015039Y025231D03*
X016284Y025225D03*
X016344Y025461D03*
D47*
X016296Y025225D03*
X016971Y025225D03*
D48*
X016545Y025225D03*
X016539Y025225D03*
D49*
X015830Y025227D03*
X015530Y025227D03*
D50*
X015683Y025227D03*
X015422Y025419D03*
X015176Y025411D03*
X015174Y025413D03*
X015056Y025414D03*
X015054Y025411D03*
X014948Y025411D03*
X014948Y025410D03*
X014948Y025413D03*
X014948Y025399D03*
X014948Y025398D03*
X014888Y025476D03*
X014829Y025416D03*
X014829Y025414D03*
X014828Y025411D03*
X014828Y025410D03*
X014828Y025314D03*
X014828Y025297D03*
X014829Y025294D03*
X014829Y025293D03*
X014724Y025299D03*
X014723Y025296D03*
X014721Y025294D03*
X014724Y025410D03*
X014723Y025413D03*
X014721Y025414D03*
X014720Y025417D03*
X014663Y025476D03*
X014603Y025413D03*
X014601Y025411D03*
X014496Y025414D03*
X014378Y025416D03*
X014378Y025417D03*
X014378Y025296D03*
X014378Y025294D03*
X014436Y025233D03*
X014496Y025294D03*
X014601Y025297D03*
X014946Y025291D03*
X014948Y025294D03*
X016073Y025264D03*
X016118Y025227D03*
X016175Y025417D03*
X016404Y025261D03*
X016496Y025263D03*
X016601Y025374D03*
X016592Y025425D03*
X016716Y025425D03*
X016929Y025425D03*
X017031Y025380D03*
X016929Y025264D03*
X016250Y027139D03*
D51*
X015159Y027135D03*
X016287Y025726D03*
X016176Y025414D03*
X016070Y025422D03*
X016068Y025269D03*
X016070Y025267D03*
X016260Y025261D03*
X016332Y025269D03*
X016407Y025263D03*
X016494Y025314D03*
X016539Y025227D03*
X016596Y025422D03*
X016926Y025267D03*
X016928Y025266D03*
X017033Y025381D03*
X017027Y025419D03*
X017025Y025420D03*
X015636Y025312D03*
X015420Y025416D03*
X015177Y025405D03*
X015177Y025404D03*
X015051Y025404D03*
X015051Y025405D03*
X015051Y025407D03*
X015050Y025401D03*
X015050Y025399D03*
X015050Y025398D03*
X015050Y025396D03*
X015050Y025395D03*
X015050Y025392D03*
X015050Y025390D03*
X015050Y025389D03*
X015050Y025387D03*
X015050Y025386D03*
X015050Y025384D03*
X015050Y025383D03*
X015050Y025381D03*
X015050Y025380D03*
X015050Y025377D03*
X015050Y025375D03*
X015050Y025374D03*
X015050Y025372D03*
X015050Y025371D03*
X015050Y025369D03*
X015050Y025368D03*
X015050Y025366D03*
X015050Y025365D03*
X015050Y025362D03*
X015050Y025360D03*
X015050Y025359D03*
X015050Y025357D03*
X015050Y025356D03*
X015050Y025354D03*
X015050Y025353D03*
X015050Y025351D03*
X015050Y025350D03*
X015050Y025347D03*
X015050Y025345D03*
X015050Y025344D03*
X015050Y025342D03*
X015050Y025341D03*
X015050Y025339D03*
X015050Y025338D03*
X015050Y025336D03*
X015050Y025335D03*
X015050Y025332D03*
X015050Y025330D03*
X015050Y025329D03*
X015050Y025327D03*
X015050Y025326D03*
X015050Y025324D03*
X015050Y025323D03*
X015050Y025321D03*
X015050Y025320D03*
X015050Y025317D03*
X015050Y025315D03*
X015050Y025314D03*
X015050Y025312D03*
X015050Y025311D03*
X015050Y025309D03*
X015050Y025308D03*
X015050Y025306D03*
X015050Y025305D03*
X015050Y025302D03*
X015050Y025300D03*
X015050Y025299D03*
X015050Y025297D03*
X015050Y025296D03*
X015050Y025294D03*
X015050Y025293D03*
X015050Y025291D03*
X015050Y025290D03*
X015050Y025287D03*
X015050Y025285D03*
X015050Y025284D03*
X015050Y025282D03*
X015050Y025281D03*
X015050Y025279D03*
X015050Y025278D03*
X015050Y025276D03*
X015050Y025275D03*
X015050Y025272D03*
X015050Y025270D03*
X015050Y025269D03*
X015050Y025267D03*
X015050Y025266D03*
X015050Y025264D03*
X015050Y025263D03*
X015050Y025261D03*
X015050Y025260D03*
X015050Y025257D03*
X015050Y025255D03*
X015050Y025254D03*
X015050Y025252D03*
X015050Y025251D03*
X015050Y025249D03*
X014949Y025300D03*
X014949Y025302D03*
X014826Y025305D03*
X014826Y025306D03*
X014826Y025308D03*
X014826Y025309D03*
X014826Y025369D03*
X014826Y025399D03*
X014826Y025401D03*
X014826Y025402D03*
X014726Y025402D03*
X014726Y025401D03*
X014726Y025399D03*
X014726Y025398D03*
X014726Y025404D03*
X014726Y025405D03*
X014726Y025309D03*
X014726Y025308D03*
X014726Y025306D03*
X014726Y025305D03*
X014600Y025305D03*
X014600Y025306D03*
X014600Y025302D03*
X014600Y025231D03*
X014600Y025230D03*
X014499Y025305D03*
X014499Y025306D03*
X014499Y025308D03*
X014499Y025309D03*
X014499Y025311D03*
X014499Y025312D03*
X014499Y025314D03*
X014499Y025315D03*
X014499Y025317D03*
X014499Y025320D03*
X014499Y025321D03*
X014499Y025323D03*
X014499Y025324D03*
X014499Y025326D03*
X014499Y025327D03*
X014499Y025329D03*
X014499Y025330D03*
X014499Y025332D03*
X014499Y025335D03*
X014499Y025336D03*
X014499Y025338D03*
X014499Y025339D03*
X014499Y025341D03*
X014499Y025342D03*
X014499Y025344D03*
X014499Y025345D03*
X014499Y025347D03*
X014499Y025350D03*
X014499Y025351D03*
X014499Y025353D03*
X014499Y025354D03*
X014499Y025356D03*
X014499Y025357D03*
X014499Y025359D03*
X014499Y025360D03*
X014499Y025362D03*
X014499Y025365D03*
X014499Y025366D03*
X014499Y025368D03*
X014499Y025369D03*
X014499Y025371D03*
X014499Y025372D03*
X014499Y025374D03*
X014499Y025375D03*
X014499Y025377D03*
X014499Y025380D03*
X014499Y025381D03*
X014499Y025383D03*
X014499Y025384D03*
X014499Y025386D03*
X014499Y025387D03*
X014499Y025389D03*
X014499Y025390D03*
X014499Y025392D03*
X014499Y025395D03*
X014499Y025396D03*
X014499Y025398D03*
X014499Y025399D03*
X014499Y025401D03*
X014499Y025402D03*
X014600Y025402D03*
X014600Y025404D03*
X014600Y025405D03*
X014600Y025407D03*
X014375Y025407D03*
X014375Y025405D03*
X014375Y025404D03*
X014375Y025305D03*
X015177Y025248D03*
X015177Y025246D03*
D52*
X016687Y025227D03*
D53*
X016807Y025425D03*
X017020Y025425D03*
X017019Y025263D03*
X016977Y025227D03*
X016503Y025425D03*
X016332Y025267D03*
X016167Y025266D03*
X016165Y025264D03*
X016071Y025266D03*
X016074Y025425D03*
X016176Y025416D03*
X015949Y025425D03*
X015859Y025425D03*
X015639Y025314D03*
X015639Y025263D03*
X015522Y025425D03*
X015421Y025417D03*
X015177Y025410D03*
X015177Y025407D03*
X015055Y025413D03*
X015054Y025410D03*
X014949Y025407D03*
X014949Y025405D03*
X014949Y025404D03*
X014949Y025402D03*
X014949Y025401D03*
X014949Y025299D03*
X014949Y025297D03*
X014949Y025296D03*
X014889Y025233D03*
X014829Y025296D03*
X014827Y025299D03*
X014827Y025300D03*
X014827Y025302D03*
X014827Y025311D03*
X014827Y025312D03*
X014827Y025404D03*
X014827Y025405D03*
X014827Y025407D03*
X014829Y025413D03*
X014725Y025407D03*
X014724Y025411D03*
X014725Y025302D03*
X014725Y025300D03*
X014724Y025297D03*
X014601Y025299D03*
X014601Y025300D03*
X014601Y025233D03*
X014497Y025296D03*
X014497Y025297D03*
X014497Y025299D03*
X014499Y025300D03*
X014499Y025302D03*
X014499Y025404D03*
X014499Y025405D03*
X014499Y025407D03*
X014497Y025410D03*
X014497Y025411D03*
X014497Y025413D03*
X014601Y025410D03*
X014377Y025411D03*
X014377Y025413D03*
X014377Y025414D03*
X014376Y025410D03*
X014376Y025302D03*
X014377Y025300D03*
X014377Y025299D03*
X014377Y025297D03*
X015457Y025792D03*
X015978Y025800D03*
X016251Y027141D03*
D54*
X015965Y025378D03*
X014436Y025228D03*
D55*
X014663Y025228D03*
D56*
X014888Y025228D03*
X016820Y025378D03*
X016251Y027148D03*
D57*
X015423Y025543D03*
X015402Y025228D03*
D58*
X015531Y025228D03*
X015742Y025228D03*
X015831Y025228D03*
X016600Y025228D03*
X016687Y025228D03*
D59*
X016118Y025228D03*
X015683Y025228D03*
X015425Y025423D03*
D60*
X015177Y025408D03*
X014827Y025408D03*
X014725Y025408D03*
X014601Y025408D03*
X014499Y025408D03*
X014499Y025303D03*
X014376Y025303D03*
X014376Y025408D03*
X014827Y025303D03*
X016291Y025228D03*
X016374Y025228D03*
D61*
X016539Y025228D03*
D62*
X016976Y025228D03*
X015060Y025423D03*
X014834Y025423D03*
X014604Y025288D03*
X014492Y025423D03*
D63*
X014436Y025230D03*
X016416Y025290D03*
X016416Y025291D03*
X016416Y025293D03*
X016416Y025294D03*
X016416Y025296D03*
X016416Y025297D03*
X016416Y025299D03*
X016416Y025300D03*
X016416Y025302D03*
X016416Y025305D03*
X016416Y025306D03*
X016416Y025308D03*
X016416Y025309D03*
X016416Y025311D03*
X016416Y025312D03*
X016416Y025314D03*
X016416Y025315D03*
X016416Y025317D03*
X016416Y025320D03*
X016416Y025321D03*
X016416Y025323D03*
X016416Y025324D03*
X016416Y025326D03*
X016416Y025327D03*
X016416Y025329D03*
X016416Y025330D03*
X016416Y025332D03*
X016416Y025335D03*
X016416Y025336D03*
X016416Y025338D03*
X016416Y025339D03*
X016416Y025341D03*
X016416Y025342D03*
X016416Y025344D03*
X016416Y025345D03*
X016416Y025347D03*
X016416Y025350D03*
X016416Y025351D03*
X016416Y025353D03*
X016416Y025354D03*
X016416Y025356D03*
X016416Y025357D03*
X016416Y025359D03*
X016416Y025360D03*
X016416Y025362D03*
X016416Y025365D03*
X016416Y025366D03*
X016416Y025368D03*
X016416Y025369D03*
X016416Y025371D03*
X016416Y025372D03*
X016416Y025374D03*
X016416Y025375D03*
X016416Y025377D03*
X016416Y025380D03*
X016416Y025381D03*
X016416Y025383D03*
X016416Y025384D03*
X016416Y025386D03*
X016416Y025387D03*
X016416Y025389D03*
X016416Y025390D03*
X016416Y025392D03*
X016416Y025395D03*
X016416Y025396D03*
X016416Y025398D03*
X016416Y025399D03*
X016416Y025401D03*
X016416Y025402D03*
X016416Y025404D03*
X016416Y025405D03*
X016416Y025407D03*
X016416Y025410D03*
X016416Y025411D03*
X016416Y025413D03*
X016416Y025414D03*
X016416Y025416D03*
X016416Y025417D03*
X016416Y025419D03*
X016416Y025420D03*
X016416Y025422D03*
X016416Y025425D03*
X016416Y025426D03*
X016416Y025428D03*
X016416Y025429D03*
X016416Y025431D03*
X016416Y025432D03*
X016416Y025434D03*
X016416Y025435D03*
X016416Y025437D03*
X016416Y025440D03*
X016416Y025441D03*
X016416Y025443D03*
X016416Y025444D03*
X016416Y025446D03*
X016416Y025447D03*
D64*
X016334Y025449D03*
X016250Y025449D03*
X016250Y025447D03*
X016250Y025446D03*
X016482Y025383D03*
X016610Y025387D03*
X016610Y025389D03*
X016610Y025390D03*
X016610Y025392D03*
X016610Y025335D03*
X016610Y025332D03*
X016610Y025330D03*
X016610Y025329D03*
X016610Y025327D03*
X016610Y025326D03*
X016610Y025324D03*
X016610Y025323D03*
X016610Y025321D03*
X016610Y025320D03*
X016610Y025317D03*
X016610Y025315D03*
X016610Y025314D03*
X016610Y025312D03*
X016610Y025311D03*
X016610Y025309D03*
X016610Y025308D03*
X016610Y025306D03*
X016610Y025305D03*
X016610Y025302D03*
X016610Y025300D03*
X016610Y025299D03*
X016610Y025297D03*
X016610Y025296D03*
X016610Y025294D03*
X016610Y025293D03*
X016610Y025291D03*
X016610Y025290D03*
X016610Y025287D03*
X016610Y025285D03*
X016610Y025284D03*
X016610Y025282D03*
X016610Y025281D03*
X016610Y025279D03*
X016610Y025278D03*
X016610Y025276D03*
X016610Y025275D03*
X016610Y025272D03*
X016610Y025270D03*
X016610Y025269D03*
X016610Y025267D03*
X016610Y025266D03*
X016610Y025264D03*
X016610Y025263D03*
X016610Y025261D03*
X016610Y025260D03*
X016610Y025257D03*
X016610Y025255D03*
X016610Y025254D03*
X016610Y025252D03*
X016610Y025251D03*
X016610Y025249D03*
X016610Y025248D03*
X016610Y025246D03*
X016610Y025245D03*
X016697Y025245D03*
X016697Y025246D03*
X016697Y025248D03*
X016697Y025249D03*
X016697Y025251D03*
X016697Y025252D03*
X016697Y025254D03*
X016697Y025255D03*
X016697Y025257D03*
X016697Y025260D03*
X016697Y025261D03*
X016697Y025263D03*
X016697Y025264D03*
X016697Y025266D03*
X016697Y025267D03*
X016697Y025269D03*
X016697Y025270D03*
X016697Y025272D03*
X016697Y025275D03*
X016697Y025276D03*
X016697Y025278D03*
X016697Y025279D03*
X016697Y025281D03*
X016697Y025282D03*
X016697Y025284D03*
X016697Y025285D03*
X016697Y025287D03*
X016697Y025290D03*
X016697Y025291D03*
X016697Y025293D03*
X016697Y025294D03*
X016697Y025296D03*
X016697Y025297D03*
X016697Y025299D03*
X016697Y025300D03*
X016697Y025302D03*
X016697Y025305D03*
X016697Y025306D03*
X016697Y025308D03*
X016697Y025309D03*
X016697Y025311D03*
X016697Y025312D03*
X016697Y025314D03*
X016697Y025315D03*
X016697Y025317D03*
X016697Y025320D03*
X016697Y025321D03*
X016697Y025323D03*
X016697Y025324D03*
X016697Y025326D03*
X016697Y025327D03*
X016697Y025329D03*
X016697Y025330D03*
X016697Y025332D03*
X016697Y025335D03*
X016697Y025336D03*
X016697Y025338D03*
X016697Y025339D03*
X016697Y025341D03*
X016697Y025342D03*
X016697Y025344D03*
X016697Y025345D03*
X016697Y025347D03*
X016697Y025350D03*
X016697Y025351D03*
X016697Y025353D03*
X016697Y025354D03*
X016697Y025356D03*
X016697Y025357D03*
X016697Y025359D03*
X016697Y025360D03*
X016697Y025362D03*
X016697Y025365D03*
X016697Y025366D03*
X016697Y025368D03*
X016697Y025369D03*
X016697Y025371D03*
X016697Y025372D03*
X016697Y025374D03*
X016697Y025375D03*
X016697Y025377D03*
X016697Y025380D03*
X016697Y025381D03*
X016697Y025383D03*
X016697Y025384D03*
X016697Y025386D03*
X016697Y025387D03*
X016697Y025389D03*
X016698Y025395D03*
X016823Y025383D03*
X016697Y025242D03*
X016697Y025240D03*
X017040Y025308D03*
X017040Y025309D03*
X015968Y025386D03*
X015968Y025387D03*
X015968Y025389D03*
X015840Y025240D03*
X015626Y025380D03*
X015626Y025381D03*
X015626Y025383D03*
X015627Y025390D03*
X015627Y025392D03*
X015540Y025383D03*
X015540Y025381D03*
X015540Y025380D03*
X015540Y025377D03*
X015540Y025375D03*
X015540Y025374D03*
X015540Y025372D03*
X015540Y025371D03*
X015540Y025369D03*
X015540Y025368D03*
X015540Y025366D03*
X015540Y025365D03*
X015540Y025362D03*
X015540Y025360D03*
X015540Y025359D03*
X015540Y025357D03*
X015540Y025356D03*
X015540Y025354D03*
X015540Y025353D03*
X015540Y025351D03*
X015540Y025350D03*
X015540Y025347D03*
X015540Y025345D03*
X015540Y025344D03*
X015540Y025342D03*
X015540Y025341D03*
X015540Y025339D03*
X015540Y025338D03*
X015540Y025336D03*
X015540Y025335D03*
X015540Y025332D03*
X015540Y025330D03*
X015540Y025329D03*
X015540Y025327D03*
X015540Y025326D03*
X015540Y025324D03*
X015540Y025323D03*
X015540Y025321D03*
X015540Y025320D03*
X015540Y025317D03*
X015540Y025315D03*
X015540Y025314D03*
X015540Y025312D03*
X015540Y025311D03*
X015540Y025309D03*
X015540Y025308D03*
X015540Y025306D03*
X015540Y025305D03*
X015540Y025302D03*
X015540Y025300D03*
X015540Y025299D03*
X015540Y025297D03*
X015540Y025296D03*
X015540Y025294D03*
X015540Y025293D03*
X015540Y025291D03*
X015540Y025290D03*
X015540Y025287D03*
X015540Y025285D03*
X015540Y025284D03*
X015540Y025282D03*
X015540Y025281D03*
X015540Y025279D03*
X015540Y025278D03*
X015540Y025276D03*
X015540Y025275D03*
X015540Y025272D03*
X015540Y025270D03*
X015540Y025269D03*
X015540Y025267D03*
X015540Y025266D03*
X015540Y025264D03*
X015540Y025263D03*
X015540Y025261D03*
X015540Y025260D03*
X015540Y025257D03*
X015540Y025255D03*
X015540Y025254D03*
X015540Y025252D03*
X015540Y025251D03*
X015540Y025249D03*
X015413Y025246D03*
X015413Y025245D03*
X015413Y025242D03*
X015413Y025240D03*
X015414Y025531D03*
X014957Y025327D03*
X014888Y025230D03*
X014663Y025230D03*
D65*
X015149Y025699D03*
X015402Y025230D03*
X016259Y025459D03*
D66*
X016082Y025429D03*
X015942Y025429D03*
X015743Y025372D03*
X015731Y025428D03*
X015683Y025230D03*
X015477Y025459D03*
X015165Y025426D03*
X015164Y025428D03*
X015063Y025426D03*
X014942Y025425D03*
X014940Y025426D03*
X014837Y025426D03*
X014937Y025281D03*
X014936Y025279D03*
X014714Y025282D03*
X014606Y025285D03*
X014385Y025282D03*
X014384Y025284D03*
X014384Y025426D03*
X015150Y025714D03*
X015452Y025795D03*
X015983Y025804D03*
X016503Y025320D03*
X016539Y025230D03*
X016923Y025317D03*
X016935Y025261D03*
X017012Y025260D03*
X016937Y025429D03*
X016974Y025459D03*
D67*
X016939Y025431D03*
X017013Y025429D03*
X016975Y025230D03*
X016723Y025429D03*
X016584Y025429D03*
X016548Y025459D03*
X016513Y025431D03*
X016596Y025371D03*
X016504Y025321D03*
X016374Y025233D03*
X016291Y025233D03*
X016119Y025230D03*
X016170Y025425D03*
X016119Y025459D03*
X016084Y025431D03*
X015729Y025429D03*
X015691Y025459D03*
X015646Y025320D03*
X015163Y025429D03*
X015114Y025474D03*
X015064Y025428D03*
X014833Y025320D03*
X014836Y025282D03*
X014889Y025234D03*
X014713Y025281D03*
X014713Y025428D03*
X014712Y025429D03*
X014664Y025474D03*
X014614Y025429D03*
X014613Y025428D03*
X014487Y025428D03*
X014386Y025428D03*
X014488Y025282D03*
X016287Y025732D03*
X015160Y027130D03*
D68*
X015058Y025420D03*
X015058Y025419D03*
X015057Y025417D03*
X015057Y025416D03*
X015736Y025425D03*
X016077Y025426D03*
X016291Y025230D03*
X016497Y025315D03*
X016932Y025263D03*
D69*
X016506Y025426D03*
X016374Y025230D03*
X016174Y025419D03*
X015979Y025801D03*
X015649Y025426D03*
X015519Y025426D03*
X015423Y025420D03*
X015174Y025414D03*
X015172Y025417D03*
X015114Y025476D03*
X014947Y025414D03*
X014947Y025396D03*
X014947Y025293D03*
X014946Y025290D03*
X014830Y025291D03*
X014721Y025291D03*
X014721Y025293D03*
X014719Y025290D03*
X014662Y025233D03*
X014602Y025234D03*
X014602Y025296D03*
X014496Y025293D03*
X014379Y025293D03*
X014379Y025419D03*
X014380Y025420D03*
X014496Y025416D03*
X014604Y025414D03*
X014605Y025417D03*
X014719Y025419D03*
X014719Y025420D03*
X014721Y025416D03*
X014830Y025417D03*
D70*
X015531Y025231D03*
X015618Y025372D03*
X015903Y025464D03*
X015962Y025375D03*
X016118Y025464D03*
X016343Y025459D03*
X016601Y025230D03*
X016688Y025230D03*
X017048Y025317D03*
X015467Y025780D03*
D71*
X015459Y025788D03*
X015533Y025411D03*
X015534Y025407D03*
X015633Y025410D03*
X015753Y025395D03*
X015753Y025384D03*
X015753Y025336D03*
X015753Y025335D03*
X015843Y025399D03*
X015843Y025401D03*
X015843Y025402D03*
X015845Y025405D03*
X015845Y025407D03*
X015963Y025407D03*
X015963Y025405D03*
X016176Y025281D03*
X016178Y025282D03*
X016253Y025275D03*
X016253Y025272D03*
X016253Y025270D03*
X016413Y025275D03*
X016413Y025276D03*
X016413Y025278D03*
X016491Y025411D03*
X016703Y025407D03*
X016821Y025407D03*
X016821Y025405D03*
X016821Y025404D03*
X016823Y025401D03*
X016823Y025399D03*
X016823Y025398D03*
X016913Y025398D03*
X016913Y025396D03*
X016914Y025404D03*
X016914Y025405D03*
X016913Y025354D03*
X016913Y025353D03*
X016913Y025305D03*
X016913Y025293D03*
X016913Y025291D03*
X016913Y025290D03*
X016914Y025287D03*
X016914Y025285D03*
X017031Y025276D03*
X017033Y025279D03*
X017033Y025281D03*
X017033Y025282D03*
X017034Y025285D03*
X017034Y025404D03*
X017034Y025405D03*
X015173Y025242D03*
X015114Y025479D03*
X014888Y025231D03*
D72*
X015404Y025231D03*
X016259Y025458D03*
D73*
X016761Y025459D03*
X015741Y025371D03*
X015726Y025431D03*
X015651Y025323D03*
X015682Y025231D03*
X015067Y025431D03*
X015066Y025429D03*
X014841Y025279D03*
X014616Y025432D03*
X014482Y025276D03*
X014391Y025432D03*
D74*
X015039Y025234D03*
X015420Y025542D03*
X015533Y025233D03*
X015744Y025231D03*
X016341Y025456D03*
X016689Y025233D03*
X016817Y025375D03*
D75*
X016761Y025458D03*
X016927Y025321D03*
X016509Y025324D03*
X016374Y025234D03*
X016119Y025231D03*
X016119Y025456D03*
X015739Y025369D03*
X015654Y025324D03*
X015069Y025432D03*
X014934Y025432D03*
X014709Y025432D03*
X014709Y025276D03*
X014392Y025276D03*
D76*
X014382Y025287D03*
X014492Y025287D03*
X014604Y025290D03*
X014610Y025425D03*
X014490Y025425D03*
X014831Y025317D03*
X014832Y025287D03*
X014834Y025285D03*
X014942Y025284D03*
X014943Y025422D03*
X015062Y025425D03*
X015167Y025425D03*
X016290Y025231D03*
X016332Y025264D03*
X016374Y025231D03*
X016500Y025317D03*
X016511Y025429D03*
X016287Y025731D03*
D77*
X016119Y025458D03*
X015451Y025797D03*
X015429Y025426D03*
X015160Y025432D03*
X014937Y025429D03*
X014835Y025321D03*
X014710Y025278D03*
X014710Y025431D03*
X014484Y025431D03*
X014389Y025431D03*
X014484Y025278D03*
X015160Y027129D03*
X016548Y025458D03*
X016594Y025369D03*
X016539Y025231D03*
D78*
X016593Y025368D03*
X016975Y025231D03*
X017023Y025372D03*
X015985Y025807D03*
X015691Y025458D03*
X015160Y027127D03*
D79*
X015467Y025779D03*
X015476Y025464D03*
X015617Y025371D03*
X015038Y025233D03*
X016472Y025371D03*
X016547Y025464D03*
D80*
X016425Y025459D03*
X016815Y025374D03*
X015165Y025233D03*
D81*
X015405Y025233D03*
X015465Y025782D03*
X016603Y025233D03*
D82*
X016926Y025320D03*
X016940Y025260D03*
X015905Y025458D03*
X015681Y025233D03*
X014931Y025275D03*
X014843Y025276D03*
X014841Y025278D03*
X014843Y025432D03*
X014481Y025432D03*
X014390Y025278D03*
D83*
X015167Y025234D03*
X015698Y025261D03*
X015746Y025233D03*
X015963Y025377D03*
X016340Y025455D03*
X015969Y025789D03*
D84*
X016164Y025428D03*
X016119Y025233D03*
X015737Y025366D03*
X015680Y025234D03*
X016536Y025234D03*
X016760Y025456D03*
X017021Y025371D03*
X016974Y025233D03*
X014705Y025434D03*
X014612Y025278D03*
D85*
X014480Y025275D03*
X014619Y025434D03*
X016538Y025233D03*
X016974Y025456D03*
D86*
X016581Y025431D03*
X016506Y025323D03*
X014841Y025431D03*
X014436Y025474D03*
X014436Y025234D03*
D87*
X014484Y025279D03*
X014486Y025281D03*
X014387Y025281D03*
X014387Y025429D03*
X014484Y025429D03*
X014615Y025431D03*
X014607Y025284D03*
X014663Y025234D03*
X014711Y025279D03*
X014838Y025281D03*
X014933Y025276D03*
X014934Y025278D03*
X014939Y025428D03*
X014888Y025474D03*
X014840Y025429D03*
X014838Y025428D03*
X015162Y025431D03*
X015512Y025431D03*
X015656Y025431D03*
X015648Y025321D03*
X015867Y025429D03*
X015905Y025459D03*
X015941Y025431D03*
X016083Y025260D03*
X016155Y025260D03*
X016332Y025263D03*
X016725Y025431D03*
X016799Y025429D03*
X017010Y025431D03*
X017025Y025374D03*
X016250Y027135D03*
D88*
X015419Y025539D03*
X015407Y025234D03*
X015747Y025234D03*
X015149Y025702D03*
X016605Y025234D03*
D89*
X016533Y025239D03*
X016119Y025234D03*
X015677Y025237D03*
X014843Y025327D03*
X015161Y027123D03*
D90*
X015150Y025716D03*
X014936Y025431D03*
X014940Y025392D03*
X014835Y025323D03*
X014609Y025282D03*
X014388Y025279D03*
X015477Y025458D03*
X015870Y025431D03*
X016167Y025426D03*
X016290Y025234D03*
X016286Y025734D03*
X015984Y025806D03*
X016796Y025431D03*
X016974Y025458D03*
D91*
X016692Y025234D03*
D92*
X016521Y025332D03*
X016520Y025330D03*
X016371Y025236D03*
X016974Y025234D03*
X017015Y025365D03*
X015665Y025332D03*
X015663Y025330D03*
X015446Y025803D03*
X015150Y025722D03*
X014934Y025384D03*
D93*
X014936Y025386D03*
X014888Y025473D03*
X015113Y025473D03*
X015150Y025720D03*
X014663Y025473D03*
X014613Y025276D03*
X014436Y025236D03*
X014436Y025473D03*
X015905Y025455D03*
X016118Y025455D03*
X016163Y025429D03*
X016292Y025236D03*
X016332Y025261D03*
X016547Y025455D03*
X016974Y025455D03*
X017018Y025368D03*
X017016Y025366D03*
D94*
X016119Y025252D03*
X015459Y025452D03*
X015114Y025455D03*
X015154Y025740D03*
X014638Y025236D03*
X015163Y027105D03*
X016246Y027112D03*
D95*
X016249Y027132D03*
X016285Y025737D03*
X016930Y025324D03*
X017019Y025369D03*
X014889Y025236D03*
X014478Y025434D03*
D96*
X015042Y025236D03*
X016288Y025719D03*
D97*
X016187Y025537D03*
X016479Y025377D03*
X016607Y025236D03*
X015837Y025236D03*
X015537Y025236D03*
X015417Y025537D03*
X015116Y025480D03*
X015168Y025236D03*
D98*
X015410Y025236D03*
X015966Y025381D03*
D99*
X015735Y025365D03*
X015661Y025329D03*
X015679Y025236D03*
X015691Y025455D03*
X015435Y025431D03*
X015988Y025812D03*
X016516Y025327D03*
X016518Y025329D03*
X016534Y025236D03*
X016761Y025455D03*
X016249Y027130D03*
X015160Y027124D03*
X014841Y025326D03*
D100*
X014846Y025332D03*
X015114Y025470D03*
X015152Y025725D03*
X015678Y025338D03*
X015671Y025245D03*
X016119Y025236D03*
X016284Y025743D03*
X016529Y025245D03*
X016974Y025236D03*
X016983Y025350D03*
D101*
X017043Y025312D03*
X016695Y025236D03*
X016419Y025452D03*
X016336Y025452D03*
X016186Y025536D03*
X016288Y025720D03*
X015972Y025792D03*
X015538Y025237D03*
X015417Y025536D03*
X014959Y025330D03*
D102*
X014844Y025329D03*
X014889Y025237D03*
X015114Y025471D03*
X015444Y025804D03*
X016285Y025741D03*
X016585Y025362D03*
X016533Y025240D03*
X016249Y027127D03*
X014662Y025471D03*
X014437Y025237D03*
D103*
X014640Y025237D03*
X015460Y025450D03*
X016548Y025434D03*
X016975Y025255D03*
X016246Y027111D03*
D104*
X015158Y027142D03*
X015149Y025704D03*
X015416Y025534D03*
X015624Y025377D03*
X015539Y025239D03*
X015839Y025237D03*
X016418Y025450D03*
X016608Y025237D03*
X015170Y025237D03*
X015042Y025237D03*
D105*
X015411Y025237D03*
X015966Y025383D03*
X016251Y025452D03*
X016821Y025381D03*
D106*
X016824Y025384D03*
X016824Y025386D03*
X016699Y025396D03*
X016699Y025398D03*
X016698Y025392D03*
X016698Y025390D03*
X016609Y025386D03*
X016609Y025384D03*
X016609Y025395D03*
X016609Y025396D03*
X016609Y025398D03*
X016609Y025339D03*
X016609Y025338D03*
X016609Y025336D03*
X016483Y025384D03*
X016483Y025386D03*
X016333Y025386D03*
X016333Y025387D03*
X016333Y025389D03*
X016333Y025390D03*
X016333Y025392D03*
X016333Y025395D03*
X016333Y025396D03*
X016333Y025398D03*
X016333Y025399D03*
X016333Y025401D03*
X016333Y025402D03*
X016333Y025404D03*
X016333Y025405D03*
X016333Y025407D03*
X016333Y025410D03*
X016333Y025411D03*
X016333Y025413D03*
X016333Y025414D03*
X016333Y025416D03*
X016333Y025417D03*
X016333Y025419D03*
X016333Y025420D03*
X016333Y025422D03*
X016333Y025425D03*
X016333Y025426D03*
X016333Y025428D03*
X016333Y025429D03*
X016333Y025431D03*
X016333Y025432D03*
X016333Y025434D03*
X016333Y025435D03*
X016333Y025437D03*
X016333Y025440D03*
X016333Y025441D03*
X016333Y025443D03*
X016333Y025444D03*
X016333Y025446D03*
X016333Y025447D03*
X016333Y025384D03*
X016333Y025383D03*
X016333Y025381D03*
X016333Y025380D03*
X016333Y025377D03*
X016333Y025375D03*
X016333Y025374D03*
X016333Y025372D03*
X016333Y025371D03*
X016333Y025369D03*
X016333Y025368D03*
X016333Y025366D03*
X016333Y025365D03*
X016333Y025362D03*
X016333Y025360D03*
X016333Y025359D03*
X016333Y025357D03*
X016333Y025356D03*
X016333Y025354D03*
X016249Y025354D03*
X016249Y025353D03*
X016249Y025351D03*
X016249Y025350D03*
X016249Y025347D03*
X016249Y025345D03*
X016249Y025344D03*
X016249Y025342D03*
X016249Y025341D03*
X016249Y025339D03*
X016249Y025338D03*
X016249Y025336D03*
X016249Y025335D03*
X016249Y025332D03*
X016249Y025330D03*
X016249Y025329D03*
X016249Y025327D03*
X016249Y025326D03*
X016249Y025324D03*
X016249Y025323D03*
X016249Y025321D03*
X016249Y025320D03*
X016249Y025317D03*
X016249Y025315D03*
X016249Y025314D03*
X016249Y025312D03*
X016249Y025311D03*
X016249Y025309D03*
X016249Y025308D03*
X016249Y025306D03*
X016249Y025305D03*
X016249Y025302D03*
X016249Y025300D03*
X016249Y025299D03*
X016249Y025297D03*
X016249Y025296D03*
X016249Y025294D03*
X016249Y025293D03*
X016249Y025291D03*
X016249Y025290D03*
X016249Y025287D03*
X016249Y025356D03*
X016249Y025357D03*
X016249Y025359D03*
X016249Y025360D03*
X016249Y025362D03*
X016249Y025365D03*
X016249Y025366D03*
X016249Y025368D03*
X016249Y025369D03*
X016249Y025371D03*
X016249Y025372D03*
X016249Y025374D03*
X016249Y025375D03*
X016249Y025377D03*
X016249Y025380D03*
X016249Y025381D03*
X016249Y025383D03*
X016249Y025384D03*
X016249Y025386D03*
X016249Y025387D03*
X016249Y025389D03*
X016249Y025390D03*
X016249Y025392D03*
X016249Y025395D03*
X016249Y025396D03*
X016249Y025398D03*
X016249Y025399D03*
X016249Y025401D03*
X016249Y025402D03*
X016249Y025404D03*
X016249Y025405D03*
X016249Y025407D03*
X016249Y025410D03*
X016249Y025411D03*
X016249Y025413D03*
X016249Y025414D03*
X016249Y025416D03*
X016249Y025417D03*
X016249Y025419D03*
X016249Y025420D03*
X016249Y025422D03*
X016249Y025425D03*
X016249Y025426D03*
X016249Y025428D03*
X016249Y025429D03*
X016249Y025431D03*
X016249Y025432D03*
X016249Y025434D03*
X016249Y025435D03*
X016249Y025437D03*
X016249Y025440D03*
X016249Y025441D03*
X016249Y025443D03*
X016249Y025444D03*
X016183Y025533D03*
X015969Y025392D03*
X015969Y025390D03*
X015841Y025245D03*
X015841Y025242D03*
X015753Y025237D03*
X015627Y025287D03*
X015627Y025290D03*
X015627Y025291D03*
X015627Y025384D03*
X015627Y025386D03*
X015627Y025387D03*
X015627Y025389D03*
X015628Y025395D03*
X015628Y025396D03*
X015630Y025398D03*
X015630Y025399D03*
X015540Y025395D03*
X015540Y025392D03*
X015540Y025390D03*
X015540Y025389D03*
X015540Y025387D03*
X015540Y025386D03*
X015540Y025384D03*
X015538Y025399D03*
X015414Y025387D03*
X015414Y025386D03*
X015414Y025384D03*
X015414Y025383D03*
X015414Y025381D03*
X015414Y025380D03*
X015414Y025377D03*
X015414Y025375D03*
X015414Y025374D03*
X015414Y025372D03*
X015414Y025371D03*
X015414Y025369D03*
X015414Y025368D03*
X015414Y025366D03*
X015414Y025365D03*
X015414Y025362D03*
X015414Y025360D03*
X015414Y025359D03*
X015414Y025357D03*
X015414Y025356D03*
X015414Y025354D03*
X015414Y025353D03*
X015414Y025351D03*
X015414Y025350D03*
X015414Y025347D03*
X015414Y025345D03*
X015414Y025344D03*
X015414Y025342D03*
X015414Y025341D03*
X015414Y025339D03*
X015414Y025338D03*
X015414Y025336D03*
X015414Y025335D03*
X015414Y025332D03*
X015414Y025330D03*
X015414Y025329D03*
X015414Y025327D03*
X015414Y025326D03*
X015414Y025324D03*
X015414Y025323D03*
X015414Y025321D03*
X015414Y025320D03*
X015414Y025317D03*
X015414Y025315D03*
X015414Y025314D03*
X015414Y025312D03*
X015414Y025311D03*
X015414Y025309D03*
X015414Y025308D03*
X015414Y025306D03*
X015414Y025305D03*
X015414Y025302D03*
X015414Y025300D03*
X015414Y025299D03*
X015414Y025297D03*
X015414Y025296D03*
X015414Y025294D03*
X015414Y025293D03*
X015414Y025291D03*
X015414Y025290D03*
X015414Y025287D03*
X015414Y025285D03*
X015414Y025284D03*
X015414Y025282D03*
X015414Y025281D03*
X015414Y025279D03*
X015414Y025278D03*
X015414Y025276D03*
X015414Y025275D03*
X015414Y025272D03*
X015414Y025270D03*
X015414Y025269D03*
X015414Y025267D03*
X015414Y025266D03*
X015414Y025264D03*
X015414Y025263D03*
X015414Y025261D03*
X015414Y025260D03*
X015414Y025257D03*
X015414Y025255D03*
X015414Y025254D03*
X015414Y025252D03*
X015414Y025251D03*
X015414Y025249D03*
X015414Y025248D03*
X015414Y025459D03*
X015414Y025461D03*
X015414Y025462D03*
X015414Y025464D03*
X015414Y025465D03*
X015414Y025467D03*
X015414Y025470D03*
X015414Y025471D03*
X015414Y025473D03*
X015414Y025474D03*
X015414Y025476D03*
X015414Y025477D03*
X015414Y025479D03*
X015414Y025480D03*
X015414Y025482D03*
X015414Y025485D03*
X015414Y025486D03*
X015414Y025488D03*
X015414Y025489D03*
X015414Y025491D03*
X015414Y025492D03*
X015414Y025494D03*
X015414Y025495D03*
X015414Y025497D03*
X015414Y025500D03*
X015414Y025501D03*
X015414Y025503D03*
X015414Y025504D03*
X015414Y025506D03*
X015414Y025507D03*
X015414Y025509D03*
X015414Y025510D03*
X015414Y025512D03*
X015414Y025515D03*
X015414Y025516D03*
X015414Y025518D03*
X015414Y025519D03*
X015414Y025521D03*
X015414Y025522D03*
X015414Y025525D03*
X015414Y025527D03*
X015414Y025530D03*
X015460Y025786D03*
X014889Y025479D03*
X014956Y025326D03*
X015043Y025239D03*
X015159Y027141D03*
X017037Y025396D03*
X017038Y025392D03*
X017038Y025390D03*
X017040Y025306D03*
X017040Y025305D03*
X017040Y025302D03*
X017040Y025300D03*
X017040Y025299D03*
X017038Y025297D03*
X017038Y025296D03*
X017038Y025294D03*
X017037Y025291D03*
D107*
X016975Y025452D03*
X016581Y025357D03*
X016525Y025251D03*
X016284Y025744D03*
X015904Y025452D03*
X015727Y025359D03*
X015691Y025452D03*
X015667Y025252D03*
X016119Y025237D03*
X015441Y025809D03*
X014928Y025380D03*
D108*
X014655Y025266D03*
X016332Y025237D03*
X015701Y027333D03*
D109*
X016249Y027129D03*
X016285Y025740D03*
X016161Y025431D03*
X016534Y025237D03*
X014616Y025275D03*
D110*
X014849Y025335D03*
X014888Y025242D03*
X015152Y025726D03*
X015440Y025810D03*
X015993Y025818D03*
X016518Y025260D03*
X016520Y025257D03*
X016523Y025254D03*
X016524Y025252D03*
X016974Y025237D03*
X015161Y027117D03*
D111*
X015441Y025806D03*
X014888Y025239D03*
X014663Y025470D03*
X014436Y025239D03*
X016583Y025360D03*
D112*
X015691Y025432D03*
X015462Y025447D03*
X014641Y025239D03*
X016246Y027109D03*
D113*
X016057Y025399D03*
X016057Y025398D03*
X015967Y025395D03*
X016056Y025296D03*
X016056Y025294D03*
X016057Y025291D03*
X016057Y025290D03*
X016251Y025285D03*
X016251Y025284D03*
X016416Y025287D03*
X015171Y025239D03*
D114*
X015676Y025239D03*
X015672Y025335D03*
X016528Y025335D03*
X016935Y025327D03*
D115*
X017036Y025290D03*
X017037Y025293D03*
X017039Y025389D03*
X017037Y025395D03*
X017036Y025398D03*
X017036Y025399D03*
X016824Y025389D03*
X016824Y025387D03*
X016608Y025383D03*
X016608Y025399D03*
X016608Y025401D03*
X016608Y025341D03*
X016484Y025387D03*
X016484Y025389D03*
X016484Y025390D03*
X016484Y025392D03*
X016485Y025398D03*
X016485Y025399D03*
X016485Y025401D03*
X016487Y025402D03*
X016487Y025404D03*
X016488Y025405D03*
X016332Y025353D03*
X016332Y025351D03*
X016332Y025350D03*
X016332Y025347D03*
X016332Y025345D03*
X016332Y025344D03*
X016332Y025342D03*
X016332Y025341D03*
X016332Y025339D03*
X016332Y025338D03*
X016332Y025332D03*
X016332Y025327D03*
X016332Y025326D03*
X016332Y025324D03*
X016332Y025321D03*
X016332Y025320D03*
X016332Y025317D03*
X016332Y025312D03*
X016332Y025309D03*
X016332Y025308D03*
X016332Y025306D03*
X016332Y025302D03*
X016332Y025297D03*
X016332Y025296D03*
X016332Y025294D03*
X016332Y025293D03*
X016332Y025291D03*
X016332Y025290D03*
X016182Y025302D03*
X016182Y025305D03*
X016182Y025306D03*
X016182Y025308D03*
X016182Y025311D03*
X016182Y025312D03*
X016182Y025315D03*
X016182Y025323D03*
X016182Y025324D03*
X016182Y025326D03*
X016182Y025327D03*
X016182Y025330D03*
X016182Y025335D03*
X016182Y025336D03*
X016182Y025338D03*
X016182Y025339D03*
X016182Y025341D03*
X016182Y025344D03*
X016182Y025345D03*
X016182Y025347D03*
X016182Y025351D03*
X016182Y025354D03*
X016182Y025356D03*
X016182Y025359D03*
X016182Y025362D03*
X016182Y025365D03*
X016182Y025366D03*
X016182Y025368D03*
X016182Y025369D03*
X016182Y025372D03*
X016182Y025374D03*
X016182Y025375D03*
X016182Y025377D03*
X016182Y025381D03*
X016182Y025383D03*
X016182Y025384D03*
X016182Y025386D03*
X016182Y025471D03*
X016182Y025473D03*
X016182Y025474D03*
X016182Y025476D03*
X016182Y025479D03*
X016182Y025480D03*
X016182Y025485D03*
X016182Y025488D03*
X016182Y025492D03*
X016182Y025494D03*
X016182Y025497D03*
X016182Y025500D03*
X016182Y025503D03*
X016182Y025504D03*
X016182Y025506D03*
X016182Y025509D03*
X016182Y025512D03*
X016182Y025515D03*
X016182Y025516D03*
X016182Y025518D03*
X016182Y025530D03*
X016182Y025531D03*
X016059Y025402D03*
X016059Y025285D03*
X016181Y025290D03*
X015842Y025290D03*
X015842Y025291D03*
X015842Y025293D03*
X015842Y025294D03*
X015842Y025296D03*
X015842Y025297D03*
X015842Y025299D03*
X015842Y025300D03*
X015842Y025302D03*
X015842Y025305D03*
X015842Y025306D03*
X015842Y025308D03*
X015842Y025309D03*
X015842Y025311D03*
X015842Y025312D03*
X015842Y025314D03*
X015842Y025315D03*
X015842Y025317D03*
X015842Y025320D03*
X015842Y025321D03*
X015842Y025323D03*
X015842Y025324D03*
X015842Y025326D03*
X015842Y025327D03*
X015842Y025329D03*
X015842Y025330D03*
X015842Y025332D03*
X015842Y025335D03*
X015842Y025336D03*
X015842Y025338D03*
X015842Y025339D03*
X015842Y025341D03*
X015842Y025342D03*
X015842Y025344D03*
X015842Y025345D03*
X015842Y025347D03*
X015842Y025350D03*
X015842Y025351D03*
X015842Y025353D03*
X015842Y025354D03*
X015842Y025356D03*
X015842Y025357D03*
X015842Y025359D03*
X015842Y025360D03*
X015842Y025362D03*
X015842Y025365D03*
X015842Y025366D03*
X015842Y025368D03*
X015842Y025369D03*
X015842Y025371D03*
X015842Y025372D03*
X015842Y025374D03*
X015842Y025375D03*
X015842Y025377D03*
X015842Y025380D03*
X015842Y025381D03*
X015842Y025383D03*
X015842Y025384D03*
X015842Y025386D03*
X015842Y025387D03*
X015842Y025389D03*
X015842Y025287D03*
X015842Y025285D03*
X015842Y025284D03*
X015842Y025282D03*
X015842Y025281D03*
X015842Y025279D03*
X015842Y025278D03*
X015842Y025276D03*
X015842Y025275D03*
X015842Y025272D03*
X015842Y025270D03*
X015842Y025269D03*
X015842Y025267D03*
X015842Y025266D03*
X015842Y025264D03*
X015842Y025263D03*
X015842Y025261D03*
X015842Y025260D03*
X015842Y025257D03*
X015842Y025255D03*
X015842Y025254D03*
X015842Y025252D03*
X015842Y025251D03*
X015842Y025249D03*
X015842Y025248D03*
X015842Y025246D03*
X015753Y025240D03*
X015753Y025239D03*
X015627Y025284D03*
X015627Y025285D03*
X015627Y025293D03*
X015627Y025294D03*
X015630Y025401D03*
X015539Y025398D03*
X015539Y025396D03*
X015537Y025401D03*
X015414Y025398D03*
X015414Y025396D03*
X015414Y025395D03*
X015414Y025392D03*
X015414Y025390D03*
X015414Y025389D03*
X015414Y025458D03*
X015149Y025705D03*
X015974Y025794D03*
D116*
X016284Y025746D03*
X016119Y025239D03*
X015438Y025812D03*
X015152Y025728D03*
X014925Y025377D03*
X015690Y027334D03*
X016248Y027123D03*
X016974Y025450D03*
X016974Y025239D03*
D117*
X016332Y025239D03*
D118*
X014436Y025240D03*
D119*
X014642Y025240D03*
X014661Y025452D03*
X015114Y025452D03*
X015155Y025743D03*
X015905Y025432D03*
X016134Y025447D03*
X016007Y025837D03*
X016976Y025432D03*
D120*
X016938Y025332D03*
X016542Y025342D03*
X016526Y025249D03*
X016527Y025248D03*
X015728Y025360D03*
X015683Y025341D03*
X015668Y025251D03*
X015668Y025249D03*
X015669Y025248D03*
X014888Y025240D03*
X016248Y027124D03*
D121*
X016251Y027145D03*
X015413Y025524D03*
X015171Y025240D03*
X015966Y025396D03*
X015966Y025398D03*
X016055Y025392D03*
X016055Y025390D03*
X016055Y025389D03*
X016055Y025387D03*
X016055Y025386D03*
X016055Y025384D03*
X016056Y025395D03*
X016056Y025396D03*
X016058Y025401D03*
X016055Y025305D03*
X016055Y025302D03*
X016055Y025300D03*
X016055Y025299D03*
X016055Y025297D03*
X016056Y025293D03*
X016058Y025287D03*
X016251Y025282D03*
X016251Y025281D03*
X016415Y025284D03*
X016415Y025285D03*
X016700Y025399D03*
X016700Y025401D03*
X016701Y025402D03*
D122*
X016532Y025242D03*
X016992Y025354D03*
X015992Y025815D03*
X015675Y025240D03*
X015161Y027121D03*
D123*
X015114Y025465D03*
X014436Y025465D03*
X015905Y025449D03*
X016119Y025240D03*
X016761Y025449D03*
X016974Y025449D03*
X016974Y025240D03*
D124*
X016332Y025240D03*
X015156Y025755D03*
D125*
X015666Y025254D03*
X016521Y025255D03*
X016761Y025452D03*
X014436Y025242D03*
D126*
X014643Y025242D03*
X014887Y025260D03*
X014869Y025353D03*
X014889Y025450D03*
X015427Y025827D03*
X016134Y025446D03*
X016281Y025762D03*
X016246Y027108D03*
D127*
X016181Y025458D03*
X016181Y025456D03*
X016181Y025402D03*
X016062Y025410D03*
X016061Y025407D03*
X016061Y025405D03*
X016061Y025282D03*
X016332Y025282D03*
X016332Y025281D03*
X016332Y025284D03*
X016332Y025285D03*
X016484Y025285D03*
X016484Y025284D03*
X016484Y025282D03*
X016484Y025281D03*
X016484Y025279D03*
X016485Y025276D03*
X016484Y025287D03*
X016484Y025290D03*
X016484Y025291D03*
X016484Y025293D03*
X016484Y025294D03*
X016484Y025296D03*
X016484Y025297D03*
X016484Y025299D03*
X016607Y025380D03*
X016605Y025407D03*
X016604Y025410D03*
X016916Y025407D03*
X016917Y025410D03*
X017037Y025386D03*
X015752Y025401D03*
X015752Y025402D03*
X015752Y025404D03*
X015750Y025405D03*
X015750Y025407D03*
X015632Y025407D03*
X015632Y025405D03*
X015536Y025404D03*
X015416Y025404D03*
X015416Y025405D03*
X015629Y025299D03*
X015630Y025300D03*
X015630Y025302D03*
X015629Y025279D03*
X015630Y025278D03*
X015630Y025276D03*
X015045Y025242D03*
X014954Y025323D03*
D128*
X015676Y025336D03*
X015730Y025362D03*
X015675Y025242D03*
X016533Y025336D03*
X016936Y025329D03*
X016998Y025356D03*
X017008Y025362D03*
D129*
X017034Y025284D03*
X016912Y025294D03*
X016912Y025296D03*
X016912Y025297D03*
X016912Y025299D03*
X016912Y025300D03*
X016912Y025302D03*
X016912Y025356D03*
X016912Y025357D03*
X016912Y025359D03*
X016912Y025360D03*
X016912Y025362D03*
X016912Y025365D03*
X016912Y025366D03*
X016912Y025368D03*
X016912Y025369D03*
X016912Y025371D03*
X016912Y025372D03*
X016912Y025374D03*
X016912Y025375D03*
X016912Y025377D03*
X016912Y025380D03*
X016912Y025381D03*
X016912Y025383D03*
X016912Y025384D03*
X016912Y025386D03*
X016912Y025387D03*
X016912Y025389D03*
X016912Y025390D03*
X016912Y025392D03*
X016912Y025395D03*
X016914Y025399D03*
X016914Y025401D03*
X016914Y025402D03*
X016824Y025396D03*
X016824Y025395D03*
X016824Y025392D03*
X016824Y025390D03*
X016822Y025402D03*
X016702Y025404D03*
X016702Y025405D03*
X016491Y025410D03*
X016489Y025407D03*
X016414Y025282D03*
X016414Y025281D03*
X016414Y025279D03*
X016252Y025279D03*
X016252Y025278D03*
X016252Y025276D03*
X016179Y025284D03*
X016179Y025285D03*
X016054Y025306D03*
X016054Y025308D03*
X016054Y025309D03*
X016054Y025311D03*
X016054Y025312D03*
X016054Y025314D03*
X016054Y025315D03*
X016054Y025317D03*
X016054Y025320D03*
X016054Y025321D03*
X016054Y025323D03*
X016054Y025324D03*
X016054Y025326D03*
X016054Y025327D03*
X016054Y025329D03*
X016054Y025330D03*
X016054Y025332D03*
X016054Y025335D03*
X016054Y025336D03*
X016054Y025338D03*
X016054Y025339D03*
X016054Y025341D03*
X016054Y025342D03*
X016054Y025344D03*
X016054Y025345D03*
X016054Y025347D03*
X016054Y025350D03*
X016054Y025351D03*
X016054Y025353D03*
X016054Y025354D03*
X016054Y025356D03*
X016054Y025357D03*
X016054Y025359D03*
X016054Y025360D03*
X016054Y025362D03*
X016054Y025365D03*
X016054Y025366D03*
X016054Y025368D03*
X016054Y025369D03*
X016054Y025371D03*
X016054Y025372D03*
X016054Y025374D03*
X016054Y025375D03*
X016054Y025377D03*
X016054Y025380D03*
X016054Y025381D03*
X016054Y025383D03*
X015966Y025399D03*
X015966Y025401D03*
X015964Y025402D03*
X015964Y025404D03*
X015844Y025404D03*
X015754Y025392D03*
X015754Y025390D03*
X015754Y025389D03*
X015754Y025387D03*
X015754Y025386D03*
X015754Y025332D03*
X015754Y025330D03*
X015754Y025329D03*
X015754Y025327D03*
X015754Y025326D03*
X015754Y025324D03*
X015754Y025323D03*
X015754Y025321D03*
X015754Y025320D03*
X015754Y025317D03*
X015754Y025315D03*
X015754Y025314D03*
X015754Y025312D03*
X015754Y025311D03*
X015754Y025309D03*
X015754Y025308D03*
X015754Y025306D03*
X015754Y025305D03*
X015754Y025302D03*
X015754Y025300D03*
X015754Y025299D03*
X015754Y025297D03*
X015754Y025296D03*
X015754Y025294D03*
X015754Y025293D03*
X015754Y025291D03*
X015754Y025290D03*
X015754Y025287D03*
X015754Y025285D03*
X015754Y025284D03*
X015754Y025282D03*
X015754Y025281D03*
X015754Y025279D03*
X015754Y025278D03*
X015754Y025276D03*
X015754Y025275D03*
X015754Y025272D03*
X015754Y025270D03*
X015754Y025269D03*
X015754Y025267D03*
X015754Y025266D03*
X015754Y025264D03*
X015754Y025263D03*
X015754Y025261D03*
X015754Y025260D03*
X015754Y025257D03*
X015754Y025255D03*
X015754Y025254D03*
X015754Y025252D03*
X015754Y025251D03*
X015754Y025249D03*
X015754Y025248D03*
X015754Y025246D03*
X015754Y025245D03*
X015754Y025242D03*
X014662Y025479D03*
X014437Y025479D03*
X015159Y027139D03*
D130*
X016283Y025749D03*
X015905Y025447D03*
X016119Y025242D03*
X016761Y025447D03*
X016974Y025447D03*
X014888Y025245D03*
X014663Y025464D03*
D131*
X014886Y025368D03*
X016278Y025776D03*
X016332Y025242D03*
D132*
X016548Y025447D03*
X016284Y025747D03*
X015996Y025822D03*
X015723Y025354D03*
X015153Y025731D03*
X016248Y027121D03*
X016974Y025242D03*
D133*
X014887Y025243D03*
X014437Y025243D03*
D134*
X014643Y025243D03*
X015426Y025828D03*
D135*
X015632Y025273D03*
X015174Y025243D03*
X015047Y025243D03*
X016172Y025273D03*
X016487Y025273D03*
X016922Y025273D03*
X017028Y025273D03*
D136*
X016697Y025273D03*
X016697Y025258D03*
X016697Y025243D03*
X016697Y025288D03*
X016697Y025303D03*
X016697Y025318D03*
X016697Y025333D03*
X016697Y025348D03*
X016697Y025363D03*
X016697Y025378D03*
X016610Y025393D03*
X016610Y025333D03*
X016610Y025318D03*
X016610Y025303D03*
X016610Y025288D03*
X016610Y025273D03*
X016610Y025258D03*
X016610Y025243D03*
X015540Y025258D03*
X015540Y025273D03*
X015540Y025288D03*
X015540Y025303D03*
X015540Y025318D03*
X015540Y025333D03*
X015540Y025348D03*
X015540Y025363D03*
X015540Y025378D03*
X015413Y025243D03*
D137*
X015540Y025243D03*
X015625Y025378D03*
D138*
X015673Y025243D03*
X016530Y025243D03*
D139*
X016824Y025393D03*
X016912Y025393D03*
X016912Y025378D03*
X016912Y025363D03*
X016914Y025288D03*
X016054Y025318D03*
X016054Y025333D03*
X016054Y025348D03*
X016054Y025363D03*
X016054Y025378D03*
X015754Y025393D03*
X015754Y025333D03*
X015754Y025318D03*
X015754Y025303D03*
X015754Y025288D03*
X015754Y025273D03*
X015754Y025258D03*
X015754Y025243D03*
D140*
X015841Y025243D03*
X015627Y025288D03*
X015628Y025393D03*
X015540Y025393D03*
X015414Y025378D03*
X015414Y025363D03*
X015414Y025348D03*
X015414Y025333D03*
X015414Y025318D03*
X015414Y025303D03*
X015414Y025288D03*
X015414Y025273D03*
X015414Y025258D03*
X015414Y025468D03*
X015414Y025483D03*
X015414Y025498D03*
X015414Y025513D03*
X015414Y025528D03*
X016249Y025438D03*
X016249Y025423D03*
X016249Y025408D03*
X016249Y025393D03*
X016249Y025378D03*
X016249Y025363D03*
X016249Y025348D03*
X016249Y025333D03*
X016249Y025318D03*
X016249Y025303D03*
X016249Y025288D03*
X016333Y025363D03*
X016333Y025378D03*
X016333Y025393D03*
X016333Y025408D03*
X016333Y025423D03*
X016333Y025438D03*
X016698Y025393D03*
X017040Y025303D03*
D141*
X016974Y025243D03*
X016119Y025243D03*
D142*
X016332Y025243D03*
D143*
X016548Y025446D03*
X016284Y025750D03*
X015691Y025446D03*
X015114Y025464D03*
X014889Y025464D03*
X014854Y025338D03*
X014437Y025245D03*
X014437Y025464D03*
X015162Y027114D03*
X016248Y027120D03*
X016975Y025446D03*
X016945Y025336D03*
D144*
X016281Y025764D03*
X016131Y025443D03*
X015465Y025441D03*
X015114Y025449D03*
X014889Y025447D03*
X014871Y025354D03*
X014888Y025263D03*
X014645Y025245D03*
X014663Y025447D03*
X014663Y025449D03*
X014436Y025261D03*
X015155Y025744D03*
X015425Y025830D03*
D145*
X015153Y025734D03*
X015114Y025462D03*
X014857Y025342D03*
X014437Y025246D03*
X014437Y025462D03*
X015691Y025443D03*
X015904Y025444D03*
X016119Y025245D03*
X015999Y025825D03*
X016572Y025351D03*
X016761Y025444D03*
X016248Y027117D03*
D146*
X015165Y027085D03*
X016332Y025245D03*
D147*
X016283Y025752D03*
X016947Y025338D03*
X016974Y025245D03*
X014919Y025372D03*
X014856Y025341D03*
X014888Y025246D03*
X014889Y025462D03*
X014663Y025462D03*
D148*
X014647Y025246D03*
X014874Y025356D03*
X015114Y025444D03*
X015468Y025437D03*
X016281Y025765D03*
D149*
X015993Y025816D03*
X015670Y025246D03*
X014929Y025381D03*
X014889Y025470D03*
X016528Y025246D03*
X016539Y025341D03*
X016548Y025452D03*
X016938Y025330D03*
X017004Y025359D03*
X017005Y025360D03*
X015160Y027120D03*
D150*
X016000Y025827D03*
X016119Y025246D03*
X016570Y025350D03*
X016761Y025443D03*
X014917Y025371D03*
X014859Y025344D03*
X014889Y025461D03*
X014437Y025461D03*
D151*
X016278Y025780D03*
X016332Y025246D03*
D152*
X016548Y025443D03*
X016976Y025443D03*
X016974Y025246D03*
X014888Y025248D03*
D153*
X014888Y025249D03*
X014915Y025369D03*
X014889Y025459D03*
X015114Y025461D03*
X015153Y025735D03*
X014663Y025461D03*
X014436Y025248D03*
X015905Y025443D03*
X016548Y025441D03*
D154*
X016128Y025437D03*
X015468Y025435D03*
X015468Y025434D03*
X015114Y025443D03*
X014889Y025444D03*
X014888Y025266D03*
X014648Y025248D03*
X014663Y025443D03*
X014436Y025444D03*
X014436Y025264D03*
D155*
X016119Y025248D03*
X016569Y025347D03*
X016761Y025441D03*
X016974Y025248D03*
D156*
X016333Y025248D03*
X016243Y027091D03*
D157*
X016283Y025755D03*
X015905Y025441D03*
X014888Y025251D03*
X014663Y025459D03*
X014436Y025459D03*
X014436Y025249D03*
D158*
X014437Y025266D03*
X014437Y025443D03*
X014662Y025441D03*
X014649Y025249D03*
X014889Y025443D03*
X015156Y025747D03*
X015469Y025432D03*
D159*
X015748Y025375D03*
X015178Y025375D03*
X015178Y025374D03*
X015178Y025372D03*
X015178Y025371D03*
X015178Y025369D03*
X015178Y025368D03*
X015178Y025366D03*
X015178Y025365D03*
X015178Y025362D03*
X015178Y025360D03*
X015178Y025359D03*
X015178Y025357D03*
X015178Y025356D03*
X015178Y025354D03*
X015178Y025353D03*
X015178Y025351D03*
X015178Y025350D03*
X015178Y025347D03*
X015178Y025345D03*
X015178Y025344D03*
X015178Y025342D03*
X015178Y025341D03*
X015178Y025339D03*
X015178Y025338D03*
X015178Y025336D03*
X015178Y025335D03*
X015178Y025332D03*
X015178Y025330D03*
X015178Y025329D03*
X015178Y025327D03*
X015178Y025326D03*
X015178Y025324D03*
X015178Y025323D03*
X015178Y025321D03*
X015178Y025320D03*
X015178Y025317D03*
X015178Y025315D03*
X015178Y025314D03*
X015178Y025312D03*
X015178Y025311D03*
X015178Y025309D03*
X015178Y025308D03*
X015178Y025306D03*
X015178Y025305D03*
X015178Y025302D03*
X015178Y025300D03*
X015178Y025299D03*
X015178Y025297D03*
X015178Y025296D03*
X015178Y025294D03*
X015178Y025293D03*
X015178Y025291D03*
X015178Y025290D03*
X015178Y025287D03*
X015178Y025285D03*
X015178Y025284D03*
X015178Y025282D03*
X015178Y025281D03*
X015178Y025279D03*
X015178Y025278D03*
X015178Y025276D03*
X015178Y025275D03*
X015178Y025272D03*
X015178Y025270D03*
X015178Y025269D03*
X015178Y025267D03*
X015178Y025266D03*
X015178Y025264D03*
X015178Y025263D03*
X015178Y025261D03*
X015178Y025260D03*
X015178Y025257D03*
X015178Y025255D03*
X015178Y025254D03*
X015178Y025252D03*
X015178Y025251D03*
X015178Y025249D03*
X015178Y025377D03*
X015178Y025380D03*
X015178Y025381D03*
X015178Y025383D03*
X015178Y025384D03*
X015178Y025386D03*
X015178Y025387D03*
X015178Y025389D03*
X015178Y025390D03*
X015178Y025392D03*
X015178Y025395D03*
X015178Y025396D03*
X015178Y025398D03*
X015178Y025399D03*
X015178Y025401D03*
X015178Y025402D03*
X016918Y025314D03*
D160*
X016974Y025249D03*
X016975Y025440D03*
X016548Y025440D03*
X016119Y025249D03*
X015714Y025347D03*
X015432Y025821D03*
X015154Y025737D03*
X014862Y025345D03*
X016002Y025831D03*
X016246Y027114D03*
D161*
X015165Y027084D03*
X016278Y025782D03*
X016332Y025249D03*
D162*
X014436Y025251D03*
X014436Y025458D03*
D163*
X014649Y025252D03*
X014649Y025251D03*
X014876Y025357D03*
X015114Y025441D03*
X016127Y025432D03*
X015164Y027096D03*
D164*
X015432Y025822D03*
X015114Y025456D03*
X015712Y025345D03*
X016119Y025251D03*
X016282Y025756D03*
X016003Y025833D03*
X016954Y025345D03*
X016974Y025252D03*
X014662Y025456D03*
D165*
X015157Y025762D03*
X016333Y025251D03*
X016243Y027090D03*
D166*
X015162Y027106D03*
X015114Y025458D03*
X014889Y025456D03*
X014888Y025252D03*
X015692Y025437D03*
X015905Y025440D03*
X016974Y025251D03*
D167*
X016761Y025437D03*
X014436Y025456D03*
X014436Y025252D03*
D168*
X016332Y025254D03*
X016332Y025252D03*
X015165Y027082D03*
D169*
X016281Y025759D03*
X015905Y025435D03*
X015710Y025344D03*
X014888Y025255D03*
X014436Y025254D03*
D170*
X014650Y025254D03*
X014889Y025440D03*
X014889Y025441D03*
X015115Y025440D03*
D171*
X014889Y025455D03*
X014864Y025347D03*
X014888Y025254D03*
X015692Y025435D03*
X015905Y025437D03*
X016548Y025437D03*
X016565Y025344D03*
X016974Y025254D03*
X016976Y025437D03*
D172*
X016957Y025347D03*
X016761Y025434D03*
X016119Y025254D03*
X015154Y025741D03*
X014437Y025255D03*
D173*
X014438Y025269D03*
X014651Y025255D03*
X014888Y025270D03*
X014888Y025272D03*
X014877Y025359D03*
D174*
X014662Y025467D03*
X015666Y025255D03*
X015726Y025357D03*
D175*
X015708Y025342D03*
X016119Y025257D03*
X016119Y025255D03*
X016135Y025449D03*
X016761Y025432D03*
X016975Y025257D03*
X014889Y025452D03*
X014868Y025351D03*
X014437Y025257D03*
X014437Y025452D03*
D176*
X016332Y025255D03*
D177*
X016280Y025770D03*
X015114Y025437D03*
X014889Y025435D03*
X014652Y025257D03*
D178*
X014888Y025257D03*
X015428Y025825D03*
X015905Y025434D03*
X016281Y025761D03*
X016548Y025432D03*
D179*
X016548Y025450D03*
X016579Y025356D03*
X015994Y025819D03*
X015691Y025450D03*
X015664Y025257D03*
X015114Y025467D03*
X014889Y025467D03*
D180*
X016332Y025257D03*
D181*
X016119Y025258D03*
X016975Y025258D03*
X014437Y025258D03*
D182*
X014653Y025258D03*
D183*
X014888Y025258D03*
D184*
X014949Y025303D03*
X015050Y025303D03*
X015050Y025288D03*
X015050Y025273D03*
X015050Y025258D03*
X015050Y025318D03*
X015050Y025333D03*
X015050Y025348D03*
X015050Y025363D03*
X015050Y025378D03*
X015050Y025393D03*
X015053Y025408D03*
X014726Y025303D03*
X014600Y025303D03*
X014499Y025318D03*
X014499Y025333D03*
X014499Y025348D03*
X014499Y025363D03*
X014499Y025378D03*
X014499Y025393D03*
X015738Y025423D03*
X015857Y025423D03*
X016071Y025423D03*
X016595Y025423D03*
X016928Y025423D03*
X017022Y025423D03*
D185*
X015178Y025393D03*
X015178Y025378D03*
X015178Y025363D03*
X015178Y025348D03*
X015178Y025333D03*
X015178Y025318D03*
X015178Y025303D03*
X015178Y025288D03*
X015178Y025273D03*
X015178Y025258D03*
D186*
X015663Y025258D03*
D187*
X015842Y025258D03*
X015842Y025273D03*
X015842Y025288D03*
X015842Y025303D03*
X015842Y025318D03*
X015842Y025333D03*
X015842Y025348D03*
X015842Y025363D03*
X015842Y025378D03*
X016182Y025378D03*
X016182Y025363D03*
X016182Y025348D03*
X016182Y025333D03*
X016182Y025318D03*
X016182Y025303D03*
X016332Y025303D03*
X016332Y025348D03*
X016182Y025483D03*
X016182Y025498D03*
X016182Y025513D03*
X016182Y025528D03*
X017037Y025393D03*
X017036Y025288D03*
X015414Y025393D03*
D188*
X016333Y025258D03*
D189*
X016520Y025258D03*
X016940Y025333D03*
X015114Y025468D03*
X014927Y025378D03*
D190*
X014889Y025449D03*
X014888Y025261D03*
X014663Y025450D03*
X014436Y025450D03*
X014436Y025260D03*
X015114Y025450D03*
X016007Y025839D03*
X016133Y025444D03*
D191*
X015114Y025435D03*
X014654Y025261D03*
X014654Y025260D03*
D192*
X014605Y025287D03*
X014491Y025285D03*
X014490Y025284D03*
X014383Y025285D03*
X014383Y025425D03*
X014488Y025426D03*
X014611Y025426D03*
X014715Y025426D03*
X014835Y025425D03*
X014835Y025284D03*
X014940Y025282D03*
X015514Y025429D03*
X015654Y025429D03*
X015691Y025461D03*
X015643Y025317D03*
X015645Y025260D03*
X015865Y025428D03*
X015945Y025428D03*
X016080Y025261D03*
X016159Y025261D03*
X016585Y025428D03*
X016722Y025428D03*
X016801Y025428D03*
X016935Y025428D03*
X017014Y025428D03*
X017028Y025375D03*
X015160Y027132D03*
D193*
X015696Y025260D03*
X016821Y025380D03*
D194*
X016332Y025260D03*
X016242Y027085D03*
D195*
X015150Y025713D03*
X014833Y025422D03*
X014832Y025420D03*
X014716Y025425D03*
X014716Y025284D03*
X014943Y025285D03*
X014493Y025422D03*
X014380Y025290D03*
X015642Y025261D03*
X015733Y025426D03*
X016080Y025428D03*
X016173Y025422D03*
X016548Y025461D03*
D196*
X016589Y025426D03*
X016499Y025261D03*
X016332Y025266D03*
X016076Y025263D03*
X015947Y025426D03*
X015746Y025374D03*
X015641Y025315D03*
X015477Y025461D03*
X015059Y025422D03*
X014831Y025419D03*
X014831Y025290D03*
X014717Y025285D03*
X014606Y025419D03*
X014607Y025420D03*
X014607Y025422D03*
X014381Y025422D03*
X016287Y025729D03*
X016932Y025426D03*
X016920Y025315D03*
D197*
X017016Y025261D03*
X017029Y025377D03*
X017017Y025426D03*
X016974Y025461D03*
X016804Y025426D03*
X016119Y025461D03*
X015904Y025461D03*
X015862Y025426D03*
X015981Y025803D03*
X015454Y025794D03*
X015424Y025422D03*
X014946Y025417D03*
X014944Y025420D03*
X014944Y025287D03*
X014604Y025291D03*
X014604Y025293D03*
X014494Y025291D03*
X014494Y025290D03*
X014494Y025419D03*
X014494Y025420D03*
D198*
X014436Y025446D03*
X014436Y025263D03*
X014663Y025444D03*
X014663Y025446D03*
X014889Y025446D03*
X014888Y025264D03*
X015114Y025446D03*
X015155Y025746D03*
X016130Y025440D03*
D199*
X014655Y025264D03*
X014655Y025263D03*
X015165Y027093D03*
X016245Y027099D03*
D200*
X016250Y027138D03*
X016173Y025420D03*
X016163Y025263D03*
X016508Y025428D03*
X016719Y025426D03*
X015173Y025416D03*
X015171Y025419D03*
X015171Y025420D03*
X015170Y025422D03*
X014946Y025416D03*
X014946Y025395D03*
X014829Y025315D03*
X014718Y025287D03*
X014603Y025294D03*
X014604Y025416D03*
X014495Y025417D03*
X014436Y025476D03*
X014379Y025291D03*
X014718Y025422D03*
D201*
X015419Y025413D03*
X015419Y025411D03*
X015854Y025419D03*
X016409Y025264D03*
X016709Y025417D03*
D202*
X016704Y025411D03*
X016704Y025410D03*
X016818Y025411D03*
X016819Y025410D03*
X016914Y025351D03*
X016914Y025306D03*
X016915Y025284D03*
X016915Y025282D03*
X017031Y025275D03*
X017032Y025278D03*
X017034Y025407D03*
X017032Y025410D03*
X017032Y025411D03*
X016494Y025414D03*
X016492Y025413D03*
X016413Y025272D03*
X016413Y025270D03*
X016413Y025269D03*
X016255Y025266D03*
X016254Y025267D03*
X016254Y025269D03*
X016176Y025279D03*
X016174Y025278D03*
X016174Y025276D03*
X016180Y025404D03*
X016180Y025405D03*
X015963Y025410D03*
X015849Y025411D03*
X015847Y025410D03*
X015753Y025383D03*
X015753Y025339D03*
X015753Y025338D03*
X015634Y025411D03*
X015534Y025410D03*
X015532Y025413D03*
X015159Y027138D03*
X016251Y027144D03*
D203*
X015975Y025795D03*
X016064Y025414D03*
X016064Y025275D03*
X016332Y025275D03*
X016410Y025266D03*
X016602Y025414D03*
X016814Y025416D03*
X016815Y025414D03*
X016917Y025279D03*
X016919Y025278D03*
X016920Y025276D03*
X016920Y025275D03*
X015149Y025707D03*
X014952Y025321D03*
X014952Y025320D03*
D204*
X014662Y025440D03*
X014437Y025440D03*
X014437Y025441D03*
X014437Y025267D03*
X015156Y025749D03*
X016011Y025846D03*
D205*
X016245Y027097D03*
X015165Y027091D03*
X014656Y025269D03*
X014656Y025267D03*
D206*
X014888Y025267D03*
X014888Y025269D03*
X016010Y025845D03*
X016280Y025767D03*
D207*
X015958Y025416D03*
X015960Y025414D03*
X015853Y025417D03*
X016333Y025272D03*
X016605Y025377D03*
X016813Y025417D03*
X017023Y025267D03*
X017025Y025269D03*
X015418Y025410D03*
D208*
X015149Y025710D03*
X016169Y025269D03*
D209*
X015156Y025750D03*
X014889Y025437D03*
X014878Y025360D03*
X014437Y025437D03*
X014437Y025272D03*
X014437Y025270D03*
X015165Y027094D03*
X016245Y027102D03*
D210*
X014883Y025365D03*
X014657Y025270D03*
D211*
X014658Y025272D03*
X016279Y025774D03*
D212*
X014437Y025273D03*
D213*
X014658Y025273D03*
D214*
X014888Y025273D03*
D215*
X016065Y025273D03*
D216*
X016253Y025273D03*
X016413Y025273D03*
X016490Y025408D03*
X016703Y025408D03*
X016820Y025408D03*
X016913Y025303D03*
X015846Y025408D03*
X015633Y025408D03*
X015534Y025408D03*
D217*
X015417Y025408D03*
X016332Y025273D03*
X016605Y025378D03*
D218*
X016929Y025323D03*
X015906Y025456D03*
X015738Y025368D03*
X015157Y025434D03*
X014931Y025434D03*
X014838Y025324D03*
X014706Y025275D03*
X014395Y025275D03*
X014394Y025434D03*
X015160Y027126D03*
D219*
X015449Y025800D03*
X015150Y025717D03*
X014939Y025390D03*
X014846Y025275D03*
X014610Y025281D03*
X015431Y025428D03*
X015477Y025456D03*
X016286Y025735D03*
X016547Y025456D03*
X016592Y025366D03*
D220*
X015987Y025809D03*
X015691Y025456D03*
X014938Y025389D03*
X014847Y025434D03*
X014611Y025279D03*
D221*
X014493Y025288D03*
X014382Y025288D03*
X014382Y025423D03*
X014608Y025423D03*
X014832Y025288D03*
D222*
X014719Y025288D03*
D223*
X014945Y025288D03*
X015168Y025423D03*
X015159Y027133D03*
X017030Y025378D03*
D224*
X016058Y025288D03*
X016055Y025303D03*
D225*
X016180Y025288D03*
X016182Y025393D03*
X016182Y025468D03*
X016332Y025333D03*
X016332Y025318D03*
X016332Y025288D03*
X016485Y025393D03*
X016288Y025723D03*
X015843Y025393D03*
D226*
X016416Y025393D03*
X016416Y025378D03*
X016416Y025363D03*
X016416Y025348D03*
X016416Y025333D03*
X016416Y025318D03*
X016416Y025303D03*
X016416Y025288D03*
X016416Y025408D03*
X016416Y025423D03*
X016416Y025438D03*
D227*
X016484Y025288D03*
X016916Y025408D03*
X015749Y025408D03*
D228*
X015631Y025303D03*
X016062Y025408D03*
X016486Y025303D03*
X016605Y025408D03*
D229*
X016502Y025318D03*
X014832Y025318D03*
D230*
X014824Y025378D03*
X014952Y025318D03*
X016179Y025408D03*
D231*
X015645Y025318D03*
D232*
X016925Y025318D03*
D233*
X017049Y025318D03*
D234*
X017049Y025320D03*
X016254Y027153D03*
D235*
X015987Y025810D03*
X015447Y025801D03*
X015150Y025719D03*
X015072Y025434D03*
X014937Y025387D03*
X015432Y025429D03*
X015657Y025326D03*
X016590Y025365D03*
D236*
X016513Y025326D03*
X015660Y025327D03*
D237*
X016933Y025326D03*
D238*
X014931Y025383D03*
X014888Y025471D03*
X014844Y025330D03*
X014436Y025471D03*
D239*
X014661Y025480D03*
X014961Y025332D03*
X015622Y025375D03*
X015966Y025380D03*
D240*
X014847Y025333D03*
X014663Y025468D03*
X015161Y027118D03*
D241*
X014962Y025333D03*
D242*
X015668Y025333D03*
D243*
X016524Y025333D03*
X016587Y025363D03*
D244*
X016942Y025335D03*
X015994Y025821D03*
X015724Y025356D03*
X014889Y025465D03*
X014662Y025465D03*
D245*
X014852Y025336D03*
X015161Y027115D03*
D246*
X015441Y025807D03*
X015681Y025339D03*
X016536Y025338D03*
X016537Y025339D03*
X016582Y025359D03*
X017001Y025357D03*
X014437Y025470D03*
D247*
X014856Y025339D03*
X015435Y025815D03*
X015691Y025444D03*
X015720Y025353D03*
X015997Y025824D03*
X016548Y025444D03*
X016975Y025444D03*
X015162Y027112D03*
D248*
X016948Y025339D03*
D249*
X016949Y025341D03*
X015717Y025351D03*
X015434Y025816D03*
D250*
X015434Y025818D03*
X015692Y025441D03*
X015716Y025350D03*
X016950Y025342D03*
X016247Y027115D03*
X015162Y027109D03*
D251*
X015162Y027108D03*
X016001Y025830D03*
X015692Y025440D03*
X015114Y025459D03*
X014889Y025458D03*
X016952Y025344D03*
D252*
X016761Y025440D03*
X016567Y025345D03*
X015456Y025455D03*
X014662Y025458D03*
D253*
X014865Y025348D03*
D254*
X015715Y025348D03*
X016000Y025828D03*
D255*
X016569Y025348D03*
D256*
X016959Y025348D03*
D257*
X016976Y025434D03*
X016136Y025450D03*
X016005Y025836D03*
X015461Y025449D03*
X014867Y025350D03*
D258*
X016249Y027126D03*
X016989Y025353D03*
X016986Y025351D03*
D259*
X016574Y025353D03*
D260*
X016578Y025354D03*
X016548Y025449D03*
X015691Y025449D03*
X015153Y025729D03*
X014925Y025375D03*
D261*
X014880Y025362D03*
X016279Y025771D03*
X016245Y027100D03*
D262*
X014881Y025363D03*
D263*
X015732Y025363D03*
D264*
X015691Y025453D03*
X015151Y025723D03*
X017011Y025363D03*
D265*
X014886Y025366D03*
D266*
X014945Y025419D03*
X015516Y025428D03*
X015651Y025428D03*
X016598Y025372D03*
X016250Y027136D03*
D267*
X014922Y025374D03*
D268*
X015960Y025374D03*
X016426Y025461D03*
D269*
X016478Y025375D03*
X016188Y025539D03*
X016818Y025377D03*
X016251Y027150D03*
X015158Y027144D03*
X014888Y025480D03*
X014438Y025480D03*
D270*
X014825Y025393D03*
X015750Y025378D03*
D271*
X016481Y025378D03*
D272*
X016171Y025423D03*
X014944Y025393D03*
X014943Y025423D03*
D273*
X015967Y025393D03*
X016056Y025393D03*
D274*
X014948Y025408D03*
D275*
X015963Y025408D03*
X017034Y025408D03*
D276*
X014717Y025423D03*
D277*
X015149Y025708D03*
X015644Y025423D03*
D278*
X015426Y025425D03*
D279*
X015692Y025434D03*
X016137Y025452D03*
X016004Y025834D03*
X015429Y025824D03*
X016548Y025435D03*
X016976Y025435D03*
D280*
X016128Y025435D03*
X016128Y025434D03*
D281*
X016011Y025848D03*
X014436Y025435D03*
D282*
X014663Y025435D03*
D283*
X014662Y025455D03*
X014437Y025455D03*
X016282Y025758D03*
X016761Y025435D03*
D284*
X015156Y025752D03*
X014662Y025437D03*
D285*
X014662Y025438D03*
X014437Y025438D03*
X014889Y025438D03*
X015115Y025438D03*
D286*
X015467Y025438D03*
D287*
X015692Y025438D03*
D288*
X015904Y025438D03*
X015457Y025453D03*
X015154Y025738D03*
X016548Y025438D03*
X016975Y025438D03*
D289*
X016129Y025438D03*
X016009Y025843D03*
D290*
X016761Y025438D03*
D291*
X016131Y025441D03*
X016008Y025842D03*
X015466Y025440D03*
X015114Y025447D03*
X014436Y025447D03*
D292*
X015433Y025819D03*
X016975Y025441D03*
D293*
X015464Y025443D03*
X015164Y027102D03*
D294*
X015463Y025444D03*
D295*
X015462Y025446D03*
D296*
X015153Y025732D03*
X015905Y025446D03*
X016761Y025446D03*
D297*
X015691Y025447D03*
D298*
X016008Y025840D03*
X016246Y027106D03*
X014436Y025449D03*
D299*
X014436Y025467D03*
X015905Y025450D03*
X016761Y025450D03*
D300*
X014889Y025453D03*
X014662Y025453D03*
X014437Y025453D03*
D301*
X015114Y025453D03*
D302*
X015905Y025453D03*
X016761Y025453D03*
X016974Y025453D03*
D303*
X016139Y025453D03*
D304*
X016254Y025453D03*
D305*
X016338Y025453D03*
X016420Y025453D03*
X015463Y025783D03*
D306*
X016548Y025453D03*
D307*
X016422Y025455D03*
X016287Y025717D03*
X015419Y025540D03*
D308*
X015149Y025701D03*
X016424Y025456D03*
D309*
X016761Y025461D03*
D310*
X014889Y025468D03*
X014437Y025468D03*
D311*
X016192Y025543D03*
D312*
X016287Y025728D03*
X015149Y025711D03*
D313*
X016285Y025738D03*
D314*
X015156Y025753D03*
D315*
X016283Y025753D03*
D316*
X015157Y025756D03*
D317*
X015157Y025758D03*
D318*
X015158Y025759D03*
X016278Y025779D03*
D319*
X015158Y025761D03*
D320*
X015159Y025764D03*
D321*
X015159Y025765D03*
X015167Y027078D03*
D322*
X015167Y027076D03*
X015708Y027331D03*
X016277Y025788D03*
X015159Y025767D03*
D323*
X015159Y025768D03*
D324*
X016280Y025768D03*
D325*
X015159Y025770D03*
X015167Y027075D03*
D326*
X016242Y027081D03*
X016276Y025792D03*
X015160Y025771D03*
D327*
X015160Y025773D03*
X015168Y027072D03*
D328*
X016280Y025773D03*
D329*
X015161Y025774D03*
D330*
X015162Y025776D03*
X016275Y025797D03*
D331*
X015162Y025777D03*
D332*
X016278Y025777D03*
D333*
X015162Y025779D03*
D334*
X015162Y025780D03*
X015168Y027064D03*
X015710Y027327D03*
D335*
X016273Y025803D03*
X015163Y025782D03*
D336*
X015163Y025783D03*
D337*
X016278Y025783D03*
X016243Y027088D03*
D338*
X016272Y025807D03*
X015164Y025785D03*
D339*
X016278Y025785D03*
D340*
X016272Y025809D03*
X015164Y025786D03*
X016238Y027064D03*
D341*
X016278Y025786D03*
D342*
X016272Y025810D03*
X015165Y025788D03*
X015709Y027319D03*
D343*
X016272Y025812D03*
X015165Y025789D03*
D344*
X016277Y025789D03*
X016242Y027084D03*
D345*
X015165Y025791D03*
D346*
X016276Y025791D03*
X016242Y027082D03*
D347*
X016236Y027060D03*
X015708Y027294D03*
X015708Y027295D03*
X015708Y027297D03*
X015708Y027300D03*
X015165Y025792D03*
D348*
X015166Y025794D03*
X016270Y025816D03*
X016236Y027057D03*
X015709Y027286D03*
D349*
X016241Y027078D03*
X016275Y025794D03*
D350*
X015167Y025795D03*
D351*
X016275Y025795D03*
X016240Y027076D03*
X015168Y027069D03*
D352*
X015174Y027045D03*
X015708Y027265D03*
X015708Y027267D03*
X016269Y025821D03*
X015168Y025797D03*
D353*
X015168Y025798D03*
X015708Y027253D03*
D354*
X015450Y025798D03*
D355*
X016275Y025798D03*
D356*
X015168Y025800D03*
X015708Y027243D03*
X015708Y027244D03*
X015708Y027246D03*
X015708Y027247D03*
X015708Y027249D03*
D357*
X016274Y025800D03*
D358*
X015168Y025801D03*
X015708Y027235D03*
D359*
X016274Y025801D03*
D360*
X015168Y025803D03*
X015174Y027042D03*
X016233Y027049D03*
D361*
X015708Y027219D03*
X015708Y027220D03*
X015175Y027039D03*
X015169Y025804D03*
D362*
X016273Y025804D03*
D363*
X016267Y025830D03*
X015169Y025806D03*
X015175Y027036D03*
X015708Y027198D03*
X015708Y027199D03*
X015708Y027201D03*
X015708Y027202D03*
X015708Y027204D03*
X015708Y027205D03*
X015708Y027207D03*
X016233Y027045D03*
D364*
X016272Y025806D03*
D365*
X016266Y025831D03*
X015170Y025807D03*
D366*
X015170Y025809D03*
D367*
X015171Y025810D03*
D368*
X015171Y025812D03*
X015706Y027162D03*
X015706Y027165D03*
X015706Y027166D03*
X016231Y027040D03*
D369*
X015171Y025813D03*
D370*
X015437Y025813D03*
D371*
X015990Y025813D03*
D372*
X016271Y025813D03*
D373*
X015172Y025815D03*
X015708Y027138D03*
X015708Y027139D03*
X015708Y027141D03*
D374*
X015709Y027292D03*
X016270Y025815D03*
D375*
X016263Y025842D03*
X015173Y025816D03*
X015707Y027121D03*
X015707Y027123D03*
X015707Y027124D03*
X015707Y027126D03*
X015707Y027127D03*
D376*
X015705Y027115D03*
X015705Y027114D03*
X015173Y025818D03*
D377*
X016269Y025818D03*
X016235Y027055D03*
X015708Y027276D03*
X015708Y027277D03*
X015708Y027279D03*
X015173Y027048D03*
D378*
X015173Y025819D03*
D379*
X016269Y025819D03*
X015708Y027270D03*
X015708Y027271D03*
X015708Y027273D03*
D380*
X015174Y025821D03*
D381*
X015174Y025822D03*
D382*
X016269Y025822D03*
X015708Y027250D03*
X015708Y027252D03*
X015708Y027255D03*
X015708Y027256D03*
D383*
X015707Y027087D03*
X015174Y025824D03*
D384*
X016268Y025824D03*
D385*
X015175Y025825D03*
X015180Y027016D03*
D386*
X015708Y027225D03*
X015708Y027226D03*
X016267Y025825D03*
D387*
X015175Y025827D03*
X015708Y027084D03*
D388*
X015707Y027216D03*
X015707Y027217D03*
X016233Y027046D03*
X016266Y025827D03*
D389*
X015175Y025828D03*
D390*
X016266Y025828D03*
X015707Y027208D03*
D391*
X015175Y025830D03*
D392*
X015248Y025831D03*
X015287Y025936D03*
X015290Y026244D03*
X015266Y026271D03*
X016119Y026005D03*
X016121Y026002D03*
X016181Y025849D03*
D393*
X016129Y025987D03*
X016128Y025990D03*
X016128Y025992D03*
X016126Y025995D03*
X016122Y026238D03*
X016120Y026614D03*
X016119Y026616D03*
X016117Y026617D03*
X015265Y026581D03*
X015291Y026242D03*
X015292Y026241D03*
X015282Y025929D03*
X015280Y025926D03*
X015279Y025923D03*
X015247Y025833D03*
D394*
X016266Y025833D03*
D395*
X016182Y025852D03*
X016131Y025984D03*
X016078Y026124D03*
X016116Y026620D03*
X015300Y026619D03*
X015294Y026238D03*
X015295Y026236D03*
X015345Y026107D03*
X015345Y026106D03*
X015277Y025920D03*
X015247Y025834D03*
D396*
X016265Y025834D03*
X015707Y027168D03*
D397*
X015302Y026622D03*
X015300Y026620D03*
X015261Y026272D03*
X015275Y025917D03*
X015275Y025915D03*
X015246Y025836D03*
X016077Y026125D03*
X016131Y025983D03*
X016133Y025981D03*
X016182Y025854D03*
X016113Y026622D03*
D398*
X015177Y027031D03*
X016263Y025836D03*
D399*
X016137Y025974D03*
X016135Y025975D03*
X016135Y025977D03*
X016134Y025980D03*
X015274Y025914D03*
X015273Y025911D03*
X015246Y025837D03*
X015297Y026235D03*
X015262Y026580D03*
D400*
X015177Y027030D03*
X015707Y027153D03*
X015707Y027154D03*
X015707Y027156D03*
X016230Y027037D03*
X016263Y025837D03*
D401*
X016144Y025960D03*
X016114Y026229D03*
X015304Y026626D03*
X015246Y025840D03*
X015246Y025839D03*
D402*
X016263Y025839D03*
D403*
X016263Y025840D03*
X015707Y027129D03*
X015707Y027130D03*
X015707Y027132D03*
X015707Y027135D03*
X015707Y027136D03*
D404*
X015307Y026629D03*
X015306Y026628D03*
X015264Y025896D03*
X015264Y025894D03*
X015262Y025893D03*
X015246Y025842D03*
X016146Y025956D03*
X016147Y025954D03*
D405*
X015246Y025843D03*
D406*
X016263Y025843D03*
D407*
X015261Y025890D03*
X015246Y025846D03*
X015246Y025845D03*
D408*
X016262Y025845D03*
X016229Y027031D03*
X015705Y027097D03*
X015705Y027099D03*
X015705Y027100D03*
X015705Y027102D03*
D409*
X015705Y027091D03*
X015179Y027021D03*
X016260Y025846D03*
D410*
X015246Y025848D03*
X015306Y026223D03*
D411*
X015180Y027018D03*
X016228Y027027D03*
X016260Y025848D03*
D412*
X016159Y025932D03*
X016158Y025935D03*
X016158Y025936D03*
X016078Y026137D03*
X016078Y026139D03*
X016078Y026140D03*
X016078Y026142D03*
X016108Y026220D03*
X016102Y026635D03*
X015307Y026221D03*
X015343Y026127D03*
X015258Y025884D03*
X015258Y025882D03*
X015256Y025881D03*
X015256Y025879D03*
X015246Y025851D03*
X015246Y025849D03*
D413*
X015278Y025921D03*
X015279Y025924D03*
X015281Y025927D03*
X015293Y026239D03*
X016077Y026122D03*
X016119Y026235D03*
X016121Y026236D03*
X016128Y025989D03*
X016130Y025986D03*
X016181Y025851D03*
X016127Y026610D03*
X016116Y026619D03*
X015707Y027057D03*
D414*
X015246Y025855D03*
X015246Y025854D03*
X015246Y025852D03*
D415*
X015344Y026112D03*
X015344Y026115D03*
X016137Y025972D03*
X016139Y025971D03*
X016140Y025969D03*
X016140Y025968D03*
X016182Y025855D03*
D416*
X016162Y025926D03*
X016161Y025927D03*
X016101Y026637D03*
X015247Y025863D03*
X015247Y025861D03*
X015247Y025860D03*
X015247Y025857D03*
D417*
X015270Y025905D03*
X015271Y025906D03*
X015343Y026116D03*
X015343Y026118D03*
X015300Y026232D03*
X016141Y025966D03*
X016183Y025857D03*
D418*
X015247Y025858D03*
D419*
X016078Y026128D03*
X016183Y025858D03*
D420*
X016184Y025860D03*
X016110Y026626D03*
X016109Y026628D03*
X015707Y027055D03*
X015300Y026230D03*
X015302Y026229D03*
X015302Y026227D03*
X015344Y026119D03*
X015267Y025902D03*
D421*
X015267Y025900D03*
X015265Y025899D03*
X015343Y026121D03*
X015343Y026122D03*
X016078Y026130D03*
X016078Y026131D03*
X016111Y026224D03*
X016113Y026226D03*
X016183Y025861D03*
X016108Y026629D03*
D422*
X016107Y026631D03*
X016106Y026632D03*
X016137Y026605D03*
X016149Y025950D03*
X016151Y025947D03*
X016152Y025945D03*
X016184Y025863D03*
X015303Y026226D03*
D423*
X015310Y026217D03*
X015343Y026130D03*
X015253Y025875D03*
X015250Y025870D03*
X015249Y025867D03*
X015249Y025866D03*
X015249Y025864D03*
X016078Y026145D03*
X016078Y026146D03*
X015313Y026635D03*
D424*
X015311Y026634D03*
X015254Y026577D03*
X015258Y025885D03*
X016109Y026221D03*
X016178Y026295D03*
X016104Y026634D03*
X016155Y025941D03*
X016155Y025939D03*
X016157Y025938D03*
X016185Y025864D03*
D425*
X016185Y025866D03*
X016185Y025867D03*
X016160Y025929D03*
X016160Y025930D03*
X016106Y026217D03*
X015308Y026220D03*
X015255Y025878D03*
X015254Y025876D03*
D426*
X015251Y025872D03*
X015249Y025869D03*
X015311Y026215D03*
X015315Y026637D03*
X015707Y027054D03*
X016097Y026641D03*
X016098Y026640D03*
X016104Y026215D03*
X016079Y026148D03*
X016164Y025923D03*
X016166Y025920D03*
X016167Y025917D03*
X016169Y025915D03*
X016185Y025869D03*
D427*
X016185Y025870D03*
X016185Y025872D03*
X016170Y025914D03*
X016165Y025921D03*
X016078Y026149D03*
X015343Y026133D03*
X015343Y026131D03*
X015318Y026640D03*
D428*
X015309Y026218D03*
X015343Y026128D03*
X015252Y025873D03*
X016099Y026638D03*
D429*
X016185Y025873D03*
D430*
X016185Y025875D03*
X016185Y025876D03*
X015343Y026136D03*
X015343Y026137D03*
X015313Y026214D03*
D431*
X015342Y026140D03*
X015342Y026139D03*
X016079Y026152D03*
X016184Y026296D03*
X016184Y025882D03*
X016184Y025881D03*
X016184Y025879D03*
X016184Y025878D03*
D432*
X016183Y025884D03*
X016183Y025885D03*
X016183Y025887D03*
X016078Y026154D03*
X016093Y026644D03*
X015315Y026212D03*
X015343Y026142D03*
D433*
X015343Y026125D03*
X015343Y026124D03*
X015255Y026274D03*
X015309Y026632D03*
X015259Y025887D03*
X016078Y026133D03*
X016078Y026134D03*
X016078Y026136D03*
X016110Y026223D03*
X016149Y025951D03*
X016153Y025944D03*
X016155Y025942D03*
D434*
X015260Y025888D03*
D435*
X016182Y025888D03*
D436*
X016182Y025890D03*
X016182Y025891D03*
X016180Y025893D03*
X016180Y025894D03*
X016179Y025896D03*
X016177Y025897D03*
X016176Y025900D03*
X016099Y026211D03*
X016101Y026212D03*
X015322Y026644D03*
D437*
X015308Y026631D03*
X015305Y026224D03*
X015261Y025891D03*
X016148Y025953D03*
D438*
X016145Y025957D03*
X016145Y025959D03*
X016143Y025962D03*
X016113Y026227D03*
X015264Y025897D03*
D439*
X016173Y025905D03*
X016175Y025902D03*
X016176Y025899D03*
D440*
X015269Y025903D03*
D441*
X016174Y025903D03*
D442*
X016173Y025906D03*
X016173Y025908D03*
X016146Y026604D03*
X015321Y026643D03*
X015247Y026275D03*
D443*
X015303Y026625D03*
X015273Y025912D03*
X015272Y025909D03*
X015272Y025908D03*
X016142Y025965D03*
X016115Y026230D03*
X016116Y026232D03*
X016133Y026607D03*
X016112Y026625D03*
D444*
X016095Y026643D03*
X016079Y026151D03*
X016170Y025912D03*
X016172Y025911D03*
X016172Y025909D03*
X015342Y026134D03*
D445*
X015277Y025918D03*
X016129Y026608D03*
X016170Y026293D03*
D446*
X016167Y025918D03*
D447*
X016163Y025924D03*
D448*
X016078Y026119D03*
X016078Y026121D03*
X016123Y026239D03*
X015345Y026104D03*
X015283Y025930D03*
X015298Y026616D03*
D449*
X015297Y026614D03*
X015345Y026103D03*
X015284Y025932D03*
X016077Y026116D03*
X016077Y026118D03*
X016122Y026001D03*
X016122Y025999D03*
X016124Y025998D03*
X016125Y025996D03*
X016124Y026241D03*
X016125Y026242D03*
X016124Y026611D03*
X016122Y026613D03*
D450*
X015285Y025933D03*
D451*
X016079Y026143D03*
X016107Y026218D03*
X016158Y025933D03*
D452*
X016078Y026115D03*
X016126Y026244D03*
X015286Y025935D03*
D453*
X015288Y025938D03*
X015288Y025939D03*
X015289Y025942D03*
X015289Y026245D03*
X015295Y026613D03*
X016117Y026010D03*
X016119Y026007D03*
X016120Y026004D03*
D454*
X016116Y026011D03*
X016116Y026013D03*
X015290Y025944D03*
X015288Y025941D03*
X015288Y026247D03*
X015294Y026611D03*
D455*
X015291Y026607D03*
X015291Y025945D03*
X016115Y026014D03*
D456*
X016131Y026250D03*
X015292Y025947D03*
X015291Y026605D03*
D457*
X015292Y025948D03*
D458*
X016150Y025948D03*
D459*
X016114Y026016D03*
X016113Y026019D03*
X016111Y026022D03*
X016110Y026025D03*
X016108Y026026D03*
X016077Y026109D03*
X016164Y026292D03*
X015708Y027060D03*
X015289Y026604D03*
X015271Y026268D03*
X015285Y026253D03*
X015345Y026095D03*
X015345Y026094D03*
X015295Y025954D03*
X015294Y025951D03*
X015294Y025950D03*
D460*
X015294Y025953D03*
X015296Y025956D03*
X015297Y025957D03*
X015299Y025959D03*
X015284Y026254D03*
X016076Y026107D03*
X016076Y026106D03*
X016104Y026032D03*
X016106Y026031D03*
X016106Y026029D03*
X016107Y026028D03*
D461*
X016104Y026034D03*
X016104Y026035D03*
X016132Y026253D03*
X016132Y026254D03*
X015345Y026092D03*
X015345Y026091D03*
X015303Y025966D03*
X015301Y025962D03*
X015300Y025960D03*
X015283Y026256D03*
X015282Y026259D03*
X015274Y026266D03*
X015286Y026601D03*
X015288Y026602D03*
D462*
X015301Y025963D03*
X016102Y026038D03*
D463*
X016143Y025963D03*
D464*
X016103Y026037D03*
X016076Y026104D03*
X016133Y026256D03*
X016134Y026257D03*
X016134Y026259D03*
X015345Y026089D03*
X015303Y025969D03*
X015303Y025968D03*
X015302Y025965D03*
X015282Y026257D03*
X015281Y026260D03*
X015284Y026596D03*
X015285Y026598D03*
X015285Y026599D03*
D465*
X015283Y026595D03*
X015280Y026262D03*
X015346Y026088D03*
X015304Y025971D03*
X016077Y026103D03*
X016135Y026260D03*
X015708Y027061D03*
D466*
X016101Y026043D03*
X015306Y025972D03*
D467*
X015306Y025974D03*
X015276Y026584D03*
X016160Y026290D03*
D468*
X015307Y025975D03*
D469*
X015308Y025977D03*
X015309Y025980D03*
X015278Y026586D03*
X015279Y026587D03*
X016089Y026061D03*
X016089Y026059D03*
D470*
X015309Y025978D03*
D471*
X015303Y026623D03*
X016113Y026623D03*
X016134Y025978D03*
D472*
X016089Y026062D03*
X016089Y026064D03*
X016087Y026067D03*
X015348Y026082D03*
X015310Y025981D03*
D473*
X015311Y025983D03*
X016091Y026058D03*
X016137Y026265D03*
D474*
X016138Y026266D03*
X016140Y026268D03*
X016140Y026269D03*
X016156Y026289D03*
X016077Y026097D03*
X016077Y026095D03*
X015313Y025986D03*
X015312Y025984D03*
D475*
X015314Y025987D03*
X015315Y025989D03*
X016140Y026271D03*
D476*
X016141Y026272D03*
X016077Y026092D03*
X016077Y026091D03*
X016077Y026088D03*
X016083Y026074D03*
X016086Y026070D03*
X015348Y026076D03*
X015348Y026077D03*
X015348Y026079D03*
X015319Y025996D03*
X015318Y025995D03*
X015316Y025990D03*
D477*
X015317Y025992D03*
X015347Y026080D03*
X016076Y026094D03*
X016085Y026071D03*
X016088Y026065D03*
X015708Y027063D03*
D478*
X015318Y025993D03*
D479*
X016127Y025993D03*
D480*
X016083Y026073D03*
X016082Y026076D03*
X016080Y026077D03*
X016077Y026085D03*
X016077Y026086D03*
X016076Y026089D03*
X016142Y026274D03*
X016143Y026275D03*
X015320Y025999D03*
X015320Y025998D03*
D481*
X015321Y026001D03*
X015348Y026073D03*
X015348Y026074D03*
X016144Y026277D03*
X016146Y026280D03*
X016147Y026281D03*
X016149Y026283D03*
X016150Y026284D03*
X016152Y026286D03*
D482*
X015323Y026004D03*
X015321Y026002D03*
D483*
X015324Y026005D03*
X015324Y026007D03*
X015325Y026010D03*
X015348Y026071D03*
D484*
X015325Y026008D03*
D485*
X016119Y026008D03*
D486*
X015326Y026011D03*
D487*
X015327Y026013D03*
X015329Y026014D03*
D488*
X015330Y026016D03*
X015331Y026017D03*
X015331Y026019D03*
D489*
X015345Y026097D03*
X015285Y026251D03*
X015270Y026583D03*
X016112Y026020D03*
X016113Y026017D03*
D490*
X015332Y026020D03*
D491*
X015333Y026022D03*
X015348Y026070D03*
D492*
X015348Y026068D03*
X015333Y026023D03*
D493*
X016110Y026023D03*
D494*
X015336Y026026D03*
X015334Y026025D03*
D495*
X015336Y026028D03*
D496*
X015337Y026029D03*
X015337Y026031D03*
D497*
X015338Y026032D03*
X015339Y026035D03*
X015348Y026061D03*
X015348Y026062D03*
D498*
X015349Y026064D03*
X015339Y026034D03*
D499*
X015340Y026037D03*
X015342Y026040D03*
X015343Y026041D03*
X015349Y026058D03*
X015349Y026059D03*
D500*
X015341Y026038D03*
D501*
X015276Y026265D03*
X016101Y026041D03*
X016101Y026040D03*
D502*
X015348Y026052D03*
X015348Y026055D03*
X015348Y026056D03*
X015347Y026049D03*
X015347Y026047D03*
X015345Y026044D03*
X015344Y026043D03*
D503*
X015281Y026590D03*
X015282Y026592D03*
X016136Y026262D03*
X016076Y026101D03*
X016092Y026055D03*
X016095Y026050D03*
X016097Y026047D03*
X016098Y026046D03*
X016098Y026044D03*
D504*
X015348Y026050D03*
X015346Y026046D03*
D505*
X015346Y026085D03*
X015346Y026086D03*
X015280Y026589D03*
X016077Y026100D03*
X016092Y026056D03*
X016095Y026052D03*
X016096Y026049D03*
D506*
X015348Y026053D03*
D507*
X016094Y026053D03*
D508*
X015348Y026065D03*
X015348Y026067D03*
D509*
X016086Y026068D03*
D510*
X016080Y026079D03*
D511*
X016079Y026080D03*
X016079Y026082D03*
X016154Y026287D03*
D512*
X015347Y026083D03*
D513*
X016078Y026083D03*
D514*
X015345Y026098D03*
X015288Y026248D03*
D515*
X016077Y026098D03*
X016137Y026263D03*
D516*
X016077Y026112D03*
X015345Y026101D03*
X015345Y026100D03*
D517*
X015344Y026109D03*
X015344Y026110D03*
D518*
X015286Y026250D03*
X015270Y026269D03*
X016077Y026110D03*
X016128Y026245D03*
D519*
X015344Y026113D03*
D520*
X016077Y026113D03*
X015707Y027058D03*
D521*
X016078Y026127D03*
D522*
X015342Y026143D03*
D523*
X015342Y026145D03*
X015707Y027052D03*
D524*
X015243Y026277D03*
X015316Y026211D03*
X015342Y026146D03*
X016078Y026157D03*
X016098Y026209D03*
D525*
X016090Y026647D03*
X015327Y026647D03*
X015319Y026208D03*
X015342Y026149D03*
X015342Y026148D03*
D526*
X015341Y026151D03*
X015320Y026206D03*
X016088Y026649D03*
X015707Y027051D03*
D527*
X015329Y026652D03*
X015341Y026154D03*
X015341Y026152D03*
X016079Y026169D03*
X016079Y026170D03*
X016157Y026601D03*
D528*
X016078Y026172D03*
X015342Y026155D03*
D529*
X016079Y026155D03*
D530*
X016079Y026175D03*
X016194Y026301D03*
X015707Y027049D03*
X015236Y026280D03*
X015341Y026157D03*
D531*
X015342Y026158D03*
D532*
X016079Y026158D03*
D533*
X016089Y026202D03*
X015342Y026160D03*
X015327Y026202D03*
D534*
X016078Y026161D03*
X016078Y026160D03*
D535*
X016079Y026176D03*
X016082Y026655D03*
X015707Y027048D03*
X015233Y026281D03*
X015342Y026163D03*
X015342Y026161D03*
D536*
X015327Y026649D03*
X016094Y026205D03*
X016079Y026164D03*
X016079Y026163D03*
D537*
X016080Y026178D03*
X016084Y026197D03*
X015342Y026164D03*
X015331Y026197D03*
X015330Y026199D03*
X015328Y026200D03*
X015334Y026655D03*
D538*
X015233Y026572D03*
X015342Y026167D03*
X015342Y026166D03*
X016079Y026179D03*
X016083Y026196D03*
X016163Y026598D03*
X016080Y026656D03*
D539*
X016078Y026167D03*
X016078Y026166D03*
X015328Y026650D03*
X015240Y026574D03*
D540*
X015333Y026196D03*
X015342Y026170D03*
X015342Y026169D03*
D541*
X015341Y026172D03*
X016079Y026181D03*
X016079Y026182D03*
X016082Y026194D03*
X016199Y026302D03*
X016079Y026658D03*
X015707Y027046D03*
D542*
X015342Y026173D03*
D543*
X015324Y026203D03*
X016079Y026173D03*
D544*
X016079Y026184D03*
X016079Y026185D03*
X016079Y026187D03*
X016079Y026190D03*
X016080Y026193D03*
X015341Y026176D03*
X015341Y026175D03*
D545*
X015341Y026178D03*
X015341Y026179D03*
X015338Y026193D03*
X015228Y026571D03*
X015341Y026661D03*
D546*
X015708Y027045D03*
X016072Y026662D03*
X015339Y026191D03*
X015340Y026182D03*
X015340Y026181D03*
D547*
X015341Y026184D03*
X015341Y026185D03*
X015339Y026190D03*
D548*
X015340Y026187D03*
X015225Y026569D03*
D549*
X015340Y026188D03*
D550*
X016079Y026188D03*
D551*
X016080Y026191D03*
D552*
X016074Y026661D03*
X015339Y026659D03*
X015338Y026658D03*
X015228Y026283D03*
X015335Y026194D03*
D553*
X016086Y026199D03*
D554*
X016087Y026200D03*
X016161Y026599D03*
D555*
X016091Y026203D03*
D556*
X016191Y026299D03*
X016087Y026650D03*
X015322Y026205D03*
D557*
X015318Y026209D03*
X015324Y026646D03*
X016091Y026646D03*
X016152Y026602D03*
X016188Y026298D03*
X016097Y026208D03*
X016095Y026206D03*
D558*
X016103Y026214D03*
X015318Y026641D03*
D559*
X015298Y026233D03*
D560*
X016118Y026233D03*
D561*
X016129Y026247D03*
X015294Y026610D03*
D562*
X016130Y026248D03*
D563*
X016131Y026251D03*
D564*
X015279Y026263D03*
X015283Y026593D03*
D565*
X015239Y026278D03*
D566*
X016145Y026278D03*
D567*
X015220Y026284D03*
D568*
X015214Y026286D03*
X016215Y026305D03*
D569*
X015708Y027040D03*
X015211Y026565D03*
X015210Y026287D03*
D570*
X015206Y026289D03*
X015707Y027039D03*
D571*
X016192Y026589D03*
X015204Y026290D03*
D572*
X015200Y026292D03*
X015707Y027036D03*
X016196Y026587D03*
D573*
X015195Y026293D03*
D574*
X015186Y026295D03*
X015707Y027031D03*
D575*
X015182Y026296D03*
D576*
X015178Y026298D03*
X016027Y026677D03*
X016222Y026580D03*
D577*
X015175Y026299D03*
D578*
X015173Y026301D03*
D579*
X015168Y026302D03*
X016258Y026319D03*
X016233Y026575D03*
D580*
X015706Y027019D03*
X015160Y026304D03*
D581*
X016068Y026664D03*
X016172Y026595D03*
X016206Y026304D03*
D582*
X015708Y027016D03*
X015129Y026484D03*
X015129Y026482D03*
X015129Y026481D03*
X015129Y026479D03*
X015129Y026478D03*
X015129Y026476D03*
X015127Y026467D03*
X015127Y026466D03*
X015127Y026464D03*
X015127Y026389D03*
X015127Y026388D03*
X015127Y026386D03*
X015127Y026385D03*
X015127Y026382D03*
X015127Y026380D03*
X015127Y026379D03*
X015127Y026377D03*
X015127Y026376D03*
X015154Y026305D03*
D583*
X015150Y026307D03*
X015129Y026356D03*
X015129Y026358D03*
X015129Y026359D03*
X015131Y026496D03*
X015131Y026497D03*
X015152Y026547D03*
X016283Y026506D03*
X016284Y026502D03*
X016286Y026352D03*
X016286Y026350D03*
X016280Y026331D03*
X016278Y026329D03*
D584*
X016221Y026307D03*
D585*
X015147Y026308D03*
X015132Y026503D03*
D586*
X016224Y026308D03*
D587*
X016282Y026335D03*
X016282Y026337D03*
X016284Y026340D03*
X016284Y026341D03*
X016284Y026343D03*
X016276Y026530D03*
X016254Y026569D03*
X015147Y026544D03*
X015147Y026310D03*
D588*
X016227Y026310D03*
D589*
X015144Y026311D03*
X015137Y026526D03*
D590*
X016200Y026586D03*
X016230Y026311D03*
D591*
X015144Y026313D03*
X015142Y026314D03*
X015138Y026527D03*
X015142Y026536D03*
X015144Y026541D03*
X015145Y026542D03*
D592*
X016236Y026313D03*
D593*
X016244Y026314D03*
X016214Y026583D03*
D594*
X015143Y026539D03*
X015143Y026538D03*
X015141Y026535D03*
X015140Y026532D03*
X015140Y026530D03*
X015138Y026529D03*
X015141Y026316D03*
D595*
X016251Y026316D03*
D596*
X015141Y026317D03*
X015139Y026319D03*
X015139Y026320D03*
D597*
X016255Y026317D03*
D598*
X016262Y026320D03*
D599*
X016272Y026545D03*
X016258Y026566D03*
X015138Y026322D03*
D600*
X016266Y026322D03*
D601*
X015137Y026323D03*
D602*
X016272Y026323D03*
X016292Y026443D03*
X016290Y026458D03*
D603*
X016274Y026538D03*
X016274Y026539D03*
X016272Y026542D03*
X016272Y026544D03*
X015137Y026325D03*
X015135Y026326D03*
D604*
X016275Y026325D03*
X016287Y026358D03*
X016287Y026359D03*
X016287Y026361D03*
X016289Y026365D03*
X016289Y026367D03*
X016289Y026370D03*
X016289Y026371D03*
X016289Y026373D03*
X016287Y026487D03*
X016287Y026490D03*
X016287Y026491D03*
D605*
X016286Y026494D03*
X016286Y026496D03*
X016286Y026497D03*
X016277Y026326D03*
X015128Y026367D03*
X015128Y026370D03*
X015128Y026371D03*
X015128Y026373D03*
X015128Y026374D03*
X015129Y026485D03*
X015129Y026487D03*
X015129Y026490D03*
X015129Y026491D03*
D606*
X015136Y026524D03*
X015135Y026331D03*
X015135Y026329D03*
X015135Y026328D03*
X016257Y026568D03*
X016273Y026541D03*
X016275Y026536D03*
X016275Y026535D03*
D607*
X016285Y026500D03*
X016285Y026499D03*
X016287Y026356D03*
X016287Y026355D03*
X016278Y026328D03*
X015129Y026361D03*
X015129Y026362D03*
X015129Y026364D03*
X015129Y026365D03*
X015130Y026493D03*
X015130Y026494D03*
D608*
X015135Y026521D03*
X015135Y026523D03*
X015134Y026337D03*
X015134Y026335D03*
X015134Y026334D03*
X015134Y026332D03*
X016275Y026532D03*
D609*
X016279Y026524D03*
X016279Y026523D03*
X016279Y026521D03*
X016281Y026520D03*
X016281Y026517D03*
X016281Y026515D03*
X016281Y026514D03*
X016282Y026512D03*
X016282Y026511D03*
X016282Y026509D03*
X016282Y026508D03*
X016284Y026505D03*
X016251Y026571D03*
X016285Y026349D03*
X016285Y026347D03*
X016281Y026332D03*
X015132Y026350D03*
X015130Y026355D03*
X015132Y026499D03*
X015132Y026500D03*
X015133Y026505D03*
X015150Y026545D03*
D610*
X015132Y026502D03*
X015131Y026352D03*
X015132Y026349D03*
X015132Y026347D03*
X015132Y026346D03*
X016281Y026334D03*
X016284Y026344D03*
X016284Y026346D03*
X016278Y026526D03*
X016278Y026527D03*
X016277Y026529D03*
D611*
X016275Y026533D03*
X015134Y026338D03*
D612*
X016284Y026338D03*
D613*
X015133Y026340D03*
X015133Y026341D03*
X015133Y026343D03*
X015133Y026344D03*
X015135Y026514D03*
X015135Y026515D03*
X015135Y026517D03*
X015135Y026520D03*
D614*
X015130Y026353D03*
X016281Y026518D03*
D615*
X016287Y026353D03*
X015154Y026548D03*
D616*
X016288Y026364D03*
X016288Y026362D03*
D617*
X015128Y026368D03*
X015129Y026488D03*
D618*
X016287Y026488D03*
X016289Y026368D03*
D619*
X016290Y026374D03*
X016290Y026376D03*
X016290Y026377D03*
X016290Y026379D03*
X016290Y026380D03*
X016288Y026479D03*
X016288Y026481D03*
X016288Y026482D03*
X016288Y026484D03*
X016288Y026485D03*
X016287Y026493D03*
D620*
X016289Y026478D03*
X016289Y026476D03*
X016289Y026475D03*
X016289Y026472D03*
X016289Y026470D03*
X016290Y026391D03*
X016290Y026389D03*
X016290Y026388D03*
X016290Y026386D03*
X016290Y026385D03*
X016290Y026382D03*
X016247Y026572D03*
D621*
X015127Y026383D03*
D622*
X016290Y026383D03*
X016289Y026473D03*
D623*
X015156Y026550D03*
X015128Y026475D03*
X015128Y026472D03*
X015128Y026470D03*
X015128Y026469D03*
X015126Y026463D03*
X015126Y026461D03*
X015126Y026460D03*
X015126Y026457D03*
X015126Y026455D03*
X015126Y026454D03*
X015126Y026452D03*
X015126Y026400D03*
X015126Y026397D03*
X015126Y026395D03*
X015126Y026394D03*
X015126Y026392D03*
X015126Y026391D03*
D624*
X016291Y026392D03*
X016291Y026394D03*
X016291Y026395D03*
X016291Y026397D03*
X016291Y026400D03*
X016291Y026451D03*
X016291Y026452D03*
X016291Y026454D03*
X016290Y026460D03*
X016290Y026461D03*
X016290Y026463D03*
X016290Y026464D03*
X016290Y026466D03*
X016290Y026467D03*
X016290Y026469D03*
D625*
X015128Y026473D03*
X015126Y026458D03*
X015126Y026398D03*
D626*
X016291Y026398D03*
D627*
X015126Y026401D03*
X015126Y026403D03*
X015126Y026404D03*
X015126Y026406D03*
X015126Y026407D03*
X015126Y026409D03*
X015124Y026410D03*
X015124Y026412D03*
X015124Y026415D03*
X015124Y026416D03*
X015124Y026418D03*
X015124Y026419D03*
X015126Y026442D03*
X015126Y026445D03*
X015126Y026446D03*
X015126Y026448D03*
X015126Y026449D03*
X015126Y026451D03*
D628*
X015123Y026424D03*
X015123Y026422D03*
X015123Y026421D03*
X016290Y026455D03*
X016290Y026457D03*
X016292Y026449D03*
X016292Y026448D03*
X016292Y026446D03*
X016292Y026445D03*
X016292Y026442D03*
X016292Y026440D03*
X016292Y026410D03*
X016292Y026409D03*
X016292Y026407D03*
X016292Y026406D03*
X016292Y026404D03*
X016292Y026403D03*
X016292Y026401D03*
D629*
X016293Y026412D03*
X016293Y026415D03*
X016293Y026416D03*
X016293Y026418D03*
X016293Y026419D03*
X016293Y026421D03*
X016293Y026422D03*
X016293Y026424D03*
X016293Y026425D03*
X016293Y026427D03*
X016293Y026430D03*
X016293Y026431D03*
X016293Y026433D03*
X016293Y026434D03*
X016293Y026436D03*
X016293Y026437D03*
X016293Y026439D03*
X015160Y026551D03*
X015124Y026431D03*
X015124Y026430D03*
X015124Y026427D03*
X015124Y026425D03*
D630*
X015124Y026413D03*
X015126Y026443D03*
D631*
X015124Y026428D03*
X016293Y026428D03*
X016293Y026413D03*
D632*
X015125Y026433D03*
X015125Y026434D03*
X015125Y026436D03*
X015125Y026437D03*
X015125Y026439D03*
X015125Y026440D03*
D633*
X016284Y026503D03*
D634*
X015134Y026506D03*
X015134Y026508D03*
X015134Y026509D03*
X015134Y026511D03*
X015134Y026512D03*
D635*
X015135Y026518D03*
D636*
X015141Y026533D03*
D637*
X016260Y026565D03*
X016271Y026547D03*
D638*
X016271Y026548D03*
X016262Y026563D03*
D639*
X016264Y026562D03*
X016269Y026553D03*
X016270Y026550D03*
D640*
X016269Y026551D03*
X016268Y026554D03*
X016268Y026556D03*
D641*
X015707Y027021D03*
X015165Y026553D03*
D642*
X015173Y026554D03*
X015707Y027024D03*
D643*
X015707Y027027D03*
X016218Y026581D03*
X015180Y026556D03*
D644*
X015185Y026557D03*
D645*
X016266Y026560D03*
X016267Y026557D03*
D646*
X015189Y026559D03*
D647*
X016266Y026559D03*
D648*
X015192Y026560D03*
D649*
X015195Y026562D03*
D650*
X015202Y026563D03*
D651*
X015217Y026566D03*
D652*
X015222Y026568D03*
D653*
X016241Y026574D03*
D654*
X015249Y026575D03*
D655*
X016228Y026577D03*
D656*
X015258Y026578D03*
D657*
X016225Y026578D03*
D658*
X016206Y026584D03*
D659*
X016189Y026590D03*
X016053Y026673D03*
X015363Y026673D03*
D660*
X016185Y026592D03*
D661*
X016179Y026593D03*
D662*
X016167Y026596D03*
X016077Y026659D03*
D663*
X015292Y026608D03*
D664*
X015299Y026617D03*
D665*
X015316Y026638D03*
D666*
X016086Y026652D03*
D667*
X015331Y026653D03*
D668*
X016085Y026653D03*
D669*
X015336Y026656D03*
D670*
X015344Y026662D03*
D671*
X015347Y026664D03*
D672*
X015351Y026665D03*
D673*
X016063Y026665D03*
D674*
X015354Y026667D03*
D675*
X016061Y026667D03*
D676*
X015355Y026668D03*
D677*
X016059Y026668D03*
D678*
X015707Y027042D03*
X015357Y026670D03*
D679*
X016057Y026670D03*
D680*
X015359Y026671D03*
D681*
X016056Y026671D03*
D682*
X016044Y026674D03*
X015372Y026674D03*
D683*
X015378Y026676D03*
D684*
X016033Y026676D03*
D685*
X015384Y026677D03*
D686*
X015708Y026679D03*
D687*
X015707Y026680D03*
D688*
X015708Y026682D03*
X015705Y026862D03*
D689*
X015708Y026683D03*
D690*
X015707Y026685D03*
D691*
X015707Y026686D03*
X015704Y026859D03*
D692*
X015705Y026857D03*
X015706Y026688D03*
D693*
X015707Y026689D03*
X015704Y026856D03*
D694*
X015707Y026692D03*
X015707Y026691D03*
D695*
X015708Y026694D03*
X015705Y026853D03*
D696*
X015707Y026695D03*
D697*
X015708Y026697D03*
X015708Y026700D03*
D698*
X015708Y026698D03*
D699*
X015708Y026701D03*
X015708Y026703D03*
X015708Y026704D03*
D700*
X015708Y026706D03*
X015705Y026847D03*
D701*
X015707Y026707D03*
D702*
X015708Y026709D03*
D703*
X015708Y026710D03*
D704*
X015707Y026712D03*
X015704Y026841D03*
D705*
X015708Y026713D03*
D706*
X015708Y026715D03*
X015708Y026716D03*
X015705Y026838D03*
D707*
X015705Y026836D03*
X015708Y026721D03*
X015708Y026719D03*
X015708Y026718D03*
D708*
X015707Y026722D03*
X015704Y026835D03*
D709*
X015708Y026724D03*
D710*
X015707Y026725D03*
D711*
X015708Y026727D03*
D712*
X015707Y026728D03*
D713*
X015707Y026730D03*
X015707Y026731D03*
D714*
X015707Y026733D03*
D715*
X015708Y026734D03*
D716*
X015707Y026736D03*
D717*
X015708Y026737D03*
X015708Y026739D03*
D718*
X015708Y026740D03*
X015708Y026742D03*
D719*
X015707Y026743D03*
D720*
X015708Y026745D03*
D721*
X015707Y026746D03*
X015704Y026820D03*
D722*
X015704Y026817D03*
X015707Y026748D03*
D723*
X015706Y026749D03*
X015703Y026815D03*
D724*
X015704Y026814D03*
X015707Y026751D03*
D725*
X015707Y026752D03*
X015704Y026811D03*
D726*
X015708Y026754D03*
D727*
X015707Y026755D03*
X015704Y026809D03*
D728*
X015708Y026757D03*
D729*
X015708Y026758D03*
D730*
X015708Y026760D03*
X015708Y026761D03*
D731*
X015708Y026763D03*
X015703Y026805D03*
D732*
X015707Y026764D03*
D733*
X015707Y026766D03*
D734*
X015707Y026767D03*
D735*
X015708Y026769D03*
X015703Y026797D03*
D736*
X015704Y026796D03*
X015707Y026770D03*
D737*
X015708Y026772D03*
D738*
X015708Y026773D03*
D739*
X015708Y026775D03*
D740*
X015707Y026776D03*
X015707Y026778D03*
D741*
X015707Y026779D03*
X015707Y026781D03*
X015704Y026791D03*
D742*
X015703Y026790D03*
X015705Y026785D03*
X015705Y026784D03*
X015706Y026782D03*
D743*
X015704Y026787D03*
D744*
X015704Y026788D03*
D745*
X015703Y026793D03*
D746*
X015704Y026794D03*
D747*
X015703Y026799D03*
X015703Y026800D03*
D748*
X015703Y026802D03*
D749*
X015703Y026803D03*
D750*
X015703Y026806D03*
D751*
X015704Y026808D03*
D752*
X015703Y026812D03*
D753*
X015704Y026818D03*
D754*
X015704Y026821D03*
D755*
X015704Y026823D03*
D756*
X015704Y026824D03*
D757*
X015704Y026826D03*
D758*
X015703Y026827D03*
D759*
X015704Y026829D03*
D760*
X015703Y026830D03*
D761*
X015704Y026832D03*
D762*
X015704Y026833D03*
D763*
X015705Y026839D03*
D764*
X015705Y026842D03*
D765*
X015704Y026844D03*
D766*
X015704Y026845D03*
D767*
X015705Y026848D03*
D768*
X015705Y026850D03*
D769*
X015705Y026851D03*
D770*
X015705Y026854D03*
D771*
X015705Y026860D03*
D772*
X015705Y026863D03*
D773*
X015705Y026865D03*
D774*
X015705Y026866D03*
D775*
X015705Y026868D03*
D776*
X015705Y026869D03*
D777*
X015704Y026871D03*
D778*
X015705Y026872D03*
D779*
X015705Y026874D03*
D780*
X015705Y026875D03*
D781*
X015705Y026877D03*
D782*
X015706Y026878D03*
D783*
X015705Y026880D03*
D784*
X015705Y026881D03*
D785*
X015705Y026883D03*
D786*
X015705Y026884D03*
D787*
X015705Y026886D03*
D788*
X015705Y026887D03*
D789*
X015705Y026889D03*
D790*
X015705Y026890D03*
D791*
X015706Y026892D03*
D792*
X015706Y026893D03*
D793*
X015705Y026895D03*
D794*
X015705Y026896D03*
D795*
X015705Y026898D03*
D796*
X015705Y026899D03*
X015705Y026901D03*
D797*
X015705Y026902D03*
D798*
X015706Y026904D03*
D799*
X015706Y026905D03*
X015706Y026907D03*
D800*
X015706Y026908D03*
D801*
X015706Y026910D03*
D802*
X015705Y026911D03*
D803*
X015705Y026913D03*
X015705Y026914D03*
D804*
X015705Y026916D03*
D805*
X015705Y026917D03*
D806*
X015706Y026919D03*
D807*
X015706Y026920D03*
X015706Y026922D03*
D808*
X015706Y026923D03*
D809*
X015706Y026925D03*
D810*
X015705Y026926D03*
D811*
X015705Y026928D03*
X015705Y026929D03*
D812*
X015705Y026931D03*
D813*
X015706Y026932D03*
D814*
X015706Y026934D03*
D815*
X015707Y026935D03*
D816*
X015707Y026937D03*
D817*
X015706Y026938D03*
D818*
X015706Y026940D03*
D819*
X015705Y026941D03*
D820*
X015706Y026943D03*
D821*
X015706Y026944D03*
D822*
X015706Y026946D03*
D823*
X015707Y026947D03*
D824*
X015707Y026949D03*
X015707Y026950D03*
D825*
X015707Y026952D03*
D826*
X015706Y026953D03*
D827*
X015706Y026955D03*
D828*
X015706Y026956D03*
D829*
X015707Y026958D03*
D830*
X015707Y026959D03*
X015708Y027007D03*
D831*
X015708Y026961D03*
D832*
X015707Y026962D03*
X015708Y027006D03*
D833*
X015707Y026965D03*
X015707Y026964D03*
D834*
X015707Y026967D03*
D835*
X015706Y026968D03*
D836*
X015706Y026970D03*
D837*
X015707Y026971D03*
D838*
X015706Y026973D03*
X015708Y026997D03*
D839*
X015707Y026974D03*
D840*
X015707Y026976D03*
X015708Y026994D03*
D841*
X015708Y026992D03*
X015708Y026991D03*
X015708Y026982D03*
X015708Y026980D03*
X015708Y026979D03*
X015708Y026977D03*
D842*
X015708Y026983D03*
D843*
X015708Y026985D03*
X015708Y026986D03*
X015708Y026988D03*
X015708Y026989D03*
D844*
X015708Y026995D03*
D845*
X015708Y026998D03*
D846*
X015708Y027000D03*
D847*
X015708Y027001D03*
D848*
X015708Y027003D03*
D849*
X015708Y027004D03*
D850*
X015708Y027009D03*
D851*
X015708Y027010D03*
D852*
X015182Y027012D03*
X016226Y027021D03*
D853*
X015885Y027012D03*
D854*
X015181Y027013D03*
D855*
X015885Y027013D03*
D856*
X015180Y027015D03*
D857*
X015887Y027015D03*
D858*
X016224Y027016D03*
D859*
X015706Y027018D03*
D860*
X016226Y027018D03*
D861*
X016228Y027030D03*
X015706Y027090D03*
X015180Y027019D03*
D862*
X016226Y027019D03*
D863*
X015180Y027022D03*
D864*
X015706Y027022D03*
D865*
X016226Y027022D03*
D866*
X015179Y027024D03*
D867*
X016227Y027024D03*
D868*
X015178Y027025D03*
D869*
X015707Y027025D03*
D870*
X016227Y027025D03*
D871*
X016230Y027036D03*
X015178Y027027D03*
D872*
X015177Y027028D03*
X015707Y027148D03*
D873*
X015707Y027028D03*
D874*
X015706Y027088D03*
X016228Y027028D03*
D875*
X015706Y027030D03*
D876*
X015706Y027169D03*
X015706Y027171D03*
X015706Y027172D03*
X015177Y027033D03*
X016231Y027042D03*
D877*
X015707Y027033D03*
D878*
X015705Y027105D03*
X015705Y027106D03*
X015705Y027108D03*
X015705Y027109D03*
X015705Y027111D03*
X016229Y027033D03*
D879*
X015707Y027181D03*
X015707Y027183D03*
X015707Y027184D03*
X015176Y027034D03*
D880*
X015707Y027034D03*
D881*
X016229Y027034D03*
D882*
X015708Y027211D03*
X015708Y027213D03*
X015708Y027214D03*
X015175Y027037D03*
D883*
X015707Y027037D03*
D884*
X015706Y027157D03*
X015706Y027159D03*
X015706Y027160D03*
X016231Y027039D03*
D885*
X016233Y027048D03*
X015707Y027222D03*
X015174Y027040D03*
D886*
X015174Y027043D03*
X015708Y027238D03*
D887*
X015707Y027043D03*
D888*
X016232Y027043D03*
D889*
X015174Y027046D03*
D890*
X015173Y027049D03*
X015708Y027282D03*
X015708Y027285D03*
D891*
X015708Y027288D03*
X015708Y027289D03*
X015708Y027291D03*
X015173Y027051D03*
D892*
X016234Y027051D03*
D893*
X015709Y027301D03*
X015172Y027052D03*
D894*
X015708Y027237D03*
X015708Y027240D03*
X015708Y027241D03*
X016234Y027052D03*
D895*
X015708Y027315D03*
X015171Y027054D03*
D896*
X015708Y027258D03*
X015708Y027259D03*
X015708Y027261D03*
X015708Y027262D03*
X015708Y027264D03*
X016235Y027054D03*
D897*
X015171Y027055D03*
D898*
X015171Y027057D03*
X015709Y027321D03*
D899*
X015171Y027058D03*
D900*
X016236Y027058D03*
D901*
X016239Y027067D03*
X015171Y027060D03*
D902*
X015170Y027061D03*
X015708Y027324D03*
D903*
X015708Y027312D03*
X015708Y027310D03*
X015708Y027309D03*
X015708Y027307D03*
X015708Y027306D03*
X015708Y027304D03*
X015708Y027303D03*
X016236Y027061D03*
D904*
X016239Y027070D03*
X015709Y027325D03*
X015169Y027063D03*
D905*
X015709Y027316D03*
X015709Y027318D03*
X016237Y027063D03*
D906*
X015708Y027064D03*
D907*
X015169Y027066D03*
D908*
X015708Y027066D03*
D909*
X015709Y027322D03*
X016239Y027066D03*
D910*
X015168Y027067D03*
D911*
X015707Y027067D03*
D912*
X015708Y027069D03*
D913*
X016239Y027069D03*
D914*
X015711Y027330D03*
X015168Y027070D03*
D915*
X015708Y027070D03*
D916*
X015708Y027072D03*
D917*
X016239Y027072D03*
D918*
X015168Y027073D03*
D919*
X015707Y027073D03*
D920*
X016240Y027073D03*
D921*
X015708Y027075D03*
D922*
X016241Y027075D03*
D923*
X015708Y027076D03*
D924*
X015708Y027078D03*
D925*
X015166Y027079D03*
D926*
X015708Y027079D03*
D927*
X016241Y027079D03*
D928*
X016243Y027087D03*
X015166Y027081D03*
D929*
X015708Y027081D03*
D930*
X015708Y027082D03*
D931*
X015707Y027085D03*
D932*
X015165Y027087D03*
D933*
X015165Y027088D03*
D934*
X015165Y027090D03*
D935*
X015706Y027093D03*
X015706Y027094D03*
X015706Y027096D03*
D936*
X016243Y027093D03*
D937*
X016244Y027094D03*
D938*
X016244Y027096D03*
D939*
X015163Y027097D03*
D940*
X015164Y027099D03*
X016245Y027105D03*
D941*
X015164Y027100D03*
D942*
X015163Y027103D03*
D943*
X015705Y027103D03*
D944*
X016245Y027103D03*
D945*
X015162Y027111D03*
D946*
X015706Y027112D03*
D947*
X015706Y027117D03*
X015706Y027120D03*
D948*
X015706Y027118D03*
D949*
X016248Y027118D03*
D950*
X015707Y027133D03*
D951*
X016249Y027133D03*
D952*
X015707Y027142D03*
X015707Y027144D03*
X015707Y027145D03*
X015707Y027147D03*
X015707Y027150D03*
D953*
X015706Y027151D03*
D954*
X015706Y027163D03*
D955*
X015707Y027174D03*
X015707Y027175D03*
X015707Y027177D03*
D956*
X015708Y027178D03*
D957*
X015708Y027180D03*
D958*
X015708Y027186D03*
X015708Y027187D03*
X015708Y027189D03*
X015708Y027190D03*
X015708Y027192D03*
X015708Y027195D03*
X015708Y027196D03*
D959*
X015708Y027193D03*
D960*
X015707Y027210D03*
D961*
X015707Y027223D03*
D962*
X015707Y027228D03*
D963*
X015708Y027229D03*
X015708Y027231D03*
X015708Y027232D03*
X015708Y027234D03*
D964*
X015708Y027268D03*
D965*
X015708Y027274D03*
D966*
X015709Y027280D03*
D967*
X015708Y027283D03*
D968*
X015708Y027298D03*
D969*
X015708Y027313D03*
D970*
X015710Y027328D03*
D971*
X011024Y025598D02*
X011026Y025637D01*
X011032Y025676D01*
X011042Y025714D01*
X011055Y025751D01*
X011072Y025786D01*
X011092Y025820D01*
X011116Y025851D01*
X011143Y025880D01*
X011172Y025906D01*
X011204Y025929D01*
X011238Y025949D01*
X011274Y025965D01*
X011311Y025977D01*
X011350Y025986D01*
X011389Y025991D01*
X011428Y025992D01*
X011467Y025989D01*
X011506Y025982D01*
X011543Y025971D01*
X011580Y025957D01*
X011615Y025939D01*
X011648Y025918D01*
X011679Y025893D01*
X011707Y025866D01*
X011732Y025836D01*
X011754Y025803D01*
X011773Y025769D01*
X011788Y025733D01*
X011800Y025695D01*
X011808Y025657D01*
X011812Y025618D01*
X011812Y025578D01*
X011808Y025539D01*
X011800Y025501D01*
X011788Y025463D01*
X011773Y025427D01*
X011754Y025393D01*
X011732Y025360D01*
X011707Y025330D01*
X011679Y025303D01*
X011648Y025278D01*
X011615Y025257D01*
X011580Y025239D01*
X011543Y025225D01*
X011506Y025214D01*
X011467Y025207D01*
X011428Y025204D01*
X011389Y025205D01*
X011350Y025210D01*
X011311Y025219D01*
X011274Y025231D01*
X011238Y025247D01*
X011204Y025267D01*
X011172Y025290D01*
X011143Y025316D01*
X011116Y025345D01*
X011092Y025376D01*
X011072Y025410D01*
X011055Y025445D01*
X011042Y025482D01*
X011032Y025520D01*
X011026Y025559D01*
X011024Y025598D01*
X007024Y025598D02*
X007026Y025637D01*
X007032Y025676D01*
X007042Y025714D01*
X007055Y025751D01*
X007072Y025786D01*
X007092Y025820D01*
X007116Y025851D01*
X007143Y025880D01*
X007172Y025906D01*
X007204Y025929D01*
X007238Y025949D01*
X007274Y025965D01*
X007311Y025977D01*
X007350Y025986D01*
X007389Y025991D01*
X007428Y025992D01*
X007467Y025989D01*
X007506Y025982D01*
X007543Y025971D01*
X007580Y025957D01*
X007615Y025939D01*
X007648Y025918D01*
X007679Y025893D01*
X007707Y025866D01*
X007732Y025836D01*
X007754Y025803D01*
X007773Y025769D01*
X007788Y025733D01*
X007800Y025695D01*
X007808Y025657D01*
X007812Y025618D01*
X007812Y025578D01*
X007808Y025539D01*
X007800Y025501D01*
X007788Y025463D01*
X007773Y025427D01*
X007754Y025393D01*
X007732Y025360D01*
X007707Y025330D01*
X007679Y025303D01*
X007648Y025278D01*
X007615Y025257D01*
X007580Y025239D01*
X007543Y025225D01*
X007506Y025214D01*
X007467Y025207D01*
X007428Y025204D01*
X007389Y025205D01*
X007350Y025210D01*
X007311Y025219D01*
X007274Y025231D01*
X007238Y025247D01*
X007204Y025267D01*
X007172Y025290D01*
X007143Y025316D01*
X007116Y025345D01*
X007092Y025376D01*
X007072Y025410D01*
X007055Y025445D01*
X007042Y025482D01*
X007032Y025520D01*
X007026Y025559D01*
X007024Y025598D01*
X019622Y025598D02*
X019624Y025637D01*
X019630Y025676D01*
X019640Y025714D01*
X019653Y025751D01*
X019670Y025786D01*
X019690Y025820D01*
X019714Y025851D01*
X019741Y025880D01*
X019770Y025906D01*
X019802Y025929D01*
X019836Y025949D01*
X019872Y025965D01*
X019909Y025977D01*
X019948Y025986D01*
X019987Y025991D01*
X020026Y025992D01*
X020065Y025989D01*
X020104Y025982D01*
X020141Y025971D01*
X020178Y025957D01*
X020213Y025939D01*
X020246Y025918D01*
X020277Y025893D01*
X020305Y025866D01*
X020330Y025836D01*
X020352Y025803D01*
X020371Y025769D01*
X020386Y025733D01*
X020398Y025695D01*
X020406Y025657D01*
X020410Y025618D01*
X020410Y025578D01*
X020406Y025539D01*
X020398Y025501D01*
X020386Y025463D01*
X020371Y025427D01*
X020352Y025393D01*
X020330Y025360D01*
X020305Y025330D01*
X020277Y025303D01*
X020246Y025278D01*
X020213Y025257D01*
X020178Y025239D01*
X020141Y025225D01*
X020104Y025214D01*
X020065Y025207D01*
X020026Y025204D01*
X019987Y025205D01*
X019948Y025210D01*
X019909Y025219D01*
X019872Y025231D01*
X019836Y025247D01*
X019802Y025267D01*
X019770Y025290D01*
X019741Y025316D01*
X019714Y025345D01*
X019690Y025376D01*
X019670Y025410D01*
X019653Y025445D01*
X019640Y025482D01*
X019630Y025520D01*
X019624Y025559D01*
X019622Y025598D01*
X023622Y025598D02*
X023624Y025637D01*
X023630Y025676D01*
X023640Y025714D01*
X023653Y025751D01*
X023670Y025786D01*
X023690Y025820D01*
X023714Y025851D01*
X023741Y025880D01*
X023770Y025906D01*
X023802Y025929D01*
X023836Y025949D01*
X023872Y025965D01*
X023909Y025977D01*
X023948Y025986D01*
X023987Y025991D01*
X024026Y025992D01*
X024065Y025989D01*
X024104Y025982D01*
X024141Y025971D01*
X024178Y025957D01*
X024213Y025939D01*
X024246Y025918D01*
X024277Y025893D01*
X024305Y025866D01*
X024330Y025836D01*
X024352Y025803D01*
X024371Y025769D01*
X024386Y025733D01*
X024398Y025695D01*
X024406Y025657D01*
X024410Y025618D01*
X024410Y025578D01*
X024406Y025539D01*
X024398Y025501D01*
X024386Y025463D01*
X024371Y025427D01*
X024352Y025393D01*
X024330Y025360D01*
X024305Y025330D01*
X024277Y025303D01*
X024246Y025278D01*
X024213Y025257D01*
X024178Y025239D01*
X024141Y025225D01*
X024104Y025214D01*
X024065Y025207D01*
X024026Y025204D01*
X023987Y025205D01*
X023948Y025210D01*
X023909Y025219D01*
X023872Y025231D01*
X023836Y025247D01*
X023802Y025267D01*
X023770Y025290D01*
X023741Y025316D01*
X023714Y025345D01*
X023690Y025376D01*
X023670Y025410D01*
X023653Y025445D01*
X023640Y025482D01*
X023630Y025520D01*
X023624Y025559D01*
X023622Y025598D01*
D972*
X014042Y012626D02*
X014040Y012688D01*
X014034Y012749D01*
X014025Y012810D01*
X014012Y012870D01*
X013995Y012929D01*
X013974Y012987D01*
X013950Y013044D01*
X013923Y013099D01*
X013892Y013152D01*
X013858Y013204D01*
X013821Y013253D01*
X013781Y013300D01*
X013738Y013344D01*
X013693Y013385D01*
X013645Y013424D01*
X013594Y013460D01*
X013542Y013492D01*
X013488Y013521D01*
X013432Y013547D01*
X013374Y013569D01*
X013316Y013588D01*
X013256Y013603D01*
X013195Y013614D01*
X013134Y013622D01*
X013073Y013626D01*
X013011Y013626D01*
X012950Y013622D01*
X012889Y013614D01*
X012828Y013603D01*
X012768Y013588D01*
X012710Y013569D01*
X012652Y013547D01*
X012596Y013521D01*
X012542Y013492D01*
X012490Y013460D01*
X012439Y013424D01*
X012391Y013385D01*
X012346Y013344D01*
X012303Y013300D01*
X012263Y013253D01*
X012226Y013204D01*
X012192Y013152D01*
X012161Y013099D01*
X012134Y013044D01*
X012110Y012987D01*
X012089Y012929D01*
X012072Y012870D01*
X012059Y012810D01*
X012050Y012749D01*
X012044Y012688D01*
X012042Y012626D01*
X011092Y012626D02*
X011090Y012564D01*
X011084Y012503D01*
X011075Y012442D01*
X011062Y012382D01*
X011045Y012323D01*
X011024Y012265D01*
X011000Y012208D01*
X010973Y012153D01*
X010942Y012100D01*
X010908Y012048D01*
X010871Y011999D01*
X010831Y011952D01*
X010788Y011908D01*
X010743Y011867D01*
X010695Y011828D01*
X010644Y011792D01*
X010592Y011760D01*
X010538Y011731D01*
X010482Y011705D01*
X010424Y011683D01*
X010366Y011664D01*
X010306Y011649D01*
X010245Y011638D01*
X010184Y011630D01*
X010123Y011626D01*
X010061Y011626D01*
X010000Y011630D01*
X009939Y011638D01*
X009878Y011649D01*
X009818Y011664D01*
X009760Y011683D01*
X009702Y011705D01*
X009646Y011731D01*
X009592Y011760D01*
X009540Y011792D01*
X009489Y011828D01*
X009441Y011867D01*
X009396Y011908D01*
X009353Y011952D01*
X009313Y011999D01*
X009276Y012048D01*
X009242Y012100D01*
X009211Y012153D01*
X009184Y012208D01*
X009160Y012265D01*
X009139Y012323D01*
X009122Y012382D01*
X009109Y012442D01*
X009100Y012503D01*
X009094Y012564D01*
X009092Y012626D01*
M02*
